<?xml version="1.0" encoding="UTF-8"?>
<svg xmlns="http://www.w3.org/2000/svg" width="669" height="81">
   <defs>
      <style type="text/css">
    @namespace "http://www.w3.org/2000/svg";
    .line                 {fill: none; stroke: #332900; stroke-width: 1;}
    .bold-line            {stroke: #141000; shape-rendering: crispEdges; stroke-width: 2;}
    .thin-line            {stroke: #1F1800; shape-rendering: crispEdges}
    .filled               {fill: #332900; stroke: none;}
    text.terminal         {font-family: Verdana, Sans-serif;
                            font-size: 12px;
                            fill: #141000;
                            font-weight: bold;
                          }
    text.nonterminal      {font-family: Verdana, Sans-serif;
                            font-size: 12px;
                            fill: #1A1400;
                            font-weight: normal;
                          }
    text.regexp           {font-family: Verdana, Sans-serif;
                            font-size: 12px;
                            fill: #1F1800;
                            font-weight: normal;
                          }
    rect, circle, polygon {fill: #332900; stroke: #332900;}
    rect.terminal         {fill: #FFDB4D; stroke: #332900; stroke-width: 1;}
    rect.nonterminal      {fill: #FFEC9E; stroke: #332900; stroke-width: 1;}
    rect.text             {fill: none; stroke: none;}
    polygon.regexp        {fill: #FFF4C7; stroke: #332900; stroke-width: 1;}
  </style>
   </defs>
   <polygon points="9 17 1 13 1 21"/>
   <polygon points="17 17 9 13 9 21"/>
   <rect x="31" y="3" width="114" height="32" rx="10"/>
   <rect x="29"
         y="1"
         width="114"
         height="32"
         class="terminal"
         rx="10"/>
   <text class="terminal" x="39" y="21">YYYY/MM/DD</text>
   <a xmlns:xlink="http://www.w3.org/1999/xlink"
      xlink:href="#to"
      xlink:title="to">
      <rect x="185" y="3" width="32" height="32"/>
      <rect x="183" y="1" width="32" height="32" class="nonterminal"/>
      <text class="nonterminal" x="193" y="21">to</text>
   </a>
   <rect x="237" y="3" width="114" height="32" rx="10"/>
   <rect x="235"
         y="1"
         width="114"
         height="32"
         class="terminal"
         rx="10"/>
   <text class="terminal" x="245" y="21">YYYY/MM/DD</text>
   <a xmlns:xlink="http://www.w3.org/1999/xlink"
      xlink:href="#are"
      xlink:title="are">
      <rect x="371" y="3" width="40" height="32"/>
      <rect x="369" y="1" width="40" height="32" class="nonterminal"/>
      <text class="nonterminal" x="379" y="21">are</text>
   </a>
   <a xmlns:xlink="http://www.w3.org/1999/xlink"
      xlink:href="#is"
      xlink:title="is">
      <rect x="185" y="47" width="30" height="32"/>
      <rect x="183" y="45" width="30" height="32" class="nonterminal"/>
      <text class="nonterminal" x="193" y="65">is</text>
   </a>
   <a xmlns:xlink="http://www.w3.org/1999/xlink"
      xlink:href="#colored"
      xlink:title="colored">
      <rect x="451" y="3" width="66" height="32"/>
      <rect x="449" y="1" width="66" height="32" class="nonterminal"/>
      <text class="nonterminal" x="459" y="21">colored</text>
   </a>
   <a xmlns:xlink="http://www.w3.org/1999/xlink"
      xlink:href="#in"
      xlink:title="in">
      <rect x="537" y="3" width="30" height="32"/>
      <rect x="535" y="1" width="30" height="32" class="nonterminal"/>
      <text class="nonterminal" x="545" y="21">in</text>
   </a>
   <rect x="587" y="3" width="54" height="32" rx="10"/>
   <rect x="585"
         y="1"
         width="54"
         height="32"
         class="terminal"
         rx="10"/>
   <text class="terminal" x="595" y="21">color</text>
   <path class="line"
         d="m17 17 h2 m0 0 h10 m114 0 h10 m20 0 h10 m32 0 h10 m0 0 h10 m114 0 h10 m0 0 h10 m40 0 h10 m-266 0 h20 m246 0 h20 m-286 0 q10 0 10 10 m266 0 q0 -10 10 -10 m-276 10 v24 m266 0 v-24 m-266 24 q0 10 10 10 m246 0 q10 0 10 -10 m-256 10 h10 m30 0 h10 m0 0 h196 m20 -44 h10 m66 0 h10 m0 0 h10 m30 0 h10 m0 0 h10 m54 0 h10 m3 0 h-3"/>
   <polygon points="659 17 667 13 667 21"/>
   <polygon points="659 17 651 13 651 21"/>
</svg>
