<?xml version="1.0" encoding="UTF-8"?>
<svg xmlns="http://www.w3.org/2000/svg" width="917" height="135">
   <defs>
      <style type="text/css">
    @namespace "http://www.w3.org/2000/svg";
    .line                 {fill: none; stroke: #332900; stroke-width: 1;}
    .bold-line            {stroke: #141000; shape-rendering: crispEdges; stroke-width: 2;}
    .thin-line            {stroke: #1F1800; shape-rendering: crispEdges}
    .filled               {fill: #332900; stroke: none;}
    text.terminal         {font-family: Verdana, Sans-serif;
                            font-size: 12px;
                            fill: #141000;
                            font-weight: bold;
                          }
    text.nonterminal      {font-family: Verdana, Sans-serif;
                            font-size: 12px;
                            fill: #1A1400;
                            font-weight: normal;
                          }
    text.regexp           {font-family: Verdana, Sans-serif;
                            font-size: 12px;
                            fill: #1F1800;
                            font-weight: normal;
                          }
    rect, circle, polygon {fill: #332900; stroke: #332900;}
    rect.terminal         {fill: #FFDB4D; stroke: #332900; stroke-width: 1;}
    rect.nonterminal      {fill: #FFEC9E; stroke: #332900; stroke-width: 1;}
    rect.text             {fill: none; stroke: none;}
    polygon.regexp        {fill: #FFF4C7; stroke: #332900; stroke-width: 1;}
  </style>
   </defs>
   <polygon points="9 17 1 13 1 21"/>
   <polygon points="17 17 9 13 9 21"/>
   <rect x="31" y="3" width="26" height="32" rx="10"/>
   <rect x="29"
         y="1"
         width="26"
         height="32"
         class="terminal"
         rx="10"/>
   <text class="terminal" x="39" y="21">[</text>
   <rect x="77" y="3" width="86" height="32" rx="10"/>
   <rect x="75"
         y="1"
         width="86"
         height="32"
         class="terminal"
         rx="10"/>
   <text class="terminal" x="85" y="21">taskname</text>
   <rect x="183" y="3" width="26" height="32" rx="10"/>
   <rect x="181"
         y="1"
         width="26"
         height="32"
         class="terminal"
         rx="10"/>
   <text class="terminal" x="191" y="21">]</text>
   <a xmlns:xlink="http://www.w3.org/1999/xlink"
      xlink:href="#starts"
      xlink:title="starts">
      <rect x="229" y="3" width="56" height="32"/>
      <rect x="227" y="1" width="56" height="32" class="nonterminal"/>
      <text class="nonterminal" x="237" y="21">starts</text>
   </a>
   <a xmlns:xlink="http://www.w3.org/1999/xlink"
      xlink:href="#at"
      xlink:title="at">
      <rect x="305" y="3" width="32" height="32"/>
      <rect x="303" y="1" width="32" height="32" class="nonterminal"/>
      <text class="nonterminal" x="313" y="21">at</text>
   </a>
   <rect x="357" y="3" width="26" height="32" rx="10"/>
   <rect x="355"
         y="1"
         width="26"
         height="32"
         class="terminal"
         rx="10"/>
   <text class="terminal" x="365" y="21">[</text>
   <rect x="403" y="3" width="86" height="32" rx="10"/>
   <rect x="401"
         y="1"
         width="86"
         height="32"
         class="terminal"
         rx="10"/>
   <text class="terminal" x="411" y="21">taskname</text>
   <rect x="509" y="3" width="26" height="32" rx="10"/>
   <rect x="507"
         y="1"
         width="26"
         height="32"
         class="terminal"
         rx="10"/>
   <text class="terminal" x="517" y="21">]</text>
   <rect x="555" y="3" width="30" height="32" rx="10"/>
   <rect x="553"
         y="1"
         width="30"
         height="32"
         class="terminal"
         rx="10"/>
   <text class="terminal" x="563" y="21">'s</text>
   <a xmlns:xlink="http://www.w3.org/1999/xlink"
      xlink:href="#end"
      xlink:title="end">
      <rect x="605" y="3" width="44" height="32"/>
      <rect x="603" y="1" width="44" height="32" class="nonterminal"/>
      <text class="nonterminal" x="613" y="21">end</text>
   </a>
   <a xmlns:xlink="http://www.w3.org/1999/xlink"
      xlink:href="#with"
      xlink:title="with">
      <rect x="669" y="3" width="46" height="32"/>
      <rect x="667" y="1" width="46" height="32" class="nonterminal"/>
      <text class="nonterminal" x="677" y="21">with</text>
   </a>
   <rect x="735" y="3" width="54" height="32" rx="10"/>
   <rect x="733"
         y="1"
         width="54"
         height="32"
         class="terminal"
         rx="10"/>
   <text class="terminal" x="743" y="21">color</text>
   <a xmlns:xlink="http://www.w3.org/1999/xlink"
      xlink:href="#bold"
      xlink:title="bold">
      <rect x="829" y="35" width="46" height="32"/>
      <rect x="827" y="33" width="46" height="32" class="nonterminal"/>
      <text class="nonterminal" x="837" y="53">bold</text>
   </a>
   <a xmlns:xlink="http://www.w3.org/1999/xlink"
      xlink:href="#link"
      xlink:title="link">
      <rect x="847" y="101" width="42" height="32"/>
      <rect x="845" y="99" width="42" height="32" class="nonterminal"/>
      <text class="nonterminal" x="855" y="119">link</text>
   </a>
   <path class="line"
         d="m17 17 h2 m0 0 h10 m26 0 h10 m0 0 h10 m86 0 h10 m0 0 h10 m26 0 h10 m0 0 h10 m56 0 h10 m0 0 h10 m32 0 h10 m0 0 h10 m26 0 h10 m0 0 h10 m86 0 h10 m0 0 h10 m26 0 h10 m0 0 h10 m30 0 h10 m0 0 h10 m44 0 h10 m0 0 h10 m46 0 h10 m0 0 h10 m54 0 h10 m20 0 h10 m0 0 h56 m-86 0 h20 m66 0 h20 m-106 0 q10 0 10 10 m86 0 q0 -10 10 -10 m-96 10 v12 m86 0 v-12 m-86 12 q0 10 10 10 m66 0 q10 0 10 -10 m-76 10 h10 m46 0 h10 m22 -32 l2 0 m2 0 l2 0 m2 0 l2 0 m-92 98 l2 0 m2 0 l2 0 m2 0 l2 0 m2 0 h10 m42 0 h10 m3 0 h-3"/>
   <polygon points="907 115 915 111 915 119"/>
   <polygon points="907 115 899 111 899 119"/>
</svg>
