<?xml version="1.0" encoding="UTF-8"?>
<svg xmlns="http://www.w3.org/2000/svg" width="695" height="37">
   <defs>
      <style type="text/css">
    @namespace "http://www.w3.org/2000/svg";
    .line                 {fill: none; stroke: #332900; stroke-width: 1;}
    .bold-line            {stroke: #141000; shape-rendering: crispEdges; stroke-width: 2;}
    .thin-line            {stroke: #1F1800; shape-rendering: crispEdges}
    .filled               {fill: #332900; stroke: none;}
    text.terminal         {font-family: Verdana, Sans-serif;
                            font-size: 12px;
                            fill: #141000;
                            font-weight: bold;
                          }
    text.nonterminal      {font-family: Verdana, Sans-serif;
                            font-size: 12px;
                            fill: #1A1400;
                            font-weight: normal;
                          }
    text.regexp           {font-family: Verdana, Sans-serif;
                            font-size: 12px;
                            fill: #1F1800;
                            font-weight: normal;
                          }
    rect, circle, polygon {fill: #332900; stroke: #332900;}
    rect.terminal         {fill: #FFDB4D; stroke: #332900; stroke-width: 1;}
    rect.nonterminal      {fill: #FFEC9E; stroke: #332900; stroke-width: 1;}
    rect.text             {fill: none; stroke: none;}
    polygon.regexp        {fill: #FFF4C7; stroke: #332900; stroke-width: 1;}
  </style>
   </defs>
   <polygon points="9 17 1 13 1 21"/>
   <polygon points="17 17 9 13 9 21"/>
   <rect x="31" y="3" width="26" height="32" rx="10"/>
   <rect x="29"
         y="1"
         width="26"
         height="32"
         class="terminal"
         rx="10"/>
   <text class="terminal" x="39" y="21">[</text>
   <rect x="77" y="3" width="86" height="32" rx="10"/>
   <rect x="75"
         y="1"
         width="86"
         height="32"
         class="terminal"
         rx="10"/>
   <text class="terminal" x="85" y="21">taskname</text>
   <rect x="183" y="3" width="26" height="32" rx="10"/>
   <rect x="181"
         y="1"
         width="26"
         height="32"
         class="terminal"
         rx="10"/>
   <text class="terminal" x="191" y="21">]</text>
   <a xmlns:xlink="http://www.w3.org/1999/xlink"
      xlink:href="#happens"
      xlink:title="happens">
      <rect x="229" y="3" width="74" height="32"/>
      <rect x="227" y="1" width="74" height="32" class="nonterminal"/>
      <text class="nonterminal" x="237" y="21">happens</text>
   </a>
   <a xmlns:xlink="http://www.w3.org/1999/xlink"
      xlink:href="#at"
      xlink:title="at">
      <rect x="323" y="3" width="32" height="32"/>
      <rect x="321" y="1" width="32" height="32" class="nonterminal"/>
      <text class="nonterminal" x="331" y="21">at</text>
   </a>
   <rect x="375" y="3" width="26" height="32" rx="10"/>
   <rect x="373"
         y="1"
         width="26"
         height="32"
         class="terminal"
         rx="10"/>
   <text class="terminal" x="383" y="21">[</text>
   <rect x="421" y="3" width="86" height="32" rx="10"/>
   <rect x="419"
         y="1"
         width="86"
         height="32"
         class="terminal"
         rx="10"/>
   <text class="terminal" x="429" y="21">taskname</text>
   <rect x="527" y="3" width="26" height="32" rx="10"/>
   <rect x="525"
         y="1"
         width="26"
         height="32"
         class="terminal"
         rx="10"/>
   <text class="terminal" x="535" y="21">]</text>
   <rect x="573" y="3" width="30" height="32" rx="10"/>
   <rect x="571"
         y="1"
         width="30"
         height="32"
         class="terminal"
         rx="10"/>
   <text class="terminal" x="581" y="21">'s</text>
   <a xmlns:xlink="http://www.w3.org/1999/xlink"
      xlink:href="#end"
      xlink:title="end">
      <rect x="623" y="3" width="44" height="32"/>
      <rect x="621" y="1" width="44" height="32" class="nonterminal"/>
      <text class="nonterminal" x="631" y="21">end</text>
   </a>
   <path class="line"
         d="m17 17 h2 m0 0 h10 m26 0 h10 m0 0 h10 m86 0 h10 m0 0 h10 m26 0 h10 m0 0 h10 m74 0 h10 m0 0 h10 m32 0 h10 m0 0 h10 m26 0 h10 m0 0 h10 m86 0 h10 m0 0 h10 m26 0 h10 m0 0 h10 m30 0 h10 m0 0 h10 m44 0 h10 m3 0 h-3"/>
   <polygon points="685 17 693 13 693 21"/>
   <polygon points="685 17 677 13 677 21"/>
</svg>
