<?xml version="1.0" encoding="UTF-8"?>
<svg xmlns="http://www.w3.org/2000/svg" width="885" height="81">
   <defs>
      <style type="text/css">
    @namespace "http://www.w3.org/2000/svg";
    .line                 {fill: none; stroke: #332900; stroke-width: 1;}
    .bold-line            {stroke: #141000; shape-rendering: crispEdges; stroke-width: 2;}
    .thin-line            {stroke: #1F1800; shape-rendering: crispEdges}
    .filled               {fill: #332900; stroke: none;}
    text.terminal         {font-family: Verdana, Sans-serif;
                            font-size: 12px;
                            fill: #141000;
                            font-weight: bold;
                          }
    text.nonterminal      {font-family: Verdana, Sans-serif;
                            font-size: 12px;
                            fill: #1A1400;
                            font-weight: normal;
                          }
    text.regexp           {font-family: Verdana, Sans-serif;
                            font-size: 12px;
                            fill: #1F1800;
                            font-weight: normal;
                          }
    rect, circle, polygon {fill: #332900; stroke: #332900;}
    rect.terminal         {fill: #FFDB4D; stroke: #332900; stroke-width: 1;}
    rect.nonterminal      {fill: #FFEC9E; stroke: #332900; stroke-width: 1;}
    rect.text             {fill: none; stroke: none;}
    polygon.regexp        {fill: #FFF4C7; stroke: #332900; stroke-width: 1;}
  </style>
   </defs>
   <polygon points="9 17 1 13 1 21"/>
   <polygon points="17 17 9 13 9 21"/>
   <rect x="31" y="3" width="26" height="32" rx="10"/>
   <rect x="29"
         y="1"
         width="26"
         height="32"
         class="terminal"
         rx="10"/>
   <text class="terminal" x="39" y="21">[</text>
   <rect x="77" y="3" width="122" height="32" rx="10"/>
   <rect x="75"
         y="1"
         width="122"
         height="32"
         class="terminal"
         rx="10"/>
   <text class="terminal" x="85" y="21">milestonename</text>
   <rect x="219" y="3" width="26" height="32" rx="10"/>
   <rect x="217"
         y="1"
         width="26"
         height="32"
         class="terminal"
         rx="10"/>
   <text class="terminal" x="227" y="21">]</text>
   <a xmlns:xlink="http://www.w3.org/1999/xlink"
      xlink:href="#happens"
      xlink:title="happens">
      <rect x="285" y="3" width="74" height="32"/>
      <rect x="283" y="1" width="74" height="32" class="nonterminal"/>
      <text class="nonterminal" x="293" y="21">happens</text>
   </a>
   <a xmlns:xlink="http://www.w3.org/1999/xlink"
      xlink:href="#at"
      xlink:title="at">
      <rect x="379" y="3" width="32" height="32"/>
      <rect x="377" y="1" width="32" height="32" class="nonterminal"/>
      <text class="nonterminal" x="387" y="21">at</text>
   </a>
   <rect x="431" y="3" width="26" height="32" rx="10"/>
   <rect x="429"
         y="1"
         width="26"
         height="32"
         class="terminal"
         rx="10"/>
   <text class="terminal" x="439" y="21">[</text>
   <rect x="477" y="3" width="86" height="32" rx="10"/>
   <rect x="475"
         y="1"
         width="86"
         height="32"
         class="terminal"
         rx="10"/>
   <text class="terminal" x="485" y="21">taskname</text>
   <rect x="583" y="3" width="38" height="32" rx="10"/>
   <rect x="581"
         y="1"
         width="38"
         height="32"
         class="terminal"
         rx="10"/>
   <text class="terminal" x="591" y="21">]'s</text>
   <a xmlns:xlink="http://www.w3.org/1999/xlink"
      xlink:href="#end"
      xlink:title="end">
      <rect x="641" y="3" width="44" height="32"/>
      <rect x="639" y="1" width="44" height="32" class="nonterminal"/>
      <text class="nonterminal" x="649" y="21">end</text>
   </a>
   <a xmlns:xlink="http://www.w3.org/1999/xlink"
      xlink:href="#displays"
      xlink:title="displays">
      <rect x="285" y="47" width="72" height="32"/>
      <rect x="283" y="45" width="72" height="32" class="nonterminal"/>
      <text class="nonterminal" x="293" y="65">displays</text>
   </a>
   <a xmlns:xlink="http://www.w3.org/1999/xlink"
      xlink:href="#on"
      xlink:title="on">
      <rect x="377" y="47" width="36" height="32"/>
      <rect x="375" y="45" width="36" height="32" class="nonterminal"/>
      <text class="nonterminal" x="385" y="65">on</text>
   </a>
   <a xmlns:xlink="http://www.w3.org/1999/xlink"
      xlink:href="#same"
      xlink:title="same">
      <rect x="433" y="47" width="54" height="32"/>
      <rect x="431" y="45" width="54" height="32" class="nonterminal"/>
      <text class="nonterminal" x="441" y="65">same</text>
   </a>
   <a xmlns:xlink="http://www.w3.org/1999/xlink"
      xlink:href="#row"
      xlink:title="row">
      <rect x="507" y="47" width="42" height="32"/>
      <rect x="505" y="45" width="42" height="32" class="nonterminal"/>
      <text class="nonterminal" x="515" y="65">row</text>
   </a>
   <a xmlns:xlink="http://www.w3.org/1999/xlink"
      xlink:href="#as"
      xlink:title="as">
      <rect x="569" y="47" width="34" height="32"/>
      <rect x="567" y="45" width="34" height="32" class="nonterminal"/>
      <text class="nonterminal" x="577" y="65">as</text>
   </a>
   <rect x="623" y="47" width="26" height="32" rx="10"/>
   <rect x="621"
         y="45"
         width="26"
         height="32"
         class="terminal"
         rx="10"/>
   <text class="terminal" x="631" y="65">[</text>
   <rect x="669" y="47" width="122" height="32" rx="10"/>
   <rect x="667"
         y="45"
         width="122"
         height="32"
         class="terminal"
         rx="10"/>
   <text class="terminal" x="677" y="65">milestonename</text>
   <rect x="811" y="47" width="26" height="32" rx="10"/>
   <rect x="809"
         y="45"
         width="26"
         height="32"
         class="terminal"
         rx="10"/>
   <text class="terminal" x="819" y="65">]</text>
   <path class="line"
         d="m17 17 h2 m0 0 h10 m26 0 h10 m0 0 h10 m122 0 h10 m0 0 h10 m26 0 h10 m20 0 h10 m74 0 h10 m0 0 h10 m32 0 h10 m0 0 h10 m26 0 h10 m0 0 h10 m86 0 h10 m0 0 h10 m38 0 h10 m0 0 h10 m44 0 h10 m0 0 h152 m-592 0 h20 m572 0 h20 m-612 0 q10 0 10 10 m592 0 q0 -10 10 -10 m-602 10 v24 m592 0 v-24 m-592 24 q0 10 10 10 m572 0 q10 0 10 -10 m-582 10 h10 m72 0 h10 m0 0 h10 m36 0 h10 m0 0 h10 m54 0 h10 m0 0 h10 m42 0 h10 m0 0 h10 m34 0 h10 m0 0 h10 m26 0 h10 m0 0 h10 m122 0 h10 m0 0 h10 m26 0 h10 m23 -44 h-3"/>
   <polygon points="875 17 883 13 883 21"/>
   <polygon points="875 17 867 13 867 21"/>
</svg>
