<?xml version="1.0" encoding="UTF-8"?>
<svg xmlns="http://www.w3.org/2000/svg" width="841" height="113">
   <defs>
      <style type="text/css">
    @namespace "http://www.w3.org/2000/svg";
    .line                 {fill: none; stroke: #332900; stroke-width: 1;}
    .bold-line            {stroke: #141000; shape-rendering: crispEdges; stroke-width: 2;}
    .thin-line            {stroke: #1F1800; shape-rendering: crispEdges}
    .filled               {fill: #332900; stroke: none;}
    text.terminal         {font-family: Verdana, Sans-serif;
                            font-size: 12px;
                            fill: #141000;
                            font-weight: bold;
                          }
    text.nonterminal      {font-family: Verdana, Sans-serif;
                            font-size: 12px;
                            fill: #1A1400;
                            font-weight: normal;
                          }
    text.regexp           {font-family: Verdana, Sans-serif;
                            font-size: 12px;
                            fill: #1F1800;
                            font-weight: normal;
                          }
    rect, circle, polygon {fill: #332900; stroke: #332900;}
    rect.terminal         {fill: #FFDB4D; stroke: #332900; stroke-width: 1;}
    rect.nonterminal      {fill: #FFEC9E; stroke: #332900; stroke-width: 1;}
    rect.text             {fill: none; stroke: none;}
    polygon.regexp        {fill: #FFF4C7; stroke: #332900; stroke-width: 1;}
  </style>
   </defs>
   <polygon points="9 17 1 13 1 21"/>
   <polygon points="17 17 9 13 9 21"/>
   <a xmlns:xlink="http://www.w3.org/1999/xlink"
      xlink:href="#today"
      xlink:title="today">
      <rect x="31" y="3" width="56" height="32"/>
      <rect x="29" y="1" width="56" height="32" class="nonterminal"/>
      <text class="nonterminal" x="39" y="21">today</text>
   </a>
   <a xmlns:xlink="http://www.w3.org/1999/xlink"
      xlink:href="#is"
      xlink:title="is">
      <rect x="107" y="3" width="30" height="32"/>
      <rect x="105" y="1" width="30" height="32" class="nonterminal"/>
      <text class="nonterminal" x="115" y="21">is</text>
   </a>
   <rect x="197" y="35" width="114" height="32" rx="10"/>
   <rect x="195"
         y="33"
         width="114"
         height="32"
         class="terminal"
         rx="10"/>
   <text class="terminal" x="205" y="53">YYYY/MM/DD</text>
   <rect x="197" y="79" width="36" height="32" rx="10"/>
   <rect x="195"
         y="77"
         width="36"
         height="32"
         class="terminal"
         rx="10"/>
   <text class="terminal" x="205" y="97">nn</text>
   <a xmlns:xlink="http://www.w3.org/1999/xlink"
      xlink:href="#days"
      xlink:title="days">
      <rect x="253" y="79" width="50" height="32"/>
      <rect x="251" y="77" width="50" height="32" class="nonterminal"/>
      <text class="nonterminal" x="261" y="97">days</text>
   </a>
   <a xmlns:xlink="http://www.w3.org/1999/xlink"
      xlink:href="#after"
      xlink:title="after">
      <rect x="323" y="79" width="50" height="32"/>
      <rect x="321" y="77" width="50" height="32" class="nonterminal"/>
      <text class="nonterminal" x="331" y="97">after</text>
   </a>
   <a xmlns:xlink="http://www.w3.org/1999/xlink"
      xlink:href="#starts"
      xlink:title="starts">
      <rect x="393" y="79" width="56" height="32"/>
      <rect x="391" y="77" width="56" height="32" class="nonterminal"/>
      <text class="nonterminal" x="401" y="97">starts</text>
   </a>
   <a xmlns:xlink="http://www.w3.org/1999/xlink"
      xlink:href="#and"
      xlink:title="and">
      <rect x="489" y="35" width="44" height="32"/>
      <rect x="487" y="33" width="44" height="32" class="nonterminal"/>
      <text class="nonterminal" x="497" y="53">and</text>
   </a>
   <a xmlns:xlink="http://www.w3.org/1999/xlink"
      xlink:href="#is"
      xlink:title="is">
      <rect x="553" y="35" width="30" height="32"/>
      <rect x="551" y="33" width="30" height="32" class="nonterminal"/>
      <text class="nonterminal" x="561" y="53">is</text>
   </a>
   <a xmlns:xlink="http://www.w3.org/1999/xlink"
      xlink:href="#colored"
      xlink:title="colored">
      <rect x="623" y="3" width="66" height="32"/>
      <rect x="621" y="1" width="66" height="32" class="nonterminal"/>
      <text class="nonterminal" x="631" y="21">colored</text>
   </a>
   <a xmlns:xlink="http://www.w3.org/1999/xlink"
      xlink:href="#in"
      xlink:title="in">
      <rect x="709" y="3" width="30" height="32"/>
      <rect x="707" y="1" width="30" height="32" class="nonterminal"/>
      <text class="nonterminal" x="717" y="21">in</text>
   </a>
   <rect x="759" y="3" width="54" height="32" rx="10"/>
   <rect x="757"
         y="1"
         width="54"
         height="32"
         class="terminal"
         rx="10"/>
   <text class="terminal" x="767" y="21">color</text>
   <path class="line"
         d="m17 17 h2 m0 0 h10 m56 0 h10 m0 0 h10 m30 0 h10 m20 0 h10 m0 0 h416 m-446 0 h20 m426 0 h20 m-466 0 q10 0 10 10 m446 0 q0 -10 10 -10 m-456 10 v12 m446 0 v-12 m-446 12 q0 10 10 10 m426 0 q10 0 10 -10 m-416 10 h10 m114 0 h10 m0 0 h138 m-292 0 h20 m272 0 h20 m-312 0 q10 0 10 10 m292 0 q0 -10 10 -10 m-302 10 v24 m292 0 v-24 m-292 24 q0 10 10 10 m272 0 q10 0 10 -10 m-282 10 h10 m36 0 h10 m0 0 h10 m50 0 h10 m0 0 h10 m50 0 h10 m0 0 h10 m56 0 h10 m20 -44 h10 m44 0 h10 m0 0 h10 m30 0 h10 m20 -32 h10 m66 0 h10 m0 0 h10 m30 0 h10 m0 0 h10 m54 0 h10 m3 0 h-3"/>
   <polygon points="831 17 839 13 839 21"/>
   <polygon points="831 17 823 13 823 21"/>
</svg>
