<?xml version="1.0" encoding="UTF-8"?> <svg xmlns="http://www.w3.org/2000/svg" xmlns:xlink="http://www.w3.org/1999/xlink" width="3029" height="1237" overflow="hidden"><defs><clipPath id="clip0"><rect x="142" y="600" width="3029" height="1237"></rect></clipPath></defs><g clip-path="url(#clip0)" transform="translate(-142 -600)"><text fill="#343333" fill-opacity="1" font-family="Arial,Arial_MSFontService,sans-serif" font-style="normal" font-variant="normal" font-weight="700" font-stretch="normal" font-size="55" text-anchor="start" direction="ltr" writing-mode="lr-tb" text-decoration="none" transform="matrix(1 0 0 1 1093.16 817)">Ready<tspan fill="#343333" fill-opacity="1" font-family="Arial,Arial_MSFontService,sans-serif" font-style="normal" font-variant="normal" font-weight="700" font-stretch="normal" font-size="55" text-anchor="start" direction="ltr" writing-mode="lr-tb" text-decoration="none" x="-435.056" y="0">Defining</tspan><tspan fill="#343333" fill-opacity="1" font-family="Arial,Arial_MSFontService,sans-serif" font-style="normal" font-variant="normal" font-weight="700" font-stretch="normal" font-size="55" text-anchor="start" direction="ltr" writing-mode="lr-tb" text-decoration="none" x="1760.78" y="0">Done</tspan><tspan fill="#EC5945" fill-opacity="1" font-family="Arial,Arial_MSFontService,sans-serif" font-style="normal" font-variant="normal" font-weight="700" font-stretch="normal" font-size="48" text-anchor="start" direction="ltr" writing-mode="lr-tb" text-decoration="none" x="77.2505" y="-151">4</tspan><tspan fill="#EC5945" fill-opacity="1" font-family="Arial,Arial_MSFontService,sans-serif" font-style="normal" font-variant="normal" font-weight="700" font-stretch="normal" font-size="48" text-anchor="start" direction="ltr" writing-mode="lr-tb" text-decoration="none" x="411.165" y="-151">2</tspan><tspan fill="#EC5945" fill-opacity="1" font-family="Arial,Arial_MSFontService,sans-serif" font-style="normal" font-variant="normal" font-weight="700" font-stretch="normal" font-size="48" text-anchor="start" direction="ltr" writing-mode="lr-tb" text-decoration="none" x="965.316" y="-151">6</tspan><tspan fill="#EC5945" fill-opacity="1" font-family="Arial,Arial_MSFontService,sans-serif" font-style="normal" font-variant="normal" font-weight="700" font-stretch="normal" font-size="48" text-anchor="start" direction="ltr" writing-mode="lr-tb" text-decoration="none" x="1405.82" y="-151">6</tspan></text><path d="M159.29 881.941 3118.68 881.941C3122.55 882.046 3125.82 879.895 3125.98 877.135 3126.12 874.377 3123.1 872.054 3119.21 871.949 3119.03 871.944 3118.85 871.944 3118.68 871.949L159.29 871.949C155.406 871.843 152.138 873.995 151.989 876.754 151.841 879.513 154.868 881.836 158.752 881.941 158.931 881.946 159.11 881.946 159.29 881.941" fill="#7A7A7A" fill-rule="evenodd" fill-opacity="1"></path><text fill="#FFFFFF" fill-opacity="1" font-family="Arial,Arial_MSFontService,sans-serif" font-style="normal" font-variant="normal" font-weight="700" font-stretch="normal" font-size="35" text-anchor="start" direction="ltr" writing-mode="lr-tb" text-decoration="none" transform="matrix(-1.83697e-16 -1 1 -1.83697e-16 934.488 1188)">Expedite</text><text fill="#343333" fill-opacity="1" font-family="Arial,Arial_MSFontService,sans-serif" font-style="normal" font-variant="normal" font-weight="700" font-stretch="normal" font-size="41" text-anchor="start" direction="ltr" writing-mode="lr-tb" text-decoration="none" transform="matrix(1 0 0 1 1497.63 931)">In <tspan fill="#343333" fill-opacity="1" font-family="Arial,Arial_MSFontService,sans-serif" font-style="normal" font-variant="normal" font-weight="700" font-stretch="normal" font-size="41" text-anchor="start" direction="ltr" writing-mode="lr-tb" text-decoration="none" x="-69.8959" y="45">progress</tspan><tspan fill="#343333" fill-opacity="1" font-family="Arial,Arial_MSFontService,sans-serif" font-style="normal" font-variant="normal" font-weight="700" font-stretch="normal" font-size="41" text-anchor="start" direction="ltr" writing-mode="lr-tb" text-decoration="none" x="188.833" y="45">Ready</tspan></text><path d="M1097.43 1103 1000 1103 1000 975 1136 975 1136 1066.38 1097.43 1103Z" fill="#D0E06B" fill-rule="evenodd" fill-opacity="1"></path><path d="M1097.35 1102.81 1097.35 1099.63 1003.38 1099.63 1003.38 978.372 1132.62 978.372 1132.62 1064.94 1095.15 1100.51 1097.35 1102.81 1097.35 1099.63 1097.35 1102.81 1099.56 1105.12 1139 1067.67 1139 972 997 972 997 1106 1098.63 1106 1099.56 1105.12 1097.35 1102.81Z" fill="#AEBD24" fill-rule="evenodd" fill-opacity="1"></path><path d="M1097 1103 1136 1066 1097 1066 1097 1103Z" fill="#AEBD37" fill-rule="evenodd" fill-opacity="1"></path><text fill="#343333" fill-opacity="1" font-family="Arial,Arial_MSFontService,sans-serif" font-style="normal" font-variant="normal" font-weight="700" font-stretch="normal" font-size="55" text-anchor="start" direction="ltr" writing-mode="lr-tb" text-decoration="none" transform="matrix(1 0 0 1 1922.38 770)">Integrating<tspan fill="#343333" fill-opacity="1" font-family="Arial,Arial_MSFontService,sans-serif" font-style="normal" font-variant="normal" font-weight="700" font-stretch="normal" font-size="55" text-anchor="start" direction="ltr" writing-mode="lr-tb" text-decoration="none" x="-4.58337" y="59">and testing</tspan><tspan fill="#343333" fill-opacity="1" font-family="Arial,Arial_MSFontService,sans-serif" font-style="normal" font-variant="normal" font-weight="700" font-stretch="normal" font-size="55" text-anchor="start" direction="ltr" writing-mode="lr-tb" text-decoration="none" x="454.747" y="47">Validating</tspan></text><path d="M1562.43 1162 1465 1162 1465 1034 1601 1034 1601 1125.38 1562.43 1162Z" fill="#D0E06B" fill-rule="evenodd" fill-opacity="1"></path><path d="M1562.35 1161.81 1562.35 1158.63 1468.38 1158.63 1468.38 1037.37 1597.62 1037.37 1597.62 1123.94 1560.15 1159.51 1562.35 1161.81 1562.35 1158.63 1562.35 1161.81 1564.56 1164.12 1604 1126.67 1604 1031 1462 1031 1462 1165 1563.63 1165 1564.56 1164.12 1562.35 1161.81Z" fill="#AEBD24" fill-rule="evenodd" fill-opacity="1"></path><path d="M1562 1162 1601 1125 1562 1125 1562 1162Z" fill="#AEBD37" fill-rule="evenodd" fill-opacity="1"></path><path d="M286.716 1075 190 1075 190 947 325 947 325 1038.38 286.716 1075Z" fill="#D0E06B" fill-rule="evenodd" fill-opacity="1"></path><path d="M286.354 1074.79 286.354 1071.58 192.382 1071.58 192.382 949.419 321.618 949.419 321.618 1036.64 284.149 1072.47 286.354 1074.79 286.354 1071.58 286.354 1074.79 288.559 1077.11 328 1039.39 328 943 186 943 186 1078 287.634 1078 288.559 1077.11 286.354 1074.79Z" fill="#AEBD24" fill-rule="evenodd" fill-opacity="1"></path><path d="M287 1075 325 1038 287 1038 287 1075Z" fill="#AEBD37" fill-rule="evenodd" fill-opacity="1"></path><path d="M1784.72 1279 1688 1279 1688 1151 1823 1151 1823 1242.38 1784.72 1279Z" fill="#D0E06B" fill-rule="evenodd" fill-opacity="1"></path><path d="M1784.35 1278.81 1784.35 1275.63 1690.38 1275.63 1690.38 1154.37 1819.62 1154.37 1819.62 1240.94 1782.15 1276.51 1784.35 1278.81 1784.35 1275.63 1784.35 1278.81 1786.56 1281.12 1826 1243.67 1826 1148 1684 1148 1684 1282 1785.63 1282 1786.56 1281.12 1784.35 1278.81Z" fill="#AEBD24" fill-rule="evenodd" fill-opacity="1"></path><path d="M1785 1279 1823 1242 1785 1242 1785 1279Z" fill="#AEBD37" fill-rule="evenodd" fill-opacity="1"></path><path d="M1564.72 1384 1468 1384 1468 1256 1603 1256 1603 1347.38 1564.72 1384Z" fill="#D0E06B" fill-rule="evenodd" fill-opacity="1"></path><path d="M1564.65 1384.79 1564.65 1381.58 1471.34 1381.58 1471.34 1259.42 1599.66 1259.42 1599.66 1346.64 1562.46 1382.47 1564.65 1384.79 1564.65 1381.58 1564.65 1384.79 1566.84 1387.11 1606 1349.39 1606 1253 1465 1253 1465 1388 1565.92 1388 1566.84 1387.11 1564.65 1384.79Z" fill="#AEBD24" fill-rule="evenodd" fill-opacity="1"></path><path d="M1565 1384 1603 1348 1565 1348 1565 1384Z" fill="#AEBD37" fill-rule="evenodd" fill-opacity="1"></path><path d="M1784.72 1545 1688 1545 1688 1417 1823 1417 1823 1508.38 1784.72 1545Z" fill="#D0E06B" fill-rule="evenodd" fill-opacity="1"></path><path d="M1784.35 1544.81 1784.35 1541.63 1690.38 1541.63 1690.38 1420.37 1819.62 1420.37 1819.62 1506.94 1782.15 1542.51 1784.35 1544.81 1784.35 1541.63 1784.35 1544.81 1786.56 1547.12 1826 1509.67 1826 1414 1684 1414 1684 1548 1785.63 1548 1786.56 1547.12 1784.35 1544.81Z" fill="#AEBD24" fill-rule="evenodd" fill-opacity="1"></path><path d="M1785 1545 1823 1508 1785 1508 1785 1545Z" fill="#AEBD37" fill-rule="evenodd" fill-opacity="1"></path><path d="M1129.72 1199 1033 1199 1033 1071 1168 1071 1168 1162.38 1129.72 1199Z" fill="#D0E06B" fill-rule="evenodd" fill-opacity="1"></path><path d="M1129.35 1198.81 1129.35 1195.63 1035.38 1195.63 1035.38 1074.37 1164.62 1074.37 1164.62 1160.94 1127.15 1196.51 1129.35 1198.81 1129.35 1195.63 1129.35 1198.81 1131.56 1201.12 1171 1163.67 1171 1068 1029 1068 1029 1202 1130.63 1202 1131.56 1201.12 1129.35 1198.81Z" fill="#AEBD24" fill-rule="evenodd" fill-opacity="1"></path><path d="M1130 1199 1168 1162 1130 1162 1130 1199Z" fill="#AEBD37" fill-rule="evenodd" fill-opacity="1"></path><path d="M1329.72 1095 1233 1095 1233 967 1368 967 1368 1058.38 1329.72 1095Z" fill="#D0E06B" fill-rule="evenodd" fill-opacity="1"></path><path d="M1329.35 1094.81 1329.35 1091.63 1235.38 1091.63 1235.38 970.372 1364.62 970.372 1364.62 1056.94 1327.15 1092.51 1329.35 1094.81 1329.35 1091.63 1329.35 1094.81 1331.56 1097.12 1371 1059.67 1371 964 1229 964 1229 1098 1330.63 1098 1331.56 1097.12 1329.35 1094.81Z" fill="#AEBD24" fill-rule="evenodd" fill-opacity="1"></path><path d="M1330 1095 1368 1058 1330 1058 1330 1095Z" fill="#AEBD37" fill-rule="evenodd" fill-opacity="1"></path><path d="M1114.72 1402 1018 1402 1018 1274 1153 1274 1153 1365.38 1114.72 1402Z" fill="#D0E06B" fill-rule="evenodd" fill-opacity="1"></path><path d="M1115.35 1401.81 1115.35 1398.63 1021.38 1398.63 1021.38 1277.37 1150.62 1277.37 1150.62 1363.94 1113.15 1399.51 1115.35 1401.81 1115.35 1398.63 1115.35 1401.81 1117.56 1404.12 1157 1366.67 1157 1271 1015 1271 1015 1405 1116.63 1405 1117.56 1404.12 1115.35 1401.81Z" fill="#AEBD24" fill-rule="evenodd" fill-opacity="1"></path><path d="M1115 1402 1153 1365 1115 1365 1115 1402Z" fill="#AEBD37" fill-rule="evenodd" fill-opacity="1"></path><path d="M314.432 1102 217 1102 217 974 353 974 353 1065.38 314.432 1102Z" fill="#D0E06B" fill-rule="evenodd" fill-opacity="1"></path><path d="M314.354 1101.81 314.354 1098.63 220.382 1098.63 220.382 977.372 349.618 977.372 349.618 1063.94 312.149 1099.51 314.354 1101.81 314.354 1098.63 314.354 1101.81 316.559 1104.12 356 1066.67 356 971 214 971 214 1105 315.634 1105 316.559 1104.12 314.354 1101.81Z" fill="#AEBD24" fill-rule="evenodd" fill-opacity="1"></path><path d="M314 1102 353 1065 314 1065 314 1102Z" fill="#AEBD37" fill-rule="evenodd" fill-opacity="1"></path><path d="M461.716 1437 365 1437 365 1309 500 1309 500 1400.38 461.716 1437Z" fill="#D0E06B" fill-rule="evenodd" fill-opacity="1"></path><path d="M461.647 1436.81 461.647 1433.63 368.337 1433.63 368.337 1312.37 496.663 1312.37 496.663 1398.94 459.458 1434.51 461.647 1436.81 461.647 1433.63 461.647 1436.81 463.837 1439.12 503 1401.67 503 1306 362 1306 362 1440 462.918 1440 463.837 1439.12 461.647 1436.81Z" fill="#AEBD24" fill-rule="evenodd" fill-opacity="1"></path><path d="M462 1437 500 1400 462 1400 462 1437Z" fill="#AEBD37" fill-rule="evenodd" fill-opacity="1"></path><path d="M279.432 1434 182 1434 182 1306 318 1306 318 1397.38 279.432 1434Z" fill="#D0E06B" fill-rule="evenodd" fill-opacity="1"></path><path d="M279.354 1433.81 279.354 1430.63 185.382 1430.63 185.382 1309.37 314.618 1309.37 314.618 1395.94 277.149 1431.51 279.354 1433.81 279.354 1430.63 279.354 1433.81 281.559 1436.12 321 1398.67 321 1303 179 1303 179 1437 280.634 1437 281.559 1436.12 279.354 1433.81Z" fill="#AEBD24" fill-rule="evenodd" fill-opacity="1"></path><path d="M279 1434 318 1398 279 1398 279 1434Z" fill="#AEBD37" fill-rule="evenodd" fill-opacity="1"></path><path d="M476.432 1644 379 1644 379 1516 515 1516 515 1607.38 476.432 1644Z" fill="#D0E06B" fill-rule="evenodd" fill-opacity="1"></path><path d="M476.354 1643.81 476.354 1640.63 382.382 1640.63 382.382 1519.37 511.618 1519.37 511.618 1605.94 474.149 1641.51 476.354 1643.81 476.354 1640.63 476.354 1643.81 478.559 1646.12 518 1608.67 518 1513 376 1513 376 1647 477.634 1647 478.559 1646.12 476.354 1643.81Z" fill="#AEBD24" fill-rule="evenodd" fill-opacity="1"></path><path d="M477 1644 515 1607 477 1607 477 1644Z" fill="#AEBD37" fill-rule="evenodd" fill-opacity="1"></path><path d="M279.432 1637 182 1637 182 1509 318 1509 318 1600.38 279.432 1637Z" fill="#D0E06B" fill-rule="evenodd" fill-opacity="1"></path><path d="M279.354 1636.81 279.354 1633.63 185.382 1633.63 185.382 1512.37 314.618 1512.37 314.618 1598.94 277.149 1634.51 279.354 1636.81 279.354 1633.63 279.354 1636.81 281.559 1639.12 321 1601.67 321 1506 179 1506 179 1640 280.634 1640 281.559 1639.12 279.354 1636.81Z" fill="#AEBD24" fill-rule="evenodd" fill-opacity="1"></path><path d="M279 1637 318 1600 279 1600 279 1637Z" fill="#AEBD37" fill-rule="evenodd" fill-opacity="1"></path><path d="M496.716 1075 400 1075 400 947 535 947 535 1038.38 496.716 1075Z" fill="#D0E06B" fill-rule="evenodd" fill-opacity="1"></path><path d="M496.354 1074.79 496.354 1071.58 402.382 1071.58 402.382 949.419 531.618 949.419 531.618 1036.64 494.149 1072.47 496.354 1074.79 496.354 1071.58 496.354 1074.79 498.559 1077.11 538 1039.39 538 943 396 943 396 1078 497.634 1078 498.559 1077.11 496.354 1074.79Z" fill="#AEBD24" fill-rule="evenodd" fill-opacity="1"></path><path d="M497 1075 535 1038 497 1038 497 1075Z" fill="#AEBD37" fill-rule="evenodd" fill-opacity="1"></path><path d="M468.716 1269 372 1269 372 1141 507 1141 507 1232.38 468.716 1269Z" fill="#D0E06B" fill-rule="evenodd" fill-opacity="1"></path><path d="M469.354 1268.81 469.354 1265.63 375.382 1265.63 375.382 1144.37 504.618 1144.37 504.618 1230.94 467.149 1266.51 469.354 1268.81 469.354 1265.63 469.354 1268.81 471.559 1271.12 511 1233.67 511 1138 369 1138 369 1272 470.634 1272 471.559 1271.12 469.354 1268.81Z" fill="#AEBD24" fill-rule="evenodd" fill-opacity="1"></path><path d="M469 1269 507 1233 469 1233 469 1269Z" fill="#AEBD37" fill-rule="evenodd" fill-opacity="1"></path><path d="M286.432 1267 189 1267 189 1139 325 1139 325 1230.38 286.432 1267Z" fill="#D0E06B" fill-rule="evenodd" fill-opacity="1"></path><path d="M286.354 1266.81 286.354 1263.63 192.382 1263.63 192.382 1142.37 321.618 1142.37 321.618 1228.94 284.149 1264.51 286.354 1266.81 286.354 1263.63 286.354 1266.81 288.559 1269.12 328 1231.67 328 1136 186 1136 186 1270 287.634 1270 288.559 1269.12 286.354 1266.81Z" fill="#AEBD24" fill-rule="evenodd" fill-opacity="1"></path><path d="M286 1267 325 1230 286 1230 286 1267Z" fill="#AEBD37" fill-rule="evenodd" fill-opacity="1"></path><path d="M2202.43 1300 2105 1300 2105 1172 2241 1172 2241 1263.38 2202.43 1300Z" fill="#D0E06B" fill-rule="evenodd" fill-opacity="1"></path><path d="M2202.35 1299.81 2202.35 1296.63 2108.38 1296.63 2108.38 1175.37 2237.62 1175.37 2237.62 1261.94 2200.15 1297.51 2202.35 1299.81 2202.35 1296.63 2202.35 1299.81 2204.56 1302.12 2244 1264.67 2244 1169 2102 1169 2102 1303 2203.63 1303 2204.56 1302.12 2202.35 1299.81Z" fill="#AEBD24" fill-rule="evenodd" fill-opacity="1"></path><path d="M2203 1300 2241 1264 2203 1264 2203 1300Z" fill="#AEBD37" fill-rule="evenodd" fill-opacity="1"></path><path d="M2019.43 1315 1922 1315 1922 1187 2058 1187 2058 1278.38 2019.43 1315Z" fill="#D0E06B" fill-rule="evenodd" fill-opacity="1"></path><path d="M2019.35 1314.79 2019.35 1311.58 1925.38 1311.58 1925.38 1189.42 2054.62 1189.42 2054.62 1276.64 2017.15 1312.47 2019.35 1314.79 2019.35 1311.58 2019.35 1314.79 2021.56 1317.11 2061 1279.39 2061 1183 1919 1183 1919 1318 2020.63 1318 2021.56 1317.11 2019.35 1314.79Z" fill="#AEBD24" fill-rule="evenodd" fill-opacity="1"></path><path d="M2019 1315 2058 1278 2019 1278 2019 1315Z" fill="#AEBD37" fill-rule="evenodd" fill-opacity="1"></path><path d="M2198.43 1116 2101 1116 2101 988 2237 988 2237 1079.38 2198.43 1116Z" fill="#D0E06B" fill-rule="evenodd" fill-opacity="1"></path><path d="M2198.35 1115.81 2198.35 1112.63 2104.38 1112.63 2104.38 991.372 2233.62 991.372 2233.62 1077.94 2196.15 1113.51 2198.35 1115.81 2198.35 1112.63 2198.35 1115.81 2200.56 1118.12 2240 1080.67 2240 985 2098 985 2098 1119 2199.63 1119 2200.56 1118.12 2198.35 1115.81Z" fill="#AEBD24" fill-rule="evenodd" fill-opacity="1"></path><path d="M2198 1116 2237 1079 2198 1079 2198 1116Z" fill="#AEBD37" fill-rule="evenodd" fill-opacity="1"></path><path d="M2001.43 1107 1904 1107 1904 980 2040 980 2040 1070.67 2001.43 1107Z" fill="#D0E06B" fill-rule="evenodd" fill-opacity="1"></path><path d="M2001.35 1107.79 2001.35 1104.58 1907.38 1104.58 1907.38 982.419 2036.62 982.419 2036.62 1069.64 1999.15 1105.47 2001.35 1107.79 2001.35 1104.58 2001.35 1107.79 2003.56 1110.11 2043 1072.39 2043 976 1901 976 1901 1111 2002.63 1111 2003.56 1110.11 2001.35 1107.79Z" fill="#AEBD24" fill-rule="evenodd" fill-opacity="1"></path><path d="M2002 1107 2040 1071 2002 1071 2002 1107Z" fill="#AEBD37" fill-rule="evenodd" fill-opacity="1"></path><path d="M2207.43 1551 2110 1551 2110 1423 2246 1423 2246 1514.38 2207.43 1551Z" fill="#D0E06B" fill-rule="evenodd" fill-opacity="1"></path><path d="M2207.35 1550.81 2207.35 1547.63 2113.38 1547.63 2113.38 1426.37 2242.62 1426.37 2242.62 1512.94 2205.15 1548.51 2207.35 1550.81 2207.35 1547.63 2207.35 1550.81 2209.56 1553.12 2249 1515.67 2249 1420 2107 1420 2107 1554 2208.63 1554 2209.56 1553.12 2207.35 1550.81Z" fill="#AEBD24" fill-rule="evenodd" fill-opacity="1"></path><path d="M2207 1551 2246 1515 2207 1515 2207 1551Z" fill="#AEBD37" fill-rule="evenodd" fill-opacity="1"></path><path d="M2009.72 1544 1913 1544 1913 1416 2048 1416 2048 1507.38 2009.72 1544Z" fill="#D0E06B" fill-rule="evenodd" fill-opacity="1"></path><path d="M2010.35 1543.81 2010.35 1540.63 1916.38 1540.63 1916.38 1419.37 2045.62 1419.37 2045.62 1505.94 2008.15 1541.51 2010.35 1543.81 2010.35 1540.63 2010.35 1543.81 2012.56 1546.12 2052 1508.67 2052 1413 1910 1413 1910 1547 2011.63 1547 2012.56 1546.12 2010.35 1543.81Z" fill="#AEBD24" fill-rule="evenodd" fill-opacity="1"></path><path d="M2010 1544 2048 1508 2010 1508 2010 1544Z" fill="#AEBD37" fill-rule="evenodd" fill-opacity="1"></path><path d="M2626.72 1088 2530 1088 2530 960 2665 960 2665 1051.38 2626.72 1088Z" fill="#D0E06B" fill-rule="evenodd" fill-opacity="1"></path><path d="M2627.35 1087.81 2627.35 1084.63 2533.38 1084.63 2533.38 963.372 2662.62 963.372 2662.62 1049.94 2625.15 1085.51 2627.35 1087.81 2627.35 1084.63 2627.35 1087.81 2629.56 1090.12 2669 1052.67 2669 957 2527 957 2527 1091 2628.63 1091 2629.56 1090.12 2627.35 1087.81Z" fill="#AEBD24" fill-rule="evenodd" fill-opacity="1"></path><path d="M2627 1088 2665 1051 2627 1051 2627 1088Z" fill="#AEBD37" fill-rule="evenodd" fill-opacity="1"></path><path d="M2444.43 1086 2347 1086 2347 958 2483 958 2483 1049.38 2444.43 1086Z" fill="#D0E06B" fill-rule="evenodd" fill-opacity="1"></path><path d="M2444.35 1085.79 2444.35 1082.58 2350.38 1082.58 2350.38 960.419 2479.62 960.419 2479.62 1047.64 2442.15 1083.47 2444.35 1085.79 2444.35 1082.58 2444.35 1085.79 2446.56 1088.11 2486 1050.39 2486 954 2344 954 2344 1089 2445.63 1089 2446.56 1088.11 2444.35 1085.79Z" fill="#AEBD24" fill-rule="evenodd" fill-opacity="1"></path><path d="M2444 1086 2483 1049 2444 1049 2444 1086Z" fill="#AEBD37" fill-rule="evenodd" fill-opacity="1"></path><path d="M2641.72 1295 2545 1295 2545 1167 2680 1167 2680 1258.38 2641.72 1295Z" fill="#D0E06B" fill-rule="evenodd" fill-opacity="1"></path><path d="M2641.35 1294.81 2641.35 1291.63 2547.38 1291.63 2547.38 1170.37 2676.62 1170.37 2676.62 1256.94 2639.15 1292.51 2641.35 1294.81 2641.35 1291.63 2641.35 1294.81 2643.56 1297.12 2683 1259.67 2683 1164 2541 1164 2541 1298 2642.63 1298 2643.56 1297.12 2641.35 1294.81Z" fill="#AEBD24" fill-rule="evenodd" fill-opacity="1"></path><path d="M2642 1295 2680 1259 2642 1259 2642 1295Z" fill="#AEBD37" fill-rule="evenodd" fill-opacity="1"></path><path d="M2444.43 1288 2347 1288 2347 1160 2483 1160 2483 1251.38 2444.43 1288Z" fill="#D0E06B" fill-rule="evenodd" fill-opacity="1"></path><path d="M2444.35 1287.81 2444.35 1284.63 2350.38 1284.63 2350.38 1163.37 2479.62 1163.37 2479.62 1249.94 2442.15 1285.51 2444.35 1287.81 2444.35 1284.63 2444.35 1287.81 2446.56 1290.12 2486 1252.67 2486 1157 2344 1157 2344 1291 2445.63 1291 2446.56 1290.12 2444.35 1287.81Z" fill="#AEBD24" fill-rule="evenodd" fill-opacity="1"></path><path d="M2444 1288 2483 1252 2444 1252 2444 1288Z" fill="#AEBD37" fill-rule="evenodd" fill-opacity="1"></path><path d="M3049.43 1075 2952 1075 2952 947 3088 947 3088 1038.38 3049.43 1075Z" fill="#D0E06B" fill-rule="evenodd" fill-opacity="1"></path><path d="M3049.35 1074.81 3049.35 1071.63 2955.38 1071.63 2955.38 950.372 3084.62 950.372 3084.62 1036.94 3047.15 1072.51 3049.35 1074.81 3049.35 1071.63 3049.35 1074.81 3051.56 1077.12 3091 1039.67 3091 944 2949 944 2949 1078 3050.63 1078 3051.56 1077.12 3049.35 1074.81Z" fill="#AEBD24" fill-rule="evenodd" fill-opacity="1"></path><path d="M3049 1075 3088 1038 3049 1038 3049 1075Z" fill="#AEBD37" fill-rule="evenodd" fill-opacity="1"></path><path d="M2866.72 1072 2770 1072 2770 944 2905 944 2905 1035.38 2866.72 1072Z" fill="#D0E06B" fill-rule="evenodd" fill-opacity="1"></path><path d="M2866.65 1071.81 2866.65 1068.63 2773.34 1068.63 2773.34 947.372 2901.66 947.372 2901.66 1033.94 2864.46 1069.51 2866.65 1071.81 2866.65 1068.63 2866.65 1071.81 2868.84 1074.12 2908 1036.67 2908 941 2767 941 2767 1075 2867.92 1075 2868.84 1074.12 2866.65 1071.81Z" fill="#AEBD24" fill-rule="evenodd" fill-opacity="1"></path><path d="M2867 1072 2905 1036 2867 1036 2867 1072Z" fill="#AEBD37" fill-rule="evenodd" fill-opacity="1"></path><path d="M3063.72 1282 2967 1282 2967 1154 3102 1154 3102 1245.38 3063.72 1282Z" fill="#D0E06B" fill-rule="evenodd" fill-opacity="1"></path><path d="M3064.35 1281.81 3064.35 1278.63 2970.38 1278.63 2970.38 1157.37 3099.62 1157.37 3099.62 1243.94 3062.15 1279.51 3064.35 1281.81 3064.35 1278.63 3064.35 1281.81 3066.56 1284.12 3106 1246.67 3106 1151 2964 1151 2964 1285 3065.63 1285 3066.56 1284.12 3064.35 1281.81Z" fill="#AEBD24" fill-rule="evenodd" fill-opacity="1"></path><path d="M3064 1282 3103 1245 3064 1245 3064 1282Z" fill="#AEBD37" fill-rule="evenodd" fill-opacity="1"></path><path d="M2866.72 1275 2770 1275 2770 1147 2905 1147 2905 1238.38 2866.72 1275Z" fill="#D0E06B" fill-rule="evenodd" fill-opacity="1"></path><path d="M2866.65 1274.81 2866.65 1271.63 2773.34 1271.63 2773.34 1150.37 2901.66 1150.37 2901.66 1236.94 2864.46 1272.51 2866.65 1274.81 2866.65 1271.63 2866.65 1274.81 2868.84 1277.12 2908 1239.67 2908 1144 2767 1144 2767 1278 2867.92 1278 2868.84 1277.12 2866.65 1274.81Z" fill="#AEBD24" fill-rule="evenodd" fill-opacity="1"></path><path d="M2867 1275 2905 1238 2867 1238 2867 1275Z" fill="#AEBD37" fill-rule="evenodd" fill-opacity="1"></path><path d="M2856.72 1500 2760 1500 2760 1372 2895 1372 2895 1463.38 2856.72 1500Z" fill="#D0E06B" fill-rule="evenodd" fill-opacity="1"></path><path d="M2856.65 1499.81 2856.65 1496.63 2763.34 1496.63 2763.34 1375.37 2891.66 1375.37 2891.66 1461.94 2854.46 1497.51 2856.65 1499.81 2856.65 1496.63 2856.65 1499.81 2858.84 1502.12 2898 1464.67 2898 1369 2757 1369 2757 1503 2857.92 1503 2858.84 1502.12 2856.65 1499.81Z" fill="#AEBD24" fill-rule="evenodd" fill-opacity="1"></path><path d="M2857 1500 2895 1464 2857 1464 2857 1500Z" fill="#AEBD37" fill-rule="evenodd" fill-opacity="1"></path><text fill="#343333" fill-opacity="1" font-family="Arial,Arial_MSFontService,sans-serif" font-style="normal" font-variant="normal" font-weight="700" font-stretch="normal" font-size="55" text-anchor="start" direction="ltr" writing-mode="lr-tb" text-decoration="none" transform="matrix(1 0 0 1 267.578 817)">Funnel</text><path d="M709.716 1110 613 1110 613 982 748 982 748 1073.38 709.716 1110Z" fill="#D0E06B" fill-rule="evenodd" fill-opacity="1"></path><path d="M710.354 1109.79 710.354 1106.58 616.382 1106.58 616.382 984.42 745.618 984.42 745.618 1071.64 708.149 1107.47 710.354 1109.79 710.354 1106.58 710.354 1109.79 712.559 1112.11 752 1074.39 752 978 610 978 610 1113 711.634 1113 712.559 1112.11 710.354 1109.79Z" fill="#AEBD24" fill-rule="evenodd" fill-opacity="1"></path><path d="M710 1110 748 1073 710 1073 710 1110Z" fill="#AEBD37" fill-rule="evenodd" fill-opacity="1"></path><path d="M896.716 1091 800 1091 800 963 935 963 935 1054.38 896.716 1091Z" fill="#D0E06B" fill-rule="evenodd" fill-opacity="1"></path><path d="M897.354 1090.81 897.354 1087.63 803.382 1087.63 803.382 966.372 932.618 966.372 932.618 1052.94 895.149 1088.51 897.354 1090.81 897.354 1087.63 897.354 1090.81 899.559 1093.12 939 1055.67 939 960 797 960 797 1094 898.634 1094 899.559 1093.12 897.354 1090.81Z" fill="#AEBD24" fill-rule="evenodd" fill-opacity="1"></path><path d="M897 1091 935 1054 897 1054 897 1091Z" fill="#AEBD37" fill-rule="evenodd" fill-opacity="1"></path><path d="M727.432 1409 630 1409 630 1281 766 1281 766 1372.38 727.432 1409Z" fill="#D0E06B" fill-rule="evenodd" fill-opacity="1"></path><path d="M727.354 1408.79 727.354 1405.58 633.382 1405.58 633.382 1283.42 762.618 1283.42 762.618 1370.64 725.149 1406.47 727.354 1408.79 727.354 1405.58 727.354 1408.79 729.559 1411.11 769 1373.39 769 1277 627 1277 627 1412 728.634 1412 729.559 1411.11 727.354 1408.79Z" fill="#AEBD24" fill-rule="evenodd" fill-opacity="1"></path><path d="M727 1409 766 1372 727 1372 727 1409Z" fill="#AEBD37" fill-rule="evenodd" fill-opacity="1"></path><text fill="#343333" fill-opacity="1" font-family="Arial,Arial_MSFontService,sans-serif" font-style="normal" font-variant="normal" font-weight="400" font-stretch="normal" font-size="37" text-anchor="start" direction="ltr" writing-mode="lr-tb" text-decoration="none" transform="matrix(1 0 0 1 2814.6 1805)">© Scaled Agile, Inc.<tspan fill="#EC5945" fill-opacity="1" font-family="Arial,Arial_MSFontService,sans-serif" font-style="normal" font-variant="normal" font-weight="700" font-stretch="normal" font-size="48" text-anchor="start" direction="ltr" writing-mode="lr-tb" text-decoration="none" x="-2038.65" y="-1139">3</tspan></text><path d="M1406.98 1702.13 1406.98 733.227C1406.88 729.612 1404.56 726.795 1401.79 726.933 1399.18 727.064 1397.09 729.807 1396.99 733.227L1396.99 1702.13C1396.89 1705.74 1399.04 1708.78 1401.79 1708.92 1404.56 1709.06 1406.88 1706.24 1406.98 1702.62 1406.99 1702.46 1406.99 1702.29 1406.98 1702.13" fill="#7A7A7A" fill-rule="evenodd" fill-opacity="1"></path><path d="M2730.99 1702.13 2730.99 733.227C2730.89 729.612 2728.8 726.795 2726.31 726.933 2723.97 727.064 2722.09 729.807 2721.99 733.227L2721.99 1702.13C2721.9 1705.74 2723.83 1708.78 2726.31 1708.92 2728.8 1709.06 2730.89 1706.24 2730.99 1702.62 2730.99 1702.46 2730.99 1702.29 2730.99 1702.13" fill="#7A7A7A" fill-rule="evenodd" fill-opacity="1"></path><path d="M1849.98 1702.13 1849.98 733.227C1849.88 729.612 1847.56 726.795 1844.79 726.933 1842.19 727.064 1840.09 729.807 1839.99 733.227L1839.99 1702.13C1839.89 1705.74 1842.04 1708.78 1844.79 1708.92 1847.56 1709.06 1849.88 1706.24 1849.98 1702.62 1849.99 1702.46 1849.99 1702.29 1849.98 1702.13" fill="#7A7A7A" fill-rule="evenodd" fill-opacity="1"></path><path d="M2290.98 1702.13 2290.98 733.227C2290.88 729.612 2288.56 726.795 2285.79 726.933 2283.19 727.064 2281.09 729.807 2280.99 733.227L2280.99 1702.13C2280.89 1705.74 2283.04 1708.78 2285.79 1708.92 2288.56 1709.06 2290.88 1706.24 2290.98 1702.62 2290.99 1702.46 2290.99 1702.29 2290.98 1702.13" fill="#7A7A7A" fill-rule="evenodd" fill-opacity="1"></path><path d="M964.985 1702.13 964.985 733.227C964.88 729.612 962.556 726.795 959.797 726.933 957.186 727.064 955.093 729.807 954.992 733.227L954.992 1702.13C954.887 1705.74 957.038 1708.78 959.797 1708.92 962.556 1709.06 964.88 1706.24 964.985 1702.62 964.99 1702.46 964.99 1702.29 964.985 1702.13" fill="#7A7A7A" fill-rule="evenodd" fill-opacity="1"></path><path d="M582.985 1698.13 582.985 729.227C582.88 725.612 580.557 722.794 577.797 722.932 575.186 723.063 573.093 725.807 572.992 729.227L572.992 1698.13C572.887 1701.74 575.038 1704.78 577.797 1704.92 580.557 1705.06 582.88 1702.24 582.985 1698.62 582.99 1698.46 582.99 1698.29 582.985 1698.13" fill="#7A7A7A" fill-rule="evenodd" fill-opacity="1"></path><path d="M153.986 1702.13 153.986 733.227C153.892 729.612 151.801 726.795 149.317 726.933 146.967 727.064 145.083 729.807 144.993 733.227L144.993 1702.13C144.899 1705.74 146.835 1708.78 149.317 1708.92 151.801 1709.06 153.892 1706.24 153.986 1702.62 153.991 1702.46 153.991 1702.29 153.986 1702.13" fill="#7A7A7A" fill-rule="evenodd" fill-opacity="1"></path><path d="M3130.98 1704.13 3130.98 735.227C3130.88 731.612 3128.56 728.795 3125.8 728.933 3123.19 729.064 3121.09 731.807 3120.99 735.227L3120.99 1704.13C3120.89 1707.73 3123.04 1710.78 3125.8 1710.92 3128.56 1711.06 3130.88 1708.24 3130.98 1704.62 3130.99 1704.46 3130.99 1704.29 3130.98 1704.13" fill="#7A7A7A" fill-rule="evenodd" fill-opacity="1"></path><text fill="#EC5945" fill-opacity="1" font-family="Arial,Arial_MSFontService,sans-serif" font-style="normal" font-variant="normal" font-weight="700" font-stretch="normal" font-size="48" text-anchor="start" direction="ltr" writing-mode="lr-tb" text-decoration="none" transform="matrix(1 0 0 1 1742.16 666)">4<tspan fill="#343333" fill-opacity="1" font-family="Arial,Arial_MSFontService,sans-serif" font-style="normal" font-variant="normal" font-weight="700" font-stretch="normal" font-size="55" text-anchor="start" direction="ltr" writing-mode="lr-tb" text-decoration="none" x="-232.104" y="151">Building</tspan><tspan fill="#EC5945" fill-opacity="1" font-family="Arial,Arial_MSFontService,sans-serif" font-style="normal" font-variant="normal" font-weight="700" font-stretch="normal" font-size="48" text-anchor="start" direction="ltr" writing-mode="lr-tb" text-decoration="none" x="-93.0554" y="0">|</tspan></text><path d="M1633 889 1633 1720.38" stroke="#A6A6A6" stroke-width="8.02083" stroke-linecap="butt" stroke-linejoin="round" stroke-miterlimit="10" stroke-dasharray="32.0833 24.0625" stroke-opacity="1" fill="none" fill-rule="evenodd"></path></g></svg> 