<?xml version="1.0" encoding="UTF-8" standalone="no"?>
<!DOCTYPE svg PUBLIC "-//W3C//DTD SVG 1.1//EN"
 "http://www.w3.org/Graphics/SVG/1.1/DTD/svg11.dtd">
<!-- Generated by graphviz version 2.46.1 (20210213.1702)
 -->
<!-- Title: G Pages: 1 -->
<svg width="496pt" height="338pt"
 viewBox="0.00 0.00 496.00 338.00" xmlns="http://www.w3.org/2000/svg" xmlns:xlink="http://www.w3.org/1999/xlink">
<g id="graph0" class="graph" transform="scale(1 1) rotate(0) translate(4 334)">
<title>G</title>
<polygon fill="white" stroke="transparent" points="-4,4 -4,-334 492,-334 492,4 -4,4"/>
<!-- n01 -->
<g id="node1" class="node">
<title>n01</title>
<polygon fill="none" stroke="black" points="321,-330 179,-330 179,-294 321,-294 321,-330"/>
<text text-anchor="middle" x="250" y="-308.3" font-family="Times New Roman,serif" font-size="14.00"> 1. CD BOOTSTRAP</text>
</g>
<!-- n02 -->
<g id="node2" class="node">
<title>n02</title>
<polygon fill="none" stroke="black" points="317,-258 161,-258 161,-220 317,-220 317,-258"/>
<text text-anchor="middle" x="239" y="-242.8" font-family="Times New Roman,serif" font-size="14.00"> 2. LOAD MSDOS</text>
<text text-anchor="middle" x="239" y="-227.8" font-family="Times New Roman,serif" font-size="14.00">OPERATION SYSTEM</text>
</g>
<!-- n01&#45;&gt;n02 -->
<g id="edge1" class="edge">
<title>n01&#45;&gt;n02</title>
<path fill="none" stroke="black" d="M247.34,-293.81C246.14,-286.11 244.71,-276.82 243.36,-268.15"/>
<polygon fill="black" stroke="black" points="246.78,-267.37 241.79,-258.02 239.86,-268.44 246.78,-267.37"/>
</g>
<!-- n03 -->
<g id="node3" class="node">
<title>n03</title>
<polygon fill="none" stroke="black" points="156,-184 0,-184 0,-146 156,-146 156,-184"/>
<text text-anchor="middle" x="78" y="-168.8" font-family="Times New Roman,serif" font-size="14.00"> 3. LOAD LINUX</text>
<text text-anchor="middle" x="78" y="-153.8" font-family="Times New Roman,serif" font-size="14.00">OPERATION SYSTEM</text>
</g>
<!-- n02&#45;&gt;n03 -->
<g id="edge2" class="edge">
<title>n02&#45;&gt;n03</title>
<path fill="none" stroke="black" d="M198.37,-219.83C176.84,-210.2 150.22,-198.29 127.48,-188.13"/>
<polygon fill="black" stroke="black" points="128.89,-184.93 118.33,-184.04 126.03,-191.32 128.89,-184.93"/>
</g>
<!-- n04 -->
<g id="node4" class="node">
<title>n04</title>
<polygon fill="none" stroke="black" points="304,-184 174,-184 174,-146 304,-146 304,-184"/>
<text text-anchor="middle" x="239" y="-168.8" font-family="Times New Roman,serif" font-size="14.00"> 4. EXECUTE DOS</text>
<text text-anchor="middle" x="239" y="-153.8" font-family="Times New Roman,serif" font-size="14.00">PROGRAM</text>
</g>
<!-- n02&#45;&gt;n04 -->
<g id="edge5" class="edge">
<title>n02&#45;&gt;n04</title>
<path fill="none" stroke="black" d="M239,-219.83C239,-212.13 239,-202.97 239,-194.42"/>
<polygon fill="black" stroke="black" points="242.5,-194.41 239,-184.41 235.5,-194.41 242.5,-194.41"/>
</g>
<!-- n06 -->
<g id="node6" class="node">
<title>n06</title>
<polygon fill="none" stroke="black" points="261,-110 127,-110 127,-72 261,-72 261,-110"/>
<text text-anchor="middle" x="194" y="-94.8" font-family="Times New Roman,serif" font-size="14.00"> 6. LINUX KERNEL</text>
<text text-anchor="middle" x="194" y="-79.8" font-family="Times New Roman,serif" font-size="14.00">2.2.18</text>
</g>
<!-- n03&#45;&gt;n06 -->
<g id="edge3" class="edge">
<title>n03&#45;&gt;n06</title>
<path fill="none" stroke="black" d="M107.27,-145.83C122.11,-136.62 140.3,-125.33 156.19,-115.47"/>
<polygon fill="black" stroke="black" points="158.09,-118.41 164.74,-110.16 154.4,-112.46 158.09,-118.41"/>
</g>
<!-- n05 -->
<g id="node5" class="node">
<title>n05</title>
<polygon fill="none" stroke="black" points="488,-183 322,-183 322,-147 488,-147 488,-183"/>
<text text-anchor="middle" x="405" y="-161.3" font-family="Times New Roman,serif" font-size="14.00"> 5. REBOOT PROGRAM</text>
</g>
<!-- n04&#45;&gt;n05 -->
<g id="edge6" class="edge">
<title>n04&#45;&gt;n05</title>
<path fill="none" stroke="black" d="M304.17,-165C306.66,-165 309.15,-165 311.65,-165"/>
<polygon fill="black" stroke="black" points="311.89,-168.5 321.89,-165 311.89,-161.5 311.89,-168.5"/>
</g>
<!-- n05&#45;&gt;n01 -->
<g id="edge7" class="edge">
<title>n05&#45;&gt;n01</title>
<path fill="none" stroke="black" d="M392.45,-183.08C377.75,-202.45 352.08,-234.42 326,-258 313.98,-268.87 299.65,-279.39 286.69,-288.16"/>
<polygon fill="black" stroke="black" points="284.38,-285.49 277.98,-293.93 288.25,-291.32 284.38,-285.49"/>
</g>
<!-- n08 -->
<g id="node8" class="node">
<title>n08</title>
<polygon fill="none" stroke="black" points="461,-330 349,-330 349,-294 461,-294 461,-330"/>
<text text-anchor="middle" x="405" y="-308.3" font-family="Times New Roman,serif" font-size="14.00"> 8. POWEROFF</text>
</g>
<!-- n05&#45;&gt;n08 -->
<g id="edge8" class="edge">
<title>n05&#45;&gt;n08</title>
<path fill="none" stroke="black" d="M405,-183.18C405,-208.02 405,-254.22 405,-283.74"/>
<polygon fill="black" stroke="black" points="401.5,-283.8 405,-293.8 408.5,-283.8 401.5,-283.8"/>
</g>
<!-- n07 -->
<g id="node7" class="node">
<title>n07</title>
<polygon fill="lightblue" stroke="lightblue" points="291.5,-36 190.5,-36 190.5,0 291.5,0 291.5,-36"/>
<text text-anchor="middle" x="241" y="-14.3" font-family="Times New Roman,serif" font-size="14.00"> 7. ROOT.BIN</text>
</g>
<!-- n06&#45;&gt;n07 -->
<g id="edge4" class="edge">
<title>n06&#45;&gt;n07</title>
<path fill="none" stroke="black" d="M206.1,-71.72C211.57,-63.46 218.12,-53.56 224.07,-44.58"/>
<polygon fill="black" stroke="black" points="227.14,-46.27 229.74,-36 221.31,-42.41 227.14,-46.27"/>
</g>
<!-- n07&#45;&gt;n05 -->
<g id="edge9" class="edge">
<title>n07&#45;&gt;n05</title>
<path fill="none" stroke="black" d="M260.43,-36.18C289.64,-62 344.94,-110.9 378.04,-140.16"/>
<polygon fill="black" stroke="black" points="375.73,-142.8 385.54,-146.8 380.37,-137.55 375.73,-142.8"/>
</g>
</g>
</svg>
