<?xml version="1.0" encoding="UTF-8" standalone="no"?>
<!DOCTYPE svg PUBLIC "-//W3C//DTD SVG 1.1//EN"
 "http://www.w3.org/Graphics/SVG/1.1/DTD/svg11.dtd">
<!-- Generated by graphviz version 2.46.1 (20210213.1702)
 -->
<!-- Title: G Pages: 1 -->
<svg width="402pt" height="476pt"
 viewBox="0.00 0.00 401.50 476.00" xmlns="http://www.w3.org/2000/svg" xmlns:xlink="http://www.w3.org/1999/xlink">
<g id="graph0" class="graph" transform="scale(1 1) rotate(0) translate(4 472)">
<title>G</title>
<polygon fill="white" stroke="transparent" points="-4,4 -4,-472 397.5,-472 397.5,4 -4,4"/>
<!-- n01 -->
<g id="node1" class="node">
<title>n01</title>
<polygon fill="none" stroke="black" points="237,-468 100,-468 100,-432 237,-432 237,-468"/>
<text text-anchor="middle" x="168.5" y="-446.3" font-family="Times New Roman,serif" font-size="14.00"> 1. INIT PROGRAM</text>
</g>
<!-- n02 -->
<g id="node2" class="node">
<title>n02</title>
<polygon fill="none" stroke="black" points="213.5,-396 123.5,-396 123.5,-360 213.5,-360 213.5,-396"/>
<text text-anchor="middle" x="168.5" y="-374.3" font-family="Times New Roman,serif" font-size="14.00"> 2. INITTAB</text>
</g>
<!-- n01&#45;&gt;n02 -->
<g id="edge1" class="edge">
<title>n01&#45;&gt;n02</title>
<path fill="none" stroke="black" d="M168.5,-431.7C168.5,-423.98 168.5,-414.71 168.5,-406.11"/>
<polygon fill="black" stroke="black" points="172,-406.1 168.5,-396.1 165,-406.1 172,-406.1"/>
</g>
<!-- n03 -->
<g id="node3" class="node">
<title>n03</title>
<polygon fill="none" stroke="black" points="218.5,-324 118.5,-324 118.5,-288 218.5,-288 218.5,-324"/>
<text text-anchor="middle" x="168.5" y="-302.3" font-family="Times New Roman,serif" font-size="14.00"> 3. STARTCD</text>
</g>
<!-- n02&#45;&gt;n03 -->
<g id="edge2" class="edge">
<title>n02&#45;&gt;n03</title>
<path fill="none" stroke="black" d="M168.5,-359.7C168.5,-351.98 168.5,-342.71 168.5,-334.11"/>
<polygon fill="black" stroke="black" points="172,-334.1 168.5,-324.1 165,-334.1 172,-334.1"/>
</g>
<!-- n04 -->
<g id="node4" class="node">
<title>n04</title>
<polygon fill="none" stroke="black" points="105,-252 0,-252 0,-216 105,-216 105,-252"/>
<text text-anchor="middle" x="52.5" y="-230.3" font-family="Times New Roman,serif" font-size="14.00"> 4. MOUNTCD</text>
</g>
<!-- n03&#45;&gt;n04 -->
<g id="edge3" class="edge">
<title>n03&#45;&gt;n04</title>
<path fill="none" stroke="black" d="M140.12,-287.88C124.96,-278.72 106.09,-267.34 89.76,-257.48"/>
<polygon fill="black" stroke="black" points="91.36,-254.36 80.99,-252.19 87.74,-260.35 91.36,-254.36"/>
</g>
<!-- n05 -->
<g id="node5" class="node">
<title>n05</title>
<polygon fill="none" stroke="black" points="214,-252 123,-252 123,-216 214,-216 214,-252"/>
<text text-anchor="middle" x="168.5" y="-230.3" font-family="Times New Roman,serif" font-size="14.00"> 5. LOADER</text>
</g>
<!-- n03&#45;&gt;n05 -->
<g id="edge4" class="edge">
<title>n03&#45;&gt;n05</title>
<path fill="none" stroke="black" d="M168.5,-287.7C168.5,-279.98 168.5,-270.71 168.5,-262.11"/>
<polygon fill="black" stroke="black" points="172,-262.1 168.5,-252.1 165,-262.1 172,-262.1"/>
</g>
<!-- n06 -->
<g id="node6" class="node">
<title>n06</title>
<polygon fill="none" stroke="black" points="355.5,-252 245.5,-252 245.5,-216 355.5,-216 355.5,-252"/>
<text text-anchor="middle" x="300.5" y="-230.3" font-family="Times New Roman,serif" font-size="14.00"> 6. DETECT.SH</text>
</g>
<!-- n03&#45;&gt;n06 -->
<g id="edge5" class="edge">
<title>n03&#45;&gt;n06</title>
<path fill="none" stroke="black" d="M200.79,-287.88C218.37,-278.55 240.31,-266.92 259.13,-256.94"/>
<polygon fill="black" stroke="black" points="260.89,-259.97 268.09,-252.19 257.61,-253.78 260.89,-259.97"/>
</g>
<!-- n04&#45;&gt;n05 -->
<g id="edge8" class="edge">
<title>n04&#45;&gt;n05</title>
<path fill="none" stroke="red" stroke-dasharray="1,5" d="M105.06,-234C107.66,-234 110.27,-234 112.87,-234"/>
<polygon fill="red" stroke="red" points="112.9,-237.5 122.9,-234 112.9,-230.5 112.9,-237.5"/>
</g>
<!-- n10 -->
<g id="node10" class="node">
<title>n10</title>
<polygon fill="red" stroke="red" points="231.5,-180 91.5,-180 91.5,-144 231.5,-144 231.5,-180"/>
<text text-anchor="middle" x="161.5" y="-158.3" font-family="Times New Roman,serif" font-size="14.00">10. MOUNT.GRAPH</text>
</g>
<!-- n05&#45;&gt;n10 -->
<g id="edge9" class="edge">
<title>n05&#45;&gt;n10</title>
<path fill="none" stroke="black" d="M166.77,-215.7C166,-207.98 165.07,-198.71 164.21,-190.11"/>
<polygon fill="black" stroke="black" points="167.69,-189.71 163.21,-180.1 160.72,-190.4 167.69,-189.71"/>
</g>
<!-- n07 -->
<g id="node7" class="node">
<title>n07</title>
<polygon fill="none" stroke="black" points="363,-180 250,-180 250,-144 363,-144 363,-180"/>
<text text-anchor="middle" x="306.5" y="-158.3" font-family="Times New Roman,serif" font-size="14.00"> 7. MAKEXFILE</text>
</g>
<!-- n06&#45;&gt;n07 -->
<g id="edge10" class="edge">
<title>n06&#45;&gt;n07</title>
<path fill="none" stroke="black" d="M301.98,-215.7C302.64,-207.98 303.44,-198.71 304.18,-190.11"/>
<polygon fill="black" stroke="black" points="307.67,-190.37 305.03,-180.1 300.69,-189.77 307.67,-190.37"/>
</g>
<!-- n08 -->
<g id="node8" class="node">
<title>n08</title>
<polygon fill="none" stroke="black" points="379.5,-108 317.5,-108 317.5,-72 379.5,-72 379.5,-108"/>
<text text-anchor="middle" x="348.5" y="-86.3" font-family="Times New Roman,serif" font-size="14.00"> 8. WIN</text>
</g>
<!-- n06&#45;&gt;n08 -->
<g id="edge6" class="edge">
<title>n06&#45;&gt;n08</title>
<path fill="none" stroke="black" d="M336.53,-215.81C350.42,-207.16 364.8,-195.24 372.5,-180 382.58,-160.05 374.52,-135.38 365.11,-117.08"/>
<polygon fill="black" stroke="black" points="368.07,-115.19 360.16,-108.15 361.95,-118.59 368.07,-115.19"/>
</g>
<!-- n07&#45;&gt;n08 -->
<g id="edge11" class="edge">
<title>n07&#45;&gt;n08</title>
<path fill="none" stroke="red" stroke-dasharray="1,5" d="M316.88,-143.7C321.76,-135.56 327.69,-125.69 333.08,-116.7"/>
<polygon fill="red" stroke="red" points="336.09,-118.48 338.24,-108.1 330.09,-114.88 336.09,-118.48"/>
</g>
<!-- n09 -->
<g id="node9" class="node">
<title>n09</title>
<polygon fill="none" stroke="black" points="393.5,-36 303.5,-36 303.5,0 393.5,0 393.5,-36"/>
<text text-anchor="middle" x="348.5" y="-14.3" font-family="Times New Roman,serif" font-size="14.00"> 9. STARTX</text>
</g>
<!-- n08&#45;&gt;n09 -->
<g id="edge7" class="edge">
<title>n08&#45;&gt;n09</title>
<path fill="none" stroke="black" d="M348.5,-71.7C348.5,-63.98 348.5,-54.71 348.5,-46.11"/>
<polygon fill="black" stroke="black" points="352,-46.1 348.5,-36.1 345,-46.1 352,-46.1"/>
</g>
<!-- n10&#45;&gt;n06 -->
<g id="edge12" class="edge">
<title>n10&#45;&gt;n06</title>
<path fill="none" stroke="red" stroke-dasharray="1,5" d="M195.63,-180.19C214.25,-189.57 237.48,-201.26 257.35,-211.27"/>
<polygon fill="red" stroke="red" points="255.99,-214.5 266.5,-215.88 259.14,-208.25 255.99,-214.5"/>
</g>
</g>
</svg>
