<?xml version="1.0" encoding="UTF-8" standalone="no"?>
<!DOCTYPE svg PUBLIC "-//W3C//DTD SVG 1.1//EN"
 "http://www.w3.org/Graphics/SVG/1.1/DTD/svg11.dtd">
<!-- Generated by graphviz version 2.46.1 (20210213.1702)
 -->
<!-- Title: g Pages: 1 -->
<svg width="193pt" height="282pt"
 viewBox="0.00 0.00 193.00 281.90" xmlns="http://www.w3.org/2000/svg" xmlns:xlink="http://www.w3.org/1999/xlink">
<g id="graph0" class="graph" transform="scale(1 1) rotate(0) translate(4 277.9)">
<title>g</title>
<polygon fill="white" stroke="transparent" points="-4,4 -4,-277.9 189,-277.9 189,4 -4,4"/>
<!-- node01 -->
<g id="node1" class="node">
<title>node01</title>
<path fill="none" stroke="black" d="M114,-0.5C114,-0.5 173,-0.5 173,-0.5 179,-0.5 185,-6.5 185,-12.5 185,-12.5 185,-80.5 185,-80.5 185,-86.5 179,-92.5 173,-92.5 173,-92.5 114,-92.5 114,-92.5 108,-92.5 102,-86.5 102,-80.5 102,-80.5 102,-12.5 102,-12.5 102,-6.5 108,-0.5 114,-0.5"/>
<text text-anchor="middle" x="143.5" y="-77.3" font-family="Times New Roman,serif" font-size="14.00">ROOT.BIN</text>
<polyline fill="none" stroke="black" points="102,-69.5 185,-69.5 "/>
<text text-anchor="middle" x="143.5" y="-54.3" font-family="Times New Roman,serif" font-size="14.00">...</text>
<polyline fill="none" stroke="black" points="102,-46.5 185,-46.5 "/>
<text text-anchor="middle" x="143.5" y="-31.3" font-family="Times New Roman,serif" font-size="14.00"> </text>
<polyline fill="none" stroke="black" points="102,-23.5 185,-23.5 "/>
<text text-anchor="middle" x="143.5" y="-8.3" font-family="Times New Roman,serif" font-size="14.00">...</text>
</g>
<!-- node02 -->
<g id="node2" class="node">
<title>node02</title>
<polygon fill="none" stroke="black" points="0,-110 0,-225 66,-225 66,-110 0,-110"/>
<text text-anchor="middle" x="33" y="-209.8" font-family="Times New Roman,serif" font-size="14.00">/ ...</text>
<polyline fill="none" stroke="black" points="0,-202 66,-202 "/>
<text text-anchor="middle" x="33" y="-186.8" font-family="Times New Roman,serif" font-size="14.00">/cdrom</text>
<polyline fill="none" stroke="black" points="0,-179 66,-179 "/>
<text text-anchor="middle" x="33" y="-163.8" font-family="Times New Roman,serif" font-size="14.00">/floppy</text>
<polyline fill="none" stroke="black" points="0,-156 66,-156 "/>
<text text-anchor="middle" x="33" y="-140.8" font-family="Times New Roman,serif" font-size="14.00">/hd</text>
<polyline fill="none" stroke="black" points="0,-133 66,-133 "/>
<text text-anchor="middle" x="33" y="-117.8" font-family="Times New Roman,serif" font-size="14.00">/memory</text>
</g>
<!-- node02&#45;&gt;node01 -->
<g id="edge1" class="edge">
<title>node02:f4&#45;&gt;node01:f2</title>
<path fill="none" stroke="black" d="M66,-121.5C103.76,-121.5 68.61,-50.66 92.14,-36.83"/>
<polygon fill="black" stroke="black" points="93.07,-40.2 102,-34.5 91.46,-33.39 93.07,-40.2"/>
</g>
<!-- node03 -->
<g id="node3" class="node">
<title>node03</title>
<path fill="none" stroke="black" d="M170.5,-144.23C170.5,-146.03 158.4,-147.5 143.5,-147.5 128.6,-147.5 116.5,-146.03 116.5,-144.23 116.5,-144.23 116.5,-114.77 116.5,-114.77 116.5,-112.97 128.6,-111.5 143.5,-111.5 158.4,-111.5 170.5,-112.97 170.5,-114.77 170.5,-114.77 170.5,-144.23 170.5,-144.23"/>
<path fill="none" stroke="black" d="M170.5,-144.23C170.5,-142.42 158.4,-140.95 143.5,-140.95 128.6,-140.95 116.5,-142.42 116.5,-144.23"/>
<text text-anchor="middle" x="143.5" y="-125.8" font-family="Times New Roman,serif" font-size="14.00">HDD</text>
</g>
<!-- node02&#45;&gt;node03 -->
<g id="edge2" class="edge">
<title>node02:f3&#45;&gt;node03</title>
<path fill="none" stroke="black" d="M66,-144.5C79.35,-144.5 93.77,-142.27 106.45,-139.54"/>
<polygon fill="black" stroke="black" points="107.25,-142.94 116.2,-137.26 105.66,-136.13 107.25,-142.94"/>
</g>
<!-- node04 -->
<g id="node4" class="node">
<title>node04</title>
<ellipse fill="none" stroke="black" cx="143.5" cy="-246.5" rx="23.31" ry="23.31"/>
<ellipse fill="none" stroke="black" cx="143.5" cy="-246.5" rx="27.3" ry="27.3"/>
<text text-anchor="middle" x="143.5" y="-242.8" font-family="Times New Roman,serif" font-size="14.00">CD</text>
</g>
<!-- node02&#45;&gt;node04 -->
<g id="edge3" class="edge">
<title>node02:f1&#45;&gt;node04</title>
<path fill="none" stroke="black" d="M66,-190.5C71.83,-190.5 94.66,-207.67 113.87,-222.99"/>
<polygon fill="black" stroke="black" points="111.84,-225.85 121.83,-229.39 116.23,-220.4 111.84,-225.85"/>
</g>
<!-- node05 -->
<g id="node5" class="node">
<title>node05</title>
<polygon fill="none" stroke="black" points="172,-195.5 115,-195.5 115,-171.5 172,-171.5 172,-195.5"/>
<polyline fill="none" stroke="black" points="118,-185 121,-182 "/>
<polyline fill="none" stroke="black" points="118,-182 121,-185 "/>
<polyline fill="none" stroke="black" points="118,-174.5 169,-174.5 "/>
<text text-anchor="middle" x="143.5" y="-179.8" font-family="Times New Roman,serif" font-size="14.00">Floppy</text>
</g>
<!-- node02&#45;&gt;node05 -->
<g id="edge4" class="edge">
<title>node02:f2&#45;&gt;node05</title>
<path fill="none" stroke="black" d="M66,-167.5C78.83,-167.5 92.61,-169.68 104.9,-172.43"/>
<polygon fill="black" stroke="black" points="104.27,-175.88 114.81,-174.84 105.92,-169.08 104.27,-175.88"/>
</g>
</g>
</svg>
