<?xml version="1.0" encoding="UTF-8" standalone="no"?>
<!DOCTYPE svg PUBLIC "-//W3C//DTD SVG 1.1//EN"
 "http://www.w3.org/Graphics/SVG/1.1/DTD/svg11.dtd">
<!-- Generated by graphviz version 2.46.1 (20210213.1702)
 -->
<!-- Title: g Pages: 1 -->
<svg width="333pt" height="130pt"
 viewBox="0.00 0.00 333.00 130.00" xmlns="http://www.w3.org/2000/svg" xmlns:xlink="http://www.w3.org/1999/xlink">
<g id="graph0" class="graph" transform="scale(1 1) rotate(0) translate(4 126)">
<title>g</title>
<polygon fill="white" stroke="transparent" points="-4,4 -4,-126 329,-126 329,4 -4,4"/>
<!-- node01 -->
<g id="node1" class="node">
<title>node01</title>
<path fill="none" stroke="black" d="M154,-0.5C154,-0.5 313,-0.5 313,-0.5 319,-0.5 325,-6.5 325,-12.5 325,-12.5 325,-103.5 325,-103.5 325,-109.5 319,-115.5 313,-115.5 313,-115.5 154,-115.5 154,-115.5 148,-115.5 142,-109.5 142,-103.5 142,-103.5 142,-12.5 142,-12.5 142,-6.5 148,-0.5 154,-0.5"/>
<text text-anchor="middle" x="233.5" y="-100.3" font-family="Times New Roman,serif" font-size="14.00">ROOT.BIN</text>
<polyline fill="none" stroke="black" points="142,-92.5 325,-92.5 "/>
<text text-anchor="middle" x="233.5" y="-77.3" font-family="Times New Roman,serif" font-size="14.00">...</text>
<polyline fill="none" stroke="black" points="142,-69.5 325,-69.5 "/>
<text text-anchor="middle" x="233.5" y="-54.3" font-family="Times New Roman,serif" font-size="14.00">JAVA VIRTUAL MACHINE</text>
<polyline fill="none" stroke="black" points="142,-46.5 325,-46.5 "/>
<text text-anchor="middle" x="233.5" y="-31.3" font-family="Times New Roman,serif" font-size="14.00">XFREE86 4.1.0</text>
<polyline fill="none" stroke="black" points="142,-23.5 325,-23.5 "/>
<text text-anchor="middle" x="233.5" y="-8.3" font-family="Times New Roman,serif" font-size="14.00"> </text>
</g>
<!-- node02 -->
<g id="node2" class="node">
<title>node02</title>
<text text-anchor="middle" x="53" y="-100.3" font-family="Times New Roman,serif" font-size="14.00">Initial Ram Disk</text>
</g>
<!-- node02&#45;&gt;node01 -->
<g id="edge1" class="edge">
<title>node02&#45;&gt;node01:f0</title>
<path fill="none" stroke="black" d="M106.12,-104C114.51,-104 123.23,-104 131.75,-104"/>
<polygon fill="black" stroke="black" points="132,-107.5 142,-104 132,-100.5 132,-107.5"/>
</g>
<!-- node03 -->
<g id="node3" class="node">
<title>node03</title>
<text text-anchor="middle" x="53" y="-39.3" font-family="Times New Roman,serif" font-size="14.00">Ram Disks</text>
</g>
<!-- node03&#45;&gt;node01 -->
<g id="edge2" class="edge">
<title>node03&#45;&gt;node01:f2</title>
<path fill="none" stroke="black" d="M92.31,-52.41C104.54,-54.82 118.4,-56.94 131.84,-57.7"/>
<polygon fill="black" stroke="black" points="131.9,-61.2 142,-58 132.11,-54.21 131.9,-61.2"/>
</g>
<!-- node03&#45;&gt;node01 -->
<g id="edge3" class="edge">
<title>node03&#45;&gt;node01:f3</title>
<path fill="none" stroke="black" d="M92.05,-38.02C104.38,-36.73 118.35,-35.58 131.83,-35.16"/>
<polygon fill="black" stroke="black" points="132.06,-38.66 142,-35 131.95,-31.66 132.06,-38.66"/>
</g>
</g>
</svg>
