<?xml version="1.0" encoding="UTF-8" standalone="no"?>
<!DOCTYPE svg PUBLIC "-//W3C//DTD SVG 1.1//EN"
 "http://www.w3.org/Graphics/SVG/1.1/DTD/svg11.dtd">
<!-- Generated by graphviz version 2.46.1 (20210213.1702)
 -->
<!-- Title: g Pages: 1 -->
<svg width="537pt" height="262pt"
 viewBox="0.00 0.00 537.04 261.97" xmlns="http://www.w3.org/2000/svg" xmlns:xlink="http://www.w3.org/1999/xlink">
<g id="graph0" class="graph" transform="scale(1 1) rotate(0) translate(4 257.97)">
<title>g</title>
<polygon fill="white" stroke="transparent" points="-4,4 -4,-257.97 533.04,-257.97 533.04,4 -4,4"/>
<!-- node01 -->
<g id="node1" class="node">
<title>node01</title>
<polygon fill="none" stroke="black" points="0,-108.98 0,-144.98 95,-144.98 95,-108.98 0,-108.98"/>
<text text-anchor="middle" x="47.5" y="-123.28" font-family="Times New Roman,serif" font-size="14.00">file.txt (20 kb)</text>
</g>
<!-- node02 -->
<g id="node2" class="node">
<title>node02</title>
<polygon fill="none" stroke="black" points="398.06,-156.96 296.04,-156.96 264.52,-253.95 233,-156.96 130.98,-156.96 213.51,-97.01 181.99,-0.02 264.52,-59.96 347.05,-0.02 315.53,-97.01 398.06,-156.96"/>
<text text-anchor="middle" x="264.52" y="-123.28" font-family="Times New Roman,serif" font-size="14.00">file.txt (100 kb)</text>
</g>
<!-- node01&#45;&gt;node02 -->
<g id="edge1" class="edge">
<title>node01&#45;&gt;node02</title>
<path fill="none" stroke="black" d="M95.16,-126.98C114.74,-126.98 138.34,-126.98 161.58,-126.98"/>
<polygon fill="black" stroke="black" points="161.87,-130.48 171.87,-126.98 161.87,-123.48 161.87,-130.48"/>
</g>
<!-- node03 -->
<g id="node3" class="node">
<title>node03</title>
<polygon fill="none" stroke="black" points="434.04,-108.98 434.04,-144.98 529.04,-144.98 529.04,-108.98 434.04,-108.98"/>
<text text-anchor="middle" x="481.54" y="-123.28" font-family="Times New Roman,serif" font-size="14.00">file.txt (20 kb)</text>
</g>
<!-- node02&#45;&gt;node03 -->
<g id="edge2" class="edge">
<title>node02&#45;&gt;node03</title>
<path fill="none" stroke="black" d="M357.02,-126.98C379.7,-126.98 403.36,-126.98 423.83,-126.98"/>
<polygon fill="black" stroke="black" points="423.91,-130.48 433.91,-126.98 423.91,-123.48 423.91,-130.48"/>
</g>
</g>
</svg>
