<svg xmlns="http://www.w3.org/2000/svg" xmlns:xlink="http://www.w3.org/1999/xlink" viewBox="0 0 651.42 419.69"><defs><path id="reuse-2" d="M491.83 264.59c0 8.59-7.94 15.56-17.74 15.56s-17.74-7-17.74-15.56v-3.54s9.33-12 17.74-12 17.74 11.54 17.74 11.54z" class="cls-1"/><path id="reuse-1" d="M527.83 266.46c0 8.59-7.94 15.56-17.74 15.56s-17.74-7-17.74-15.56v-3.55s9.33-12 17.74-12 17.74 11.54 17.74 11.54z" class="cls-1"/><path id="reuse-0" d="M414 210.36c0 8.6-7.94 15.56-17.74 15.56s-17.74-7-17.74-15.56v-3.54s9.33-12 17.74-12S414 206.35 414 206.35z" class="cls-1"/></defs><defs><clipPath id="clip-path"><use class="cls-1" xlink:href="#reuse-0"/></clipPath><clipPath id="clip-path-2"><ellipse cx="396.25" cy="206.35" class="cls-2" rx="17.74" ry="15.56"/></clipPath><clipPath id="clip-path-3"><use class="cls-1" xlink:href="#reuse-1"/></clipPath><clipPath id="clip-path-4"><ellipse cx="510.09" cy="262.44" class="cls-2" rx="17.74" ry="15.56"/></clipPath><clipPath id="clip-path-5"><use class="cls-1" xlink:href="#reuse-2"/></clipPath><clipPath id="clip-path-6"><ellipse cx="474.09" cy="260.57" class="cls-2" rx="17.74" ry="15.56"/></clipPath><radialGradient id="radial-gradient" cx="325.71" cy="3050.29" r="263.76" gradientTransform="matrix(1 0 0 .7 0 -1866.62)" gradientUnits="userSpaceOnUse"><stop offset="0" stop-color="#06ae4b"/><stop offset=".21" stop-color="#069743"/><stop offset=".53" stop-color="#077939"/><stop offset=".8" stop-color="#076733"/><stop offset="1" stop-color="#076031"/></radialGradient><style>.cls-1{fill:#1a194d}.cls-2{fill:#28337a}.cls-19,.cls-25{stroke-miterlimit:10;fill:none}.cls-10{opacity:.5;mix-blend-mode:multiply}.cls-11{fill:#dee1e5}.cls-12{fill:#8c8c8b}.cls-14{fill:#fff}.cls-16{fill:#231f20}.cls-19{stroke:#000}.cls-25{stroke:#fff}</style></defs><g style="isolation:isolate"><g id="Layer_2" data-name="Layer 2"><g id="Layer_1-2" data-name="Layer 1"><path fill="#4d4e4e" d="M606.06 156.15A153.35 153.35 0 00497 110.79H154.45a154.45 154.45 0 000 308.9H497a154.28 154.28 0 00109.06-263.54zM588 370.82l-.48.39-.62.5-.63.48-.83.62-1 .71-.21.14-.58.41-.73.51-.13.09-1 .69-1 .66-.22.14-.65.42-.83.51-1.13.68-1.17.69-1.26.72-.68.37-.85.45-1.33.7-1.34.69-.14.07-1.46.71c-1 .49-2.06 1-3.1 1.42s-2.21.94-3.32 1.39c-.3.12-.6.25-.91.36l-.38.15c-1.21.47-2.43.91-3.65 1.33l-.86.29-2.95.95c-.81.25-1.63.49-2.45.72-.69.2-1.39.4-2.08.58l-.08.08c-.68.19-1.36.37-2.05.54a1.36 1.36 0 01-.12.12l-2 .49c0 .05-.11.1-.16.16l-2 .46-.2.18-1.92.43-.24.22c-.62.13-1.25.27-1.88.39l-.27.26-1.85.36-.31.28c-.6.11-1.21.23-1.82.33l-.33.31c-.6.1-1.19.21-1.79.3-.11.12-.24.23-.36.34l-1.76.28a4.4 4.4 0 01-.39.35l-1.73.26-.42.38-1.7.23c-.14.14-.29.27-.46.41l-1.66.21c-.15.14-.32.28-.5.42l-1.63.19a4.28 4.28 0 01-.54.45l-1.58.16a3.69 3.69 0 01-.59.47l-1.53.15a3.55 3.55 0 01-.64.48l-1.48.13a3 3 0 01-.71.5l-1.41.11a3 3 0 01-.82.53l-1.31.09a3 3 0 01-.94.54l-1.18.07a3.13 3.13 0 01-1.17.57l-.95.05a1.72 1.72 0 01-.45.26c-2.47.44-5.48.86-8.85 1.24a250.52 250.52 0 01-10.15.89l-4.29.25-4.15.19-4 .12-3.86.08H179.55l-3.86-.08-4-.12-4.14-.19-4.3-.25a255.6 255.6 0 01-10.14-.89c-3.38-.38-6.39-.8-8.86-1.24a1.72 1.72 0 01-.45-.26l-1-.05a3.13 3.13 0 01-1.17-.57l-1.18-.07a3 3 0 01-.94-.54l-1.31-.09a3 3 0 01-.82-.53l-1.41-.11a3 3 0 01-.71-.5l-1.48-.13a3.55 3.55 0 01-.64-.48l-1.53-.15a3.69 3.69 0 01-.59-.47l-1.58-.16a4.28 4.28 0 01-.54-.45l-1.63-.19a7.36 7.36 0 01-.5-.42l-1.66-.21a6.34 6.34 0 01-.46-.41l-1.7-.23-.42-.38-1.73-.26a4.4 4.4 0 01-.39-.35l-1.76-.28c-.12-.11-.25-.22-.36-.34-.6-.09-1.2-.2-1.79-.3l-.33-.31c-.61-.1-1.22-.22-1.82-.33l-.31-.28-1.85-.36-.27-.26c-.63-.12-1.26-.26-1.88-.39l-.24-.22-1.92-.43-.2-.18-2-.46-.16-.16-2-.49a1.36 1.36 0 01-.12-.12c-.69-.17-1.37-.35-2-.54l-.08-.08a98.77 98.77 0 01-4.53-1.3c-1-.3-2-.62-3-.95l-.86-.29a93.47 93.47 0 01-3.65-1.33l-.38-.15c-.31-.11-.61-.24-.91-.36-1.11-.44-2.22-.91-3.32-1.39s-2.07-.94-3.1-1.42l-1.47-.72-.13-.06-1.34-.69-1.34-.7-.84-.46-.69-.38-1.25-.71-1.17-.69-1.13-.68-.83-.51-.66-.42-.12-.15-1-.68-1-.68-.13-.09-.73-.51-.59-.41-.2-.14-1-.71-.83-.62-.62-.48c-.22-.16-.42-.33-.63-.5l-.47-.38-.4-.3-.34-.29a139.3 139.3 0 010-209.93L63 160l.38-.32.48-.39.62-.5.62-.47.84-.63 1-.7.2-.15.58-.41.74-.51.13-.09 1-.68 1-.67.2-.13.67-.42.83-.52 1.13-.68 1.18-.73 1.25-.72.69-.38.84-.45 1.34-.71 1.34-.68a.61.61 0 01.14-.07l1.46-.71c1-.49 2.06-1 3.1-1.42s2.21-.95 3.32-1.4l.91-.36.38-.15c1.21-.46 2.42-.9 3.65-1.32l.86-.3c1-.32 2-.65 3-1l2.45-.72 2.08-.58.08-.08 2-.53.12-.12 2-.5.16-.15 2-.46.2-.19 1.92-.42.24-.23L112 138l.27-.25c.62-.12 1.23-.25 1.85-.36l.31-.28c.6-.12 1.21-.23 1.82-.33.1-.11.22-.21.33-.31l1.79-.31.36-.33c.59-.1 1.17-.2 1.76-.28l.39-.36 1.73-.26.42-.38 1.7-.23c.14-.13.29-.27.46-.4l1.66-.21a5.34 5.34 0 01.5-.43l1.63-.19a4.26 4.26 0 01.54-.44l1.58-.17a3.66 3.66 0 01.59-.46c.51-.05 1-.11 1.53-.15a3.15 3.15 0 01.64-.49l1.48-.13a3.34 3.34 0 01.71-.5l1.41-.11a3 3 0 01.82-.52c.43 0 .87-.07 1.31-.09a2.79 2.79 0 01.94-.55l1.18-.07a3.15 3.15 0 011.17-.56l1-.05a1.3 1.3 0 01.45-.26c2.47-.45 5.47-.86 8.83-1.24 1.73-.19 3.58-.37 5.51-.54l4.66-.36 4.28-.25 4.16-.18 4-.13 3.85-.07H471.87l3.86.07 3.95.13 4.17.18 4.27.25 4.67.36c1.93.17 3.77.35 5.5.54 3.37.38 6.37.79 8.84 1.24a1.3 1.3 0 01.45.26l.95.05a3.15 3.15 0 011.17.56l1.18.07a2.79 2.79 0 01.94.55c.44 0 .88.06 1.31.09a3 3 0 01.82.52l1.41.11a3.34 3.34 0 01.71.5l1.48.13a3.15 3.15 0 01.64.49c.51 0 1 .1 1.53.15a3.66 3.66 0 01.59.46l1.58.17a4.26 4.26 0 01.54.44l1.63.19a5.34 5.34 0 01.5.43l1.66.21c.17.13.32.27.46.4l1.7.23.42.38 1.73.26.39.36c.59.08 1.17.18 1.76.28l.36.33 1.79.31c.11.1.23.2.33.31.61.1 1.22.21 1.82.33l.31.28c.62.11 1.23.24 1.85.36l.27.25 1.88.39.24.23 1.92.42.2.19 2 .46.16.15 2 .5a1.36 1.36 0 01.12.12l2.05.53.08.08 2.08.58 2.45.72c1 .3 2 .63 3 1l.85.29c1.22.43 2.44.87 3.65 1.33l.38.15.91.36a122.2 122.2 0 016.42 2.82l1.46.71a.61.61 0 01.14.07l1.34.68 1.34.71.84.45.69.38 1.25.72 1.17.68 1.13.68.83.52.65.41.22.14 1 .67 1 .68.14.1.72.5.59.41.2.15 1 .7.84.63.62.47.63.51.46.38.39.32.34.3a139.3 139.3 0 010 209.93l-.34.3z"/><rect width="622.77" height="280.25" x="14.32" y="125.12" fill="url(#radial-gradient)" rx="140.12"/><path fill="#bc8346" d="M497 125.12H154.45c-77.07 0-140.13 63-140.13 140.12 0 77.07 63.06 140.13 140.13 140.13H497c77.07 0 140.13-63.06 140.13-140.13C637.1 188.17 574 125.12 497 125.12zm93.68 233.8a131.7 131.7 0 01-93.68 39H154.45a132.65 132.65 0 010-265.3H497a132.48 132.48 0 0193.68 226.33z"/><path fill="#221f1f" stroke="#221f1f" stroke-miterlimit="10" stroke-width="1.87" d="M497 125.12H154.45c-77.07 0-140.13 63-140.13 140.12h0c0 77.07 63.06 140.13 140.13 140.13H497c77.07 0 140.13-63.06 140.13-140.13h0C637.1 188.17 574 125.12 497 125.12zm98.08 238.2a137.87 137.87 0 01-98.08 40.8H154.45a138.88 138.88 0 010-277.76H497a138.71 138.71 0 0198.08 237z" opacity=".25"/><path fill="none" stroke="#221f1f" stroke-miterlimit="10" stroke-width="3.11" d="M154.45 397.89a132.65 132.65 0 010-265.3H497a132.65 132.65 0 010 265.3z" opacity=".5"/><path fill="none" stroke="#46b76e" stroke-miterlimit="10" stroke-width="3.11" d="M574.8 187.42A109.43 109.43 0 00497 155h-80.82l-22.42 28.13a19.66 19.66 0 01-15.38 7.4H273a19.66 19.66 0 01-15.38-7.4L235.24 155h-80.79a110.23 110.23 0 000 220.46H497a110.06 110.06 0 0077.8-188.04z" opacity=".3"/><rect width="40.1" height="56.14" x="453.84" y="327.39" class="cls-11" rx="5.18"/><path d="M488.75 383.83H459a5.48 5.48 0 01-5.48-5.48v-45.77a5.49 5.49 0 015.48-5.48h29.73a5.48 5.48 0 015.48 5.48v45.77a5.48 5.48 0 01-5.46 5.48zM459 327.69a4.9 4.9 0 00-4.89 4.89v45.77a4.9 4.9 0 004.89 4.89h29.73a4.89 4.89 0 004.89-4.89v-45.77a4.89 4.89 0 00-4.89-4.89z" class="cls-11"/><path d="M493.34 351a17 17 0 01-1.37 5.08c-4 9.3-15.35 15.46-24.28 15.5a15.13 15.13 0 01-7.92-2A19.95 19.95 0 00493.34 351zM472.9 340.93c5.81-1.87 10.86-1.74 14.5-.14a20 20 0 00-32.59 20.58.92.92 0 010-.16c-.17-7.3 6.97-16.69 18.09-20.28z" class="cls-12"/><path d="M473.67 369.53a19.11 19.11 0 004.63-2.66l-12-.07v-1c2.38-.79 4-1.31 5.36-2.81a6.33 6.33 0 001.25-4.28c-.6 2.26-1.58 3.27-3.58 3.25a5.09 5.09 0 01-3.69-1.69 5.65 5.65 0 01-1.57-4.22 12.1 12.1 0 012.4-6.37 30.78 30.78 0 017.81-7.46 31.25 31.25 0 017.57 7.68 12.35 12.35 0 012.23 6.44 5.73 5.73 0 01-1.69 4.18 5.19 5.19 0 01-3.74 1.57c-2 0-2.94-1.07-3.47-3.36 0 2.46.22 3.34 1.72 4.45a19.15 19.15 0 003.3 2.16c4-3.73 7.13-9.05 7.47-14.51.65-10.64-8.82-13.68-18.38-6-7.36 5.92-10.16 15.09-8.07 20.58 1.78 4.59 6.87 6.3 12.45 4.12z" class="cls-12"/><rect width="40.1" height="56.14" x="419.37" y="327.39" class="cls-11" rx="5.18"/><path d="M454.29 383.83h-29.73a5.48 5.48 0 01-5.48-5.48v-45.77a5.49 5.49 0 015.48-5.48h29.73a5.49 5.49 0 015.48 5.48v45.77a5.48 5.48 0 01-5.48 5.48zm-29.73-56.14a4.89 4.89 0 00-4.89 4.89v45.77a4.89 4.89 0 004.89 4.89h29.73a4.89 4.89 0 004.89-4.89v-45.77a4.89 4.89 0 00-4.89-4.89z" class="cls-11"/><path d="M458.87 351a16.63 16.63 0 01-1.36 5.08c-4.05 9.3-15.35 15.46-24.28 15.5a15.11 15.11 0 01-7.92-2A19.94 19.94 0 00458.87 351zM438.44 340.93c5.8-1.87 10.86-1.74 14.49-.14a19.95 19.95 0 00-32.58 20.58 1 1 0 010-.16c-.17-7.3 6.96-16.69 18.09-20.28z" class="cls-12"/><path d="M439.21 369.53a19.49 19.49 0 004.63-2.66l-12-.07v-1c2.38-.79 4-1.31 5.36-2.81a6.25 6.25 0 001.24-4.28c-.59 2.26-1.58 3.27-3.58 3.25a5.11 5.11 0 01-3.69-1.69 5.73 5.73 0 01-1.57-4.22 12.21 12.21 0 012.41-6.37 30.71 30.71 0 017.8-7.46 31.14 31.14 0 017.58 7.68 12.41 12.41 0 012.22 6.44 5.68 5.68 0 01-1.68 4.18 5.23 5.23 0 01-3.74 1.57c-2 0-2.94-1.07-3.48-3.36 0 2.46.22 3.34 1.72 4.45a20 20 0 003.3 2.16c4-3.73 7.14-9.05 7.47-14.51.66-10.64-8.81-13.68-18.37-6-7.36 5.92-10.16 15.09-8.08 20.58 1.75 4.59 6.87 6.3 12.46 4.12z" class="cls-12"/><use class="cls-10" transform="translate(558.4 232.84)" xlink:href="#image"/><rect width="40.1" height="56.14" x="570.7" y="239.63" class="cls-11" rx="5.18"/><path d="M605.62 296.07h-29.73a5.48 5.48 0 01-5.48-5.48v-45.77a5.48 5.48 0 015.48-5.48h29.73a5.48 5.48 0 015.48 5.48v45.77a5.49 5.49 0 01-5.48 5.48zm-29.73-56.14a4.89 4.89 0 00-4.89 4.89v45.77a4.89 4.89 0 004.89 4.89h29.73a4.9 4.9 0 004.89-4.89v-45.77a4.9 4.9 0 00-4.89-4.89z" class="cls-11"/><path d="M610.2 263.23a16.52 16.52 0 01-1.37 5.08c-4 9.3-15.34 15.47-24.27 15.51a15.05 15.05 0 01-7.93-2 19.95 19.95 0 0033.57-18.59zM589.76 253.17c5.81-1.88 10.86-1.75 14.5-.14a19.94 19.94 0 00-33.48 14.55 20.37 20.37 0 00.89 6v-.16c-.17-7.28 6.97-16.66 18.09-20.25z" class="cls-12"/><path d="M590.53 281.76a19.31 19.31 0 004.64-2.65l-12-.07v-1c2.38-.79 4-1.31 5.35-2.82a6.27 6.27 0 001.25-4.28c-.6 2.27-1.58 3.28-3.58 3.25a5.06 5.06 0 01-3.69-1.69 5.7 5.7 0 01-1.57-4.22 12.24 12.24 0 012.41-6.37 30.88 30.88 0 017.8-7.46 31.32 31.32 0 017.58 7.69 12.41 12.41 0 012.22 6.44 5.66 5.66 0 01-1.69 4.17 5.16 5.16 0 01-3.73 1.58c-2 0-2.94-1.07-3.48-3.36 0 2.46.22 3.34 1.72 4.45a19.5 19.5 0 003.3 2.15c4-3.72 7.14-9 7.47-14.51.66-10.63-8.81-13.68-18.38-6-7.35 5.93-10.16 15.09-8.07 20.58 1.75 4.59 6.92 6.3 12.45 4.12z" class="cls-12"/><use class="cls-10" transform="translate(523.4 232.84)" xlink:href="#image-2"/><rect width="40.1" height="56.14" x="536.24" y="239.63" class="cls-11" rx="5.18"/><path d="M571.15 296.07h-29.73a5.49 5.49 0 01-5.48-5.48v-45.77a5.48 5.48 0 015.48-5.48h29.73a5.48 5.48 0 015.48 5.48v45.77a5.48 5.48 0 01-5.48 5.48zm-29.73-56.14a4.9 4.9 0 00-4.89 4.89v45.77a4.9 4.9 0 004.89 4.89h29.73a4.89 4.89 0 004.89-4.89v-45.77a4.89 4.89 0 00-4.89-4.89z" class="cls-11"/><path d="M575.74 263.23a16.8 16.8 0 01-1.37 5.08c-4 9.3-15.35 15.47-24.28 15.51a15 15 0 01-7.92-2 19.95 19.95 0 0033.57-18.59zM555.3 253.17c5.81-1.88 10.86-1.75 14.5-.14a20 20 0 00-32.59 20.58.92.92 0 010-.16c-.21-7.31 6.97-16.69 18.09-20.28z" class="cls-12"/><path d="M556.07 281.76a19.06 19.06 0 004.63-2.65l-12-.07v-1c2.38-.79 4-1.31 5.36-2.82a6.33 6.33 0 001.25-4.28c-.6 2.27-1.58 3.28-3.58 3.25a5.06 5.06 0 01-3.69-1.69 5.66 5.66 0 01-1.57-4.22 12.22 12.22 0 012.4-6.37 31.12 31.12 0 017.81-7.46 31.44 31.44 0 017.57 7.69 12.35 12.35 0 012.23 6.44 5.7 5.7 0 01-1.69 4.17 5.16 5.16 0 01-3.74 1.58c-2 0-2.94-1.07-3.47-3.36 0 2.46.22 3.34 1.72 4.45a19.11 19.11 0 003.3 2.15c4-3.72 7.13-9 7.47-14.51.65-10.63-8.82-13.68-18.38-6-7.36 5.93-10.16 15.09-8.07 20.58 1.75 4.59 6.87 6.3 12.45 4.12z" class="cls-12"/><use class="cls-10" transform="translate(62.4 232.84)" xlink:href="#image"/><rect width="40.1" height="56.14" x="74.7" y="239.63" class="cls-11" rx="5.18"/><path d="M109.62 296.07H79.89a5.48 5.48 0 01-5.48-5.48v-45.77a5.48 5.48 0 015.48-5.48h29.73a5.48 5.48 0 015.48 5.48v45.77a5.49 5.49 0 01-5.48 5.48zm-29.73-56.14a4.89 4.89 0 00-4.89 4.89v45.77a4.89 4.89 0 004.89 4.89h29.73a4.9 4.9 0 004.89-4.89v-45.77a4.9 4.9 0 00-4.89-4.89z" class="cls-11"/><path d="M114.2 263.23a16.52 16.52 0 01-1.37 5.08c-4 9.3-15.34 15.47-24.27 15.51a15.05 15.05 0 01-7.93-2 19.95 19.95 0 0033.57-18.59zM93.76 253.17c5.81-1.88 10.86-1.75 14.5-.14a19.94 19.94 0 00-33.48 14.55 20.37 20.37 0 00.89 6v-.16c-.17-7.28 6.97-16.66 18.09-20.25z" class="cls-12"/><path d="M94.53 281.76a19.31 19.31 0 004.64-2.65l-12-.07v-1c2.38-.79 4-1.31 5.35-2.82a6.27 6.27 0 001.25-4.28c-.6 2.27-1.58 3.28-3.58 3.25a5.06 5.06 0 01-3.69-1.69 5.7 5.7 0 01-1.57-4.22 12.24 12.24 0 012.41-6.37 30.88 30.88 0 017.8-7.46 31.32 31.32 0 017.58 7.69 12.41 12.41 0 012.22 6.44 5.66 5.66 0 01-1.69 4.17 5.16 5.16 0 01-3.73 1.58c-2 0-2.94-1.07-3.48-3.36 0 2.46.22 3.34 1.72 4.45a19.5 19.5 0 003.3 2.15c4-3.72 7.14-9 7.47-14.51.66-10.63-8.81-13.68-18.38-6-7.37 5.94-10.15 15.07-8.09 20.56 1.77 4.61 6.94 6.32 12.47 4.14z" class="cls-12"/><use class="cls-10" transform="translate(27.4 232.84)" xlink:href="#image-2"/><rect width="40.1" height="56.14" x="40.24" y="239.63" class="cls-11" rx="5.18"/><path d="M75.15 296.07H45.42a5.49 5.49 0 01-5.48-5.48v-45.77a5.48 5.48 0 015.48-5.48h29.73a5.48 5.48 0 015.48 5.48v45.77a5.48 5.48 0 01-5.48 5.48zm-29.73-56.14a4.9 4.9 0 00-4.89 4.89v45.77a4.9 4.9 0 004.89 4.89h29.73a4.89 4.89 0 004.85-4.89v-45.77a4.89 4.89 0 00-4.89-4.89z" class="cls-11"/><path d="M79.74 263.23a16.8 16.8 0 01-1.37 5.08c-4 9.3-15.35 15.47-24.28 15.51a15 15 0 01-7.92-2 19.95 19.95 0 0033.57-18.59zM59.3 253.17c5.81-1.88 10.86-1.75 14.5-.14a20 20 0 00-32.59 20.58.92.92 0 010-.16c-.21-7.31 6.97-16.69 18.09-20.28z" class="cls-12"/><path d="M60.07 281.76a19.06 19.06 0 004.63-2.65l-12-.07v-1c2.38-.79 4-1.31 5.36-2.82a6.33 6.33 0 001.25-4.28c-.6 2.27-1.58 3.28-3.58 3.25a5.06 5.06 0 01-3.73-1.73 5.66 5.66 0 01-1.57-4.22 12.22 12.22 0 012.4-6.37 31.12 31.12 0 017.81-7.46 31.44 31.44 0 017.57 7.69 12.35 12.35 0 012.23 6.44 5.7 5.7 0 01-1.69 4.17 5.16 5.16 0 01-3.75 1.58c-2 0-2.94-1.07-3.47-3.36 0 2.46.22 3.34 1.72 4.45a19.11 19.11 0 003.3 2.15c4-3.72 7.13-9 7.47-14.51.65-10.63-8.82-13.68-18.38-6-7.36 5.93-10.16 15.09-8.07 20.58 1.8 4.63 6.92 6.34 12.5 4.16z" class="cls-12"/><rect width="40.1" height="56.14" x="191.56" y="327.41" class="cls-11" rx="5.18"/><path d="M226.48 383.85h-29.73a5.48 5.48 0 01-5.48-5.48V332.6a5.49 5.49 0 015.48-5.48h29.73a5.49 5.49 0 015.52 5.48v45.77a5.48 5.48 0 01-5.52 5.48zm-29.73-56.14a4.89 4.89 0 00-4.89 4.89v45.77a4.89 4.89 0 004.89 4.89h29.73a4.89 4.89 0 004.89-4.89V332.6a4.89 4.89 0 00-4.89-4.89z" class="cls-11"/><path d="M231.06 351a16.63 16.63 0 01-1.36 5.08c-4 9.3-15.35 15.46-24.28 15.5a15 15 0 01-7.92-2A19.94 19.94 0 00231.06 351zM210.63 341c5.8-1.87 10.86-1.74 14.49-.14a19.95 19.95 0 00-32.58 20.58 1 1 0 010-.16c-.17-7.35 6.96-16.74 18.09-20.28z" class="cls-12"/><path d="M211.4 369.55a19.49 19.49 0 004.63-2.66l-12-.07v-1c2.38-.79 4-1.31 5.36-2.81a6.26 6.26 0 001.24-4.28C210 361 209 362 207 361.94a5.11 5.11 0 01-3.69-1.69 5.73 5.73 0 01-1.57-4.22 12.21 12.21 0 012.41-6.37 30.71 30.71 0 017.8-7.46 31.14 31.14 0 017.58 7.68 12.41 12.41 0 012.22 6.44 5.68 5.68 0 01-1.68 4.18 5.23 5.23 0 01-3.74 1.57c-2 0-2.94-1.07-3.48-3.36 0 2.46.22 3.34 1.72 4.45a20 20 0 003.3 2.16c4-3.73 7.14-9.05 7.47-14.51.66-10.64-8.81-13.68-18.37-6-7.36 5.92-10.16 15.09-8.08 20.58 1.8 4.61 6.92 6.34 12.51 4.16z" class="cls-12"/><rect width="40.1" height="56.14" x="157.1" y="327.41" class="cls-11" rx="5.18"/><path d="M192 383.85h-29.72a5.48 5.48 0 01-5.48-5.48V332.6a5.49 5.49 0 015.48-5.48H192a5.49 5.49 0 015.48 5.48v45.77a5.48 5.48 0 01-5.48 5.48zm-29.74-56.14a4.9 4.9 0 00-4.89 4.89v45.77a4.9 4.9 0 004.89 4.89H192a4.9 4.9 0 004.89-4.89V332.6a4.9 4.9 0 00-4.89-4.89z" class="cls-11"/><path d="M196.6 351a16.66 16.66 0 01-1.37 5.08c-4 9.3-15.34 15.46-24.28 15.5a15 15 0 01-7.92-2A19.94 19.94 0 00196.6 351zM176.16 341c5.81-1.87 10.86-1.74 14.5-.14a20 20 0 00-32.59 20.58v-.16c-.17-7.35 6.93-16.74 18.09-20.28z" class="cls-12"/><path d="M176.93 369.55a19.35 19.35 0 004.64-2.66l-12-.07v-1c2.38-.79 4-1.31 5.36-2.81a6.28 6.28 0 001.25-4.28c-.6 2.26-1.58 3.27-3.58 3.25a5.09 5.09 0 01-3.69-1.69 5.69 5.69 0 01-1.57-4.22 12.28 12.28 0 012.4-6.37 30.78 30.78 0 017.81-7.46 31.07 31.07 0 017.57 7.68 12.35 12.35 0 012.23 6.44 5.69 5.69 0 01-1.69 4.18 5.19 5.19 0 01-3.73 1.57c-2 0-3-1.07-3.48-3.36 0 2.46.22 3.34 1.72 4.45a19.55 19.55 0 003.3 2.16c4-3.73 7.13-9.05 7.47-14.51.65-10.64-8.82-13.68-18.38-6-7.35 5.92-10.16 15.09-8.07 20.58 1.74 4.57 6.86 6.3 12.44 4.12z" class="cls-12"/><use class="cls-1" xlink:href="#reuse-0"/><g clip-path="url(#clip-path)"><path d="M386.26 216.93l-4.39-1.9v7.2l4.39 3.33v-8.63zM406.37 216.93l4.39-1.9v7.2l-4.39 3.33v-8.63z" class="cls-14"/></g><ellipse cx="396.25" cy="206.35" class="cls-2" rx="17.74" ry="15.56"/><g clip-path="url(#clip-path-2)"><ellipse cx="396.25" cy="206" class="cls-14" rx="12.93" ry="10.37"/><path d="M395.07 202.33l-2.68 2.35-1.6-1.84 4.36-3.68h2.64v13.35h-2.72z" class="cls-16"/><path d="M402.19 214.45l4.41-2.63 4.23 3.59-3.92 4.27-4.72-5.23zM390.42 214.63L386 212l-4.23 3.59 3.92 4.27 4.73-5.23zM384.2 193.71l-2.98 2.18 4.26 4.67 4.16-3.05-5.44-3.8zM408.57 193.71l2.98 2.18-4.26 4.67-4.16-3.05 5.44-3.8z" class="cls-14"/></g><rect width="40.1" height="56.14" x="191.56" y="144.23" class="cls-11" rx="5.18"/><path d="M226.48 200.67h-29.73a5.49 5.49 0 01-5.48-5.48v-45.77a5.48 5.48 0 015.48-5.48h29.73a5.48 5.48 0 015.48 5.48v45.77a5.49 5.49 0 01-5.48 5.48zm-29.73-56.14a4.89 4.89 0 00-4.89 4.89v45.77a4.89 4.89 0 004.89 4.89h29.73a4.89 4.89 0 004.89-4.89v-45.77a4.89 4.89 0 00-4.89-4.89z" class="cls-11"/><path d="M231.06 167.83a16.48 16.48 0 01-1.36 5.08c-4 9.3-15.35 15.47-24.28 15.51a15 15 0 01-7.92-2 19.94 19.94 0 0033.56-18.59zM210.63 157.77c5.8-1.88 10.86-1.75 14.49-.14a19.94 19.94 0 00-33.48 14.55 20.05 20.05 0 00.9 6 1 1 0 010-.16c-.17-7.28 6.96-16.66 18.09-20.25z" class="cls-12"/><path d="M211.4 186.36a19.44 19.44 0 004.63-2.65l-12-.07v-1c2.38-.79 4-1.31 5.36-2.82a6.25 6.25 0 001.24-4.28c-.59 2.27-1.58 3.28-3.58 3.25a5 5 0 01-3.69-1.69 5.7 5.7 0 01-1.57-4.22 12.24 12.24 0 012.41-6.37A31.06 31.06 0 01212 159a31.32 31.32 0 017.58 7.69 12.41 12.41 0 012.22 6.44 5.66 5.66 0 01-1.68 4.17 5.2 5.2 0 01-3.74 1.58c-2 0-2.94-1.07-3.48-3.36 0 2.46.22 3.34 1.72 4.45a19.91 19.91 0 003.3 2.15c4-3.72 7.14-9 7.47-14.51.66-10.63-8.81-13.68-18.37-6-7.36 5.93-10.16 15.09-8.08 20.58 1.75 4.64 6.87 6.35 12.46 4.17z" class="cls-12"/><rect width="40.1" height="56.14" x="157.1" y="144.23" class="cls-11" rx="5.18"/><path d="M192 200.67h-29.72a5.49 5.49 0 01-5.48-5.48v-45.77a5.48 5.48 0 015.48-5.48H192a5.48 5.48 0 015.48 5.48v45.77a5.49 5.49 0 01-5.48 5.48zm-29.74-56.14a4.9 4.9 0 00-4.89 4.89v45.77a4.9 4.9 0 004.89 4.89H192a4.9 4.9 0 004.89-4.89v-45.77a4.9 4.9 0 00-4.89-4.89z" class="cls-11"/><path d="M196.6 167.83a16.52 16.52 0 01-1.37 5.08c-4 9.3-15.34 15.47-24.28 15.51a15 15 0 01-7.92-2 19.95 19.95 0 0033.57-18.59zM176.16 157.77c5.81-1.88 10.86-1.75 14.5-.14a20 20 0 00-32.59 20.58v-.16c-.17-7.31 6.93-16.69 18.09-20.28z" class="cls-12"/><path d="M176.93 186.36a19.31 19.31 0 004.64-2.65l-12-.07v-1c2.38-.79 4-1.31 5.36-2.82a6.27 6.27 0 001.25-4.28c-.6 2.27-1.58 3.28-3.58 3.25a5 5 0 01-3.69-1.69 5.66 5.66 0 01-1.57-4.22 12.31 12.31 0 012.4-6.37 31.12 31.12 0 017.81-7.46 31.26 31.26 0 017.57 7.69 12.35 12.35 0 012.23 6.44 5.66 5.66 0 01-1.69 4.17 5.16 5.16 0 01-3.73 1.58c-2 0-3-1.07-3.48-3.36 0 2.46.22 3.34 1.72 4.45a19.5 19.5 0 003.3 2.15c4-3.72 7.13-9 7.47-14.51.65-10.63-8.82-13.68-18.38-6-7.35 5.93-10.16 15.09-8.07 20.58 1.74 4.59 6.86 6.3 12.44 4.12z" class="cls-12"/><rect width="40.1" height="56.14" x="453.84" y="144.23" class="cls-11" rx="5.18"/><path d="M488.75 200.67H459a5.49 5.49 0 01-5.48-5.48v-45.77a5.48 5.48 0 015.48-5.48h29.73a5.48 5.48 0 015.48 5.48v45.77a5.48 5.48 0 01-5.46 5.48zM459 144.53a4.9 4.9 0 00-4.89 4.89v45.77a4.9 4.9 0 004.89 4.89h29.73a4.89 4.89 0 004.89-4.89v-45.77a4.89 4.89 0 00-4.89-4.89z" class="cls-11"/><path d="M493.34 167.83a16.8 16.8 0 01-1.37 5.08c-4 9.3-15.35 15.47-24.28 15.51a15 15 0 01-7.92-2 19.95 19.95 0 0033.57-18.59zM472.9 157.77c5.81-1.88 10.86-1.75 14.5-.14a20 20 0 00-32.59 20.58.92.92 0 010-.16c-.17-7.31 6.97-16.69 18.09-20.28z" class="cls-12"/><path d="M473.67 186.36a19.06 19.06 0 004.63-2.65l-12-.07v-1c2.38-.79 4-1.31 5.36-2.82a6.33 6.33 0 001.25-4.28c-.6 2.27-1.58 3.28-3.58 3.25a5 5 0 01-3.69-1.69 5.62 5.62 0 01-1.57-4.22 12.13 12.13 0 012.4-6.37 31.12 31.12 0 017.81-7.46 31.44 31.44 0 017.57 7.69 12.35 12.35 0 012.23 6.44 5.7 5.7 0 01-1.69 4.17 5.16 5.16 0 01-3.74 1.58c-2 0-2.94-1.07-3.47-3.36 0 2.46.22 3.34 1.72 4.45a19.11 19.11 0 003.3 2.15c4-3.72 7.13-9 7.47-14.51.65-10.63-8.82-13.68-18.38-6-7.36 5.93-10.16 15.09-8.07 20.58 1.78 4.59 6.87 6.3 12.45 4.12z" class="cls-12"/><rect width="40.1" height="56.14" x="419.37" y="144.23" class="cls-11" rx="5.18"/><path d="M454.29 200.67h-29.73a5.49 5.49 0 01-5.48-5.48v-45.77a5.48 5.48 0 015.48-5.48h29.73a5.48 5.48 0 015.48 5.48v45.77a5.49 5.49 0 01-5.48 5.48zm-29.73-56.14a4.89 4.89 0 00-4.89 4.89v45.77a4.89 4.89 0 004.89 4.89h29.73a4.89 4.89 0 004.89-4.89v-45.77a4.89 4.89 0 00-4.89-4.89z" class="cls-11"/><path d="M458.87 167.83a16.48 16.48 0 01-1.36 5.08c-4.05 9.3-15.35 15.47-24.28 15.51a15 15 0 01-7.92-2 19.94 19.94 0 0033.56-18.59zM438.44 157.77c5.8-1.88 10.86-1.75 14.49-.14a19.94 19.94 0 00-33.48 14.55 20.05 20.05 0 00.9 6 1 1 0 010-.16c-.17-7.28 6.96-16.66 18.09-20.25z" class="cls-12"/><path d="M439.21 186.36a19.44 19.44 0 004.63-2.65l-12-.07v-1c2.38-.79 4-1.31 5.36-2.82a6.25 6.25 0 001.24-4.28c-.59 2.27-1.58 3.28-3.58 3.25a5 5 0 01-3.69-1.69 5.7 5.7 0 01-1.57-4.22 12.24 12.24 0 012.41-6.37 31.06 31.06 0 017.8-7.46 31.32 31.32 0 017.58 7.69 12.41 12.41 0 012.22 6.44 5.66 5.66 0 01-1.68 4.17 5.2 5.2 0 01-3.74 1.58c-2 0-2.94-1.07-3.48-3.36 0 2.46.22 3.34 1.72 4.45a19.91 19.91 0 003.3 2.15c4-3.72 7.14-9 7.47-14.51.66-10.63-8.81-13.68-18.37-6-7.36 5.93-10.16 15.09-8.08 20.58 1.75 4.59 6.87 6.3 12.46 4.12z" class="cls-12"/><path fill="#9b1d20" d="M257.85 227.39c0 6.37-5.89 11.53-13.15 11.53s-13.15-5.16-13.15-11.53v-2.63s6.91-8.91 13.15-8.91 13.15 8.56 13.15 8.56z"/><ellipse cx="244.7" cy="224.41" fill="#ec1c24" rx="13.15" ry="11.54"/><path d="M251.18 223.74a6.78 6.78 0 01-2 5.22 7.89 7.89 0 01-5.6 1.81h-3.91V217H244a7.28 7.28 0 015.25 1.79 6.56 6.56 0 011.93 4.95zm-3.05.07c0-3-1.31-4.45-3.92-4.45h-1.56v9h1.25q4.23-.01 4.23-4.55z" class="cls-14"/><path d="M124.56 63.32A9.14 9.14 0 01123 69a5.16 5.16 0 01-4.35 2H115V56h4a4.81 4.81 0 014.07 1.94 8.84 8.84 0 011.49 5.38zm-2.86.08c0-3.35-.93-5-2.77-5h-1.12v10.11h.9a2.43 2.43 0 002.29-1.27 8 8 0 00.7-3.84zM130.79 71.16a4.14 4.14 0 01-3.38-1.52 6.7 6.7 0 01-1.23-4.31 7.62 7.62 0 011.11-4.42 3.61 3.61 0 013.12-1.59 3.52 3.52 0 012.94 1.36 6 6 0 011.08 3.8v1.46H129a3.68 3.68 0 00.62 2.27 2 2 0 001.64.75 5.28 5.28 0 002.73-.84v2.25a6 6 0 01-3.2.79zm-.4-9.74a1.11 1.11 0 00-1 .62A4 4 0 00129 64h2.76a4.28 4.28 0 00-.37-1.9 1.09 1.09 0 00-1-.68zM141.83 71l-.54-1.56h-.06a3.81 3.81 0 01-1.23 1.34 3.22 3.22 0 01-1.63.38 2.38 2.38 0 01-2-.94 4.26 4.26 0 01-.72-2.63 3.41 3.41 0 011-2.68 4.72 4.72 0 013-1l1.52-.06v-.82c0-1.07-.47-1.6-1.39-1.6a4.79 4.79 0 00-2.36.8l-.94-1.89a6.84 6.84 0 013.7-1.07 3.55 3.55 0 012.77 1 4.22 4.22 0 01.94 2.95V71zm-2.36-2a1.39 1.39 0 001.19-.67 3.19 3.19 0 00.45-1.79v-1h-.84a1.93 1.93 0 00-1.37.54 2.07 2.07 0 00-.44 1.43c0 1.05.34 1.49 1.01 1.49zM148.77 71H146V55h2.73zM155.27 71.16a4.13 4.13 0 01-3.38-1.52 6.65 6.65 0 01-1.24-4.31 7.62 7.62 0 011.12-4.42 3.6 3.6 0 013.12-1.59 3.54 3.54 0 012.94 1.36 6 6 0 011.08 3.8v1.46h-5.49a3.68 3.68 0 00.63 2.27 2 2 0 001.64.75 5.22 5.22 0 002.72-.84v2.25a5.93 5.93 0 01-3.14.79zm-.4-9.74a1.14 1.14 0 00-1 .62 4.17 4.17 0 00-.44 1.92h2.77a4.13 4.13 0 00-.38-1.9 1.09 1.09 0 00-.95-.64zM165.58 59.32a3.3 3.3 0 011 .15l-.32 2.65a2.2 2.2 0 00-.75-.11 1.76 1.76 0 00-1.53.79 4.09 4.09 0 00-.53 2.28V71h-2.73V59.53H163l.3 1.79h.1a4.21 4.21 0 011-1.54 1.83 1.83 0 011.18-.46zM172.58 65.2a15.86 15.86 0 01.79-5.08 12.64 12.64 0 012.29-4.12h2.41a14.78 14.78 0 00-2.17 4.35 16.34 16.34 0 00-.74 4.87 15.73 15.73 0 00.77 4.89 14.73 14.73 0 002.12 4.21h-2.39a12 12 0 01-2.29-4.07 15.43 15.43 0 01-.79-5.05zM180 56h3.82a5.25 5.25 0 013.41.91 3.6 3.6 0 011.06 2.89 3.93 3.93 0 01-.56 2.18 2.29 2.29 0 01-1.57 1.02v.1a2.92 2.92 0 011.84 1.19 4.26 4.26 0 01.56 2.32 4.44 4.44 0 01-1.09 3.19 3.93 3.93 0 01-3 1.16H180zm2.62 6h1.29a1.46 1.46 0 001.24-.47 2.28 2.28 0 00.35-1.4 1.79 1.79 0 00-.41-1.34 1.77 1.77 0 00-1.29-.41h-1.18zm0 2.33v4.19H184a1.56 1.56 0 001.3-.53 2.63 2.63 0 00.42-1.65c0-1.34-.59-2-1.76-2zM196.62 71l-.34-1.47h-.14a2.85 2.85 0 01-1.08 1.22 2.94 2.94 0 01-1.61.45 2.75 2.75 0 01-2.33-1 5.18 5.18 0 01-.78-3.12v-7.55h2.75v6.8a4.65 4.65 0 00.3 1.89 1 1 0 001 .63 1.34 1.34 0 001.29-.88 7.68 7.68 0 00.41-3v-5.44h2.75V71zM205.06 68.85a3.15 3.15 0 001.24-.28v2.13a3.5 3.5 0 01-2 .46 2.67 2.67 0 01-2.2-.89 4.16 4.16 0 01-.72-2.66V61.7h-1.11v-1.22l1.43-1 .69-2.42h1.75v2.46h2.07v2.18h-2.07v6c0 .77.3 1.15.92 1.15zM211.87 68.85a3.19 3.19 0 001.24-.28v2.13a3.52 3.52 0 01-2 .46 2.65 2.65 0 01-2.2-.89 4.16 4.16 0 01-.72-2.66V61.7h-1.11v-1.22l1.43-1 .69-2.42h1.8v2.46h2v2.18h-2v6c0 .77.25 1.15.87 1.15zM223.17 65.22A7.13 7.13 0 01222 69.6a4.15 4.15 0 01-5.58.84 4.51 4.51 0 01-1.55-2.06 8.46 8.46 0 01-.54-3.16 7 7 0 011.18-4.34 3.85 3.85 0 013.27-1.56 3.79 3.79 0 013.22 1.59 7 7 0 011.17 4.31zm-6.07 0a7.2 7.2 0 00.39 2.7 1.29 1.29 0 001.25.91c1.09 0 1.64-1.2 1.64-3.61a6.79 6.79 0 00-.4-2.68 1.32 1.32 0 00-2.49 0 7 7 0 00-.39 2.68zM230.78 71v-6.85a4.56 4.56 0 00-.3-1.88 1 1 0 00-1-.64 1.38 1.38 0 00-1.3.88 7.68 7.68 0 00-.41 3V71h-2.72V59.53h2.16l.33 1.47h.17a2.81 2.81 0 012.67-1.68 2.69 2.69 0 012.33 1.06 5.24 5.24 0 01.77 3.12V71zM240.64 65.2a15.46 15.46 0 01-.79 5 12 12 0 01-2.3 4h-2.39a15 15 0 002.14-4.23 15.9 15.9 0 00.76-4.87 16.34 16.34 0 00-.74-4.87 14.59 14.59 0 00-2.19-4.23h2.42a12.45 12.45 0 012.3 4.17 15.84 15.84 0 01.79 5.03z"/><path d="M111.1 81.54h134v125" class="cls-19"/><path d="M410.85 11.82a4.48 4.48 0 01-1.06 3.18 4 4 0 01-3.06 1.12 6.79 6.79 0 01-3.34-.77v-2.72a5.81 5.81 0 003.09 1.1 1.59 1.59 0 001.21-.44 1.69 1.69 0 00.4-1.2 2.18 2.18 0 00-.48-1.37A7.3 7.3 0 00406 9.34a6.88 6.88 0 01-1.46-1.28 4.56 4.56 0 01-.77-1.36 5.31 5.31 0 01-.27-1.77 4.22 4.22 0 011.07-3 3.74 3.74 0 012.9-1.18 6.33 6.33 0 013.31 1L409.85 4a8.22 8.22 0 00-1-.51 2.75 2.75 0 00-1.15-.23 1.26 1.26 0 00-1 .45 1.86 1.86 0 00-.36 1.21 2.07 2.07 0 00.43 1.32 6.46 6.46 0 001.52 1.29 6.32 6.32 0 012 2 4.67 4.67 0 01.56 2.29zM423.87 16V9.15c0-1.68-.41-2.52-1.24-2.52a1.33 1.33 0 00-1.29.9 7.77 7.77 0 00-.39 2.88V16h-2.75V9.15q0-2.52-1.26-2.52a1.33 1.33 0 00-1.28.9 7.68 7.68 0 00-.4 2.94V16h-2.73V4.53h2.16L415 6h.18a2.73 2.73 0 011.12-1.28 3 3 0 011.52-.4 2.71 2.71 0 012.79 2h.1a2.93 2.93 0 012.8-2 2.69 2.69 0 012.31 1.06 5.24 5.24 0 01.78 3.12V16zM434.42 16l-.54-1.56h-.06a3.9 3.9 0 01-1.25 1.38 3.22 3.22 0 01-1.63.38 2.37 2.37 0 01-2-.94 4.26 4.26 0 01-.72-2.63 3.41 3.41 0 011-2.68 4.72 4.72 0 013-1l1.52-.06v-.83c0-1.07-.47-1.6-1.39-1.6a4.79 4.79 0 00-2.36.8L429 5.37a6.84 6.84 0 013.7-1.07 3.52 3.52 0 012.76 1 4.17 4.17 0 01.95 2.95V16zm-2.37-2a1.4 1.4 0 001.2-.67 3.19 3.19 0 00.45-1.79v-1h-.85a1.92 1.92 0 00-1.36.54 2 2 0 00-.44 1.43c0 1.05.33 1.49 1 1.49zM441.35 16h-2.72V0h2.72zM446.37 16h-2.73V0h2.73zM454 1h3.82a5.25 5.25 0 013.41.91 3.6 3.6 0 011.06 2.89 3.93 3.93 0 01-.56 2.18A2.29 2.29 0 01460.2 8v.1a2.92 2.92 0 011.8 1.19 4.26 4.26 0 01.56 2.32 4.44 4.44 0 01-1.09 3.19 3.93 3.93 0 01-3 1.16H454zm2.62 6h1.28a1.47 1.47 0 001.25-.47 2.35 2.35 0 00.35-1.4 1.79 1.79 0 00-.41-1.34 1.77 1.77 0 00-1.29-.41h-1.18zm0 2.33v4.19H458a1.53 1.53 0 001.29-.53 2.57 2.57 0 00.43-1.65c0-1.34-.59-2-1.76-2zM467.22 16h-2.73V0h2.73zM469.41 1.55a1.45 1.45 0 01.39-1.07 1.48 1.48 0 011.11-.4 1.41 1.41 0 011.06.4 1.42 1.42 0 01.4 1.07 1.4 1.4 0 01-.37 1.08 1.44 1.44 0 01-1 .38 1.51 1.51 0 01-1.09-.38 1.43 1.43 0 01-.5-1.08zM472.25 16h-2.73V4.53h2.73zM480.28 16V9.15a4.56 4.56 0 00-.3-1.88 1 1 0 00-1-.64 1.36 1.36 0 00-1.29.88 7.49 7.49 0 00-.41 3V16h-2.73V4.53h2.16l.37 1.47h.17a2.81 2.81 0 012.67-1.68 2.68 2.68 0 012.33 1.06A5.24 5.24 0 01483 8.5V16zM488.24 16.16a2.79 2.79 0 01-2.5-1.56 8.71 8.71 0 01-.91-4.34 9 9 0 01.89-4.36 2.73 2.73 0 012.46-1.58 2.4 2.4 0 011.35.38 3.5 3.5 0 011.05 1.3h.17c-.08-1-.13-1.77-.13-2.19V0h2.73v16h-2l-.46-1.49h-.09a2.74 2.74 0 01-2.56 1.65zm.88-2.31a1.15 1.15 0 001.1-.69 6.32 6.32 0 00.38-2.52v-.36a7.62 7.62 0 00-.35-2.79 1.2 1.2 0 00-1.16-.81 1.17 1.17 0 00-1.09.92 8.47 8.47 0 00-.34 2.71A7.74 7.74 0 00488 13a1.18 1.18 0 001.12.85z"/><path d="M503.6 26.54H396.1v157" class="cls-19"/><path d="M515 55h3.83a5.24 5.24 0 013.4.91 3.61 3.61 0 011.07 2.89 3.93 3.93 0 01-.57 2.18 2.27 2.27 0 01-1.52 1.02v.1a2.92 2.92 0 011.84 1.19 4.17 4.17 0 01.56 2.32 4.44 4.44 0 01-1.09 3.19 3.92 3.92 0 01-3 1.16H515zm2.63 6h1.28a1.46 1.46 0 001.24-.47 2.27 2.27 0 00.36-1.4 1.84 1.84 0 00-.41-1.34 1.81 1.81 0 00-1.3-.41h-1.17zm0 2.33v4.19h1.4a1.56 1.56 0 001.3-.53 2.63 2.63 0 00.42-1.65c0-1.34-.59-2-1.76-2zM525.41 55.55a1.45 1.45 0 01.39-1.07 1.47 1.47 0 011.1-.4 1.43 1.43 0 011.07.4 1.63 1.63 0 010 2.15 1.45 1.45 0 01-1.06.38 1.49 1.49 0 01-1.08-.38 1.4 1.4 0 01-.42-1.08zM528.25 70h-2.73V58.53h2.73zM538.81 58.55v1.6l-1.36.31a3.74 3.74 0 01.4 1.8 3.91 3.91 0 01-1 2.84 3.61 3.61 0 01-2.75 1 2.82 2.82 0 01-.76-.08 2.25 2.25 0 00-.36.39.79.79 0 00-.18.53c0 .48.41.72 1.24.72h1.65a3 3 0 012.24.78 3.2 3.2 0 01.79 2.37 3.73 3.73 0 01-1.34 3.07 5.87 5.87 0 01-3.82 1.12 4.53 4.53 0 01-2.92-.83 2.82 2.82 0 01-1-2.35 2.63 2.63 0 01.59-1.68 3.32 3.32 0 011.62-1 1.88 1.88 0 01-.86-.63 1.61 1.61 0 01-.33-1 1.81 1.81 0 01.1-.63 2 2 0 01.29-.53 5.28 5.28 0 01.78-.74 2.86 2.86 0 01-1.12-1.33 4.56 4.56 0 01-.41-2 4.05 4.05 0 011-2.9 3.75 3.75 0 012.82-1 4.9 4.9 0 01.8.07c.3.06.53.11.69.16zm-6.72 13.07a1.29 1.29 0 00.43 1 1.82 1.82 0 001.21.36 3.12 3.12 0 001.87-.47 1.56 1.56 0 00.62-1.29 1.13 1.13 0 00-.34-.92 2.15 2.15 0 00-1.24-.26h-1.33a1.08 1.08 0 00-.88.41 1.71 1.71 0 00-.34 1.17zm.84-9.36c0 1.35.38 2 1.14 2s1.11-.68 1.11-2-.37-2.09-1.11-2.09-1.14.69-1.14 2.09zM545.54 55h3.82a5.22 5.22 0 013.4.91 3.58 3.58 0 011.07 2.89 4 4 0 01-.56 2.18 2.29 2.29 0 01-1.54 1.02v.1a2.87 2.87 0 011.83 1.19 4.17 4.17 0 01.57 2.32A4.49 4.49 0 01553 68.8a3.93 3.93 0 01-3 1.16h-4.51zm2.62 6h1.28a1.45 1.45 0 001.24-.47 2.27 2.27 0 00.36-1.4 1.79 1.79 0 00-.41-1.34 1.77 1.77 0 00-1.29-.41h-1.18zm0 2.33v4.19h1.41a1.53 1.53 0 001.29-.53 2.57 2.57 0 00.43-1.65q0-2-1.77-2zM558.74 70H556V54h2.72zM560.94 55.55a1.45 1.45 0 01.39-1.07 1.47 1.47 0 011.1-.4 1.43 1.43 0 011.07.4 1.63 1.63 0 010 2.15 1.45 1.45 0 01-1.06.38 1.49 1.49 0 01-1.08-.38 1.4 1.4 0 01-.42-1.08zM563.78 70h-2.73V58.53h2.73zM571.81 70v-6.85a4.56 4.56 0 00-.3-1.88 1 1 0 00-1-.64 1.38 1.38 0 00-1.3.88 7.68 7.68 0 00-.41 3V70h-2.72V58.53h2.16l.33 1.47h.17a2.81 2.81 0 012.67-1.68 2.69 2.69 0 012.33 1.06 5.24 5.24 0 01.77 3.12V70zM579.76 70.16a2.79 2.79 0 01-2.49-1.56 8.6 8.6 0 01-.91-4.34 9 9 0 01.89-4.36 2.73 2.73 0 012.46-1.58 2.4 2.4 0 011.35.38 3.5 3.5 0 011.05 1.3h.17c-.09-1-.13-1.77-.13-2.19V54h2.73v16h-2l-.46-1.49h-.09a2.74 2.74 0 01-2.57 1.65zm.89-2.31a1.15 1.15 0 001.1-.69 6.32 6.32 0 00.38-2.52v-.36a7.85 7.85 0 00-.35-2.79 1.21 1.21 0 00-1.17-.81c-.5 0-.87.3-1.1.92a8.19 8.19 0 00-.34 2.71 7.5 7.5 0 00.35 2.66 1.18 1.18 0 001.13.88z"/><path fill="none" stroke="#000" stroke-miterlimit="10" stroke-width=".83" d="M591.1 82.04h-82.5v153.5"/><use class="cls-1" xlink:href="#reuse-1"/><g clip-path="url(#clip-path-3)"><path d="M500.11 273.02l-4.4-1.9v7.2l4.4 3.33v-8.63zM520.22 273.02l4.39-1.9v7.2l-4.39 3.33v-8.63z" class="cls-14"/></g><ellipse cx="510.09" cy="262.44" class="cls-2" rx="17.74" ry="15.56"/><g clip-path="url(#clip-path-4)"><ellipse cx="510.09" cy="262.09" class="cls-14" rx="12.93" ry="10.37"/><path d="M508.91 258.42l-2.68 2.36-1.6-1.85 4.36-3.68h2.64v13.36h-2.72z" class="cls-16"/><path d="M516.03 270.54l4.42-2.63 4.23 3.6-3.92 4.27-4.73-5.24zM504.26 270.72l-4.42-2.63-4.23 3.6 3.92 4.27 4.73-5.24zM498.04 249.8l-2.97 2.19 4.26 4.66 4.15-3.05-5.44-3.8zM522.41 249.8l2.98 2.19-4.26 4.66-4.16-3.05 5.44-3.8z" class="cls-14"/></g><use class="cls-1" xlink:href="#reuse-2"/><g clip-path="url(#clip-path-5)"><path d="M464.11 271.16l-4.4-1.9v7.2l4.4 3.33v-8.63zM484.22 271.16l4.39-1.9v7.2l-4.39 3.33v-8.63z" class="cls-14"/></g><ellipse cx="474.09" cy="260.57" class="cls-2" rx="17.74" ry="15.56"/><g clip-path="url(#clip-path-6)"><ellipse cx="474.09" cy="260.23" class="cls-14" rx="12.93" ry="10.37"/><path d="M472.91 256.55l-2.68 2.36-1.6-1.85 4.36-3.68h2.64v13.36h-2.72z" class="cls-16"/><path d="M480.03 268.68l4.42-2.63 4.23 3.59-3.92 4.27-4.73-5.23zM468.26 268.86l-4.42-2.63-4.23 3.59 3.92 4.27 4.73-5.23zM462.04 247.94l-2.97 2.18 4.26 4.67 4.15-3.05-5.44-3.8zM486.41 247.94l2.98 2.18-4.26 4.67-4.16-3.05 5.44-3.8z" class="cls-14"/></g><path d="M245.1 110.79v95.75M396.1 110.79v76.98M508.6 110.79v126.75" class="cls-25"/></g></g></g></svg>