<svg xmlns="http://www.w3.org/2000/svg" viewBox="0 0 651.4 470.3"><defs><clipPath id="clip-path"><path d="M336.7 174.8c0 8.6-8 15.6-17.7 15.6s-17.8-7-17.8-15.6v-3.5s9.3-12 17.7-12 17.8 11.5 17.8 11.5z" class="cls-1"/></clipPath><clipPath id="clip-path-2"><ellipse cx="318.9" cy="170.8" class="cls-1" rx="17.7" ry="15.6"/></clipPath><clipPath id="clip-path-3"><path d="M336.7 169.2c0 8.6-8 15.5-17.7 15.5s-17.8-7-17.8-15.5v-3.6s9.3-12 17.7-12 17.8 11.6 17.8 11.6z" class="cls-1"/></clipPath><clipPath id="clip-path-4"><ellipse cx="318.9" cy="165.2" class="cls-1" rx="17.7" ry="15.6"/></clipPath><clipPath id="clip-path-5"><path d="M336.7 163.3c0 8.6-8 15.6-17.7 15.6s-17.8-7-17.8-15.6v-3.5s9.3-12 17.7-12 17.8 11.5 17.8 11.5z" class="cls-1"/></clipPath><clipPath id="clip-path-6"><ellipse cx="318.9" cy="159.3" class="cls-2" rx="17.7" ry="15.6"/></clipPath><clipPath id="clip-path-7"><path d="M360.1 189.2c0 8.6-8 15.6-17.7 15.6s-17.8-7-17.8-15.6v-3.5s9.4-12 17.8-12 17.7 11.5 17.7 11.5z" class="cls-3"/></clipPath><clipPath id="clip-path-8"><ellipse cx="342.4" cy="185.2" class="cls-4" rx="17.7" ry="15.6"/></clipPath><radialGradient id="radial-gradient" cx="325.7" cy="3632.7" r="263.8" gradientTransform="matrix(1 0 0 .7 0 -2291.7)" gradientUnits="userSpaceOnUse"><stop offset="0" stop-color="#06ae4b"/><stop offset=".2" stop-color="#069743"/><stop offset=".5" stop-color="#077939"/><stop offset=".8" stop-color="#076733"/><stop offset="1" stop-color="#076031"/></radialGradient><style>.cls-1{fill:#611415}.cls-2{fill:#b12425}.cls-3{fill:#1a194d}.cls-4{fill:#28337a}.cls-28,.cls-29{stroke-miterlimit:10;fill:none}.cls-12{opacity:.5}.cls-12,.cls-19{mix-blend-mode:multiply}.cls-13{fill:#dee1e5}.cls-14{fill:#8c8c8b}.cls-16{fill:#fff}.cls-18{fill:#231f20}.cls-19{opacity:.8}.cls-27{fill:#ec1c24}.cls-28{stroke:#000}.cls-29{stroke:#fff}.cls-30{fill:#929497}</style></defs><g style="isolation:isolate"><g id="Layer_2" data-name="Layer 2"><g id="Layer_1-2" data-name="Layer 1"><path fill="#4d4e4e" d="M606 138.1a153.3 153.3 0 00-109-45.3H154.4a154.4 154.4 0 000 308.9H497A154.3 154.3 0 00606 138zm-18 214.7l-.5.4-.6.5-.6.5-.8.6-1 .7-.3.1-.5.5-.8.5h-.1l-1 .7-1 .7-.2.1-.7.5-.8.5-1.1.7-1.2.6-1.3.8-.6.3-.9.5-1.3.7-1.4.7a.6.6 0 01-.1 0l-1.5.8-3 1.4-3.4 1.4-1 .3-.3.2-3.6 1.3-.9.3-3 1-2.4.7-2 .6a.6.6 0 00-.2 0l-2 .6a1.3 1.3 0 01-.1 0l-2 .6-.2.1-2 .5a1.8 1.8 0 01-.2.2l-2 .4-.2.2-1.8.4-.3.3-1.9.3-.3.3-1.8.4-.3.3-1.8.3-.4.3-1.7.3-.4.3-1.7.3-.5.4-1.7.2a4.5 4.5 0 01-.4.4l-1.7.2-.5.5-1.6.1a3.5 3.5 0 01-.6.5l-1.5.2a4.3 4.3 0 01-.6.4l-1.6.2a3.5 3.5 0 01-.6.5H516a3 3 0 01-.7.6H514a3.2 3.2 0 01-.8.6l-1.3.1a3 3 0 01-1 .6h-1.1a3.1 3.1 0 01-1.2.6h-1a1.5 1.5 0 01-.4.3 152.1 152.1 0 01-19 2.1l-4.3.3-4.2.2h-4l-3.8.2H179.5l-3.8-.1-4-.1-4.1-.2-4.3-.3a399.6 399.6 0 01-10.2-.9c-3.3-.3-6.3-.8-8.8-1.2a1.5 1.5 0 01-.5-.3h-1a3.1 3.1 0 01-1.1-.6h-1.2a3 3 0 01-1-.6h-1.3a3.2 3.2 0 01-.8-.6l-1.4-.1a3 3 0 01-.7-.5l-1.5-.1a3.5 3.5 0 01-.6-.5l-1.5-.2a4.3 4.3 0 01-.6-.4l-1.6-.2a3.5 3.5 0 01-.6-.5l-1.6-.1-.5-.5-1.6-.2a4.5 4.5 0 01-.5-.4l-1.7-.2-.4-.4-1.8-.3-.3-.3-1.8-.3-.4-.3-1.8-.3-.3-.3-1.8-.4-.3-.3-1.9-.3-.2-.3c-.7 0-1.3-.2-2-.4l-.2-.2-1.9-.4a1.8 1.8 0 01-.2-.2l-2-.5-.1-.1-2-.5a1.3 1.3 0 01-.2-.1l-2-.6-2.1-.6-2.5-.7-3-1-.8-.3-3.6-1.3-.4-.2-1-.3a122 122 0 01-6.3-2.8l-1.5-.7-.1-.1-1.4-.7-1.3-.7-.9-.5-.6-.3-1.3-.7-1.2-.7-1.1-.7-.8-.5-.7-.4-.2-.2-1-.7-1-.7h-.1l-.8-.6-.6-.4-.2-.1-1-.7-.8-.6-.6-.5-.6-.5-.5-.4-.4-.3-.3-.3a139.3 139.3 0 010-210l.3-.2.4-.3.5-.4.6-.5.6-.5.8-.6 1-.7.2-.2.6-.4.8-.5 1-.7 1-.7.3-.1.7-.5.8-.5 1.1-.7 1.2-.7 1.3-.7.6-.4.9-.4 1.3-.7 1.4-.7v-.1l1.6-.7 3-1.4 3.4-1.4.9-.4.4-.1 3.6-1.4.9-.3 3-1 2.4-.6 2.1-.6 2-.6.2-.1 2-.5.2-.2 2-.5a1.8 1.8 0 01.2-.1l1.9-.5.2-.2 1.9-.4.3-.2 1.8-.4.3-.3 1.8-.3.4-.3 1.8-.3.3-.4 1.8-.2.4-.4 1.7-.3.4-.3 1.7-.3a4.5 4.5 0 01.5-.4l1.6-.2a5.3 5.3 0 01.5-.4l1.7-.2a3.5 3.5 0 01.5-.4l1.6-.2a4.3 4.3 0 01.6-.5l1.5-.1a3.5 3.5 0 01.7-.5l1.4-.1a3 3 0 01.7-.5l1.5-.1a3.2 3.2 0 01.8-.6h1.3a3 3 0 011-.6h1.1a3.1 3.1 0 011.2-.6h1a1.5 1.5 0 01.4-.3 152.1 152.1 0 0114.4-1.8l4.6-.3 4.3-.3 4.2-.2h4l3.8-.2H472l3.8.1 4 .1 4.2.2 4.2.3c1.7 0 3.2.2 4.7.3a349 349 0 0114.4 1.8 1.5 1.5 0 01.4.3h1a3.1 3.1 0 011.1.5l1.2.1a3 3 0 011 .5l1.2.1a3.2 3.2 0 01.9.6h1.4a3 3 0 01.7.6l1.5.1a3.5 3.5 0 01.6.5l1.5.1a4.3 4.3 0 01.6.5l1.6.2a3.5 3.5 0 01.6.4l1.6.2a5.3 5.3 0 01.5.4l1.6.2a4.5 4.5 0 01.5.4l1.7.3.4.3 1.8.3.3.4 1.8.2.4.4 1.8.3.3.3 1.8.3.3.3 1.9.4.2.2 2 .4.2.2 1.9.5a1.8 1.8 0 01.2.1l2 .5.1.2 2 .5h.2l2 .6 2.2.7 2.4.7 3 1 .9.2 3.6 1.4.4.1.9.4 3.3 1.4 3.1 1.4 1.5.7h.1l1.4.8 1.3.6.8.5.7.4 1.3.7 1.2.7 1 .7 1 .5.6.4.2.1 1 .7 1 .7h.1l.8.6.5.4.2.1 1 .7.9.7.6.4.6.5.5.4.4.4.3.2a139.3 139.3 0 010 210l-.3.3z"/><rect width="622.8" height="280.3" x="14.3" y="107.1" fill="url(#radial-gradient)" rx="140.1"/><path fill="#bc8346" d="M497 107.1H154.4c-77 0-140 63-140 140.1s63 140.2 140 140.2H497c77 0 140.1-63.1 140.1-140.2 0-77-63.1-140-140.1-140zM590.7 341a131.7 131.7 0 01-93.7 39H154.4a132.7 132.7 0 010-265.3H497A132.5 132.5 0 01590.7 341z"/><path fill="#221f1f" stroke="#221f1f" stroke-miterlimit="10" stroke-width="1.9" d="M497 107.1H154.4c-77 0-140 63-140 140.1h0c0 77.1 63 140.2 140 140.2H497c77 0 140.1-63.1 140.1-140.2h0c0-77-63.1-140-140.1-140zm98 238.2a137.9 137.9 0 01-98 40.8H154.4a138.9 138.9 0 010-277.8H497a138.7 138.7 0 0198 237z" opacity=".3"/><path fill="none" stroke="#221f1f" stroke-miterlimit="10" stroke-width="3.1" d="M154.4 379.9a132.7 132.7 0 010-265.3H497a132.7 132.7 0 010 265.3z" opacity=".5"/><path fill="none" stroke="#46b76e" stroke-miterlimit="10" stroke-width="3.1" d="M574.8 169.4A109.4 109.4 0 00497 137h-80.8l-22.4 28.1a19.7 19.7 0 01-15.4 7.4H273a19.7 19.7 0 01-15.4-7.4L235.2 137h-80.8a110.2 110.2 0 000 220.5H497a110 110 0 0077.8-188z" opacity=".3"/><rect width="40.1" height="56.1" x="453.8" y="309.4" class="cls-13" rx="5.2"/><path d="M488.8 365.8H459a5.5 5.5 0 01-5.5-5.5v-45.7a5.5 5.5 0 015.5-5.5h29.7a5.5 5.5 0 015.5 5.5v45.7a5.5 5.5 0 01-5.4 5.5zM459 309.7a4.9 4.9 0 00-4.9 4.9v45.7a4.9 4.9 0 004.9 5h29.7a4.9 4.9 0 005-5v-45.7a4.9 4.9 0 00-5-5z" class="cls-13"/><path d="M493.3 333a16.8 16.8 0 01-1.3 5 28.4 28.4 0 01-24.3 15.6 15 15 0 01-8-2 20 20 0 0033.6-18.6zM472.9 323a20.7 20.7 0 0114.5-.2 20 20 0 00-32.6 20.6 1 1 0 010-.2c-.2-7.3 7-16.7 18.1-20.3z" class="cls-14"/><path d="M473.7 351.5a18.7 18.7 0 004.6-2.6l-12-.1v-1c2.4-.8 4-1.3 5.4-2.8a6.3 6.3 0 001.2-4.3c-.6 2.3-1.6 3.3-3.6 3.3a5 5 0 01-3.7-1.7 5.6 5.6 0 01-1.5-4.3 12.1 12.1 0 012.4-6.3 31.1 31.1 0 017.8-7.5 31.4 31.4 0 017.6 7.7 12.3 12.3 0 012.2 6.4 5.7 5.7 0 01-1.7 4.2 5.2 5.2 0 01-3.7 1.6c-2 0-3-1-3.5-3.4 0 2.5.2 3.4 1.7 4.5a19.1 19.1 0 003.3 2.1c4-3.7 7.1-9 7.5-14.5.6-10.6-8.8-13.7-18.4-6-7.4 6-10.2 15.1-8 20.6 1.7 4.6 6.8 6.3 12.4 4.1z" class="cls-14"/><rect width="40.1" height="56.1" x="419.4" y="309.4" class="cls-13" rx="5.2"/><path d="M454.3 365.8h-29.7a5.5 5.5 0 01-5.5-5.5v-45.7a5.5 5.5 0 015.5-5.5h29.7a5.5 5.5 0 015.5 5.5v45.7a5.5 5.5 0 01-5.5 5.5zm-29.7-56.1a4.9 4.9 0 00-5 4.9v45.7a4.9 4.9 0 005 5h29.7a4.9 4.9 0 004.9-5v-45.7a4.9 4.9 0 00-5-5z" class="cls-13"/><g><path d="M458.9 333a16.5 16.5 0 01-1.4 5 28.5 28.5 0 01-24.3 15.6 15 15 0 01-7.9-2A20 20 0 00459 333zM438.4 323a20.6 20.6 0 0114.5-.2 20 20 0 00-32.5 20.6 1 1 0 010-.2c-.2-7.3 7-16.7 18-20.3z" class="cls-14"/><path d="M439.2 351.5a19.1 19.1 0 004.6-2.6l-12-.1v-1c2.4-.8 4-1.3 5.4-2.8a6.3 6.3 0 001.2-4.3c-.5 2.3-1.5 3.3-3.5 3.3a5 5 0 01-3.7-1.7 5.7 5.7 0 01-1.6-4.3 12.2 12.2 0 012.4-6.3 31 31 0 017.8-7.5 31.3 31.3 0 017.6 7.7 12.4 12.4 0 012.2 6.4 5.7 5.7 0 01-1.7 4.2 5.2 5.2 0 01-3.7 1.6c-2 0-3-1-3.5-3.4 0 2.5.2 3.4 1.7 4.5a20 20 0 003.3 2.1c4-3.7 7.2-9 7.5-14.5.7-10.6-8.8-13.7-18.4-6-7.3 6-10.1 15.1-8 20.6 1.7 4.6 6.8 6.3 12.4 4.1z" class="cls-14"/></g><g><rect width="40.1" height="56.1" x="570.7" y="221.6" class="cls-13" rx="5.2"/><path d="M605.6 278H576a5.5 5.5 0 01-5.5-5.4v-45.8a5.5 5.5 0 015.5-5.5h29.7a5.5 5.5 0 015.5 5.5v45.8a5.5 5.5 0 01-5.5 5.5zM576 222a4.9 4.9 0 00-4.9 4.8v45.8a4.9 4.9 0 004.9 4.9h29.7a4.9 4.9 0 005-5v-45.7a4.9 4.9 0 00-5-4.9z" class="cls-13"/><g><path d="M610.2 245.2a16.5 16.5 0 01-1.4 5.1 28.4 28.4 0 01-24.2 15.5 15.2 15.2 0 01-8-2 20 20 0 0033.6-18.6zM589.8 235.2a20.7 20.7 0 0114.5-.2 20 20 0 00-33.5 14.6 20.3 20.3 0 00.9 6v-.2c-.2-7.3 7-16.7 18-20.3z" class="cls-14"/><path d="M590.5 263.8a19.6 19.6 0 004.7-2.7h-12v-1c2.3-.9 4-1.4 5.3-2.9a6.3 6.3 0 001.3-4.3c-.6 2.3-1.6 3.3-3.6 3.3a5 5 0 01-3.7-1.7 5.7 5.7 0 01-1.6-4.2 12.2 12.2 0 012.4-6.4 30.9 30.9 0 017.8-7.5 31.1 31.1 0 017.6 7.7 12.4 12.4 0 012.2 6.5 5.7 5.7 0 01-1.7 4.1 5.1 5.1 0 01-3.7 1.6c-2 0-3-1-3.5-3.3 0 2.4.3 3.3 1.8 4.4a19.5 19.5 0 003.3 2.2c4-3.8 7.1-9 7.4-14.5.7-10.7-8.8-13.7-18.4-6-7.3 5.9-10.1 15-8 20.5 1.7 4.6 6.9 6.3 12.4 4.1z" class="cls-14"/></g><g><rect width="40.1" height="56.1" x="536.2" y="221.6" class="cls-13" rx="5.2"/><path d="M571.1 278h-29.7a5.5 5.5 0 01-5.5-5.4v-45.8a5.5 5.5 0 015.5-5.5h29.7a5.5 5.5 0 015.5 5.5v45.8a5.5 5.5 0 01-5.5 5.5zm-29.7-56a4.9 4.9 0 00-4.9 4.8v45.8a4.9 4.9 0 005 4.9H571a4.9 4.9 0 005-5v-45.7a4.9 4.9 0 00-5-4.9z" class="cls-13"/><g><path d="M575.7 245.2a16.8 16.8 0 01-1.3 5.1 28.4 28.4 0 01-24.3 15.5 15.2 15.2 0 01-8-2 20 20 0 0033.6-18.6zM555.3 235.2a20.7 20.7 0 0114.5-.2 20 20 0 00-32.6 20.6.8.8 0 010-.2c-.2-7.3 7-16.7 18.1-20.3z" class="cls-14"/><path d="M556 263.8a19.4 19.4 0 004.7-2.7h-12v-1c2.4-.9 4-1.4 5.4-2.9a6.3 6.3 0 001.2-4.3c-.6 2.3-1.6 3.3-3.6 3.3a5 5 0 01-3.7-1.7 5.7 5.7 0 01-1.5-4.2 12.2 12.2 0 012.4-6.4 31.1 31.1 0 017.8-7.5 31.3 31.3 0 017.5 7.7 12.3 12.3 0 012.3 6.5 5.7 5.7 0 01-1.7 4.1 5.1 5.1 0 01-3.8 1.6c-2 0-2.9-1-3.4-3.3 0 2.4.2 3.3 1.7 4.4a19.1 19.1 0 003.3 2.2c4-3.8 7.1-9 7.5-14.5.6-10.7-8.9-13.7-18.4-6-7.4 5.9-10.2 15-8 20.5 1.7 4.6 6.8 6.3 12.4 4.1z" class="cls-14"/></g></g></g><g><path d="M336.7 174.8c0 8.6-8 15.6-17.7 15.6s-17.8-7-17.8-15.6v-3.5s9.3-12 17.7-12 17.8 11.5 17.8 11.5z" class="cls-1"/><g clip-path="url(#clip-path)"><path d="M309 181.4l-4.4-1.9v7.2l4.4 3.3v-8.6zM329.1 181.4l4.4-1.9v7.2l-4.4 3.3v-8.6z" class="cls-16"/></g><ellipse cx="318.9" cy="170.8" class="cls-1" rx="17.7" ry="15.6"/><g clip-path="url(#clip-path-2)"><ellipse cx="318.9" cy="170.5" class="cls-16" rx="12.9" ry="10.4"/><path d="M317.8 166.8l-2.7 2.4-1.6-1.9 4.3-3.7h2.7V177h-2.7z" class="cls-18"/><path d="M324.9 178.9l4.4-2.6 4.2 3.6-3.9 4.3-4.7-5.3zM313.1 179.1l-4.4-2.6-4.2 3.6 3.9 4.2 4.7-5.2zM306.9 158.2l-3 2.2 4.3 4.6 4.1-3-5.4-3.8zM331.3 158.2l3 2.2-4.3 4.6-4.2-3 5.5-3.8z" class="cls-16"/><g class="cls-19"><ellipse cx="318.9" cy="171.3" class="cls-18" rx="22.2" ry="17.2"/></g></g><g><path d="M336.7 169.2c0 8.6-8 15.5-17.7 15.5s-17.8-7-17.8-15.5v-3.6s9.3-12 17.7-12 17.8 11.6 17.8 11.6z" class="cls-1"/><g clip-path="url(#clip-path-3)"><path d="M309 175.8l-4.4-2v7.3l4.4 3.3v-8.6zM329.1 175.8l4.4-2v7.3l-4.4 3.3v-8.6z" class="cls-16"/></g><g><ellipse cx="318.9" cy="165.2" class="cls-1" rx="17.7" ry="15.6"/><g clip-path="url(#clip-path-4)"><ellipse cx="318.9" cy="164.8" class="cls-16" rx="12.9" ry="10.4"/><path d="M317.8 161.2l-2.7 2.3-1.6-1.8 4.3-3.7h2.7v13.3h-2.7z" class="cls-18"/><path d="M324.9 173.3l4.4-2.7 4.2 3.6-3.9 4.3-4.7-5.2zM313.1 173.4l-4.4-2.6-4.2 3.6 3.9 4.3 4.7-5.3zM306.9 152.5l-3 2.2 4.3 4.7 4.1-3.1-5.4-3.8zM331.3 152.5l3 2.2-4.3 4.7-4.2-3.1 5.5-3.8z" class="cls-16"/><g class="cls-19"><ellipse cx="318.9" cy="165.7" class="cls-18" rx="22.2" ry="17.2"/></g></g></g></g><g><path d="M336.7 163.3c0 8.6-8 15.6-17.7 15.6s-17.8-7-17.8-15.6v-3.5s9.3-12 17.7-12 17.8 11.5 17.8 11.5z" class="cls-1"/><g clip-path="url(#clip-path-5)"><path d="M309 169.9l-4.4-1.9v7.2l4.4 3.3v-8.6zM329.1 169.9l4.4-1.9v7.2l-4.4 3.3v-8.6z" class="cls-16"/></g><g><ellipse cx="318.9" cy="159.3" class="cls-2" rx="17.7" ry="15.6"/><g clip-path="url(#clip-path-6)"><ellipse cx="318.9" cy="159" class="cls-16" rx="12.9" ry="10.4"/><path d="M319.2 157a4.3 4.3 0 013.1 1 4 4 0 011.2 3 4.4 4.4 0 01-1.4 3.5 5.9 5.9 0 01-4 1.2 7.8 7.8 0 01-3.6-.7v-2.5a8.5 8.5 0 003.5.9c1.7 0 2.6-.7 2.6-2.1s-1-2-2.7-2a7.3 7.3 0 00-1 0 7.8 7.8 0 00-1 .3l-1.2-.6.5-6.8h7.3v2.4h-4.8l-.3 2.6h.3a6.6 6.6 0 011.5-.3z" class="cls-18"/><path d="M324.9 167.4l4.4-2.6 4.2 3.6-3.9 4.2-4.7-5.2zM313.1 167.6l-4.4-2.7-4.2 3.7 3.9 4.2 4.7-5.2zM306.9 146.7l-3 2.1 4.3 4.7 4.1-3-5.4-3.8zM331.3 146.7l3 2.1-4.3 4.7-4.2-3 5.5-3.8z" class="cls-16"/></g></g></g></g><g><path d="M360.1 189.2c0 8.6-8 15.6-17.7 15.6s-17.8-7-17.8-15.6v-3.5s9.4-12 17.8-12 17.7 11.5 17.7 11.5z" class="cls-3"/><g clip-path="url(#clip-path-7)"><path d="M332.4 195.8l-4.4-1.9v7.2l4.4 3.3v-8.6zM352.5 195.8l4.4-1.9v7.2l-4.4 3.3v-8.6z" class="cls-16"/></g><g><ellipse cx="342.4" cy="185.2" class="cls-4" rx="17.7" ry="15.6"/><g clip-path="url(#clip-path-8)"><ellipse cx="342.4" cy="184.9" class="cls-16" rx="12.9" ry="10.4"/><path d="M341.2 181.2l-2.7 2.3-1.6-1.8 4.4-3.7h2.6v13.4h-2.7z" class="cls-18"/><path d="M348.3 193.3l4.4-2.6 4.2 3.6-3.9 4.2-4.7-5.2zM336.5 193.5l-4.4-2.6-4.2 3.5 3.9 4.3 4.7-5.2zM330.3 172.6l-3 2.2 4.3 4.6 4.2-3-5.5-3.8zM354.7 172.6l3 2.2-4.3 4.6-4.1-3 5.4-3.8z" class="cls-16"/></g></g></g><g><rect width="40.1" height="56.1" x="191.6" y="126.2" class="cls-13" rx="5.2"/><path d="M226.5 182.7h-29.8a5.5 5.5 0 01-5.4-5.5v-45.8a5.5 5.5 0 015.4-5.5h29.8a5.5 5.5 0 015.5 5.5v45.8a5.5 5.5 0 01-5.5 5.5zm-29.8-56.2a4.9 4.9 0 00-4.8 4.9v45.8a4.9 4.9 0 004.9 4.9h29.7a4.9 4.9 0 004.9-5v-45.7a4.9 4.9 0 00-5-4.9z" class="cls-13"/><g><path d="M231 149.8a16.5 16.5 0 01-1.3 5.1 28.4 28.4 0 01-24.3 15.5 15.2 15.2 0 01-7.9-2 20 20 0 0033.6-18.6zM210.6 139.8a20.6 20.6 0 0114.5-.2 20 20 0 00-32.6 20.6.8.8 0 010-.2c-.1-7.3 7-16.7 18.1-20.3z" class="cls-14"/><path d="M211.4 168.3a19.8 19.8 0 004.6-2.6h-12v-1c2.4-.9 4-1.4 5.4-2.9a6.3 6.3 0 001.2-4.3c-.6 2.3-1.6 3.3-3.6 3.3a5.1 5.1 0 01-3.7-1.7 5.7 5.7 0 01-1.5-4.2 12.2 12.2 0 012.4-6.4 31 31 0 017.8-7.5 31.1 31.1 0 017.6 7.7 12.4 12.4 0 012.2 6.4 5.7 5.7 0 01-1.7 4.2 5.2 5.2 0 01-3.7 1.6c-2 0-3-1-3.5-3.4 0 2.5.2 3.4 1.7 4.5a20 20 0 003.3 2.1c4-3.7 7.2-9 7.5-14.5.7-10.6-8.8-13.7-18.4-6-7.3 6-10.1 15.1-8 20.6 1.7 4.6 6.8 6.3 12.4 4.2z" class="cls-14"/></g><g><rect width="40.1" height="56.1" x="157.1" y="126.2" class="cls-13" rx="5.2"/><path d="M192 182.7h-29.7a5.5 5.5 0 01-5.5-5.5v-45.8a5.5 5.5 0 015.5-5.5H192a5.5 5.5 0 015.5 5.5v45.8a5.5 5.5 0 01-5.5 5.5zm-29.7-56.2a4.9 4.9 0 00-5 4.9v45.8a4.9 4.9 0 005 4.9H192a4.9 4.9 0 004.9-5v-45.7a4.9 4.9 0 00-4.9-4.9z" class="cls-13"/><g><path d="M196.6 149.8a16.5 16.5 0 01-1.4 5.1 28.4 28.4 0 01-24.3 15.5 15.2 15.2 0 01-7.9-2 20 20 0 0033.6-18.6zM176.2 139.8a20.7 20.7 0 0114.5-.2 20 20 0 00-32.6 20.6v-.2c-.2-7.3 6.9-16.7 18-20.3z" class="cls-14"/><path d="M177 168.3a19.6 19.6 0 004.6-2.6h-12v-1c2.3-.9 4-1.4 5.3-2.9a6.3 6.3 0 001.3-4.3c-.6 2.3-1.6 3.3-3.6 3.3a5 5 0 01-3.7-1.7 5.7 5.7 0 01-1.6-4.2 12.3 12.3 0 012.4-6.4 31.1 31.1 0 017.9-7.5 31 31 0 017.5 7.7 12.3 12.3 0 012.3 6.5 5.7 5.7 0 01-1.7 4.1 5.2 5.2 0 01-3.8 1.6c-2 0-3-1-3.4-3.3 0 2.4.2 3.3 1.7 4.4a19.5 19.5 0 003.3 2.2c4-3.8 7.1-9 7.4-14.5.7-10.7-8.8-13.7-18.3-6-7.4 5.9-10.2 15-8.1 20.5 1.7 4.6 6.8 6.3 12.4 4.2z" class="cls-14"/></g></g></g><g><path fill="#9b1d20" d="M257.9 205.4c0 6.4-6 11.6-13.2 11.6s-13.1-5.2-13.1-11.6v-2.6s6.9-9 13.1-9 13.2 8.7 13.2 8.7z"/><ellipse cx="244.7" cy="202.4" class="cls-27" rx="13.2" ry="11.5"/><path d="M251.2 201.8a6.8 6.8 0 01-2 5.2 7.9 7.9 0 01-5.6 1.8h-4V195h4.4a7.3 7.3 0 015.3 1.8 6.6 6.6 0 011.9 5zm-3 0q0-4.4-4-4.4h-1.5v9h1.2q4.2 0 4.2-4.6z" class="cls-16"/></g><g><rect width="40.1" height="56.1" x="394.7" y="146.8" class="cls-13" rx="5.2" transform="rotate(-13.2 414.8 175)"/><path d="M435.6 199.1l-28.9 6.8a5.5 5.5 0 01-6.6-4.1l-10.4-44.6a5.5 5.5 0 014-6.6l29-6.7a5.5 5.5 0 016.7 4l10.4 44.6a5.5 5.5 0 01-4.2 6.6zM394 151.2a5 5 0 00-3.6 5.9l10.4 44.5a4.9 4.9 0 005.9 3.7l29-6.8a4.9 4.9 0 003.6-5.9l-10.5-44.5a4.9 4.9 0 00-5.8-3.7z" class="cls-13"/><path d="M432.6 166a16.6 16.6 0 01-.1 5.3 28.4 28.4 0 01-20.2 20.7 15.2 15.2 0 01-8.1-.2 20 20 0 0030-21.4 20.3 20.3 0 00-1.6-4.3zM410.4 161a20.7 20.7 0 0114.1-3.5 20 20 0 00-27 27.5 1.4 1.4 0 010-.2c-1.9-7 3-17.8 13-23.9z" class="cls-14"/><path d="M417.7 188.6a19.3 19.3 0 004-3.6l-11.8 2.6-.2-1c2-1.3 3.5-2.1 4.5-4a6.3 6.3 0 00.3-4.4c-.1 2.3-.8 3.5-2.8 4a5.1 5.1 0 01-4-.8 5.7 5.7 0 01-2.5-3.8 12.3 12.3 0 011-6.7 31 31 0 015.8-9 31.2 31.2 0 019.1 5.7 12.3 12.3 0 013.7 5.8 5.7 5.7 0 01-.7 4.4 5.2 5.2 0 01-3.3 2.4c-2 .4-3-.4-4.1-2.5.5 2.4 1 3.2 2.7 4a19.4 19.4 0 003.7 1.3c3-4.5 4.8-10.4 4-15.8-1.8-10.5-11.7-11.3-19.3-1.6-5.8 7.4-6.5 17-3.2 21.8 2.8 4 8.2 4.6 13.1 1.2z" class="cls-14"/><rect width="40.1" height="56.1" x="400.5" y="136.3" class="cls-13" rx="5.2" transform="rotate(18.3 420.5 164.4)"/><path d="M425.7 196l-28.2-9.4a5.5 5.5 0 01-3.5-6.9l14.4-43.4a5.5 5.5 0 017-3.5l28.2 9.3a5.5 5.5 0 013.4 7l-14.4 43.5a5.5 5.5 0 01-6.9 3.4zm-10.6-62.6a4.9 4.9 0 00-6.1 3L394.6 180a4.9 4.9 0 003 6.2l28.3 9.3a5 5 0 006.2-3l14.4-43.5a5 5 0 00-3.1-6.2z" class="cls-13"/><g><path d="M440.4 166.3a16.5 16.5 0 01-3 4.4 28.4 28.4 0 01-27.8 7 15.1 15.1 0 01-7-4.3 20 20 0 0036.8-2.6 19.6 19.6 0 001-4.5zM424.2 150.3c6 0 10.8 1.8 13.8 4.4a20 20 0 00-36.4 3.3 20 20 0 00-1 6v-.1c2.1-7 11.9-13.7 23.6-13.6z" class="cls-14"/><path d="M415.9 177.7a19.4 19.4 0 005.2-1l-11.4-4 .4-1c2.5 0 4.1 0 6-1a6.2 6.2 0 002.5-3.6c-1.3 2-2.5 2.6-4.4 2a5 5 0 01-3-2.7 5.7 5.7 0 01-.2-4.5 12.2 12.2 0 014.3-5.3 30.9 30.9 0 019.7-4.7 31 31 0 014.8 9.7 12.3 12.3 0 01.1 6.8 5.7 5.7 0 01-2.9 3.5 5.2 5.2 0 01-4 .3c-2-.7-2.5-2-2.3-4.3-.8 2.3-.8 3.2.2 4.8a19.4 19.4 0 002.5 3c5-2.2 9.6-6.3 11.7-11.4 4-9.9-4.1-15.7-15.6-11.4-8.9 3.3-14.4 11.1-14.1 17 .2 4.9 4.5 8.1 10.5 7.8z" class="cls-14"/></g><g><rect width="40.1" height="56.1" x="402.6" y="139.4" class="cls-13" rx="5.2" transform="rotate(11.9 422.6 167.4)"/><path d="M431.3 198.3l-29-6.2a5.5 5.5 0 01-4.3-6.5l9.5-44.7a5.5 5.5 0 016.4-4.3l29.1 6.2a5.5 5.5 0 014.2 6.4l-9.4 44.8a5.5 5.5 0 01-6.5 4.3zm-17.5-61.1a5 5 0 00-5.8 3.8l-9.4 44.8a4.9 4.9 0 003.7 5.8l29.1 6.1a4.9 4.9 0 005.8-3.8l9.5-44.7a4.9 4.9 0 00-3.8-5.8z" class="cls-13"/><g><path d="M442.6 167a16.8 16.8 0 01-2.4 4.8 28.4 28.4 0 01-27 10.1 15.1 15.1 0 01-7.3-3.6 20 20 0 0036.2-6.6 19.6 19.6 0 00.5-4.6zM424.7 153c6-.6 11 .5 14.2 2.9a20 20 0 00-35.8 7.3 20.2 20.2 0 00-.3 6c1.3-7.3 10.3-15 21.9-16.2z" class="cls-14"/><path d="M419.5 181.2a19.3 19.3 0 005.1-1.7l-11.8-2.5.3-1c2.5-.3 4.1-.5 5.8-1.6a6.3 6.3 0 002.1-4c-1 2.1-2.2 2.9-4.2 2.5a5.1 5.1 0 01-3.2-2.5 5.7 5.7 0 01-.7-4.4 12.2 12.2 0 013.7-5.7 30.8 30.8 0 019.1-5.7 31 31 0 015.9 9 12.3 12.3 0 01.8 6.8 5.7 5.7 0 01-2.5 3.8 5.2 5.2 0 01-4 .7c-2-.4-2.6-1.6-2.7-4-.5 2.4-.5 3.3.8 4.7a19.3 19.3 0 002.7 2.8c4.7-2.8 8.9-7.4 10.4-12.6 2.8-10.3-5.9-15.2-16.8-9.7-8.4 4.3-13 12.7-12.2 18.5.9 4.8 5.5 7.5 11.4 6.6z" class="cls-14"/></g></g><g><rect width="40.1" height="56.1" x="401.7" y="143.4" class="cls-13" rx="5.2" transform="rotate(18.3 421.8 171.5)"/><path d="M427 203l-28.2-9.3a5.5 5.5 0 01-3.5-6.9l14.4-43.4a5.5 5.5 0 017-3.5l28.1 9.3a5.5 5.5 0 013.5 7L434 199.6a5.5 5.5 0 01-6.9 3.5zm-10.6-62.5a4.9 4.9 0 00-6.1 3L395.8 187a4.9 4.9 0 003.1 6.2l28.3 9.3a4.9 4.9 0 006.1-3l14.4-43.5a4.9 4.9 0 00-3-6.2z" class="cls-13"/><g><path d="M441.6 173.4a16.6 16.6 0 01-2.8 4.4 28.5 28.5 0 01-28 7 15.2 15.2 0 01-6.9-4.4 20 20 0 0036.8-2.5 19.6 19.6 0 001-4.5zM425.4 157.4c6.1 0 10.9 1.7 13.8 4.4a20 20 0 00-37.4 9.3.5.5 0 010-.2c2.2-6.9 12-13.6 23.6-13.5z" class="cls-14"/><path d="M417.1 184.8a20 20 0 005.3-1l-11.4-4 .3-1c2.5 0 4.2 0 6-1a6.3 6.3 0 002.6-3.6c-1.3 2-2.6 2.6-4.5 2a5.1 5.1 0 01-3-2.8 5.7 5.7 0 01-.1-4.5 12.2 12.2 0 014.3-5.3 30.6 30.6 0 019.7-4.6 31.5 31.5 0 014.8 9.7 12.4 12.4 0 010 6.8 5.7 5.7 0 01-2.8 3.4 5.2 5.2 0 01-4 .4c-2-.7-2.5-2-2.3-4.3-.8 2.3-.8 3.2.3 4.7a19.3 19.3 0 002.4 3.1c5-2.2 9.6-6.3 11.7-11.4 4-9.9-4.1-15.8-15.6-11.5-8.8 3.4-14.4 11.2-14.1 17 .2 5 4.5 8.2 10.4 7.9z" class="cls-14"/></g></g><g><rect width="40.1" height="56.1" x="385.3" y="139" class="cls-13" rx="5.2" transform="rotate(6.4 405 167)"/><path d="M417 197l-29.6-3.4a5.5 5.5 0 01-4.9-6l5.1-45.5a5.5 5.5 0 016.1-4.9l29.6 3.3a5.5 5.5 0 014.8 6.1l-5.1 45.5a5.5 5.5 0 01-6 4.8zm-23.4-59.2a4.9 4.9 0 00-5.4 4.3l-5 45.5a4.9 4.9 0 004.2 5.4l29.6 3.3a4.9 4.9 0 005.4-4.3l5.1-45.4a4.9 4.9 0 00-4.3-5.5z" class="cls-13"/><g><path d="M425.1 164.8a16.6 16.6 0 01-1.9 5c-5 8.7-17 13.6-25.9 12.6a15 15 0 01-7.6-2.9 20 20 0 0035.4-10 19.4 19.4 0 000-4.7zM406 152.5c6-1.2 11-.5 14.4 1.5a20 20 0 00-34.9 10.7 20.2 20.2 0 00.2 6.1v-.1c.7-7.3 8.8-15.8 20.3-18.2z" class="cls-14"/><path d="M403.5 181a19 19 0 005-2.1l-12-1.4.1-1c2.4-.6 4-.9 5.6-2.2a6.3 6.3 0 001.7-4.2c-.8 2.2-1.9 3.1-3.9 2.9a5 5 0 01-3.4-2.1 5.6 5.6 0 01-1.1-4.4 12.2 12.2 0 013-6 30.8 30.8 0 018.7-6.6 31.4 31.4 0 016.6 8.5 12.4 12.4 0 011.5 6.7 5.7 5.7 0 01-2.1 4 5.2 5.2 0 01-4 1.1c-2-.3-2.7-1.4-3-3.7-.3 2.4-.2 3.3 1.2 4.6a20 20 0 003 2.5c4.4-3.3 8.1-8.2 9-13.6 1.9-10.5-7.2-14.6-17.6-8-8 5-11.8 13.9-10.3 19.6 1.3 4.7 6.2 7 12 5.4z" class="cls-14"/></g></g><g><rect width="40.1" height="56.1" x="394.2" y="133.4" class="cls-13" rx="5.2" transform="rotate(8.8 414 161.4)"/><path d="M424.6 191.8l-29.4-4.5a5.5 5.5 0 01-4.5-6.3l7-45.2a5.5 5.5 0 016.2-4.6l29.4 4.5a5.5 5.5 0 014.6 6.3l-7 45.2a5.5 5.5 0 01-6.3 4.6zm-20.8-60a4.9 4.9 0 00-5.6 4.1l-7 45.2a4.9 4.9 0 004.1 5.6l29.4 4.6a4.9 4.9 0 005.6-4.1l7-45.3a4.9 4.9 0 00-4.1-5.6z" class="cls-13"/><g><path d="M434.2 160a16.9 16.9 0 01-2.2 4.9 28.4 28.4 0 01-26.3 11.6 15.1 15.1 0 01-7.5-3.2 20 20 0 0035.8-8.6 19.4 19.4 0 00.2-4.6zM415.5 147c6-1 11 0 14.3 2a20 20 0 00-35.3 15.4.8.8 0 010-.1c1-7.3 9.5-15.5 21-17.3z" class="cls-14"/><path d="M411.9 175.4a19.4 19.4 0 005-2l-11.9-1.9.2-1c2.4-.4 4-.6 5.7-2a6.3 6.3 0 001.9-4c-1 2.2-2 3-4 2.7a5.2 5.2 0 01-3.4-2.2 5.7 5.7 0 01-1-4.4 12.3 12.3 0 013.4-6 31 31 0 018.9-6.2 31 31 0 016.3 8.8 12.4 12.4 0 011.2 6.7 5.7 5.7 0 01-2.3 3.9 5.2 5.2 0 01-4 1c-2-.4-2.7-1.5-2.8-3.9-.4 2.5-.3 3.4 1 4.7a20 20 0 002.9 2.6c4.5-3 8.4-7.8 9.6-13.2 2.3-10.4-6.6-14.8-17.3-8.7-8.2 4.7-12.3 13.3-11.1 19 1 4.9 5.8 7.4 11.7 6z" class="cls-14"/></g></g></g><g><path d="M360.3 44.8a5.2 5.2 0 01-1.2 3.6 4.6 4.6 0 01-3.5 1.3h-.7v5.4h-2.8v-15h3.8c3 0 4.4 1.6 4.4 4.7zm-5.4 2.5h.6a2 2 0 001.5-.6 2.8 2.8 0 00.5-1.8 2.8 2.8 0 00-.5-1.8 1.8 1.8 0 00-1.4-.5h-.7zM370.5 49.4a7 7 0 01-1.2 4.4 4.1 4.1 0 01-5.6.8 4.5 4.5 0 01-1.5-2 8.3 8.3 0 01-.6-3.2 7.1 7.1 0 011.2-4.3 3.9 3.9 0 013.3-1.6 3.8 3.8 0 013.2 1.6 7.1 7.1 0 011.2 4.3zm-6 0a7.2 7.2 0 00.3 2.7 1.3 1.3 0 001.3 1c1 0 1.6-1.3 1.6-3.7a7 7 0 00-.4-2.7 1.3 1.3 0 00-2.5 0 7 7 0 00-.4 2.7zM376.4 53a3.2 3.2 0 001.2-.3v2.1a3.5 3.5 0 01-2 .5 2.6 2.6 0 01-2.2-.9 4.2 4.2 0 01-.7-2.6v-6h-1.1v-1.1l1.4-1 .7-2.5h1.8v2.5h2v2.2h-2v6c0 .8.3 1.1.9 1.1z"/></g><path d="M391.9 69.2h-50.8v23.6" class="cls-28"/><path d="M341.1 157.8v-65" class="cls-29"/><g><path d="M435.4 3.2a2.1 2.1 0 00-1.9 1.4 8.9 8.9 0 00-.7 3.9q0 5.2 2.8 5.2a5 5 0 002.5-.7v2.4a5 5 0 01-2.9.8 4.4 4.4 0 01-3.8-2 10.2 10.2 0 01-1.4-5.7 10 10 0 011.4-5.7 4.5 4.5 0 013.9-2 5.5 5.5 0 011.6.2 6.4 6.4 0 011.6.8l-1 2.2a8.7 8.7 0 00-1-.6 2.6 2.6 0 00-1-.2zM445.6 16l-.5-1.6h-.1a3.8 3.8 0 01-1.3 1.4 3.2 3.2 0 01-1.6.4 2.4 2.4 0 01-2-1 4.3 4.3 0 01-.7-2.6 3.4 3.4 0 011-2.7 4.7 4.7 0 013-1h1.5V8c0-1.1-.5-1.6-1.4-1.6a4.8 4.8 0 00-2.4.8l-1-2a6.8 6.8 0 013.8-1 3.5 3.5 0 012.7 1 4.2 4.2 0 011 3V16zm-2.4-2a1.4 1.4 0 001.2-.7 3.2 3.2 0 00.5-1.8v-1h-.9a2 2 0 00-1.3.6 2 2 0 00-.5 1.4c0 1 .4 1.5 1 1.5zM454.7 4.3a3.3 3.3 0 011 .2l-.3 2.6a2.2 2.2 0 00-.8-.1 1.8 1.8 0 00-1.5.8 4 4 0 00-.6 2.3V16h-2.7V4.5h2.3l.3 1.8a4.2 4.2 0 011-1.5 1.8 1.8 0 011.3-.5zM459.9 16.2a2.8 2.8 0 01-2.5-1.6 8.6 8.6 0 01-1-4.3 9 9 0 011-4.4 2.7 2.7 0 012.4-1.6 2.4 2.4 0 011.4.4 3.5 3.5 0 011 1.3h.2l-.1-2.2V0h2.7v16h-2l-.5-1.5a2.8 2.8 0 01-2.6 1.7zm.9-2.3a1.2 1.2 0 001-.7 6.5 6.5 0 00.5-2.6v-.3a7.8 7.8 0 00-.4-2.8 1.2 1.2 0 00-1.2-.8c-.5 0-.8.3-1 .9a8.2 8.2 0 00-.4 2.7 7.5 7.5 0 00.3 2.7 1.2 1.2 0 001.2.8zM473.4 12.6a3.4 3.4 0 01-1 2.6 4 4 0 01-2.8 1 5.3 5.3 0 01-2.9-.7V13a5.4 5.4 0 001.4.7 4.3 4.3 0 001.3.2 1.4 1.4 0 001-.3 1 1 0 00.3-.8 1.3 1.3 0 00-.3-1 6 6 0 00-1.3-1 5.2 5.2 0 01-1.8-1.5 3.6 3.6 0 01-.5-2 2.9 2.9 0 011-2.3 4.1 4.1 0 012.7-.8 5.5 5.5 0 012.9.8l-1 2a4.1 4.1 0 00-1.8-.6 1 1 0 00-.8.2 1 1 0 00-.3.7 1.2 1.2 0 00.3.8 6 6 0 001.2 1 7.9 7.9 0 011.5 1 3.3 3.3 0 01.7 1 3.5 3.5 0 01.2 1.4zM486 16V9.2a4.6 4.6 0 00-.3-2 1 1 0 00-1-.6 1.4 1.4 0 00-1.3 1 7.5 7.5 0 00-.4 3V16h-2.7V4.5h2.1l.4 1.5h.2a2.8 2.8 0 011-1.2 3 3 0 011.7-.5 2.7 2.7 0 012.3 1 5.2 5.2 0 01.8 3.2V16zM499.4 10.2a7 7 0 01-1.1 4.4 4.2 4.2 0 01-5.6.8 4.5 4.5 0 01-1.6-2 8.3 8.3 0 01-.5-3.2 7.1 7.1 0 011.2-4.3 3.9 3.9 0 013.2-1.6 3.8 3.8 0 013.2 1.6 7 7 0 011.3 4.3zm-6 0a7.2 7.2 0 00.4 2.7 1.3 1.3 0 001.2 1c1.1 0 1.7-1.3 1.7-3.7a7 7 0 00-.4-2.7 1.3 1.3 0 00-2.5 0 7 7 0 00-.4 2.7zM505.3 13.8a3.2 3.2 0 001.3-.2v2.1a3.5 3.5 0 01-2 .5 2.7 2.7 0 01-2.2-1 4.2 4.2 0 01-.7-2.6V6.7h-1.1V5.5l1.4-1 .7-2.4h1.7v2.4h2v2.2h-2v6c0 .8.3 1.2 1 1.2zM513.3 1.6a1.5 1.5 0 01.4-1.1 1.5 1.5 0 011-.4 1.4 1.4 0 011.1.4 1.5 1.5 0 01.4 1 1.4 1.4 0 01-.4 1.1 1.5 1.5 0 01-1 .4 1.5 1.5 0 01-1.1-.4 1.4 1.4 0 01-.4-1zM516 16h-2.7V4.5h2.7zM524.1 16V9.2a4.8 4.8 0 00-.3-2 1 1 0 00-1-.6 1.4 1.4 0 00-1.2 1 7.7 7.7 0 00-.4 3V16h-2.8V4.5h2.2l.3 1.5h.2a2.8 2.8 0 012.7-1.7 2.7 2.7 0 012.3 1 5.3 5.3 0 01.8 3.2V16zM539.4 16.2a2.6 2.6 0 01-1.3-.4 3.3 3.3 0 01-1.1-1.2h-.1l.1 1.7V21h-2.7V4.5h2L537 6h.1a2.7 2.7 0 012.5-1.7 2.7 2.7 0 012.4 1.5 8.8 8.8 0 01.9 4.4 8.7 8.7 0 01-1 4.4 2.8 2.8 0 01-2.4 1.6zm-.9-9.6a1.2 1.2 0 00-1.1.8 6.4 6.4 0 00-.4 2.4v.4a7.7 7.7 0 00.4 2.8 1.2 1.2 0 001.2.8q1.4 0 1.4-3.6a7.4 7.4 0 00-.4-2.7 1.2 1.2 0 00-1-.9zM547.4 16h-2.7V0h2.7zM555.3 16l-.5-1.6a3.8 3.8 0 01-1.3 1.4 3.2 3.2 0 01-1.7.4 2.4 2.4 0 01-2-1 4.2 4.2 0 01-.7-2.6 3.4 3.4 0 011-2.7 4.7 4.7 0 013-1h1.5V8c0-1.1-.4-1.6-1.4-1.6a4.7 4.7 0 00-2.3.8l-1-2a6.9 6.9 0 013.7-1 3.5 3.5 0 012.8 1 4.2 4.2 0 011 3V16zm-2.3-2a1.4 1.4 0 001.2-.7 3.2 3.2 0 00.4-1.8v-1h-.8a2 2 0 00-1.4.6 2 2 0 00-.4 1.4c0 1 .3 1.5 1 1.5zM558.4 4.5h2.8l1.6 6.5a15 15 0 01.4 2.4l.1-.9.1-1 1.4-7h3l-3.4 12.3A7 7 0 01563 20a3.5 3.5 0 01-2.6 1 5.8 5.8 0 01-1.5-.2v-2.3a3.5 3.5 0 001 .2q1.4 0 1.8-1.8l.2-.8zM429.3 31a26 26 0 011.8-4.8h2.1l-.6 2.8a35 35 0 00-.4 2.3h-2.7zm4.5 0a23.8 23.8 0 01.8-2.5l1-2.3h2.1q-.7 2.7-1 5.1H434zM444.7 41.2h-2.8V28.6H439v-2.4h8.5v2.4h-2.9zM454.6 41.2v-6.9q0-2.5-1.2-2.5a1.3 1.3 0 00-1.3 1 8.4 8.4 0 00-.4 2.9v5.5H449v-16h2.7v6a2.7 2.7 0 012.6-1.7 2.8 2.8 0 012.3 1 5.2 5.2 0 01.8 3.2V41zM463.8 41.4a4.1 4.1 0 01-3.4-1.6 6.7 6.7 0 01-1.2-4.3 7.6 7.6 0 011.1-4.4 3.6 3.6 0 013.1-1.6 3.5 3.5 0 013 1.4 6 6 0 011 3.8V36H462a3.7 3.7 0 00.6 2.3 2 2 0 001.7.8 5.4 5.4 0 002.7-.9v2.3a6 6 0 01-3.2.8zm-.4-9.8a1.1 1.1 0 00-1 .6 4 4 0 00-.4 2h2.7a4.1 4.1 0 00-.3-2 1 1 0 00-1-.6zM480 41.2l-2.9-12.8h-.1a20.7 20.7 0 01.2 2.7v10h-2.6v-15h4.3l2.6 11.9 2.6-11.8h4.3v15h-2.6V31a22.9 22.9 0 01.1-2.6L483 41.2zM497 41.2l-.2-1.5h-.2a2.9 2.9 0 01-1 1.2 2.9 2.9 0 01-1.7.5 2.7 2.7 0 01-2.3-1 5.1 5.1 0 01-.8-3.2v-7.5h2.8v6.8a4.8 4.8 0 00.3 2 1 1 0 001 .6 1.4 1.4 0 001.3-1 8 8 0 00.4-3v-5.4h2.7v11.5zM505.3 41.4a3.6 3.6 0 01-3-1.5 7.5 7.5 0 01-1.1-4.4 8.2 8.2 0 011-4.5 3.5 3.5 0 013-1.5 5.3 5.3 0 011.4.2 4.4 4.4 0 011.3.5l-.8 2.2a3 3 0 00-1.5-.5 1.3 1.3 0 00-1.3.9 7.3 7.3 0 00-.4 2.7 7.1 7.1 0 00.4 2.6 1.3 1.3 0 001.3 1 4 4 0 002.1-.8v2.4a4.4 4.4 0 01-2.4.7zM512 35l.7-1.4 2.3-3.9h2.9l-2.9 4.7 3 6.8h-2.8l-2-4.9-1.1 1v3.9h-2.7v-16h2.7v7.5L512 35zM522.5 26.4a31.3 31.3 0 01-1.8 4.9h-2l1-5.1h2.6zm4.5 0a32 32 0 01-1.8 4.9H523q.6-2.5 1-5.1h2.7z"/></g><path d="M577.4 55.1h-158v37.7" class="cls-28"/><path d="M419.4 129.5V92.8" class="cls-29"/><g><rect width="40" height="56.1" x="263.3" y="221.7" class="cls-16" rx="5.2"/><path d="M298.1 278h-29.6a5.5 5.5 0 01-5.5-5.5v-45.7a5.5 5.5 0 015.5-5.5H298a5.5 5.5 0 015.5 5.5v45.7a5.5 5.5 0 01-5.5 5.5zm-29.6-56a4.9 4.9 0 00-5 4.9v45.7a4.9 4.9 0 005 4.9H298a4.9 4.9 0 005-5V227a4.9 4.9 0 00-5-4.9z" class="cls-30"/><path d="M276.3 247.4h-3.9v-12.2l.2-4.6-.7.9-2.5 2.6-2.1-2.4 5.5-5.1h3.4zM291 237c0 3.8-.5 6.5-1.4 8.2a4.6 4.6 0 01-4.3 2.5 4.5 4.5 0 01-4.4-2.6q-1.3-2.5-1.3-8.1t1.4-8.2a5 5 0 018.7 0 18 18 0 011.3 8.2zm-7.5 0a29.4 29.4 0 00.4 5.9c.2 1 .7 1.5 1.4 1.5a1.2 1.2 0 001.1-.7 5.7 5.7 0 00.6-2.1 42.9 42.9 0 00.1-4.6 27.9 27.9 0 00-.4-5.9c-.2-1-.7-1.5-1.4-1.5s-1.2.5-1.4 1.5a29.8 29.8 0 00-.4 5.9zM298.7 258a4 4 0 00-8-.4v.1c0 .3 0 .4-.2.4s-.2-.1-.2-.4v-.1a4 4 0 00-8 .4 3 3 0 00.1.5 12.4 12.4 0 002 5l3.5 5a34 34 0 012.7 5.1 34 34 0 012.7-5.2c1.3-2 2.8-3.8 3.5-5a12.5 12.5 0 002-4.9 3 3 0 00-.1-.5z" class="cls-27"/><g><rect width="40" height="56.1" x="220.9" y="221.7" class="cls-16" rx="5.2"/><path d="M255.7 278h-29.6a5.5 5.5 0 01-5.5-5.5v-45.7a5.5 5.5 0 015.5-5.5h29.6a5.5 5.5 0 015.5 5.5v45.7a5.5 5.5 0 01-5.5 5.5zm-29.6-56a4.9 4.9 0 00-5 4.9v45.7a4.9 4.9 0 005 4.9h29.6a4.9 4.9 0 005-5V227a4.9 4.9 0 00-5-4.9z" class="cls-30"/><path d="M237.5 247.4l-1.2-5.3H231l-1.2 5.3h-3.9l5.2-20.9h5.3l5.1 20.9zm-2-8.7l-1-4.8-.5-2.2-.4-2.4a62.5 62.5 0 01-2 9.4zM253.3 260.7a3.7 3.7 0 00-2.5 1c-.2.3-.5.3-.6.2s1-1.3 1-1.3a3.7 3.7 0 001.4-2.9 3.7 3.7 0 10-6.2 2.9s1.3 1.2 1 1.3-.3 0-.5-.2a3.7 3.7 0 10.6 4.6s1-1.4.8.8c-.6 4.7-2.3 6.5-2.3 6.5h5.7s-1.7-1.8-2.2-6.5c-.3-2.2.7-.8.7-.8a3.7 3.7 0 103.2-5.6z" class="cls-18"/></g><g><rect width="40" height="56.1" x="305.7" y="221.7" class="cls-16" rx="5.2"/><path d="M340.6 278h-29.7a5.5 5.5 0 01-5.5-5.5V227a5.5 5.5 0 015.5-5.5h29.7a5.5 5.5 0 015.4 5.5v45.7a5.5 5.5 0 01-5.4 5.4zm-29.7-56a4.9 4.9 0 00-5 4.9v45.7a4.9 4.9 0 005 4.9h29.7a4.9 4.9 0 004.8-4.9v-45.7a4.9 4.9 0 00-4.8-5z" class="cls-30"/><path d="M317.8 234.4a4.7 4.7 0 013.7 1.6 6.8 6.8 0 011.4 4.5 7.6 7.6 0 01-1.7 5.3 6.2 6.2 0 01-4.9 1.9 8.4 8.4 0 01-4.4-1V243a7.4 7.4 0 001.9 1 6.4 6.4 0 002.1.3q3 0 3-3.5 0-3.3-3-3.3a7.8 7.8 0 00-2.4.4l-1.3-1 .7-10.3h8.8v3.4h-5.5l-.3 4.5a8.4 8.4 0 011.9-.1zM340.5 265.1l-2.4-3a38.8 38.8 0 01-5.2-8 39.4 39.4 0 01-5.2 8l-2.4 3a3.7 3.7 0 003 5.8 3.7 3.7 0 003.3-1.8l.3-.3c.2 0 0 .2 0 .4a10.3 10.3 0 01-1.8 4.4h5.6a10.3 10.3 0 01-1.9-4.4v-.4l.3.3a3.7 3.7 0 106.3-4z" class="cls-18"/></g></g><g><path d="M223.7 455.7H221v-15h6.7v2.4h-4v4.1h3.8v2.5h-3.7zM232.1 455.7h-2.7v-16h2.7zM242.9 450a7 7 0 01-1.2 4.3 4.2 4.2 0 01-5.6.8 4.5 4.5 0 01-1.6-2 8.4 8.4 0 01-.5-3.2 7 7 0 011.2-4.3 4.1 4.1 0 016.5 0 7 7 0 011.2 4.3zm-6.1 0a7.2 7.2 0 00.4 2.6 1.3 1.3 0 001.2 1c1.1 0 1.7-1.3 1.7-3.7a7 7 0 00-.4-2.6 1.3 1.3 0 00-1.3-1 1.3 1.3 0 00-1.2 1 7 7 0 00-.4 2.6zM249.9 455.9a2.6 2.6 0 01-1.3-.4 3.1 3.1 0 01-1.1-1.1h-.1l.1 1.7v4.6h-2.7v-16.5h2l.6 1.5a2.7 2.7 0 015-.1 8.9 8.9 0 01.9 4.3 8.7 8.7 0 01-1 4.4 2.8 2.8 0 01-2.4 1.6zm-.9-9.5a1.2 1.2 0 00-1.1.7 6.2 6.2 0 00-.4 2.5v.3a7.6 7.6 0 00.4 2.8 1.2 1.2 0 001.2.8c1 0 1.4-1.2 1.4-3.6a7.5 7.5 0 00-.4-2.7 1.2 1.2 0 00-1.1-.8z"/></g><path d="M211.6 469.8h72.3V313.1" class="cls-28"/><path fill="none" stroke="#fff" stroke-miterlimit="10" stroke-width=".8" d="M283.9 401.7V300"/><path fill="none" stroke="#fff" stroke-miterlimit="10" stroke-width="1.1" d="M356.7 291.3v9.1H209.9v-9.1"/></g></g></g></svg>