<?xml version="1.0" encoding="UTF-8" standalone="no"?>
<!-- Created with Inkscape (http://www.inkscape.org/) -->

<svg
   xmlns:dc="http://purl.org/dc/elements/1.1/"
   xmlns:cc="http://creativecommons.org/ns#"
   xmlns:rdf="http://www.w3.org/1999/02/22-rdf-syntax-ns#"
   xmlns:svg="http://www.w3.org/2000/svg"
   xmlns="http://www.w3.org/2000/svg"
   xmlns:sodipodi="http://sodipodi.sourceforge.net/DTD/sodipodi-0.dtd"
   xmlns:inkscape="http://www.inkscape.org/namespaces/inkscape"
   width="48.474335"
   height="451.67764"
   id="svg2"
   version="1.1"
   inkscape:version="0.47 r22583"
   sodipodi:docname="Nuovo documento 1">
  <defs
     id="defs4">
    <inkscape:perspective
       sodipodi:type="inkscape:persp3d"
       inkscape:vp_x="0 : 526.18109 : 1"
       inkscape:vp_y="0 : 1000 : 0"
       inkscape:vp_z="744.09448 : 526.18109 : 1"
       inkscape:persp3d-origin="372.04724 : 350.78739 : 1"
       id="perspective10" />
    <inkscape:perspective
       sodipodi:type="inkscape:persp3d"
       inkscape:vp_x="0 : 526.18109 : 1"
       inkscape:vp_y="0 : 1000 : 0"
       inkscape:vp_z="744.09448 : 526.18109 : 1"
       inkscape:persp3d-origin="372.04724 : 350.78739 : 1"
       id="perspective2465" />
    <inkscape:perspective
       sodipodi:type="inkscape:persp3d"
       inkscape:vp_x="0 : 526.18109 : 1"
       inkscape:vp_y="0 : 1000 : 0"
       inkscape:vp_z="744.09448 : 526.18109 : 1"
       inkscape:persp3d-origin="372.04724 : 350.78739 : 1"
       id="perspective2390" />
    <inkscape:perspective
       id="perspective10-4"
       inkscape:persp3d-origin="372.04724 : 350.78739 : 1"
       inkscape:vp_z="744.09448 : 526.18109 : 1"
       inkscape:vp_y="0 : 1000 : 0"
       inkscape:vp_x="0 : 526.18109 : 1"
       sodipodi:type="inkscape:persp3d" />
  </defs>
  <sodipodi:namedview
     id="base"
     pagecolor="#ffffff"
     bordercolor="#666666"
     borderopacity="1.0"
     inkscape:pageopacity="0.0"
     inkscape:pageshadow="2"
     inkscape:zoom="0.98994949"
     inkscape:cx="86.667964"
     inkscape:cy="102.288"
     inkscape:document-units="px"
     inkscape:current-layer="layer1"
     showgrid="false"
     inkscape:window-width="1280"
     inkscape:window-height="968"
     inkscape:window-x="-4"
     inkscape:window-y="-4"
     inkscape:window-maximized="1" />
  <metadata
     id="metadata7">
    <rdf:RDF>
      <cc:Work
         rdf:about="">
        <dc:format>image/svg+xml</dc:format>
        <dc:type
           rdf:resource="http://purl.org/dc/dcmitype/StillImage" />
        <dc:title></dc:title>
      </cc:Work>
    </rdf:RDF>
  </metadata>
  <g
     inkscape:label="Livello 1"
     inkscape:groupmode="layer"
     id="layer1"
     transform="translate(-32.900928,-194.7782)">
    <path
       style="opacity:0.98999999;fill:#de9922;fill-opacity:1;stroke:none"
       d="m 53.53125,567.875 c -7.511886,0.31162 -18.25797,2.83941 -19.65625,11.5625 -0.809992,7.40256 6.763268,11.59698 13.15625,11.84375 8.586301,0.58203 17.791089,1.27278 26,-1.28125 6.237446,-3.31827 8.065409,-13.37262 1.4375,-17.375 -5.82706,-4.64385 -13.771682,-4.96094 -20.9375,-4.75 z m -5.375,17.3125 c 2.379569,0.54805 6.897639,1.13081 8.125,1.15625 -3.284482,-0.02 -6.44755,-0.50191 -9.5625,-1.46875 l 0.977176,0.21243 0.460324,0.10007 z"
       id="path2844" />
    <path
       style="opacity:0.98999999;fill:#de9922;fill-opacity:1;stroke:none"
       d="m 54.25,251 c -6.755959,0.74512 -16.176852,1.06768 -19.53125,8.0625 -2.106955,7.67823 7.074675,12.10028 13.15625,13.21875 9.790372,1.20961 21.374408,1.85077 29.40625,-4.71875 5.701118,-4.68865 1.517505,-14.21641 -5.25,-15.125 C 66.323149,250.64815 60.187667,250.67891 54.25,251 z m 2.53125,7.25 c 3.472007,0.17474 7.252257,0.33729 10.15625,2.46875 -3.511069,-1.75254 -7.446015,-1.94902 -11.28125,-2.5 l 0.999614,0.0278 0.125386,0.003 z m -2.5,7.09375 c 4.353102,0.65024 4.230682,1.1689 0.09375,0.1875 -0.801484,-0.30323 -2.734262,-0.65574 -0.09375,-0.1875 z"
       id="path2848" />
    <g
       transform="translate(61.518598,405.61911)"
       id="layer1-4"
       inkscape:label="Livello 1">
      <g
         transform="translate(383.85797,15.152288)"
         id="g2471">
        <path
           id="path2479"
           d="m -392.72595,224.84816 c -5.36915,-1.30711 -9.45631,-4.04179 -12.17043,-8.14311 -4.13239,-6.24446 -4.4416,-11.2855 -1.80201,-29.37831 l 2.32792,-15.95649 -3.4559,-3.04351 c -6.46122,-5.69022 -6.14626,-13.92845 0.70183,-18.3572 l 3.60142,-2.32909 0.54716,-12.17861 c 0.30094,-6.69823 0.58754,-61.00361 0.63688,-120.67861 0.0493,-59.675 0.37139,-119.79609 0.71565,-133.60242 0.34427,-13.80632 0.33457,-26.02043 -0.0215,-27.14245 -0.35612,-1.12202 -1.9942,-2.59786 -3.64018,-3.27965 -5.74747,-2.38068 -8.68259,-9.85241 -5.90736,-15.03796 0.56839,-1.06204 2.85571,-2.86065 5.08295,-3.9969 2.81283,-1.43499 3.87137,-2.53013 3.4662,-3.586 -1.07764,-2.80827 -3.78003,-25.77917 -3.93206,-33.42329 -0.13454,-6.76465 0.14935,-8.02228 2.67235,-11.83869 3.75226,-5.67584 11.91289,-9.6063 18.16569,-8.74926 6.74581,0.92461 11.41659,4.25709 14.12795,10.07991 2.78339,5.97751 2.87252,8.4651 0.82679,23.07671 -0.84704,6.05 -1.79411,13.7 -2.1046,17 -0.56058,5.95823 -0.54345,6.00787 2.46067,7.13002 3.38822,1.26564 6.29542,5.99947 6.42217,10.4573 0.10409,3.66097 -2.44741,6.54597 -8.22155,9.29619 l -4.5,2.14334 -0.5,24.48658 c -0.275,13.46761 -0.62756,79.25724 -0.78347,146.19917 l -0.28348,121.7126 3.99944,2.04036 c 11.48459,5.859 11.94539,18.92393 0.81751,23.17864 -1.5125,0.5783 -2.75,1.71106 -2.75,2.51725 0,0.8062 1.0741,6.72467 2.3869,13.15218 3.3019,16.16627 3.91687,22.2519 2.6016,25.74492 -1.84574,4.90182 -7.94683,10.35159 -13.40256,11.97177 -2.72192,0.80832 -4.97977,1.42362 -5.01744,1.36732 -0.0377,-0.0563 -1.4185,-0.43102 -3.0685,-0.83271 z m 9.79966,-3.78127 3.20034,-1.71635 -3.5,-0.56071 -3.5,-0.56071 2.5,-1.41166 2.5,-1.41166 -2.42586,-0.58887 c -2.91242,-0.70697 -3.86128,-2.79441 -1.65506,-3.64102 2.81276,-1.07936 6.51637,0.50196 7.15739,3.05598 0.38479,1.53312 1.1184,2.22192 2.00437,1.88194 1.73782,-0.66686 3.89493,-8.25484 2.68939,-9.46037 -0.48144,-0.48144 -5.71505,-0.57923 -11.63024,-0.21731 -5.91518,0.36192 -10.21037,0.99456 -9.54487,1.40587 0.85019,0.52545 1.02172,2.54921 0.57684,6.80568 -0.5344,5.11284 -0.3632,6.21517 1.09743,7.06628 2.62671,1.53059 6.96702,1.26388 10.53027,-0.64709 z m -14.29966,-2.28366 c 0,-0.55 -0.47656,-1 -1.05902,-1 -0.58246,0 -0.7809,0.45 -0.44098,1 0.33992,0.55 0.81648,1 1.05902,1 0.24254,0 0.44098,-0.45 0.44098,-1 z m -3.26903,-11.69299 c -0.97297,-0.25354 -2.32297,-0.23687 -3,0.037 -0.67703,0.27393 0.11903,0.48137 1.76903,0.46099 1.65,-0.0204 2.20394,-0.2445 1.23097,-0.49804 z m 26.6462,-39.26031 c 5.72399,-2.17626 7.24842,-8.96135 3.11661,-13.87173 -2.92209,-3.4727 -8.7053,-5.14117 -18.49378,-5.3355 -13.93302,-0.27661 -22.64318,5.65162 -20.01302,13.62107 1.25422,3.80033 2.2791,4.42882 10.01302,6.14031 5.90713,1.30723 21.36945,0.96958 25.37717,-0.55415 z m -25.1023,-1.88798 c -10.32981,-3.37857 -9.77467,-6.45198 0.67581,-3.74148 4.88099,1.26597 9.49839,1.68792 15.72927,1.43739 7.3062,-0.29376 8.82005,-0.0989 8.82005,1.13555 0,3.1606 -16.76062,3.93702 -25.22513,1.16854 z m 6.07631,-6.12544 c -5.4725,-0.83985 -7.35118,-1.61236 -7.35118,-3.02278 0,-0.81115 21.97851,-0.19534 22.93333,0.64256 0.23834,0.20915 0.0133,0.78575 -0.5,1.28134 -1.44572,1.39575 -9.38064,1.97388 -15.08215,1.09888 z m 11.2772,-15.40632 c 0.0706,-0.0698 0.40474,-59.52696 0.74252,-132.12696 0.33777,-72.6 0.73,-137.85 0.87161,-145 l 0.25749,-13 -9,0 -9,0 -0.60541,52.5 c -0.77188,66.93671 -1.0536,237.50765 -0.39337,238.16789 0.40723,0.40722 16.68836,-0.10699 17.12716,-0.54093 z m 8.8987,-296.66343 c 4.53549,-2.24683 5.00074,-2.80202 5.28913,-6.31162 0.61559,-7.49132 -5.73634,-10.25349 -21.5776,-9.38315 -11.80398,0.64852 -18.99604,2.9166 -19.83387,6.25476 -1.95324,7.78232 6.97281,12.70614 22.12234,12.20322 7.17392,-0.23816 10.04797,-0.80541 14,-2.76321 z m -18.02708,-1.48689 c -2.75,-0.76361 -5.3375,-1.40823 -5.75,-1.43251 -0.4125,-0.0243 -0.75,-0.76836 -0.75,-1.65354 0,-1.66242 0.048,-1.66131 10.75927,0.24908 3.74682,0.66826 5.11946,2.18965 3.11884,3.45682 -1.66053,1.05177 -1.22682,1.08821 -7.37811,-0.61985 z m 11.19838,-5.11071 c -1.67021,-0.88464 -7.03538,-1.72366 -13.28534,-2.07759 -5.76605,-0.32652 -10.71989,-0.97582 -11.00855,-1.44288 -1.20263,-1.94589 5.31367,-3.00184 14.40328,-2.33401 7.72127,0.5673 9.76665,1.08148 12,3.01664 3.46982,3.00655 1.98375,5.00581 -2.10939,2.83784 z m 7.30162,-52.69813 c 0,-0.66194 -1.16945,-2.92452 -2.59877,-5.02796 -3.14201,-4.62389 -8.14964,-6.96526 -12.96495,-6.06191 -5.20989,0.97738 -5.16787,2.42207 0.0704,2.42207 4.97731,0 8.91426,1.50982 7.9606,3.05288 -0.37258,0.60284 -1.2413,0.60327 -2.36634,0.001 -2.03445,-1.08881 -6.10098,-0.30925 -6.10098,1.16957 0,0.5447 0.6421,0.74396 1.42689,0.44281 0.78479,-0.30115 1.99335,0.135 2.68569,0.96923 1.69929,2.04751 -0.35199,3.32857 -5.36258,3.34903 -2.0625,0.008 -3.75095,0.35281 -3.75211,0.76531 -0.001,0.4125 4.72384,0.60855 10.5,0.43566 7.34462,-0.21983 10.50211,-0.67618 10.50211,-1.51786 z m -29.5,-0.6678 c 0.33992,-0.55 0.16803,-1 -0.38197,-1 -0.55,0 -1.27811,0.45 -1.61803,1 -0.33992,0.55 -0.16803,1 0.38197,1 0.55,0 1.27811,-0.45 1.61803,-1 z m 4.5,-6.60699 c 0,-0.21616 -0.675,-0.39301 -1.5,-0.39301 -0.825,0 -1.5,0.43588 -1.5,0.96862 0,0.53273 0.675,0.70959 1.5,0.39301 0.825,-0.31659 1.5,-0.75246 1.5,-0.96862 z"
           style="fill:#03159d" />
        <path
           id="path2477"
           d="m -392.88571,224.82562 c -5.36658,-1.2787 -9.69088,-4.43919 -12.67258,-9.26198 -3.61437,-5.8461 -3.78378,-12.81494 -0.75747,-31.15937 l 2.12467,-12.87895 -3.54559,-3.12105 c -6.54973,-5.76547 -6.27698,-13.97945 0.61214,-18.43473 l 3.60142,-2.32909 0.54716,-12.17861 c 0.30094,-6.69823 0.58754,-61.00361 0.63688,-120.67861 0.0493,-59.675 0.37139,-119.79609 0.71565,-133.60242 0.34427,-13.80632 0.33457,-26.02043 -0.0215,-27.14245 -0.35612,-1.12202 -1.9942,-2.59786 -3.64018,-3.27965 -5.74747,-2.38068 -8.68259,-9.85241 -5.90736,-15.03796 0.56839,-1.06204 2.86777,-2.8668 5.10973,-4.01056 3.78099,-1.92892 4.02978,-2.3095 3.43404,-5.25327 -1.1269,-5.56847 -3.97317,-32.03047 -3.86988,-35.97858 0.23618,-9.02748 11.26608,-17.65593 20.8846,-16.33756 10.16941,1.39387 17.35634,10.62381 16.0369,20.59567 -0.33088,2.50073 -1.48781,10.97439 -2.57095,18.83035 -1.08314,7.85597 -1.75224,14.84935 -1.48688,15.54085 0.26535,0.69151 1.78096,1.74741 3.36801,2.34646 3.25257,1.2277 6.15825,6.04534 6.28254,10.41644 0.10409,3.66097 -2.44741,6.54597 -8.22155,9.29619 l -4.5,2.14334 -0.5,24.48658 c -0.275,13.46761 -0.62756,79.25724 -0.78347,146.19917 l -0.28348,121.7126 3.99944,2.04036 c 11.48459,5.859 11.94539,18.92393 0.81751,23.17864 -3.4386,1.31473 -3.46383,2.5485 -0.35017,17.12278 3.37687,15.80631 3.91078,20.78116 2.60297,24.25397 -1.85903,4.9365 -7.94562,10.38459 -13.41686,12.00937 -2.72192,0.80832 -4.97977,1.42362 -5.01744,1.36732 -0.0377,-0.0563 -1.49039,-0.44116 -3.22826,-0.85525 z m 9.95942,-3.75873 3.20034,-1.71635 -3.5,-0.56071 -3.5,-0.56071 2.5,-1.41166 2.5,-1.41166 -2.42586,-0.58887 c -2.91242,-0.70697 -3.86128,-2.79441 -1.65506,-3.64102 2.81276,-1.07936 6.51637,0.50196 7.15739,3.05598 0.38479,1.53312 1.1184,2.22192 2.00437,1.88194 1.73782,-0.66686 3.89493,-8.25484 2.68939,-9.46037 -0.48144,-0.48144 -5.71505,-0.57923 -11.63024,-0.21731 -5.91518,0.36192 -10.21037,0.99456 -9.54487,1.40587 0.85019,0.52545 1.02172,2.54921 0.57684,6.80568 -0.5344,5.11284 -0.3632,6.21517 1.09743,7.06628 2.62671,1.53059 6.96702,1.26388 10.53027,-0.64709 z m -14.29966,-2.28366 c 0,-0.55 -0.47656,-1 -1.05902,-1 -0.58246,0 -0.7809,0.45 -0.44098,1 0.33992,0.55 0.81648,1 1.05902,1 0.24254,0 0.44098,-0.45 0.44098,-1 z m -3.26903,-11.69299 c -0.97297,-0.25354 -2.32297,-0.23687 -3,0.037 -0.67703,0.27393 0.11903,0.48137 1.76903,0.46099 1.65,-0.0204 2.20394,-0.2445 1.23097,-0.49804 z m 2.08919,-6.59032 c 0.59766,-0.72013 1.15822,-6.68634 1.27736,-13.59524 0.16612,-9.63357 -0.0915,-12.4997 -1.18425,-13.17505 -0.7681,-0.47471 -1.71221,-0.54436 -2.09801,-0.15476 -1.03513,1.04532 -4.12712,24.95327 -3.45404,26.70731 0.70495,1.83706 4.00576,1.96872 5.45894,0.21774 z m 11.98324,-5.68574 c 0.38761,-8.26447 -1.534,-20.03095 -3.27131,-20.03095 -2.50857,0 -3.17112,2.62531 -3.37399,13.36914 -0.21885,11.58973 0.53235,13.96091 4.25439,13.42912 1.83318,-0.26192 2.12447,-1.08641 2.39091,-6.76731 z m 10.1966,3.46949 c 0,-4.19442 -3.10264,-20.93988 -4.06394,-21.93377 -1.71727,-1.77549 -2.01564,0.21016 -0.98554,6.55859 0.5689,3.50611 1.03777,8.25044 1.04193,10.54295 0.004,2.29252 0.28069,4.88002 0.61454,5.75 0.97041,2.52887 3.39301,1.87359 3.39301,-0.91777 z m 2.37717,-30.45374 c 5.72399,-2.17626 7.24842,-8.96135 3.11661,-13.87173 -2.92209,-3.4727 -8.7053,-5.14117 -18.49378,-5.3355 -13.93302,-0.27661 -22.64318,5.65162 -20.01302,13.62107 1.25422,3.80033 2.2791,4.42882 10.01302,6.14031 5.90713,1.30723 21.36945,0.96958 25.37717,-0.55415 z m -25.1023,-1.88798 c -10.32981,-3.37857 -9.77467,-6.45198 0.67581,-3.74148 4.88099,1.26597 9.49839,1.68792 15.72927,1.43739 7.3062,-0.29376 8.82005,-0.0989 8.82005,1.13555 0,3.1606 -16.76062,3.93702 -25.22513,1.16854 z m 6.07631,-6.12544 c -5.4725,-0.83985 -7.35118,-1.61236 -7.35118,-3.02278 0,-0.81115 21.97851,-0.19534 22.93333,0.64256 0.23834,0.20915 0.0133,0.78575 -0.5,1.28134 -1.44572,1.39575 -9.38064,1.97388 -15.08215,1.09888 z m 11.2772,-15.40632 c 0.0706,-0.0698 0.40474,-59.52696 0.74252,-132.12696 0.33777,-72.6 0.73,-137.85 0.87161,-145 l 0.25749,-13 -9,0 -9,0 -0.60541,52.5 c -0.77188,66.93671 -1.0536,237.50765 -0.39337,238.16789 0.40723,0.40722 16.68836,-0.10699 17.12716,-0.54093 z m 8.8987,-296.66343 c 4.53549,-2.24683 5.00074,-2.80202 5.28913,-6.31162 0.61559,-7.49132 -5.73634,-10.25349 -21.5776,-9.38315 -11.80398,0.64852 -18.99604,2.9166 -19.83387,6.25476 -1.95324,7.78232 6.97281,12.70614 22.12234,12.20322 7.17392,-0.23816 10.04797,-0.80541 14,-2.76321 z m -18.02708,-1.48689 c -2.75,-0.76361 -5.3375,-1.40823 -5.75,-1.43251 -0.4125,-0.0243 -0.75,-0.76836 -0.75,-1.65354 0,-1.66242 0.048,-1.66131 10.75927,0.24908 3.74682,0.66826 5.11946,2.18965 3.11884,3.45682 -1.66053,1.05177 -1.22682,1.08821 -7.37811,-0.61985 z m 11.19838,-5.11071 c -1.67021,-0.88464 -7.03538,-1.72366 -13.28534,-2.07759 -5.76605,-0.32652 -10.71989,-0.97582 -11.00855,-1.44288 -1.20263,-1.94589 5.31367,-3.00184 14.40328,-2.33401 7.72127,0.5673 9.76665,1.08148 12,3.01664 3.46982,3.00655 1.98375,5.00581 -2.10939,2.83784 z m -16.24932,-13.28351 c 0.3119,-0.50467 0.11956,-4.0731 -0.42742,-7.92985 -0.54699,-3.85675 -1.05802,-10.08133 -1.13563,-13.83242 -0.14196,-6.86124 -1.17493,-11.33323 -2.61126,-11.30484 -0.42611,0.008 -1.39873,0.41048 -2.16138,0.89346 -1.17622,0.7449 -1.11723,3.13245 0.38878,15.73469 0.97648,8.1711 2.21806,15.41904 2.75908,16.10654 1.16299,1.47789 2.40016,1.6069 3.18783,0.33242 z m 9.07187,-1.11629 c 1.24931,-2.02142 2.66701,-29.12688 1.61043,-30.79031 -0.50572,-0.79619 -2.19484,-1.19492 -4.23623,-1 l -3.39513,0.32418 0.24379,13 c 0.31178,16.62628 0.78963,19.5 3.24251,19.5 1.04261,0 2.1832,-0.46524 2.53463,-1.03387 z m 8.96781,0.0521 c 0.69889,-1.13082 4.51126,-26.0536 4.51126,-29.49163 0,-2.84807 -3.93449,-4.25154 -5.61589,-2.00325 -1.22799,1.64201 -2.93452,29.77707 -1.90697,31.43968 0.80821,1.30771 2.2215,1.33361 3.0116,0.0552 z m 5.51126,-38.35041 c 0,-0.66194 -1.16945,-2.92452 -2.59877,-5.02796 -3.14201,-4.62389 -8.14964,-6.96526 -12.96495,-6.06191 -5.20989,0.97738 -5.16787,2.42207 0.0704,2.42207 4.97731,0 8.91426,1.50982 7.9606,3.05288 -0.37258,0.60284 -1.2413,0.60327 -2.36634,0.001 -2.03445,-1.08881 -6.10098,-0.30925 -6.10098,1.16957 0,0.5447 0.6421,0.74396 1.42689,0.44281 0.78479,-0.30115 1.99335,0.135 2.68569,0.96923 1.69929,2.04751 -0.35199,3.32857 -5.36258,3.34903 -2.0625,0.008 -3.75095,0.35281 -3.75211,0.76531 -0.001,0.4125 4.72384,0.60855 10.5,0.43566 7.34462,-0.21983 10.50211,-0.67618 10.50211,-1.51786 z m -29.5,-0.6678 c 0.33992,-0.55 0.16803,-1 -0.38197,-1 -0.55,0 -1.27811,0.45 -1.61803,1 -0.33992,0.55 -0.16803,1 0.38197,1 0.55,0 1.27811,-0.45 1.61803,-1 z m 4.5,-6.60699 c 0,-0.21616 -0.675,-0.39301 -1.5,-0.39301 -0.825,0 -1.5,0.43588 -1.5,0.96862 0,0.53273 0.675,0.70959 1.5,0.39301 0.825,-0.31659 1.5,-0.75246 1.5,-0.96862 z"
           style="fill:#55190c" />
        <path
           id="path2475"
           d="m -382.0072,215.71551 c 0.15469,-0.69038 -0.84375,-1.57062 -2.21875,-1.95611 -2.27123,-0.63674 -2.32742,-0.77379 -0.61408,-1.49767 2.14254,-0.90521 5.11408,0.57481 5.11408,2.54715 0,0.71923 -0.57656,1.49987 -1.28125,1.73477 -0.70469,0.23489 -1.15469,-0.13777 -1,-0.82814 z m 9.574,-6.97357 c 0.27629,-1.88249 -0.0577,-3.11978 -0.93094,-3.44887 -0.749,-0.28226 -8.71735,-0.17494 -17.70745,0.23848 -8.99011,0.41342 -16.52827,0.45608 -16.75148,0.0948 -0.47461,-0.76822 1.17816,-15.88762 2.6064,-23.84311 0.54307,-3.025 1.06192,-7.1875 1.153,-9.25 0.185,-4.18968 0.6065,-4.33276 7.83772,-2.6604 7.15784,1.65539 20.32127,0.1816 24.65685,-2.7606 1.9677,-1.33532 3.76888,-2.2366 4.00263,-2.00286 0.6701,0.67011 -5.65943,5.67386 -7.17719,5.67386 -0.75034,0 -1.6086,0.39535 -1.90723,0.87856 -0.29864,0.4832 0.7998,7.02208 2.44098,14.53084 2.90213,13.27791 3.8272,23.95141 2.1649,24.97877 -0.45048,0.27841 -0.62516,-0.81485 -0.38819,-2.42946 z m -25.97259,-8.24202 c 0.59766,-0.72013 1.15822,-6.68634 1.27736,-13.59524 0.16612,-9.63357 -0.0915,-12.4997 -1.18425,-13.17505 -0.7681,-0.47471 -1.71221,-0.54436 -2.09801,-0.15476 -1.03513,1.04532 -4.12712,24.95327 -3.45404,26.70731 0.70495,1.83706 4.00576,1.96872 5.45894,0.21774 z m 11.98324,-5.68574 c 0.38761,-8.26447 -1.534,-20.03095 -3.27131,-20.03095 -2.50857,0 -3.17112,2.62531 -3.37399,13.36914 -0.21885,11.58973 0.53235,13.96091 4.25439,13.42912 1.83318,-0.26192 2.12447,-1.08641 2.39091,-6.76731 z m 10.1966,3.46949 c 0,-4.19442 -3.10264,-20.93988 -4.06394,-21.93377 -1.71727,-1.77549 -2.01564,0.21016 -0.98554,6.55859 0.5689,3.50611 1.03777,8.25044 1.04193,10.54295 0.004,2.29252 0.28069,4.88002 0.61454,5.75 0.97041,2.52887 3.39301,1.87359 3.39301,-0.91777 z m -20.99124,-33.10749 c -5.8534,-1.57274 -9.91266,-4.10916 -4.50876,-2.81729 1.65,0.39446 4.04179,1.1013 5.3151,1.57077 1.2733,0.46946 6.6733,0.89843 12,0.95325 6.39053,0.0658 8.83451,0.37202 7.1849,0.90032 -4.0298,1.29057 -14.06256,0.98591 -19.99124,-0.60705 z m 30.15128,-4.45182 c -0.088,-1.95738 -0.82073,-4.43238 -1.62824,-5.5 -0.80751,-1.06762 -1.47492,-2.39113 -1.48315,-2.94113 -0.008,-0.55 0.90763,0.44035 2.03523,2.20077 1.35383,2.11362 1.91194,4.32136 1.64319,6.5 l -0.407,3.29923 -0.16003,-3.55887 z m -22.68698,-2.06766 c -2.03247,-0.43536 -0.83756,-0.67427 3.77694,-0.75516 3.7125,-0.0651 6.75,0.0594 6.75,0.27665 0,0.7634 -7.58694,1.10827 -10.52694,0.47851 z m -19.49071,-5.4205 c 0.68488,-1.12587 2.54403,-2.79244 4.13144,-3.70349 2.52272,-1.44784 2.89785,-2.26054 2.97865,-6.45297 0.26509,-13.75489 0.99559,-28.71788 1.42289,-29.14518 0.26657,-0.26656 0.48467,6.76378 0.48467,15.62299 0,8.8592 0.3375,16.30575 0.75,16.54788 0.4125,0.24213 4.8,0.15619 9.75,-0.19098 l 9,-0.63122 0.53504,-18 0.53504,-18 0.22112,17 c 0.16612,12.77141 0.59182,17.71078 1.71144,19.85752 1.45788,2.79532 1.43845,2.84451 -0.89229,2.25953 -1.31043,-0.3289 -5.02135,-0.85378 -8.24648,-1.1664 -6.97401,-0.67602 -17.14778,2.08551 -21.10587,5.7289 -2.21475,2.03866 -2.36967,2.07186 -1.27565,0.27342 z m 7.76834,-47.97684 c -0.26536,-1.38812 -0.0928,-2.76468 0.38342,-3.05901 0.47624,-0.29434 0.86589,0.8414 0.86589,2.52386 0,3.71243 -0.59335,3.9666 -1.24931,0.53515 z m 21.32826,1.1072 c -0.0434,-1.05416 0.19293,-1.64479 0.52522,-1.3125 0.33229,0.33229 0.36782,1.19479 0.0789,1.91667 -0.31922,0.79773 -0.55618,0.56078 -0.60416,-0.60417 z m 0.19341,-7.58333 c 0,-2.475 0.19502,-3.4875 0.43337,-2.25 0.23836,1.2375 0.23836,3.2625 0,4.5 -0.23835,1.2375 -0.43337,0.225 -0.43337,-2.25 z m -21.6217,-0.46797 c -0.30982,-0.80739 -0.13297,-1.73395 0.39301,-2.05902 0.52598,-0.32508 0.95633,0.33551 0.95633,1.46797 0,2.41457 -0.55611,2.65816 -1.34934,0.59105 z m 0.42829,-4.9487 c -0.0434,-1.05416 0.19293,-1.64479 0.52522,-1.3125 0.33229,0.33229 0.36782,1.19479 0.0789,1.91667 -0.31922,0.79773 -0.55618,0.56078 -0.60416,-0.60417 z m -0.18677,-4.83333 c -0.41841,-8.73128 -0.38769,-10.57958 0.22019,-13.25 0.427,-1.87582 0.72127,0.46622 0.78527,6.25 0.0563,5.0875 -0.12264,9.25 -0.39764,9.25 -0.275,0 -0.54852,-1.0125 -0.60782,-2.25 z m 21.26571,-0.75 c 0,-1.375 0.22698,-1.9375 0.50439,-1.25 0.27741,0.6875 0.27741,1.8125 0,2.5 -0.27741,0.6875 -0.50439,0.125 -0.50439,-1.25 z m 0.11447,-7 c 0,-2.475 0.19502,-3.4875 0.43337,-2.25 0.23836,1.2375 0.23836,3.2625 0,4.5 -0.23835,1.2375 -0.43337,0.225 -0.43337,-2.25 z m -0.27236,-9.5 c 0,-2.65833 0.29799,-4.53534 0.6622,-4.17114 0.76192,0.76192 0.64989,7.69239 -0.13707,8.47934 -0.28882,0.28882 -0.52513,-1.64987 -0.52513,-4.3082 z m -21.14018,-7.25 c -0.25241,-13.95516 0.23175,-47.67491 0.69114,-48.13429 0.24697,-0.24697 0.44904,12.22596 0.44904,27.71762 0,15.49167 -0.225,28.16667 -0.5,28.16667 -0.275,0 -0.56308,-3.4875 -0.64018,-7.75 z m 21.37218,-2.25 c 0,-1.925 0.2058,-2.7125 0.45733,-1.75 0.25152,0.9625 0.25152,2.5375 0,3.5 -0.25153,0.9625 -0.45733,0.175 -0.45733,-1.75 z m -0.11564,-9 c -0.0397,-3.21878 0.20843,-4.04862 0.8716,-2.91465 0.54674,0.9349 0.56953,2.78122 0.0555,4.5 -0.80466,2.69082 -0.87586,2.56907 -0.92714,-1.58535 z m -0.0461,-14.75 c 0.0623,-2.43684 0.16815,-2.52225 0.92971,-0.75 1.17371,2.73138 1.17371,3.5 0,3.5 -0.55,0 -0.96837,-1.2375 -0.92971,-2.75 z m 0.59638,-3.91667 c -0.36667,-0.36666 -0.59214,-4.07916 -0.50105,-8.25 l 0.16562,-7.58333 0.62447,8 c 0.68223,8.73996 0.67993,8.80231 -0.28904,7.83333 z m -0.50878,-19.33333 c 0,-1.375 0.22698,-1.9375 0.50439,-1.25 0.27741,0.6875 0.27741,1.8125 0,2.5 -0.27741,0.6875 -0.50439,0.125 -0.50439,-1.25 z m -20.83782,-10 c 0,-3.575 0.1815,-5.0375 0.40333,-3.25 0.22182,1.7875 0.22182,4.7125 0,6.5 -0.22183,1.7875 -0.40333,0.325 -0.40333,-3.25 z m 20.93211,-3.5 c -0.0111,-2.2 0.18461,-3.21775 0.4349,-2.26166 0.25029,0.95609 0.25937,2.75609 0.0202,4 -0.23919,1.24391 -0.44398,0.46166 -0.45508,-1.73834 z m -20.89168,-12.5 c 0,-5.225 0.16854,-7.3625 0.37454,-4.75 0.206,2.6125 0.206,6.8875 0,9.5 -0.206,2.6125 -0.37454,0.475 -0.37454,-4.75 z m 20.6395,1.5 c 0,-0.825 0.17685,-1.5 0.39301,-1.5 0.21616,0 0.65203,0.675 0.96862,1.5 0.31658,0.825 0.13972,1.5 -0.39302,1.5 -0.53273,0 -0.96861,-0.675 -0.96861,-1.5 z m 0.27236,-6.5 c 0,-2.475 0.19502,-3.4875 0.43337,-2.25 0.23836,1.2375 0.23836,3.2625 0,4.5 -0.23835,1.2375 -0.43337,0.225 -0.43337,-2.25 z m -21.11447,-7 c 0,-1.375 0.22698,-1.9375 0.50439,-1.25 0.27741,0.6875 0.27741,1.8125 0,2.5 -0.27741,0.6875 -0.50439,0.125 -0.50439,-1.25 z m 21.1147,-2.25 c 0.0283,-2.0625 0.42856,-3.75 0.88944,-3.75 0.98644,0 0.93967,1.54699 -0.15115,5 -0.68349,2.16358 -0.78284,1.99538 -0.73829,-1.25 z m -21.27259,-31.58333 c 0,-21.34909 0.33496,-31.16667 1.06336,-31.16667 0.74122,0 0.87961,9.30319 0.45683,30.70984 -0.33359,16.8904 -0.8121,30.9154 -1.06336,31.16666 -0.25126,0.25126 -0.45683,-13.56817 -0.45683,-30.70983 z m 21.54271,11.90243 c -0.31644,-0.512 -0.11799,-1.21356 0.44098,-1.55902 0.55897,-0.34546 1.01631,0.07344 1.01631,0.9309 0,1.75653 -0.60006,2.01516 -1.45729,0.62812 z m 0.12396,-11.73577 c -0.36667,-0.36666 -0.63815,-1.60416 -0.60328,-2.75 0.0583,-1.91559 0.14052,-1.89048 1.02148,0.31185 0.97931,2.44822 0.77617,3.63253 -0.4182,2.43815 z m -21.02765,-34.1084 c -0.81123,-1.31259 -0.52863,-21.27474 0.29398,-20.76634 0.69678,0.43064 1.16041,21.54141 0.47309,21.54141 -0.15843,0 -0.50361,-0.34878 -0.76707,-0.77507 z m 0.19096,-24.47493 c -0.22174,-1.2375 -0.10244,-3.6 0.26511,-5.25 0.54087,-2.42802 0.69084,-1.99904 0.78659,2.25 0.12342,5.47639 -0.36057,6.857 -1.0517,3 z m 0.3824,-20.34501 c -0.22813,-11.91769 -0.54327,-12.67345 -6.30403,-15.11804 -3.48545,-1.47906 -6.23364,-7.30117 -4.99016,-10.57178 1.06828,-2.80979 5.63269,-6.71517 7.84834,-6.71517 1.19152,0 1.37038,-0.86684 0.87696,-4.25 -0.34092,-2.3375 -1.29764,-10.46157 -2.12605,-18.05349 -0.8284,-7.59192 -1.7825,-14.90442 -2.12022,-16.25 -0.59987,-2.39005 0.0984,-2.93091 3.27737,-2.53847 0.64603,0.0797 1.46009,-0.31693 1.80902,-0.88152 0.34893,-0.56459 1.78462,-1.02652 3.19042,-1.02652 2.48879,0 2.51341,-0.065 0.93633,-2.47191 -1.57046,-2.39683 -1.5299,-2.51834 1.33533,-4 1.62524,-0.84045 4.66484,-1.48158 6.75465,-1.42474 l 3.79966,0.10336 -3.75,0.99598 c -5.50138,1.46115 -4.91693,3.79731 0.95,3.79731 5.93853,0 4.57813,1.75 -1.7,2.18687 -3.19416,0.22226 -4.5,0.74841 -4.5,1.81313 0,2.29697 21.46166,1.61656 23.25,-0.73711 1.06274,-1.39869 1.26775,-0.97982 1.36848,2.79598 0.14175,5.31301 0.3462,3.20291 -2.05043,21.16187 -1.08047,8.09641 -1.7934,15.60908 -1.58431,16.69483 0.34859,1.81007 -0.0503,1.932 -4.80178,1.46756 -2.85008,-0.27859 -5.99898,-0.66935 -6.99756,-0.86836 -2.40786,-0.47987 -14.40064,1.30352 -18.1844,2.70413 -10.05933,3.72359 -8.43579,12.34114 3.31406,17.59058 2.97169,1.32764 3.83805,2.11004 2.78429,2.51441 -1.21297,0.46546 -1.59645,2.82256 -1.85169,11.38157 l -0.3219,10.79454 -0.21238,-11.09501 z m 4.23668,-36.32257 c 0.3119,-0.50467 0.11956,-4.0731 -0.42742,-7.92985 -0.54699,-3.85675 -1.05802,-10.08133 -1.13563,-13.83242 -0.14196,-6.86124 -1.17493,-11.33323 -2.61126,-11.30484 -0.42611,0.008 -1.39873,0.41048 -2.16138,0.89346 -1.17622,0.7449 -1.11723,3.13245 0.38878,15.73469 0.97648,8.1711 2.21806,15.41904 2.75908,16.10654 1.16299,1.47789 2.40016,1.6069 3.18783,0.33242 z m 9.07187,-1.11629 c 1.24931,-2.02142 2.66701,-29.12688 1.61043,-30.79031 -0.50572,-0.79619 -2.19484,-1.19492 -4.23623,-1 l -3.39513,0.32418 0.24379,13 c 0.31178,16.62628 0.78963,19.5 3.24251,19.5 1.04261,0 2.1832,-0.46524 2.53463,-1.03387 z m 8.96781,0.0521 c 0.69889,-1.13082 4.51126,-26.0536 4.51126,-29.49163 0,-2.84807 -3.93449,-4.25154 -5.61589,-2.00325 -1.22799,1.64201 -2.93452,29.77707 -1.90697,31.43968 0.80821,1.30771 2.2215,1.33361 3.0116,0.0552 z m -2.98874,26.02609 c -1.79414,-0.73123 -1.69121,-0.88676 1,-1.511 9.36459,-2.17217 13.48884,-5.32878 13.53041,-10.35588 0.0263,-3.18224 0.17985,-3.41999 1.14025,-1.76559 1.74673,3.00894 -1.50567,7.98279 -7.03634,10.76058 -2.54888,1.28017 -4.78432,2.66509 -4.96765,3.07759 -0.4006,0.90133 -1.03823,0.86556 -3.66667,-0.2057 z m -11.76903,-0.70024 c 0.67703,-0.27392 2.02703,-0.29059 3,-0.037 0.97297,0.25354 0.41903,0.47766 -1.23097,0.49804 -1.65,0.0204 -2.44606,-0.18706 -1.76903,-0.46099 z m 3.53986,-6.94823 c 0.33229,-0.33229 1.19479,-0.36782 1.91667,-0.0789 0.79773,0.31922 0.56078,0.55618 -0.60417,0.60416 -1.05416,0.0434 -1.64479,-0.19292 -1.3125,-0.52522 z m -6.27083,-1.39583 c -1.2421,-0.80271 -1.15614,-0.96937 0.5,-0.96937 1.1,0 2.675,0.43621 3.5,0.96937 1.2421,0.80271 1.15614,0.96937 -0.5,0.96937 -1.1,0 -2.675,-0.43621 -3.5,-0.96937 z m 15.45,-3.91251 c -0.9928,-0.95362 -8.42342,-1.89395 -16.95,-2.145 -4.94466,-0.14558 -4.96126,-0.15687 -1.5,-1.01962 1.925,-0.47983 5.3,-0.63813 7.5,-0.35177 2.2,0.28634 5.35,0.68642 7,0.88905 3.91742,0.48109 6.5,1.53273 6.5,2.64684 0,1.1553 -1.33758,1.14507 -2.55,-0.0195 z m 11.05,-5.08749 c -0.99549,-1.1 -1.39848,-2 -0.89553,-2 0.50294,0 1.4765,0.9 2.16346,2 0.68696,1.1 1.08995,2 0.89553,2 -0.19442,0 -1.16797,-0.9 -2.16346,-2 z m -34.5,-51 c 0,-0.55 0.19844,-1 0.44098,-1 0.24254,0 0.7191,0.45 1.05902,1 0.33992,0.55 0.14148,1 -0.44098,1 -0.58246,0 -1.05902,-0.45 -1.05902,-1 z m 27.65499,-2.82874 c -1.82298,-2.01437 -2.2247,-3.64139 -0.66037,-2.67458 1.04315,0.6447 3.3528,4.50332 2.69555,4.50332 -0.20911,0 -1.12494,-0.82293 -2.03518,-1.82874 z m -20.86604,-3.73599 c 2.68699,-1.88204 9.21105,-3.10341 9.21105,-1.7244 0,1.04616 -6.53874,3.28913 -9.58853,3.28913 -1.64782,0 -1.60539,-0.17587 0.37748,-1.56473 z"
           style="fill:#080e5c" />
        <path
           id="path2473"
           d="m -382.0072,215.71551 c 0.15469,-0.69038 -0.84375,-1.57062 -2.21875,-1.95611 -2.27123,-0.63674 -2.32742,-0.77379 -0.61408,-1.49767 2.14254,-0.90521 5.11408,0.57481 5.11408,2.54715 0,0.71923 -0.57656,1.49987 -1.28125,1.73477 -0.70469,0.23489 -1.15469,-0.13777 -1,-0.82814 z m 9.27714,-7.27523 0.004,-3.15705 -6.5,0.0604 c -3.575,0.0332 -11.45,0.1954 -17.5,0.36045 l -11,0.3001 0.3543,-6.8053 c 0.19486,-3.74291 0.76837,-7.73011 1.27446,-8.86045 0.62871,-1.40421 0.74977,-0.22105 0.3822,3.73535 -0.30156,3.24597 -0.0771,6.65158 0.51073,7.75 1.34901,2.52066 5.01305,2.5066 8.23988,-0.0316 2.13749,-1.68135 2.62029,-1.75914 3.10347,-0.5 0.75,1.95447 6.99331,1.96918 8.61073,0.0203 0.89805,-1.08207 1.02849,-4.29035 0.49355,-12.13868 -0.81298,-11.92745 0.77794,-14.12652 1.93061,-2.66862 1.26052,12.52999 1.7491,14.3964 3.99139,15.24745 4.60093,1.74625 5.4066,-2.72196 2.60899,-14.46934 -0.52393,-2.2 -0.92465,-4.9 -0.8905,-6 0.0855,-2.75545 1.39629,1.79194 3.87818,13.45475 2.09936,9.86521 2.5395,15.60121 1.2579,16.39328 -0.41476,0.25634 -0.75226,-0.95461 -0.75,-2.69098 z m -32.61473,-23.87563 c 0.46036,-2.77692 0.60121,-2.91777 0.91608,-0.91608 0.20465,1.30093 -0.0401,2.77757 -0.54399,3.28141 -0.55478,0.55478 -0.70153,-0.37811 -0.37209,-2.36533 z m 18.7508,-9.89829 c -1.35741,-1.58534 -2.51413,-1.9567 -4.72042,-1.51544 -1.60732,0.32147 -4.0783,0.0578 -5.49107,-0.58588 -1.92774,-0.87834 -3.02371,-0.88618 -4.3924,-0.0314 -1.52627,0.95317 -1.91549,0.7881 -2.38624,-1.01206 -0.30938,-1.18305 -0.3691,-2.3444 -0.13272,-2.58079 0.23638,-0.23638 3.1727,0.10985 6.52514,0.76941 8.79919,1.73113 21.05191,0.50379 25.56837,-2.56116 1.91741,-1.30119 3.76096,-2.3658 4.09678,-2.3658 1.51003,0 -3.52889,4.41547 -6.4494,5.65144 -2.52394,1.06813 -3.25679,1.98676 -3.28041,4.11198 -0.026,2.34187 -0.17742,2.48417 -1.04969,0.98658 -1.24668,-2.14043 -4.51834,-2.28996 -5.65522,-0.25847 -0.70623,1.26196 -1.11144,1.16832 -2.63272,-0.6084 z m -10.6232,-9.49018 c -5.8534,-1.57274 -9.91266,-4.10916 -4.50876,-2.81729 1.65,0.39446 4.04179,1.1013 5.3151,1.57077 1.2733,0.46946 6.6733,0.89843 12,0.95325 6.39053,0.0658 8.83451,0.37202 7.1849,0.90032 -4.0298,1.29057 -14.06256,0.98591 -19.99124,-0.60705 z m 30.15128,-4.45182 c -0.088,-1.95738 -0.82073,-4.43238 -1.62824,-5.5 -0.80751,-1.06762 -1.47492,-2.39113 -1.48315,-2.94113 -0.008,-0.55 0.90763,0.44035 2.03523,2.20077 1.35383,2.11362 1.91194,4.32136 1.64319,6.5 l -0.407,3.29923 -0.16003,-3.55887 z m -22.68698,-2.06766 c -2.03247,-0.43536 -0.83756,-0.67427 3.77694,-0.75516 3.7125,-0.0651 6.75,0.0594 6.75,0.27665 0,0.7634 -7.58694,1.10827 -10.52694,0.47851 z m -19.49071,-5.4205 c 0.68488,-1.12587 2.54403,-2.79244 4.13144,-3.70349 2.52272,-1.44784 2.89785,-2.26054 2.97865,-6.45297 0.26509,-13.75489 0.99559,-28.71788 1.42289,-29.14518 0.26657,-0.26656 0.48467,6.76378 0.48467,15.62299 0,8.8592 0.3375,16.30575 0.75,16.54788 0.4125,0.24213 4.8,0.15619 9.75,-0.19098 l 9,-0.63122 0.53504,-18 0.53504,-18 0.22112,17 c 0.16612,12.77141 0.59182,17.71078 1.71144,19.85752 1.45788,2.79532 1.43845,2.84451 -0.89229,2.25953 -1.31043,-0.3289 -5.02135,-0.85378 -8.24648,-1.1664 -6.97401,-0.67602 -17.14778,2.08551 -21.10587,5.7289 -2.21475,2.03866 -2.36967,2.07186 -1.27565,0.27342 z m 7.76834,-47.97684 c -0.26536,-1.38812 -0.0928,-2.76468 0.38342,-3.05901 0.47624,-0.29434 0.86589,0.8414 0.86589,2.52386 0,3.71243 -0.59335,3.9666 -1.24931,0.53515 z m 21.32826,1.1072 c -0.0434,-1.05416 0.19293,-1.64479 0.52522,-1.3125 0.33229,0.33229 0.36782,1.19479 0.0789,1.91667 -0.31922,0.79773 -0.55618,0.56078 -0.60416,-0.60417 z m 0.19341,-7.58333 c 0,-2.475 0.19502,-3.4875 0.43337,-2.25 0.23836,1.2375 0.23836,3.2625 0,4.5 -0.23835,1.2375 -0.43337,0.225 -0.43337,-2.25 z m -21.6217,-0.46797 c -0.30982,-0.80739 -0.13297,-1.73395 0.39301,-2.05902 0.52598,-0.32508 0.95633,0.33551 0.95633,1.46797 0,2.41457 -0.55611,2.65816 -1.34934,0.59105 z m 0.42829,-4.9487 c -0.0434,-1.05416 0.19293,-1.64479 0.52522,-1.3125 0.33229,0.33229 0.36782,1.19479 0.0789,1.91667 -0.31922,0.79773 -0.55618,0.56078 -0.60416,-0.60417 z m -0.18677,-4.83333 c -0.41841,-8.73128 -0.38769,-10.57958 0.22019,-13.25 0.427,-1.87582 0.72127,0.46622 0.78527,6.25 0.0563,5.0875 -0.12264,9.25 -0.39764,9.25 -0.275,0 -0.54852,-1.0125 -0.60782,-2.25 z m 21.26571,-0.75 c 0,-1.375 0.22698,-1.9375 0.50439,-1.25 0.27741,0.6875 0.27741,1.8125 0,2.5 -0.27741,0.6875 -0.50439,0.125 -0.50439,-1.25 z m 0.11447,-7 c 0,-2.475 0.19502,-3.4875 0.43337,-2.25 0.23836,1.2375 0.23836,3.2625 0,4.5 -0.23835,1.2375 -0.43337,0.225 -0.43337,-2.25 z m -0.27236,-9.5 c 0,-2.65833 0.29799,-4.53534 0.6622,-4.17114 0.76192,0.76192 0.64989,7.69239 -0.13707,8.47934 -0.28882,0.28882 -0.52513,-1.64987 -0.52513,-4.3082 z m -21.14018,-7.25 c -0.25241,-13.95516 0.23175,-47.67491 0.69114,-48.13429 0.24697,-0.24697 0.44904,12.22596 0.44904,27.71762 0,15.49167 -0.225,28.16667 -0.5,28.16667 -0.275,0 -0.56308,-3.4875 -0.64018,-7.75 z m 21.37218,-2.25 c 0,-1.925 0.2058,-2.7125 0.45733,-1.75 0.25152,0.9625 0.25152,2.5375 0,3.5 -0.25153,0.9625 -0.45733,0.175 -0.45733,-1.75 z m -0.11564,-9 c -0.0397,-3.21878 0.20843,-4.04862 0.8716,-2.91465 0.54674,0.9349 0.56953,2.78122 0.0555,4.5 -0.80466,2.69082 -0.87586,2.56907 -0.92714,-1.58535 z m -0.0461,-14.75 c 0.0623,-2.43684 0.16815,-2.52225 0.92971,-0.75 1.17371,2.73138 1.17371,3.5 0,3.5 -0.55,0 -0.96837,-1.2375 -0.92971,-2.75 z m 0.59638,-3.91667 c -0.36667,-0.36666 -0.59214,-4.07916 -0.50105,-8.25 l 0.16562,-7.58333 0.62447,8 c 0.68223,8.73996 0.67993,8.80231 -0.28904,7.83333 z m -0.50878,-19.33333 c 0,-1.375 0.22698,-1.9375 0.50439,-1.25 0.27741,0.6875 0.27741,1.8125 0,2.5 -0.27741,0.6875 -0.50439,0.125 -0.50439,-1.25 z m -20.83782,-10 c 0,-3.575 0.1815,-5.0375 0.40333,-3.25 0.22182,1.7875 0.22182,4.7125 0,6.5 -0.22183,1.7875 -0.40333,0.325 -0.40333,-3.25 z m 20.93211,-3.5 c -0.0111,-2.2 0.18461,-3.21775 0.4349,-2.26166 0.25029,0.95609 0.25937,2.75609 0.0202,4 -0.23919,1.24391 -0.44398,0.46166 -0.45508,-1.73834 z m -20.89168,-12.5 c 0,-5.225 0.16854,-7.3625 0.37454,-4.75 0.206,2.6125 0.206,6.8875 0,9.5 -0.206,2.6125 -0.37454,0.475 -0.37454,-4.75 z m 20.6395,1.5 c 0,-0.825 0.17685,-1.5 0.39301,-1.5 0.21616,0 0.65203,0.675 0.96862,1.5 0.31658,0.825 0.13972,1.5 -0.39302,1.5 -0.53273,0 -0.96861,-0.675 -0.96861,-1.5 z m 0.27236,-6.5 c 0,-2.475 0.19502,-3.4875 0.43337,-2.25 0.23836,1.2375 0.23836,3.2625 0,4.5 -0.23835,1.2375 -0.43337,0.225 -0.43337,-2.25 z m -21.11447,-7 c 0,-1.375 0.22698,-1.9375 0.50439,-1.25 0.27741,0.6875 0.27741,1.8125 0,2.5 -0.27741,0.6875 -0.50439,0.125 -0.50439,-1.25 z m 21.1147,-2.25 c 0.0283,-2.0625 0.42856,-3.75 0.88944,-3.75 0.98644,0 0.93967,1.54699 -0.15115,5 -0.68349,2.16358 -0.78284,1.99538 -0.73829,-1.25 z m -21.27259,-31.58333 c 0,-21.34909 0.33496,-31.16667 1.06336,-31.16667 0.74122,0 0.87961,9.30319 0.45683,30.70984 -0.33359,16.8904 -0.8121,30.9154 -1.06336,31.16666 -0.25126,0.25126 -0.45683,-13.56817 -0.45683,-30.70983 z m 21.54271,11.90243 c -0.31644,-0.512 -0.11799,-1.21356 0.44098,-1.55902 0.55897,-0.34546 1.01631,0.07344 1.01631,0.9309 0,1.75653 -0.60006,2.01516 -1.45729,0.62812 z m 0.12396,-11.73577 c -0.36667,-0.36666 -0.63815,-1.60416 -0.60328,-2.75 0.0583,-1.91559 0.14052,-1.89048 1.02148,0.31185 0.97931,2.44822 0.77617,3.63253 -0.4182,2.43815 z m -21.02765,-34.1084 c -0.81123,-1.31259 -0.52863,-21.27474 0.29398,-20.76634 0.69678,0.43064 1.16041,21.54141 0.47309,21.54141 -0.15843,0 -0.50361,-0.34878 -0.76707,-0.77507 z m 0.19096,-24.47493 c -0.22174,-1.2375 -0.10244,-3.6 0.26511,-5.25 0.54087,-2.42802 0.69084,-1.99904 0.78659,2.25 0.12342,5.47639 -0.36057,6.857 -1.0517,3 z m 0.3824,-20.34501 c -0.22813,-11.91769 -0.54327,-12.67345 -6.30403,-15.11804 -3.48545,-1.47906 -6.23364,-7.30117 -4.99016,-10.57178 1.04,-2.73539 5.61331,-6.71517 7.71667,-6.71517 0.75083,0 1.36514,-0.45 1.36514,-1 0,-0.55 1.485,-1 3.3,-1 1.815,0 3.82093,-0.52093 4.45762,-1.15762 0.87682,-0.87682 1.52111,-0.85594 2.65619,0.0861 0.82422,0.68404 2.03782,0.91044 2.69689,0.50311 0.70301,-0.43448 0.93703,-0.31783 0.56618,0.28221 -0.34767,0.56255 -3.37927,1.33362 -6.73689,1.71349 -10.28516,1.16363 -14.93999,3.98041 -14.93999,9.04062 0,3.80441 3.54634,7.54137 9.81406,10.34158 2.97169,1.32764 3.83805,2.11004 2.78429,2.51441 -1.21297,0.46546 -1.59645,2.82256 -1.85169,11.38157 l -0.3219,10.79454 -0.21238,-11.09501 z m 19.28762,-11.36069 c -1.79414,-0.73123 -1.69121,-0.88676 1,-1.511 9.36459,-2.17217 13.48884,-5.32878 13.53041,-10.35588 0.0263,-3.18224 0.17985,-3.41999 1.14025,-1.76559 1.74673,3.00894 -1.50567,7.98279 -7.03634,10.76058 -2.54888,1.28017 -4.78432,2.66509 -4.96765,3.07759 -0.4006,0.90133 -1.03823,0.86556 -3.66667,-0.2057 z m -11.76903,-0.70024 c 0.67703,-0.27392 2.02703,-0.29059 3,-0.037 0.97297,0.25354 0.41903,0.47766 -1.23097,0.49804 -1.65,0.0204 -2.44606,-0.18706 -1.76903,-0.46099 z m 3.53986,-6.94823 c 0.33229,-0.33229 1.19479,-0.36782 1.91667,-0.0789 0.79773,0.31922 0.56078,0.55618 -0.60417,0.60416 -1.05416,0.0434 -1.64479,-0.19292 -1.3125,-0.52522 z m -6.27083,-1.39583 c -1.2421,-0.80271 -1.15614,-0.96937 0.5,-0.96937 1.1,0 2.675,0.43621 3.5,0.96937 1.2421,0.80271 1.15614,0.96937 -0.5,0.96937 -1.1,0 -2.675,-0.43621 -3.5,-0.96937 z m 15.45,-3.91251 c -0.9928,-0.95362 -8.42342,-1.89395 -16.95,-2.145 -4.94466,-0.14558 -4.96126,-0.15687 -1.5,-1.01962 1.925,-0.47983 5.3,-0.63813 7.5,-0.35177 2.2,0.28634 5.35,0.68642 7,0.88905 3.91742,0.48109 6.5,1.53273 6.5,2.64684 0,1.1553 -1.33758,1.14507 -2.55,-0.0195 z m 11.05,-5.08749 c -0.99549,-1.1 -1.39848,-2 -0.89553,-2 0.50294,0 1.4765,0.9 2.16346,2 0.68696,1.1 1.08995,2 0.89553,2 -0.19442,0 -1.16797,-0.9 -2.16346,-2 z m -11.5,-3.70676 c -6.48255,-0.51478 -7.97684,-1.16008 -5.67645,-2.45134 1.27821,-0.71749 2.699,-0.66098 4.75091,0.18894 2.26001,0.93613 3.25319,0.94212 4.35671,0.0263 1.14276,-0.94842 1.65089,-0.77232 2.53427,0.8783 0.85344,1.59467 0.81241,2.02481 -0.18026,1.88986 -0.70685,-0.0961 -3.31018,-0.33551 -5.78518,-0.53205 z m -15.0141,-24.99713 c -0.26725,-3.41214 -0.12266,-5.83889 0.32131,-5.39279 0.44397,0.44611 0.66262,3.23786 0.4859,6.20389 l -0.32132,5.39279 -0.48589,-6.20389 z m 12.10429,-7.84611 c -0.11221,-3.79475 -1.69409,-5.45 -5.2084,-5.45 -4.02264,0 -5.88179,0.98208 -5.88179,3.10699 0,2.48155 -1.19901,2.40525 -2.8129,-0.179 -1.00453,-1.6085 -2.12092,-2.00077 -4.99055,-1.75354 -3.13405,0.27002 -3.69655,0.0147 -3.69655,-1.67799 0,-1.31056 0.57532,-1.90146 1.67459,-1.71994 0.92103,0.15209 1.96009,-0.18541 2.30902,-0.75 0.34893,-0.56459 1.78462,-1.02652 3.19042,-1.02652 2.48879,0 2.51341,-0.065 0.93633,-2.47191 -1.57046,-2.39683 -1.5299,-2.51834 1.33533,-4 1.62524,-0.84045 4.66484,-1.48158 6.75465,-1.42474 l 3.79966,0.10336 -3.75,0.99598 c -5.50138,1.46115 -4.91693,3.79731 0.95,3.79731 5.93853,0 4.57813,1.75 -1.7,2.18687 -3.19416,0.22226 -4.5,0.74841 -4.5,1.81313 0,2.29697 21.46166,1.61656 23.25,-0.73711 1.06286,-1.39884 1.25,-1.01767 1.25,2.54598 0,2.30512 -0.45,4.19113 -1,4.19113 -0.55,0 -1,-0.40122 -1,-0.89159 0,-1.46248 -4.88978,-2.23777 -6.99791,-1.10953 -1.07628,0.57601 -2.37646,2.4994 -2.88929,4.2742 l -0.93242,3.22692 -0.0902,-3.05 z m -20.09019,-14.45 c 0,-0.55 0.19844,-1 0.44098,-1 0.24254,0 0.7191,0.45 1.05902,1 0.33992,0.55 0.14148,1 -0.44098,1 -0.58246,0 -1.05902,-0.45 -1.05902,-1 z m 27.65499,-2.82874 c -1.82298,-2.01437 -2.2247,-3.64139 -0.66037,-2.67458 1.04315,0.6447 3.3528,4.50332 2.69555,4.50332 -0.20911,0 -1.12494,-0.82293 -2.03518,-1.82874 z m -20.86604,-3.73599 c 2.68699,-1.88204 9.21105,-3.10341 9.21105,-1.7244 0,1.04616 -6.53874,3.28913 -9.58853,3.28913 -1.64782,0 -1.60539,-0.17587 0.37748,-1.56473 z"
           style="fill:#250f11;fill-opacity:1" />
      </g>
    </g>
    <path
       style="opacity:0.98999999;fill:#de9922;fill-opacity:1;stroke:none"
       d="m 62.53125,625.46875 c -4.41925,0.50379 -13.07159,-1.67498 -13.4375,4.8125 -0.07035,5.16047 -2.226234,13.77803 4.96875,14.90625 4.132393,0.40589 8.799161,-0.84403 12.0625,-3.40625 1.677958,-2.69323 -2.493981,-3.69527 -2.90625,-4.375 0.833767,-2.52073 1.338009,-3.27374 2.59375,0.0312 3.986864,3.62411 6.780096,-3.28133 7.375,-6.53125 1.527462,-5.29462 -4.936741,-6.17582 -8.75,-5.46875 -0.631646,-0.0898 -1.271508,0.0214 -1.90625,0.0312 z"
       id="path2846" />
    <path
       style="opacity:0.98999999;fill:#de9922;fill-opacity:1;stroke:none"
       d="m 57.258623,198.62126 c -0.888594,0.0324 -3.623574,-0.11575 -3.035714,1.42857 3.621132,0.96769 7.744478,0.0819 11.149554,1.71875 0.990729,0.95244 0.05458,2.8541 -1.350447,2.15402 -2.118322,-0.58497 -4.977741,-1.00846 -6.741071,0.51339 0.0505,1.31181 2.252444,0.47502 3.080357,0.94866 1.946703,0.28093 2.054991,3.3612 0.02232,3.60491 -2.404226,0.67793 -5.0455,0.48382 -7.477678,0.98215 0.351943,0.97875 2.147683,0.54312 3.046875,0.78125 5.350715,0.006 10.869625,0.27182 16.09375,-0.9375 1.42941,-1.26041 -0.436687,-3.33543 -0.959822,-4.64286 -2.358865,-3.75228 -6.308914,-7.13181 -11.049093,-6.56569 -0.926375,-0.009 -1.853,-0.019 -2.779032,0.0144 z"
       id="path2850" />
    <path
       style="opacity:0.98999999;fill:#de9922;fill-opacity:1;stroke:none"
       d="m 46.410409,201.64581 c -1.297461,-0.2752 -1.629927,1.5314 -0.234375,1.41741 0.603735,-0.0202 2.434364,-1.07448 1.272321,-1.40625 -0.34551,-0.0121 -0.692415,-0.039 -1.037946,-0.0112 z"
       id="path2852" />
    <path
       style="opacity:0.98999999;fill:#de9922;fill-opacity:1;stroke:none"
       d="m 43.084516,207.71724 c -0.93972,-0.10484 -2.293185,1.76749 -0.758928,1.76339 0.693591,0.007 2.040681,-1.61976 0.758928,-1.76339 z"
       id="path2854" />
    <path
       style="opacity:0.98999999;fill:#250f11;fill-opacity:1;stroke:none"
       d="m 79.557731,258.90028 c -0.944457,2.69715 -0.580734,6.14824 -3.046875,8.1808 -3.439621,3.23655 -8.539639,3.76709 -12.756697,5.5692 -0.545247,1.16195 1.851033,1.34024 2.488839,1.78571 1.076432,0.78091 1.778302,-0.28319 2.578125,-0.60268 0.816437,-0.15969 1.336889,-1.41986 2.335192,-1.63843 4.312558,-2.1763 8.512984,-5.22365 10.114008,-9.99545 0.266021,-0.8418 -0.918523,-2.82683 -1.712592,-3.29915 z"
       id="path2864" />
    <path
       style="opacity:0.98999999;fill:#250f11;fill-opacity:1;stroke:none"
       d="m 52.035409,274.98287 c -1.335901,0.24348 -3.277941,-0.40054 -4.319196,0.54687 0.637499,1.08591 2.667273,0.24718 3.727646,0.53089 4.591639,-0.085 9.181628,-0.24073 13.772354,-0.36348 0.185996,0.81554 -0.359483,2.93868 0.334821,3.23661 0.239108,-1.283 0.191479,-2.71128 0.08929,-3.97322 -4.53492,0.0115 -9.070201,-0.0251 -13.604911,0.0223 z"
       id="path2866" />
    <path
       style="opacity:0.98999999;fill:#250f11;fill-opacity:1;stroke:none"
       d="m 39.434963,211.4226 c -1.692128,1.08305 -0.29484,3.6279 -0.473199,5.23898 1.291964,10.49353 2.623684,20.98372 3.712787,31.49456 0.489268,0.79083 -0.332856,3.38941 1.280501,2.82003 2.765602,-0.49202 5.793884,-0.59175 8.180803,-2.31027 1.384794,1.10669 3.140116,1.74854 4.888393,1.13839 -1.936706,1.00075 -1.353885,1.80399 0.412947,1.1942 1.579098,-0.93157 3.04339,-2.54551 5.111607,-1.89732 2.185023,0.6954 4.74497,1.77816 6.830357,0.14509 1.262226,-0.35923 1.643309,1.54635 2.377232,2.03125 0.295065,-9.19461 1.717777,-18.32201 2.742257,-27.45848 0.349865,-3.51886 0.98855,-7.21657 0.717565,-10.67768 -0.597529,0.83265 -0.04781,3.04382 -1.283483,3.23661 -1.783548,-2.10662 -5.320685,-3.14725 -7.834821,-1.68527 -2.107881,1.40451 -2.745196,4.21227 -3.549107,6.31696 -0.82832,-0.66302 -0.139109,-2.62146 -0.558036,-3.67187 -0.287348,-3.52935 -4.339609,-4.20246 -7.165178,-3.60491 -2.229723,0.0164 -3.741589,1.87012 -4.006697,3.97321 -0.701649,1.30579 -1.933173,-0.73328 -2.5,-1.22768 -0.978221,-2.26787 -3.285757,-1.69736 -5.279018,-1.79687 -1.443979,0.0931 -4.044006,-0.17234 -3.247768,-2.26563 0.01104,-0.27751 0.13461,-1.06755 -0.357142,-0.9933 z m 29.006696,3.75 c 2.500431,-0.20352 4.212669,2.33091 3.381696,4.66518 -1.108083,9.2826 -2.326843,18.63823 -4.475446,27.71205 -0.907176,1.34104 -3.199688,0.29731 -2.622768,-1.36161 -0.136552,-9.63053 0.255541,-19.3554 1.618304,-28.87276 0.235179,-1.03242 0.913805,-2.18196 2.098214,-2.14286 z m -22.96875,0.70312 c 1.601428,0.60047 1.322996,3.07524 1.758814,4.47176 0.815794,8.68172 1.543114,17.38144 2.236722,26.07512 0.392935,1.20446 -0.385815,3.56012 -1.919643,2.67857 -2.344693,-2.59588 -1.917788,-6.60502 -2.718435,-9.85804 -0.871988,-6.89323 -2.193579,-13.81833 -2.103338,-20.77536 -0.0837,-1.64168 1.230093,-2.48236 2.74588,-2.59205 z m 11.350446,0 c 1.487579,-0.11127 3.743112,0.31015 3.370536,2.29911 0.225863,9.38126 -0.04035,18.87274 -1.361607,28.14732 -0.01597,1.20856 -0.679914,1.91108 -1.875,1.875 -2.27765,0.71685 -3.097632,-2.04429 -3.080357,-3.78348 -0.957,-9.36333 -0.828096,-18.7941 -1.127232,-28.19196 1.357809,-0.10729 2.708999,-0.35345 4.07366,-0.34599 z m -6.462053,5.75893 c 0.925905,2.35427 0.361942,5.32799 0.439141,7.90131 0.03537,0.58145 -0.21773,2.29352 -0.337197,0.73008 -0.198276,-2.8191 -0.726878,-5.8992 -0.157748,-8.60907 l 0.04464,-0.0223 0.01116,0 z"
       id="path2868" />
    <path
       style="opacity:0.98999999;fill:#250f11;fill-opacity:1;stroke:none"
       d="m 77.693891,585.77528 c -3.805583,1.55151 -7.329752,4.16021 -11.568226,4.50403 -7.283621,1.28653 -14.738802,0.78269 -21.980881,-0.5085 -1.013025,-0.21069 -3.009955,-0.38405 -2.700893,1.20536 0.145765,1.20149 0.894145,3.46882 2.488839,2.43304 2.99319,-1.84229 6.050032,1.2145 9.229911,0.54687 2.571818,-0.52484 5.06858,0.50327 6.640625,2.57813 1.291512,1.09903 2.058982,-1.59755 3.359375,-1.71875 2.010753,-0.79909 3.231738,1.46477 4.754464,2.12053 0.548489,-1.48789 -0.133698,-3.57235 1.696429,-4.46428 2.799543,-2.05098 6.638744,-3.38894 8.392857,-6.55134 -0.0303,-0.13413 -0.199328,-0.16732 -0.3125,-0.14509 z"
       id="path2870" />
    <path
       style="opacity:0.98999999;fill:#250f11;fill-opacity:1;stroke:none"
       d="m 40.126927,600.03867 c -1.705032,8.017 -2.838262,16.27908 -3.080357,24.50893 -0.24589,5.74802 1.687076,11.63308 6.037946,15.53571 3.240238,3.74906 8.051055,5.31053 12.745536,6.31697 6.614143,-1.2988 12.824186,-4.82289 16.685268,-10.43527 2.715043,-3.06097 1.805378,-7.37625 2.04241,-11.11607 -0.706803,2.039 0.723186,2.6649 -0.513392,4.62053 -1.175514,-1.41625 -0.403461,-4.64289 -1.919643,-6.01562 -6.631511,-0.59987 -13.75546,1.16883 -20.434266,1.18057 -4.754677,0.007 -9.347054,2.19668 -13.996538,1.83281 -0.412931,-6.40656 1.009563,-12.87784 1.745556,-19.25564 0.226951,-2.35833 0.96904,-4.90486 0.732123,-7.19525 l -0.04464,0.0223 -3e-6,3e-5 z m 27.65625,26.98661 c 1.42629,0.10814 4.21446,-0.31568 3.794643,1.91964 -0.05597,2.8049 -0.855747,6.23375 -3.180804,7.95759 -1.612873,-0.26181 -1.804439,-2.66298 -3.069196,-3.57143 -1.673138,-1.62713 -5.101979,-2.4274 -6.808036,-0.54687 -0.37423,2.06527 2.704375,2.88931 4.263393,2.8125 -0.612951,-1.04787 -2.433287,-0.98917 -3.325893,-1.58483 1.40461,-2.51849 6.762782,-0.89179 5.982143,2.14286 -0.359393,1.01543 -1.491152,1.66073 -2.410714,0.82589 -1.238911,0.0766 -2.812181,0.91583 -3.504465,1.88617 1.496858,1.1186 4.170961,0.30025 5.591518,1.37276 -3.474701,2.39409 -8.392016,4.26046 -12.566964,2.53349 -2.549702,-0.87283 -1.766329,-3.83656 -1.770438,-5.90353 0.0865,-2.7858 0.271966,-5.87003 -0.305455,-8.47147 5.605835,-1.14611 11.571796,-1.20409 17.310268,-1.37277 z m -24.397322,0.70312 c 0.477825,-0.0593 2.673112,0.20672 1.171875,0.47991 -0.949203,0.1551 -1.923702,0.13445 -2.82366,-0.20089 0.535834,-0.23388 1.068359,-0.31779 1.651785,-0.27902 z m 3.59375,10.98215 c 1.148123,-0.32744 1.518271,2.24202 0.345983,1.59598 -0.303435,-0.25436 -1.569213,-1.81224 -0.345983,-1.59598 z"
       id="path2876"
       sodipodi:nodetypes="ccccccccsccccccccccccccccccccccccccc" />
    <path
       style="opacity:0.98999999;fill:#250f11;fill-opacity:1;stroke:none"
       d="m 41.555498,592.47171 c -0.645743,3.16746 -0.715368,6.59048 -1.272321,9.83259 0.104479,1.28303 1.09173,2.37844 0.591518,3.8058 0.277208,0.54502 -0.943634,2.39878 -0.915179,0.9933 0.09074,-1.34428 -0.549067,-0.33081 -0.479911,0.41295 -0.162293,1.18178 -0.595381,2.68479 0.212054,3.54911 0.448306,4.01359 -1.373925,8.79975 1.272321,12.27678 2.751096,2.60533 6.565463,-0.0833 9.032472,-1.83883 1.111032,-1.10908 1.561334,1.42715 2.842528,1.49285 2.367846,0.94403 5.751706,0.82173 7.444197,-1.23884 1.39138,-5.7552 0.06181,-11.81601 0.234375,-17.68973 0.203108,-1.18445 -0.360461,-3.17567 0.580357,-3.96206 1.499693,3.90693 1.318407,8.47146 2.061247,12.64686 0.625202,2.95913 0.439858,6.4227 2.213307,8.96029 1.457029,1.5215 4.807239,1.64772 5.100446,-0.9375 0.940274,-6.44277 -1.97521,-12.82872 -2.120536,-19.22991 1.203404,1.79139 1.417957,4.49382 2.090514,6.63361 1.002204,3.69192 1.507409,7.62668 2.619308,11.22353 0.184419,-3.08971 -0.878823,-6.3723 -1.212823,-9.4698 -0.97576,-5.13104 -1.92944,-10.43765 -3.217981,-15.49672 -0.953391,-0.2366 -0.316073,1.87393 -0.658482,2.47768 -0.757341,0.5046 -1.408096,-1.30657 -2.220982,-1.48437 -1.198075,-1.0541 -2.852692,-1.0515 -3.850447,0.26785 -0.712754,0.96875 -2.095745,1.46735 -2.745535,0.067 -3.266051,-2.83092 -8.107651,-1.3355 -11.941965,-2.72322 -1.632836,-0.94447 -3.403996,1.25155 -4.832589,0.53572 -0.343766,-0.27108 -0.369093,-1.04987 -0.825893,-1.10491 z m 4.0625,1.91964 c 2.455101,-0.20084 2.22107,3.05466 2.377232,4.70982 -0.01052,7.0574 0.225664,14.25575 -0.982142,21.20536 -0.515516,2.79125 -5.890102,2.64472 -5.368304,-0.5692 0.548107,-8.25419 1.458415,-16.6092 3.258929,-24.6317 0.113264,-0.32244 0.334774,-0.70681 0.714285,-0.71428 z m 9.654018,1.40625 c 1.962619,0.67868 1.831834,3.59905 2.366072,5.3125 0.923644,6.45977 1.793683,13.26322 0.546875,19.66518 -0.821034,2.24351 -4.83326,1.69449 -5.022322,-0.77009 -1.170088,-5.38717 -0.416503,-11.05699 -0.384797,-16.55026 0.341054,-2.49813 -0.246261,-6.18704 2.259797,-7.62385 0.07739,-0.0107 0.155321,-0.0346 0.234375,-0.0335 z m 8.995536,1.08259 c 1.564156,0.98742 1.454374,3.59838 2.075893,5.24553 1.064526,5.93109 2.653763,11.99135 2.399553,18.04688 -0.226415,1.83356 -2.963778,1.33533 -2.790178,-0.47991 -1.048252,-6.47819 -1.086186,-13.14318 -2.142857,-19.65402 0.138167,-0.79338 -0.655011,-2.82431 0.457589,-3.15848 z"
       id="path2872" />
    <path
       style="opacity:0.98999999;fill:#250f11;fill-opacity:1;stroke:none"
       d="m 65.216213,337.17037 c 0.191835,7.69518 -0.453174,15.44072 -0.100447,23.10267 0.281413,-0.25486 0.543822,-0.44629 0.725447,0.29018 0.212293,1.13077 1.45416,2.58642 0.982142,3.64956 -1.186625,0.44127 -1.220897,-1.64625 -1.651785,-1.83036 -0.372191,15.65382 -0.382147,31.33006 -0.06696,46.98661 -0.04149,0.97177 0.196554,0.56027 0.658483,0.43527 0.71203,0.38121 1.483583,2.76003 0.212053,2.58928 -0.445015,-0.12887 -0.937406,-1.56141 -1.049107,-0.45759 -0.667792,20.37843 -0.385195,40.78271 -0.596849,61.17175 -0.148668,30.7185 -0.326622,61.43695 -0.653151,92.15414 -5.546927,0.48879 -11.333729,0.72598 -16.785714,0.30134 -0.46006,-61.70476 -0.143587,-123.41561 -0.299615,-185.12276 -0.06189,-14.42844 0.03171,-28.87674 -0.2361,-43.29242 -0.617215,1.33296 -0.220786,3.49901 -0.401785,5.10045 -0.199385,16.6904 -0.299868,33.40181 -1.25,50.06697 -0.234908,1.98978 -0.271509,-2.3439 -0.25221,-1.8861 -0.356047,-17.68329 0.262815,-35.38283 -0.305826,-53.0581 -0.409343,-0.81451 -0.351439,1.2791 -0.401786,1.52902 -0.86323,35.52721 -0.562965,71.07186 -0.693575,106.60714 -0.134823,39.38294 -0.194555,78.77079 -0.94705,118.14732 -0.392408,2.00057 0.66481,4.88132 -1.768449,5.71722 -4.026511,2.34281 -7.90007,6.43321 -7.171283,11.45912 0.337095,4.98795 4.643529,8.48546 8.080357,11.46205 -0.025,-1.31863 0.300246,-2.88439 1.986607,-2.5 5.815688,0.53287 11.618707,1.72118 17.499209,1.17044 2.817435,-0.23689 5.994619,-0.38732 8.471774,-1.53874 -7.619231,0.35331 -15.416403,0.6906 -23.005294,-0.20955 -3.549883,-1.0413 -8.515183,-1.35727 -9.746007,-5.53208 -2.048612,-4.34427 0.623033,-9.67088 4.983443,-11.30078 7.814222,-4.07984 17.118558,-3.25939 25.492262,-1.75772 5.189246,0.86518 10.185692,5.0178 9.987649,10.60817 0.118865,2.29263 -1.605003,4.08535 -2.522321,5.89285 1.1215,0.11118 2.466257,-1.60324 3.493303,-1.09375 -1.177425,2.45364 -4.333253,3.31386 -5.758928,5.43527 2.718343,-0.83522 5.301282,-3.07223 6.662946,-5.64732 2.695311,-5.60869 -0.171732,-12.45117 -5.279018,-15.59152 -1.732785,-1.01301 -3.454721,-2.65778 -5.412946,-2.99107 -0.01077,0.66609 1.346743,2.77169 -0.424107,2.10938 -7.738422,-1.51339 -16.052489,-2.10094 -23.560268,0.89285 -3.099417,0.90652 -5.709858,2.96944 -8.314732,4.62054 1.064094,-2.87599 4.609353,-4.1119 6.495535,-6.45089 1.336072,-2.91253 0.690533,-6.39099 1.065863,-9.53054 0.320165,-7.73737 0.356572,-15.55712 1.266727,-23.22616 0.621367,-0.99963 0.139771,3.1386 0.357143,3.96205 0.303748,8.88032 0.146665,17.84825 0.825892,26.67411 2.316058,1.23451 5.305851,0.31474 7.857143,0.45759 3.650521,-0.23805 7.369076,-0.39105 10.970982,-0.77009 0.183211,-11.05725 0.62116,-22.11019 1.09375,-33.15848 0.468185,9.49319 0.158572,19.11443 0.870536,28.53794 0.561982,-6.87208 0.265964,-13.99512 0.415227,-20.95978 0.07243,-26.32622 0.170266,-52.7266 0.05352,-79.00673 -2.091312,0.59189 -1.761842,-1.91311 -1.619235,-3.19132 -0.121664,-2.60873 0.68988,0.36976 1.373699,1.12658 0.928022,0.58143 0.301864,-1.65845 0.496174,-2.07587 0.304452,-40.02521 0.277245,-80.05209 0.385523,-120.07814 -0.74363,-0.091 -1.747006,-0.12952 -2.488839,0 z m 1.171875,36.83035 c 1.035482,0.0672 0.886439,3.25834 -0.412947,2.12054 -0.629358,-0.60625 -0.424374,-1.8435 0.412947,-2.12054 z m -0.0558,17.60045 c 1.200576,0.45772 0.365629,2.56131 0.256696,3.58259 -0.289879,0.66486 -0.436211,2.4646 -1.09375,2.51116 -0.139681,-1.92513 -0.18321,-4.40927 0.725447,-6.06027 0.0123,10e-4 0.113821,-0.0675 0.111607,-0.0335 z m -21.808036,4.56473 c 0.597888,0.51474 0.748014,2.4679 0.02232,2.68973 -0.375545,-0.7379 -0.389201,-1.98537 -0.02232,-2.68973 z m 21.183036,5.89286 c 0.310729,1.53809 0.414908,3.62569 -0.08929,5.03348 -0.349683,-1.54272 -0.469133,-3.62553 0.08929,-5.03348 z m -20.915179,3.8058 c 0.279808,2.48587 0.261743,5.00422 -0.02232,7.48884 -0.05095,-2.57329 -0.05126,-5.14992 0,-7.72321 l 0.02232,0.23437 z m 20.837054,13.87277 c 0.445911,1.28617 0.469776,3.27423 -0.01116,4.49777 -0.385425,-1.35173 -0.408944,-3.16415 0.01116,-4.49777 z m -20.703125,4.04018 c 0.141174,1.71469 0.09666,3.44696 -0.189732,5.14509 -0.292284,-2.22683 -0.362166,-4.49826 0.02232,-6.71875 0.0558,0.52455 0.111607,1.04911 0.167411,1.57366 z M 65.58452,434.1793 c 0.501993,0.63032 0.523363,2.40105 -0.06696,2.71205 -0.209872,-0.77873 -0.325789,-2.02605 0.06696,-2.71205 z m -20.691964,6.5625 c 0.301828,16.49047 0.448637,33.00169 -0.133929,49.4866 0.03775,0.56779 -0.335109,2.78482 -0.390625,1.08259 -0.353105,-17.02931 -0.383693,-34.0787 0.100447,-51.10491 0.361153,-3.72129 0.206157,-2.1452 0.424107,0.53572 z m 20.625,-0.40179 c 0.410226,4.94394 1.164462,9.98768 0.9375,14.91071 -1.013052,-0.006 -0.777869,-1.92977 -0.958101,-2.66599 -0.228283,-4.16933 -0.174132,-8.35205 -0.0352,-12.52374 l 0.0558,0.27902 z m 0.412946,29.97768 c 1.182852,1.68913 0.545438,4.68658 -0.345982,6.19419 -0.237098,-1.88001 -0.416924,-4.47626 0.345982,-6.19419 z m -0.290178,10.13393 c 0.414038,1.15599 0.455919,3.08278 -0.02232,4.12946 -0.374901,-1.19337 -0.41781,-2.96093 0.02232,-4.12946 z m 0.100446,7.51116 c 1.040188,1.72705 0.346604,4.25996 0.457589,6.27232 -0.08507,0.58046 -0.08923,1.94692 -0.602678,2.08705 -0.490558,-2.61241 -0.785229,-5.91108 0.145089,-8.35937 z m -21.294643,7.64509 c 0.755181,2.38533 0.463008,5.42125 0.629013,8.03569 -0.0644,2.51362 0.102124,5.44999 -0.595531,7.72324 -0.965857,-3.8627 -0.472912,-8.11308 -0.546875,-12.12054 0.155405,-1.16413 -0.05502,-2.63013 0.513393,-3.63839 z m 21.216518,3.4375 c 0.357371,1.58944 0.430167,3.62156 0.08929,5.14509 -0.828785,-1.42196 -0.333029,-3.59051 -0.133929,-5.14509 l 0.02232,-0.0223 0.02232,0.0223 z m -0.02232,8.19196 c 0.418258,0.61992 0.485622,2.3012 -0.0558,2.67857 -0.317657,-0.70518 -0.390426,-2.03095 0.0558,-2.67857 z m -21.116072,5.71429 c 0.750938,0.14261 0.635552,2.00063 -0.04464,1.94196 -0.287809,-0.55001 -0.313698,-1.46864 0.04464,-1.94196 z m 0.100447,4.04018 c 0.827832,0.60993 0.75263,2.53798 0.01116,3.19196 -1.018338,-0.36643 -1.665879,-3.06394 -0.01116,-3.19196 z m 21.082589,0.067 c 0.310729,1.53809 0.414908,3.62569 -0.08929,5.03348 -0.349683,-1.54272 -0.469133,-3.62553 0.08929,-5.03348 z m -21.127232,5.92634 c 0.793087,1.343 0.646171,3.49353 0.401786,5.01116 -0.506442,1.38112 -0.91557,-1.05042 -0.959822,-1.47321 0.06996,-0.93962 -0.560554,-3.21575 0.558036,-3.53795 z m 21.049107,2.82366 c 0.492121,0.33918 0.425975,2.15189 -0.145089,2.14286 -0.183424,-0.60089 -0.258512,-1.65072 0.145089,-2.14286 z m 9.832589,47.27679 c 2.472175,2.25655 3.787961,5.87515 3.201154,9.2514 0.02943,0.44002 -0.288425,2.52607 -0.410975,1.00529 0.251793,-3.39232 -1.004757,-6.56401 -2.745536,-9.39732 -0.06621,-0.21181 -0.310814,-0.70425 -0.04464,-0.85937 z"
       id="path2874" />
    <path
       style="opacity:0.98999999;fill:#250f11;fill-opacity:1;stroke:none"
       d="m 71.644784,250.39581 c 0.249779,0.95794 -0.03923,2.0244 -1.227679,1.70759 -6.199187,-0.0518 -12.400948,-1.86591 -18.56777,-0.37312 -5.148826,0.98469 -11.033012,1.36421 -15.070622,5.07178 -2.991908,3.19697 -1.292634,8.33351 2.068038,10.61189 2.662747,2.48174 6.352514,3.61709 9.114997,5.83901 0.43165,0.89093 -1.329638,0.90405 -1.071428,1.99776 -1.159665,6.14642 -0.810837,12.49779 -1.350447,18.72768 -0.564224,-6.53861 0.195949,-13.25528 -1.238839,-19.67634 -1.232963,-3.78178 -6.162551,-3.88203 -8.180804,-7.07589 -2.589023,-2.98461 -3.365356,-8.37494 0.100447,-11.04911 1.72274,-1.99883 4.119689,-3.14529 6.428571,-4.18527 0.572446,-1.01307 0.100961,-2.31203 -1.060268,-0.90401 -2.978805,2.25869 -7.752754,3.78844 -8.214285,8.03571 -0.781373,5.15749 2.156896,10.34112 6.863839,12.5 2.590828,1.02467 3.872238,3.60944 3.638393,6.3058 0.21401,21.68322 -0.651552,43.38568 -0.234375,65.05581 0.512986,-0.94847 0.164367,-2.91978 0.46875,-4.20759 -0.09473,-0.81732 0.68444,-0.47393 0.46875,-1.58482 0.192681,-1.39451 -0.137028,-3.44779 0.658482,-4.49777 1.404032,6.20319 0.825016,12.75691 1.088773,19.10712 0.05031,7.32503 0.05272,14.65033 0.0831,21.97547 0.374983,-5.80309 0.175448,-12.18691 0.329579,-18.21324 0.28495,-26.82322 0.576242,-53.64638 0.842296,-80.4698 5.982143,0 11.964286,0 17.946429,0 -0.09669,20.70502 -0.373583,41.48406 -0.357143,62.14286 2.956362,0.92621 2.787043,-1.40757 2.605542,-3.63819 0.220207,-19.90806 0.388472,-39.81785 0.898922,-59.72118 -1.470947,1.33357 -3.747616,0.14601 -5,-0.90402 4.695757,-2.55082 11.576036,-2.71866 14.363839,-7.97991 1.097197,-1.79119 0.658054,-4.24565 1.640625,-5.92634 0.400283,0.0711 1.070604,1.93735 1.316965,0.92634 -1.176436,-3.48224 -3.312622,-6.87915 -6.861425,-8.33568 -0.81824,-0.36166 -1.674665,-1.10057 -2.491254,-1.26254 z m -9.732143,2.29911 c 4.957578,0.3513 10.929193,0.0821 14.575893,4.01786 1.960954,2.50715 2.101104,6.6695 0.189732,9.21875 -6.153107,5.28067 -14.84995,5.47207 -22.578125,5.3125 -5.847587,-0.44681 -12.655556,-1.33774 -16.551339,-6.14956 -1.296285,-2.06821 -1.730715,-5.2133 -0.234375,-7.27678 4.019552,-3.67656 9.955721,-3.96932 15.122768,-4.69866 3.148545,-0.29819 6.311972,-0.4734 9.475446,-0.42411 z m 13.962054,0.97098 c 1.200703,0.66541 2.714893,2.34894 2.767857,3.68304 -1.160514,-0.82248 -2.82035,-2.17595 -2.879464,-3.64956 0.01329,-0.01 0.113496,-0.0656 0.111607,-0.0335 z M 54.07782,272.69492 c 0.51712,-0.0774 3.176473,0.2212 1.383928,0.63616 -0.657826,0.30266 -2.329963,0.0759 -2.466518,-0.39062 0.364067,-0.15354 0.691234,-0.23605 1.08259,-0.24554 z m -8.404018,26.18304 c 0.404527,2.70001 0.438932,5.89342 -0.111607,8.59375 -0.833127,-2.65074 -0.756218,-5.9081 0.07813,-8.57143 0.01816,-0.008 0.01854,-0.0216 0.03348,-0.0223 z m -0.691964,10.3683 c 0.95404,2.23057 0.453728,5.10644 0.686383,7.56692 -0.101261,4.44115 0.403556,9.06701 -0.295758,13.40406 -1.389034,-0.2624 -0.554305,-2.70265 -0.863831,-3.76082 9.05e-4,-5.69282 -0.270034,-11.61204 0.406241,-17.17668 l 0.0558,-0.0335 0.01116,0 z"
       id="path2878" />
    <path
       style="opacity:0.98999999;fill:#250f11;fill-opacity:1;stroke:none"
       d="m 50.539873,257.08108 c -1.955496,0.0372 -4.194073,0.16914 -5.803571,1.12723 6.86673,1.16329 14.126403,0.31376 20.758928,2.57813 0.596763,0.65266 3.061839,1.30167 2.622768,-0.2567 -1.820045,-2.58395 -5.612258,-2.30002 -8.404018,-2.92411 -3.042018,-0.36721 -6.109578,-0.55892 -9.174107,-0.52455 z"
       id="path2880" />
    <path
       style="opacity:0.98999999;fill:#250f11;fill-opacity:1;stroke:none"
       d="m 57.001927,265.70831 c -1.223204,-0.0101 -0.47082,1.07684 0.368303,0.80357 0.668444,0.37047 2.104828,-0.45374 0.837054,-0.72544 -0.378473,-0.11367 -0.802985,-0.12851 -1.205357,-0.0781 z"
       id="path2882" />
    <path
       style="opacity:0.98999999;fill:#250f11;fill-opacity:1;stroke:none"
       d="m 49.267552,262.90697 c -1.866897,-0.17022 -1.157318,3.07391 0.450638,2.80284 3.902907,0.86841 7.945882,2.81843 11.971237,1.91815 1.136508,-0.3262 1.509936,-1.82527 0.133928,-2.15402 -3.949711,-1.62792 -8.31011,-2.32205 -12.555803,-2.56697 z m 1.607143,0.81474 c 1.218241,0.19013 3.384075,0.26488 3.783482,1.60714 -1.774379,0.73123 -3.941506,-0.45701 -5.435268,-1.49554 0.550711,-0.031 1.100409,-0.10016 1.651786,-0.1116 z m 6.72991,2.09821 c 0.508016,-0.15942 1.614492,0.52886 0.513393,0.54687 -0.374472,0.20306 -2.478585,-0.14727 -1.283482,-0.50223 0.255184,-0.0302 0.512132,-0.0785 0.770089,-0.0446 z"
       id="path2884" />
    <path
       style="opacity:0.98999999;fill:#250f11;fill-opacity:1;stroke:none"
       d="m 50.874695,256.86903 c -1.947515,0.18588 -4.255506,0.16528 -5.870536,1.27232 1.705069,0.87362 4.158508,0.46598 6.104911,0.78125 4.877797,0.50467 10.036221,0.418 14.620535,2.17634 0.833081,1.06305 3.489778,0.20009 2.109375,-1.18304 -2.630973,-2.05125 -6.345456,-1.87898 -9.497767,-2.54464 -2.477559,-0.28727 -4.969342,-0.54084 -7.466518,-0.50223 z"
       id="path2886" />
    <path
       style="opacity:0.98999999;fill:#250f11;fill-opacity:1;stroke:none"
       d="m 50.595677,256.96947 c -1.796727,0.26711 -4.23082,-0.19946 -5.591518,1.11607 1.074072,0.99018 3.141656,0.4814 4.550999,0.84183 5.942062,0.39226 11.920459,0.95106 17.62534,2.57335 1.670161,0.28681 0.87469,-1.92731 -0.178571,-2.13169 -5.062917,-2.33441 -10.91501,-2.36479 -16.40625,-2.39956 z"
       id="path2888" />
    <path
       style="opacity:0.98999999;fill:#250f11;fill-opacity:1;stroke:none"
       d="m 50.80773,256.95831 c -1.856967,0.27917 -4.338246,-0.22743 -5.803571,1.08259 0.80033,1.07345 2.881315,0.48577 4.093409,0.92449 5.792515,0.69828 11.874424,0.94508 17.390966,2.54649 1.137818,0.49775 2.270803,-0.50907 1.361607,-1.49553 -2.705582,-2.29549 -6.660405,-2.37109 -10.032462,-2.8618 -2.330836,-0.19269 -4.67214,-0.26191 -7.009949,-0.19624 z"
       id="path2890" />
    <path
       style="opacity:0.98999999;fill:#250f11;fill-opacity:1;stroke:none"
       d="m 57.068891,194.89358 c -7.296904,0.41702 -14.140022,5.41364 -17.165178,11.99777 -0.184283,1.29586 -2.037414,4.45988 -0.369494,4.59048 2.161775,0.24702 3.884423,-0.87501 5.737797,-1.65521 0.925132,-0.47458 2.807596,-0.0147 3.258929,-1.01563 -0.268,-1.45111 -2.257936,-3.07444 -1.439732,-4.49777 3.4308,-2.37757 8.046928,-3.19424 12.053571,-2.54464 -2.045159,1.17855 -5.599166,0.82376 -6.752232,3.23661 0.570974,1.73527 3.1981,1.32739 4.676339,1.51785 1.042559,0.1829 3.018389,-0.26132 3.493304,0.77009 -1.884712,1.5083 -4.785269,1.11534 -7.07038,1.73662 -0.939491,0.11619 -3.31953,0.49877 -2.561317,1.87946 4.511879,1.53639 9.499207,0.77019 14.20759,0.71428 3.102509,-0.4116 6.650865,-0.33653 9.263392,-2.20982 0.285083,-0.89411 0.953511,1.03487 0.959822,-0.11161 -0.658722,-2.77971 -1.900724,-5.74756 -3.883929,-7.79018 -0.505582,0.46943 0.974635,1.82702 0.178572,1.94197 -1.802257,-1.25983 -2.909192,-3.27475 -3.883929,-5.16741 -2.814822,-2.42472 -7.011878,-3.47853 -10.703125,-3.39286 z m -0.245536,0.92634 c 0.873069,-0.2296 1.81854,0.6267 0.736608,1.14955 -3.014631,1.48064 -6.605025,2.81146 -9.977679,2.43304 0.700505,-1.46074 2.93305,-2.12258 4.430804,-2.82366 1.54254,-0.52876 3.171219,-0.78863 4.810267,-0.75893 z m 3.125,2.19866 c 6.272159,0.17592 11.171418,5.52554 13.125,11.08259 -1.242548,1.67547 -4.098976,0.93556 -5.98102,1.29902 -4.846077,0.11097 -9.841338,0.43769 -14.610497,-0.0155 -0.760419,-0.62429 1.492347,-0.48696 1.71875,-0.65848 2.149328,-0.43928 4.534293,-0.29899 6.584821,-0.90402 1.574335,-0.85695 1.00005,-2.89314 -0.580357,-3.24777 -0.770308,-0.56032 -3.1016,0.22739 -2.912947,-1.14955 1.922763,-1.90581 4.925698,-1.09174 7.276786,-0.61384 1.407495,0.11258 1.449884,-1.82102 0.02232,-1.88616 -3.330603,-1.45082 -7.204862,-0.93763 -10.546875,-2.02009 -0.245908,-1.09935 1.890595,-1.18938 2.645089,-1.55134 1.042903,-0.26009 2.165296,-0.37165 3.258928,-0.33482 z m -13.426339,3.50446 c 0.673801,-0.22162 2.022264,0.31666 0.959822,0.98215 -0.638067,0.99862 -2.577974,0.77396 -1.986608,-0.59152 0.258102,-0.30486 0.656952,-0.36834 1.026786,-0.39063 z m -4.017857,2.14286 c 1.112564,-0.24631 1.778179,2.16815 0.424107,1.90848 -0.626881,-0.23181 -1.190147,-1.63757 -0.424107,-1.90848 z m 0.714286,3.93973 c 1.267637,0.004 -0.01834,1.77385 -0.714286,1.88616 -0.881245,0.49426 -1.37902,-0.85489 -0.435268,-1.22767 0.307568,-0.27904 0.729767,-0.59131 1.149554,-0.65849 z"
       id="path2892" />
    <path
       style="opacity:0.98999999;fill:#c70607;fill-opacity:0.98823529;stroke:none"
       d="m 54.825588,216.04507 c -3.204301,-0.93891 -1.821103,2.51579 -2.005298,4.40694 0.362575,8.57297 0.291878,17.25281 1.458423,25.73815 0.175319,2.24279 4.119268,2.83275 4.375,0.46875 1.234622,-9.21342 1.781372,-18.56501 1.473214,-27.85714 0.192146,-1.61665 -0.931747,-2.99961 -2.622768,-2.74554 -0.892724,-0.0391 -1.785496,-0.0422 -2.678571,-0.0112 z"
       id="path2894" />
    <path
       style="opacity:0.98999999;fill:#c70607;fill-opacity:0.98823529;stroke:none"
       d="m 68.441659,215.39775 c -2.480598,0.11693 -2.014573,3.48264 -2.468639,5.19782 -0.922059,8.92674 -1.304671,17.98073 -0.94654,26.92272 0.908116,1.16731 2.814167,0.0151 2.578125,-1.42857 1.887548,-9.22808 3.445164,-18.5978 4.285715,-27.99108 -0.09836,-1.6844 -1.788775,-2.90872 -3.448661,-2.70089 z"
       id="path2896" />
    <path
       style="opacity:0.98999999;fill:#c70607;fill-opacity:0.98823529;stroke:none"
       d="m 44.836748,216.14552 c -2.622888,0.38837 -2.206498,3.51245 -1.989583,5.45568 0.731462,8.68798 1.552807,17.48054 3.797619,25.90593 0.204189,1.22717 2.148762,2.41333 2.578125,0.72544 -0.200589,-9.61214 -1.278523,-19.26152 -2.243651,-28.8476 -0.232836,-1.24996 -0.249576,-3.59144 -2.14251,-3.23945 z"
       id="path2898" />
    <path
       style="opacity:0.98999999;fill:#c70607;fill-opacity:0.98823529;stroke:none"
       d="m 55.160409,596.00043 c -2.800938,1.56077 -1.940252,5.52041 -2.234086,8.21417 0.151298,5.42759 -0.502044,11.00245 0.526497,16.3394 0.673577,1.82534 3.727286,2.35179 4.475446,0.30134 1.174093,-5.14977 0.56692,-10.60313 0.178916,-15.84546 -0.600459,-2.94317 -0.323822,-6.48698 -2.344094,-8.87552 -0.174908,-0.11936 -0.396127,-0.17617 -0.602679,-0.13393 z"
       id="path2900" />
    <path
       style="opacity:0.98999999;fill:#c70607;fill-opacity:0.98823529;stroke:none"
       d="m 45.986302,594.43793 c -1.598502,0.93994 -1.325288,3.44046 -1.865812,4.99328 -1.127315,7.0575 -2.384214,14.31827 -2.274813,21.44645 1.004765,2.22684 5.266549,1.47552 5.122768,-1.16071 1.100659,-7.56973 1.01522,-15.34141 0.63616,-22.97991 -0.09519,-0.95694 -0.432111,-2.34237 -1.618303,-2.29911 z"
       id="path2902" />
    <path
       style="opacity:0.98999999;fill:#c70607;fill-opacity:0.98823529;stroke:none"
       d="m 64.100141,597.22811 c -0.799591,1.15603 0.08854,3.145 -0.02232,4.56473 0.767282,6.29724 0.916393,12.75294 2.287946,18.92857 0.671577,0.90579 2.329594,0.39957 1.953125,-0.89285 0.30157,-7.35256 -1.136107,-14.66387 -3.203125,-21.67411 -0.210591,-0.39681 -0.512671,-0.92392 -1.015625,-0.92634 z"
       id="path2904" />
    <path
       style="opacity:0.98999999;fill:#03159d;fill-opacity:0.98823529;stroke:none"
       d="m 56.365766,274.8732 c -3.080674,0.34146 -6.403983,-0.33514 -9.341518,0.625 -0.810902,3.25847 -0.190068,6.81393 -0.478941,10.1785 -0.925687,62.94518 -0.869591,125.89995 -0.971952,188.85052 -0.04576,30.33916 0.108673,60.67793 0.401786,91.01562 0.768157,2.18562 3.738336,0.73486 5.490467,1.09986 4.11122,-0.18877 8.302739,0.0974 12.366676,-0.5195 1.435864,-1.59606 0.38019,-4.11563 0.75731,-6.08247 0.84472,-88.4985 1.342103,-177.00055 1.692879,-265.50235 -0.125409,-6.26497 0.31768,-12.56103 -0.262689,-18.80581 -1.05419,-2.05791 -3.987572,-0.58464 -5.85806,-0.94975 -1.265319,0.0301 -2.530639,0.0602 -3.795958,0.0904 z"
       id="path2914" />
  </g>
</svg>
