<?xml version="1.0" encoding="UTF-8" standalone="no"?>
<!-- Created with Inkscape (http://www.inkscape.org/) -->

<svg
   xmlns:dc="http://purl.org/dc/elements/1.1/"
   xmlns:cc="http://creativecommons.org/ns#"
   xmlns:rdf="http://www.w3.org/1999/02/22-rdf-syntax-ns#"
   xmlns:svg="http://www.w3.org/2000/svg"
   xmlns="http://www.w3.org/2000/svg"
   xmlns:sodipodi="http://sodipodi.sourceforge.net/DTD/sodipodi-0.dtd"
   xmlns:inkscape="http://www.inkscape.org/namespaces/inkscape"
   width="326.40631"
   height="329.77652"
   id="svg2"
   version="1.1"
   inkscape:version="0.47 r22583"
   sodipodi:docname="SchellendeutschschweizerBlatt.svg">
  <defs
     id="defs4">
    <inkscape:perspective
       sodipodi:type="inkscape:persp3d"
       inkscape:vp_x="0 : 526.18109 : 1"
       inkscape:vp_y="0 : 1000 : 0"
       inkscape:vp_z="744.09448 : 526.18109 : 1"
       inkscape:persp3d-origin="372.04724 : 350.78739 : 1"
       id="perspective10" />
    <inkscape:perspective
       id="perspective2824"
       inkscape:persp3d-origin="0.5 : 0.33333333 : 1"
       inkscape:vp_z="1 : 0.5 : 1"
       inkscape:vp_y="0 : 1000 : 0"
       inkscape:vp_x="0 : 0.5 : 1"
       sodipodi:type="inkscape:persp3d" />
  </defs>
  <sodipodi:namedview
     id="base"
     pagecolor="#ffffff"
     bordercolor="#666666"
     borderopacity="1.0"
     inkscape:pageopacity="0.0"
     inkscape:pageshadow="2"
     inkscape:zoom="1.979899"
     inkscape:cx="165.35089"
     inkscape:cy="159.76394"
     inkscape:document-units="px"
     inkscape:current-layer="layer1"
     showgrid="false"
     inkscape:window-width="1280"
     inkscape:window-height="968"
     inkscape:window-x="-4"
     inkscape:window-y="-4"
     inkscape:window-maximized="1" />
  <metadata
     id="metadata7">
    <rdf:RDF>
      <cc:Work
         rdf:about="">
        <dc:format>image/svg+xml</dc:format>
        <dc:type
           rdf:resource="http://purl.org/dc/dcmitype/StillImage" />
        <dc:title></dc:title>
      </cc:Work>
    </rdf:RDF>
  </metadata>
  <g
     inkscape:label="Livello 1"
     inkscape:groupmode="layer"
     id="layer1"
     transform="translate(9.6460301,-342.04424)">
    <g
       id="g2830"
       transform="translate(-250,78.571429)">
      <path
         style="fill:#f2e804"
         d="m 390.57143,592.43196 c -23.36158,-5.39154 -48.26637,-7.23178 -68.65043,-21.12863 -21.36565,-11.49147 -38.13472,-29.7164 -53.59568,-48.05634 -8.14571,-15.99624 -18.70591,-31.66837 -22.4059,-49.21616 -2.80886,-21.57482 -9.12715,-43.40202 -2.93863,-64.9155 2.44701,-20.257 7.4014,-40.37795 20.08052,-56.83456 8.72568,-18.3342 23.59887,-31.90554 38.54419,-45.27848 20.67372,-17.49443 47.11299,-26.50049 73.0169,-32.57516 20.63478,-0.0217 41.56279,-1.88044 62.04083,1.13464 16.18258,6.2018 34.27111,13.677 46.33858,-4.31701 15.43684,-11.22493 38.14065,-9.86298 54.28984,-0.41998 26.22339,14.0743 39.04612,51.17165 21.17452,76.53509 -17.31601,16.2889 3.52033,34.80113 3.14694,54.27605 6.02924,33.67715 3.5254,70.06163 -12.05931,100.87767 -12.82332,24.52054 -32.0829,45.6378 -54.5552,61.45393 -15.71257,9.1808 -30.91674,19.79658 -49.24992,22.89167 -17.85167,5.07694 -36.64324,7.87989 -55.17725,5.57277 z M 536.4048,331.25504 c 15.82348,-19.81235 -8.56027,-49.15843 -31.15943,-44.529 -13.8235,-1.32079 -18.54073,14.10567 -4.09198,18.26799 10.86185,6.17946 22.44523,31.58272 35.25141,26.26101 z"
         id="path2842" />
      <path
         style="fill:#aaa15b"
         d="m 390.57143,592.43196 c -23.36158,-5.39154 -48.26637,-7.23178 -68.65043,-21.12863 -21.36565,-11.49147 -38.13472,-29.7164 -53.59568,-48.05634 -8.14571,-15.99624 -18.70591,-31.66837 -22.4059,-49.21616 -2.80886,-21.57482 -9.12715,-43.40202 -2.93863,-64.9155 2.44701,-20.257 7.4014,-40.37795 20.08052,-56.83456 8.72568,-18.3342 23.59887,-31.90554 38.54419,-45.27848 20.67372,-17.49443 47.11299,-26.50049 73.0169,-32.57516 20.63478,-0.0217 41.56279,-1.88044 62.04083,1.13464 16.18258,6.2018 34.77619,15.19223 46.33858,-4.31701 19.47745,-10.71985 38.14065,-9.86298 54.28984,-0.41998 26.22339,14.0743 39.04612,51.17165 21.17452,76.53509 -17.31601,16.2889 3.52033,34.80113 3.14694,54.27605 6.02924,33.67715 3.5254,70.06163 -12.05931,100.87767 -12.82332,24.52054 -32.0829,45.6378 -54.5552,61.45393 -15.71257,9.1808 -30.91674,19.79658 -49.24992,22.89167 -17.85167,5.07694 -36.64324,7.87989 -55.17725,5.57277 z m -3.5,-9.93912 c 18.45177,3.75035 35.75163,-10.973 48.35952,-20.85513 -2.03442,-14.84388 21.18532,-15.0482 16.93075,-25.81293 2.01954,-15.24574 -22.01923,-18.53317 -29.94228,-29.62786 -13.73519,-8.84153 -23.9134,-21.39693 -36.92796,-31.08146 -12.5789,-14.06908 -25.30531,-27.71701 -38.15594,-41.58476 -16.91782,-23.30457 -34.11781,-46.61038 -47.42229,-72.24837 -6.42222,-7.43471 -11.5784,-38.87024 -21.12328,-17.81714 -11.7344,14.30249 -19.52635,31.48219 -26.81366,48.5576 -5.82027,22.80767 -1.22872,46.55941 -3.02562,69.66942 5.5867,16.0631 12.53517,30.88584 19.90562,45.68708 36.25287,43.4054 11.70998,26.54297 65.73495,61.33945 16.65418,6.68558 34.68482,13.44807 52.48019,13.7741 l 0,0 z m 103.09376,-23.1395 c -5.92235,-10.39962 -15.60494,6.63385 0,0 z m 54.06852,-69.0983 c -2.24574,0.65435 2.2215,6.32415 0,0 z m -47.66228,-15.25 c 9.15285,-1.75038 -5.90165,-13.57163 5.86722,-12.93215 -3.90315,-10.18647 9.54107,-10.45189 8.04063,-12.75536 -3.86129,-7.41517 -12.96498,-23.23909 1.68999,-18.69631 3.05506,-9.89905 -22.30583,-23.8022 -0.65613,-19.93724 10.03185,-6.65385 -25.28902,-22.54284 -12.43092,-25.82704 6.49268,0.96547 24.9162,18.84404 16.20625,2.42118 -9.2386,-9.85292 -20.43827,-17.71392 -30.22947,-27.14977 -1.39546,-12.66625 16.03034,2.77437 18.45786,9.45959 5.77207,10.28208 17.96746,3.96436 7.86404,-4.56439 -9.16438,-9.47431 -33.71631,-16.37706 -32.43935,-28.20836 8.94415,-0.73904 25.37951,22.31698 27.12364,10.07366 -5.65279,-8.77658 -27.79274,-16.31554 -25.82152,-22.08234 13.39681,-5.3976 -12.19367,-8.22669 -7.11509,-14.22664 -6.13744,-3.89874 -15.12949,-3.24926 -12.3983,-12.05134 -7.32667,-2.05736 -15.24184,-4.32428 -15.2435,-10.8003 -24.06069,-6.03173 -49.34483,-8.18734 -73.73172,-2.81415 -14.05585,1.45933 -45.33783,6.03319 -32.43992,26.25658 10.37338,14.86598 18.24356,30.99475 27.33706,46.57865 11.03505,14.56949 20.38873,30.28141 33.43647,43.23825 11.75267,14.7502 26.54873,26.99131 39.31589,40.96372 17.99754,9.91639 29.63298,30.98005 51.05087,34.4974 l 3.11961,-0.3098 2.99639,-1.13384 0,0 z m 55,-9.05902 c -2.62568,-2.09025 -1.80759,3.68141 0,0 z m 5,-45.875 c 1.14915,-11.15267 -5.79102,-10.21203 -2.60805,0.84647 0.98073,5.75535 3.47235,2.86536 2.60805,-0.84647 z m -5.01531,-29.25696 c -4.70079,-9.03972 -1.58385,12.9416 0,0 z m -33.98469,-32.30902 c -3.87618,-7.03088 -2.72562,6.53897 0,0 z m -4,-3.5 c -6.08341,-9.07524 -4.08779,6.35311 0,0 z m -10.17611,-21.37 c 0.44153,-9.90285 -20.79939,-12.58096 -8.09848,-4.64038 2.24536,1.95808 4.16939,7.10386 8.09848,4.64038 z m 33.00948,-2.38 c 15.82348,-19.81235 -8.56027,-49.15843 -31.15943,-44.529 -13.8235,-1.32079 -18.54073,14.10567 -4.09198,18.26799 10.86185,6.17946 22.44523,31.58272 35.25141,26.26101 z m -57.83337,-29.75 c -4.57773,-7.7971 -4.72699,7.49588 0,0 z m -11,-1.5 c -4.81068,-6.46936 -5.13603,6.30062 0,0 z"
         id="path2840"
         sodipodi:nodetypes="cccccccccccccccccccccccccccccccccccccccccccccccccccccccccccccccccccccccccccccccccc" />
      <path
         style="fill:#cbb316"
         d="m 401.07144,587.03798 c -14.9529,-3.37836 -43.63973,-0.8712 -50.03757,-7.3791 14.28343,-4.60744 28.45257,6.89535 43.46325,3.75291 15.58636,-3.05593 33.23134,-10.80086 41.85034,-24.41467 0.55926,-12.88812 19.14598,-13.04463 16.9868,-24.15523 -2.69021,-13.20687 -24.19684,-21.41557 -35.44842,-31.00892 -28.04815,-24.39071 -54.45006,-50.92118 -78.11101,-79.62785 -15.67333,-24.39407 -34.03989,-47.36372 -45.42267,-74.3288 -4.15147,-5.86111 -5.64581,-19.18695 -13.91662,-13.4963 5.39349,-15.0878 19.96511,-26.02475 33.72834,-34.30162 7.04435,-2.59328 13.65211,-9.85157 19.29702,-4.26525 16.99942,-17.85271 18.74683,-12.66752 37.74763,-17.73638 17.06257,-3.82975 24.05942,-0.77082 34.66928,-2.37555 7.9081,1.40619 13.19139,-1.85312 25.453,2.76843 9.33623,2.40122 21.08875,4.31079 26.52924,5.18449 9.13617,-2.00045 27.19751,8.36245 23.21917,-6.47797 11.57912,-14.42965 35.72433,-17.97285 51.01541,-7.10371 19.02483,7.58973 31.39231,28.44951 28.57469,48.80886 4.0287,18.90078 -15.00803,31.15981 -14.39746,48.67414 4.57347,13.99384 0.876,6.78029 7.30877,21.78885 4.3728,20.95565 5.06559,28.56395 3.83881,49.44223 -1.72931,12.5558 -2.41682,22.51515 -5.60507,36.45929 -2.46715,10.79648 -3.39715,13.83978 -11.36969,26.12459 -0.12235,-11.86023 -35.55327,-11.55655 -13.75507,-3.88202 18.69426,4.66098 11.59783,25.30053 -0.0968,33.62333 -10.04361,10.68303 -20.40809,16.22555 -33.85931,27.34975 -13.96974,4.57423 -8.39553,1.61 -28.42316,13.10991 -11.39436,4.40211 -8.38162,1.44319 -20.02571,8.54444 -13.21641,2.65487 -29.70917,4.84728 -43.21319,4.92215 z m 89.09375,-27.68464 c -5.92235,-10.39962 -15.60494,6.63385 0,0 z m 7.8348,-4.19981 c -1.96933,-14.14047 -9.8328,5.05307 0,0 z m -22.42856,-15.11331 c -4.50379,-5.77852 -4.75356,0.56134 0,0 z m 68.66228,-49.78518 c -2.24574,0.65435 2.2215,6.32415 0,0 z m -47.66228,-15.25 c 9.15285,-1.75038 -5.90165,-13.57163 5.86722,-12.93215 -3.90315,-10.18647 9.54107,-10.45189 8.04063,-12.75536 -3.86129,-7.41517 -12.96498,-23.23909 1.68999,-18.69631 3.05506,-9.89905 -22.30583,-23.8022 -0.65613,-19.93724 10.03185,-6.65385 -25.28902,-22.54284 -12.43092,-25.82704 6.49268,0.96547 24.9162,18.84404 16.20625,2.42118 -9.2386,-9.85292 -20.43827,-17.71392 -30.22947,-27.14977 -1.45912,-12.6466 15.95287,2.64253 18.33419,9.33734 4.34965,2.81501 18.32398,15.84327 16.10924,5.85166 -7.9362,-14.49192 -25.66375,-20.26058 -38.04609,-31.03659 -10.93596,-15.02923 14.66704,-0.0986 18.63722,5.58454 16.70495,4.47928 -4.59282,-14.08672 -11.11439,-16.11987 -7.58715,-5.20573 -14.4402,-7.85115 -4.4828,-11.76265 -3.06111,-8.55511 -13.79843,-3.68526 -12.12466,-12.35663 -7.21911,-2.11415 -13.69082,-3.27959 -11.64143,-11.09762 -7.32667,-2.05736 -15.24184,-4.32428 -15.2435,-10.8003 -24.02279,-5.99974 -49.27583,-8.22719 -73.6202,-2.80307 -13.29105,1.82771 -42.83311,4.66289 -33.47699,24.45752 8.96155,15.08284 18.90383,28.77492 25.60412,45.00102 12.65452,17.50127 24.75693,35.44531 39.88298,50.97499 13.03395,13.43587 25.13846,28.29756 40.40146,39.05995 12.41338,11.07908 24.53334,23.05085 39.44398,30.61353 4.07289,1.5619 8.84257,1.96028 12.8493,-0.0271 l 0,-3e-5 z m 55,-9.05902 c -2.62568,-2.09025 -1.80759,3.68141 0,0 z M 329.06588,404.49891 c -5.92585,-4.95598 2.79447,6.37308 0,0 z m 59.60935,-16.29007 c -4.54463,-1.93822 1.55491,4.47864 0,0 z m -10.14964,-11.78945 c -5.7402,-5.80899 3.10238,6.53075 0,0 z m 163.68718,-15.42207 c -1.74553,-18.89681 -11.291,7.35732 0,0 z m -24.64134,-2.49228 c -3.87618,-7.03088 -2.72562,6.53897 0,0 z m -4,-3.5 c -6.08341,-9.07524 -4.08779,6.35311 0,0 z m -217.65492,-6.04313 c -2.34417,-4.42067 0.65277,5.41858 0,0 z m 236.54759,-8.51795 c 18.19412,-13.10609 14.78458,-42.03171 -5.87529,-50.66454 -13.55975,-11.90955 -53.24404,-3.05642 -33.42166,18.02219 12.14911,-2.93642 6.95881,15.02808 18.27297,13.17118 2.21999,9.84432 7.5538,27.30929 21.02398,19.47118 0,0 0,-10e-6 0,-10e-6 z m -11.89267,-6.8799 c 1.86494,-4.97873 2.40954,3.18442 0,0 z m -17.17611,0.071 c 0.44154,-9.90285 -20.79939,-12.58098 -8.09848,-4.64039 2.24536,1.95808 4.16939,7.10385 8.09848,4.64039 z m -24.82389,-32.13001 c -4.57773,-7.7971 -4.72699,7.49588 0,0 z m -11,-1.5 c -4.81068,-6.46936 -5.13603,6.30062 0,0 z m 5,-6.5 c -3.4145,-3.77497 -2.72556,2.12765 0,0 z M 260.6211,505.59785 c -0.72389,-7.78682 -6.29948,-36.01804 -0.84463,-14.93342 2.12006,6.8262 15.62515,19.65933 0.84463,14.93342 z M 250.19786,481.3382 c -5.04905,-28.81558 -1.82369,-58.20076 -2.28168,-87.26453 0.89056,-11.28741 10.73949,-12.60805 9.90925,-24.0271 2.17726,-9.90986 9.6556,-9.45829 3.76881,0.74358 -10.20573,17.8732 -14.45215,37.9428 -12.48249,58.42346 -1.52139,17.77734 1.48235,35.66694 3.59601,51.12243 l -1.09818,0.96584 -1.41172,0.0363 0,0 0,2e-5 z m 0.87357,-102.83316 c 0.38927,-3.93191 2.84049,3.77449 0,0 z m 17.29565,-20.4051 c -2.31364,-7.40681 8.87196,-25.36821 11.04745,-15.11921 -2.61413,1.68631 -10.9859,19.89267 -11.04745,15.11921 z"
         id="path2838"
         sodipodi:nodetypes="ccccccccccccccccccccccccccccccccccccccccccccccccccccccccccccccccccccccccccccccccccccccccccccccccccccccccccccccccc" />
      <path
         style="fill:#b0a813"
         d="m 391.82143,586.23906 c -11.91098,1.03252 -6.89564,-6.45512 1.9425,-2.43816 12.06592,-1.80378 29.52718,3.23033 29.91942,-11.13873 12.30442,-10.28973 29.25068,12.74214 11.16356,10.63042 -14.12461,2.79425 -28.64052,4.55475 -43.02548,2.94647 z m -37.75,-3.64112 c -13.84647,-5.26607 17.69831,0.2639 2.04004,0.24261 -0.68001,-0.0809 -1.36003,-0.16174 -2.04004,-0.24261 z m -15.5,-8.0929 c -1.2321,-4.05936 6.08341,3.38124 0,0 z m 106.71277,-1.62057 c -3.09999,-4.21811 -13.52917,-12.09485 -0.88984,-9.59861 8.59345,3.70763 19.76838,11.45124 0.88984,9.59861 z m 28.9539,-0.0461 c -2.90565,-13.88153 14.40389,1.80353 0,0 z m -147.41667,-0.99561 c -5.61662,-10.9104 15.74318,5.48226 0,0 z m 129.25,-7.57839 c -23.25125,-7.25911 3.53778,-33.5899 17.91997,-19.33768 7.45677,0.85329 23.28458,12.11634 6.49582,12.17982 -6.24333,6.20069 -15.66623,10.62481 -24.41579,7.15786 z m 18.83357,-8.18622 c -3.63584,-8.19799 -29.15076,-12.32698 -12.21442,-3.41638 3.44688,2.13994 7.97312,6.12525 12.21442,3.41638 z m -161.28397,5.62444 c -23.3844,-12.10067 21.10461,6.44424 0,0 z m 177.9504,-2.779 c 15.09268,-10.38387 -16.82355,-18.73496 -24.75706,-23.5967 -26.56434,-14.47649 -49.14181,-35.07318 -72.42769,-54.11858 -11.63438,-10.2355 -23.30765,-20.86305 -31.38415,-34.25728 -22.65738,-19.24603 -34.90385,-46.96237 -53.22869,-69.81057 -11.10508,-13.56867 -11.77992,-34.03798 -25.95766,-45.07168 -10.82378,5.67848 10.7231,-13.78626 13.12468,-17.34315 10.66244,-10.74466 36.41124,-30.3943 40.11152,-4.69702 19.36719,35.65144 40.30993,71.00086 68.93031,100.15531 27.02988,28.1313 55.86294,55.52133 90.4904,74.09377 4.30832,7.91574 21.95611,4.49535 9.04492,-2.22439 -10.00728,-2.62819 0.16302,-15.22475 -3.13261,-18.64628 12.01613,-12.05297 29.34623,21.66425 35.57934,6.15552 -8.29205,-10.51385 -29.41625,-14.58882 -26.70048,-31.03626 9.23741,4.65373 20.94934,28.90541 31.03233,17.28431 -15.95959,-4.56457 1.33366,-17.54276 -7.21755,-23.51714 17.65939,-13.35977 -20.51573,-24.64286 -7.45865,-38.37787 -1.51035,-6.74119 -23.23313,-15.12476 -16.90481,-16.53351 13.16624,8.92704 7.85519,-8.57422 7.11547,-13.20482 7.95257,-15.2734 -29.54257,-21.95169 -11.35176,-31.31485 -2.01389,-12.76855 -24.38291,-13.8415 -25.55277,-23.51639 13.15734,-2.65997 17.62394,14.12387 31.68798,12.20542 0.1022,16.97199 15.82242,25.00059 23.10419,39.14685 7.06768,23.35559 16.57521,46.64054 16.4362,71.47686 4.30453,13.43407 -3.09389,26.19134 -5.01939,36.52301 3.96723,17.83482 -15.41531,30.75985 -28.29324,25.99163 8.85599,7.5407 27.87315,9.83098 17.15935,26.26684 -8.40894,11.39852 -17.76803,23.22447 -29.60575,31.23171 -5.70824,-0.32974 -7.60269,13.82644 -14.82443,6.73526 z m 37,-75.4433 c -3.15563,-7.6788 -25.84017,-22.02572 -15.84037,-4.61521 4.3012,3.77007 10.31857,4.67249 15.84037,4.61521 z M 528.1756,375.77587 c -2.2962,1.83122 1.88975,3.42304 0,0 z m -89.60417,179.72917 c 3.49659,-4.33831 3.92225,4.24209 0,0 z m -144.4751,-6.61796 c -6.8586,-9.56502 -28.91191,-25.4558 -22.6865,-32.73855 3.89148,12.4826 10.68656,8.36535 8.75311,-2.68768 1.59094,-19.04158 17.44862,-36.80709 36.73874,-39.72979 19.491,-1.88103 45.10937,2.08805 54.0487,21.909 7.4814,21.69536 -16.82558,43.49257 -37.58349,33.91407 -16.37179,-3.85788 -14.8918,-23.85226 -20.23987,-32.63942 -15.00999,3.21326 -20.63531,20.64212 -20.54383,34.29047 -2.63389,3.69565 9.31722,23.28046 1.51314,17.6819 z M 260.40955,505.0491 c -2.84041,-17.43605 9.48272,8.8283 0,0 z m 281.16188,-0.35293 c 2.42007,-10.37639 7.48112,3.89082 0,0 z M 250.29048,481.80783 c -7.20246,-16.9905 9.10369,-4.39574 0,0 z m 302.57477,-0.96963 c -4.35262,-6.83531 7.08097,-26.97704 4.56304,-8.8685 -0.14644,2.12765 0.0212,13.68829 -4.56304,8.8685 z m -19.63959,-37.45908 c -1.77069,-0.80924 -5.49076,-7.08818 -7.18007,-8.95431 -1.68931,-1.86614 -10.27644,-3.96234 -11.06697,-5.69183 -0.79053,-1.72949 -5.57016,-1.30656 8.92694,1.15129 0.92567,-0.3993 2.91379,0.16489 6.37307,2.28933 0.86074,0.60517 2.58116,3.87689 3.95472,5.19828 1.37356,1.32139 8.11456,1.40675 3.30218,2.06779 -1.62937,0.22381 1.32187,2.61203 0.76763,3.37899 -0.55423,0.76696 -2.08265,1.06416 -5.0775,0.56046 z m -30.15423,-10.87408 c 1.77596,-3.927 5.18337,4.05523 0,0 z m 16.25,-11.2222 c 0,0 -3.53527,-2.73308 -4.45291,-4.56305 -0.91764,-1.82997 -9.85286,-6.62342 -2.55838,-3.41538 11.71033,-2.59189 -0.81773,-1.54197 8.21573,0.48603 0,0 1.40685,1.53467 1.9961,2.49329 0.58926,0.95862 18.18556,9.83644 18.32403,10.72272 0.13848,0.88628 16.39057,11.28104 -0.70857,3.13068 6.47228,0.42106 -20.816,-8.85427 -20.816,-8.85427 l 0,-2e-5 z m -13.25,-5.7778 c 1.70992,-3.56495 3.24759,3.66437 0,0 z m 48.89851,-15.76531 c -5.09914,-5.13539 0.7018,-25.55824 2.52925,-9.15362 -0.95505,2.12938 2.37787,11.05217 -2.52925,9.15362 z M 248.61147,392.1893 c 0.80288,-17.79256 7.46424,1.08948 0.0258,3.91707 l -0.096,-1.48385 0.0701,-2.43322 1e-4,0 z m 257.15996,4.11574 c -4.77026,-9.43885 7.46993,4.59544 0,0 z m -9.53333,-7.46667 c -0.8248,-9.04183 10.86368,4.3722 0,0 z m 50.94032,-10.91512 c -0.34217,-9.80921 7.23418,5.45529 0,0 z m -48.4199,-7.41821 c -15.13092,-9.83637 10.40634,-3.01269 3.71387,2.80533 l -1.37942,-0.72392 -2.33445,-2.08141 z m -240.18709,-3.25171 c 0.94614,-8.96524 8.99854,-7.49457 2.29449,-0.25788 l -2.29449,0.25788 z m 284.6875,-2.39412 c -1.84618,-11.73518 -22.39345,-23.34886 -3.58961,-32.19072 13.6665,-18.50887 -2.63166,-42.45541 -22.53106,-46.78128 -14.96245,-7.06402 -31.44114,5.0201 -30.9489,15.27 -14.19187,-7.00482 -28.53395,-9.55636 -42.92032,-16.88616 10.44486,-0.54592 34.98987,8.97216 37.45177,-3.85602 9.42425,-14.8581 34.02924,-19.29868 48.66895,-9.59247 20.26081,7.11276 34.32816,28.50407 31.27997,50.01227 1.31535,15.6289 -6.22005,29.20095 -15.66817,40.94792 l -1.74263,3.07646 0,0 z m -49.4375,-14.01645 c -4.6962,-9.35319 9.78638,1.89462 0,0 z m -223.25,-5.56326 c 1.97415,-12.36338 8.77526,1.84758 0,0 z m 250,-11.71544 c 1.86494,-4.97873 2.40954,3.18442 0,0 z m -39,-7.05902 c 1.54331,-3.33597 2.07829,3.67886 0,0 z m 16.98635,-13.75 c -4.82913,-11.62494 11.17058,3.14446 0,0 z m -35.98635,-8.28139 c 6.66388,-6.57594 14.05523,5.57876 0,0 z m -90,-25.27 c 19.17358,-6.45125 40.40611,-3.40777 59.94451,-2.15948 3.03256,7.72262 -19.38314,0.23893 -25.60004,2.32002 -10.98488,-0.54734 -25.46642,1.03333 -34.34447,-0.16054 z"
         id="path2836"
         sodipodi:nodetypes="cccccccccccccccccccccccccccccccccccccccccccccccccccccccccccccccccccccccccccccccccssccssscccccccccccccccccccccccccccccccccccccccccccccccccccccccccccccc" />
      <path
         style="fill:#da2f20"
         d="m 498.59884,552.39154 c -18.25815,-13.77887 -41.98697,-18.53486 -58.6615,-34.75337 -24.1725,-19.42793 -51.28623,-36.70961 -69.85314,-61.90073 -11.76759,-16.19097 -25.84696,-30.53552 -37.23782,-46.99025 -11.92648,-17.61494 -26.3987,-33.55137 -34.43121,-53.51132 -8.79969,-14.42358 -18.35137,-34.20076 2.17297,-43.58601 8.35215,-7.6287 26.40219,-21.44187 34.31222,-6.47415 5.59976,20.48497 21.4523,35.71154 30.46123,54.55458 23.99007,36.79301 54.58381,69.21197 88.22502,97.23028 17.65709,11.65942 34.10013,25.2602 53.68606,33.68596 14.54449,7.30902 42.95875,19.26052 23.75595,38.26993 -11.93166,6.25408 -17.58817,28.0615 -32.42978,23.47508 z m -211.86227,-10.401 c -15.50181,-12.95252 -5.79189,-36.40934 2.39782,-50.86379 13.29488,-19.88124 41.2436,-21.09957 61.71543,-13.35103 22.47689,4.9796 28.36121,35.69823 9.77824,48.83847 -19.08437,13.944 -47.58614,-3.16507 -44.52519,-26.55061 -4.62021,-10.56625 -21.54466,9.53013 -22.24364,18.82457 -6.00897,4.75124 5.18789,32.41016 -7.12266,23.10239 z M 544.19885,358.79913 c -16.72859,-13.06707 -0.35153,-30.99851 0.66781,-45.7242 -5.16434,-23.01571 -36.81412,-39.95042 -54.72748,-23.80197 -3.87062,3.48926 -8.55566,5.10533 -10.15759,4.35742 -1.60194,-0.74791 -6.01835,-1.50925 -8.40569,-3.26044 -4.97655,-3.65047 8.56072,-9.27553 10.63768,-12.35111 2.07696,-3.07557 9.21628,-7.13718 12.70345,-8.30324 23.89592,-7.99049 49.05156,2.81832 60.761,24.11291 7.32174,16.25949 7.21435,36.98243 -0.36969,53.09355 -3.51264,4.14212 -7.18786,8.19949 -11.10949,11.87708 z m -69.77028,-73.72266 c 3.85272,-4.54688 2.26697,3.71081 0,0 z"
         id="path2834"
         sodipodi:nodetypes="cccccccccccccccccccccsssscccccc" />
      <path
         style="fill:#030202"
         d="m 286.73657,541.99054 c -15.50181,-12.95252 -5.79189,-36.40934 2.39782,-50.86379 13.29488,-19.88124 41.2436,-21.09957 61.71543,-13.35103 22.47689,4.9796 28.36121,35.69823 9.77824,48.83847 -19.08437,13.944 -47.58614,-3.16507 -44.52519,-26.55061 -4.62021,-10.56625 -21.54466,9.53013 -22.24364,18.82457 -6.16976,5.17824 5.40754,31.54599 -7.12266,23.10239 z m 223.33486,-4.59244 c -21.27613,-16.32107 -47.94872,-24.21527 -68.0781,-42.35391 -16.79881,-13.96863 -36.27186,-24.66494 -50.74279,-41.38079 -22.71195,-22.66123 -42.32706,-48.22832 -60.99118,-74.27529 -13.91933,-17.31921 -20.43049,-39.20205 -33.15722,-57.18456 -3.88012,-18.31513 24.22379,-20.18628 22.66387,-1.16565 29.34322,57.06804 69.69563,108.75548 119.5489,149.30959 12.23295,10.14039 26.92052,16.69034 38.51407,27.52609 15.93307,9.1656 32.66159,19.61823 51.56933,19.75058 15.45411,2.08879 -13.60745,33.77158 -19.32688,19.77394 z"
         id="path2832"
         sodipodi:nodetypes="ccccccccccccccccc" />
    </g>
    <path
       style="fill:#aaa15b;fill-opacity:1"
       d="m 26.785938,418.55861 c -1.580935,-0.0146 -2.469789,1.45826 -2.109375,2.94643 0.157567,1.59843 -1.345567,2.48194 -2.767858,2.31027 -1.919525,1.3183 -2.235625,4.1142 -3.118859,6.15594 -0.6429,2.35949 -1.267792,5.11095 -0.173551,7.40433 1.250054,0.019 1.649065,-2.01216 2.467076,-2.75759 2.689341,-4.34848 5.242426,-8.84639 8.169084,-12.96786 0.08255,-1.35589 -0.876205,-3.26272 -2.466517,-3.09152 z"
       id="path2884" />
    <path
       style="fill:#aaa15b;fill-opacity:1"
       d="m 13.33831,441.9569 c -1.20926,1.14209 -1.704659,3.82244 -3.8512065,3.62234 -1.529692,-0.29755 -1.2536342,1.79052 -1.6257143,2.77003 -0.2470664,2.71134 -0.1678376,5.54909 -1.6414979,7.96284 -1.3571581,2.69653 -3.4998056,4.93876 -5.0586545,7.46566 0.8832046,2.67953 1.105793,5.86774 -0.1420527,8.42846 -0.50681705,0.77353 -1.25058101,1.9377 -2.2018169,2.08344 -0.2435327,-1.41269 0.21808963,-2.95196 -0.2367545,-4.30104 -0.8307775,-0.19515 -0.4080862,1.47184 -0.5712602,2.08309 -0.402301,18.7499 -0.6469291,37.50656 -0.6070227,56.26108 0.109589,7.68491 0.3516101,15.42548 1.5255228,23.02046 0.37606482,0.80708 1.54349291,0.60067 2.1623578,1.21534 1.2493789,0.44152 0.5168256,-1.4678 0.5524272,-2.07555 -1.38633639,-10.6962 -2.854205,-21.42492 -2.6650321,-32.23805 0.0487763,-7.24295 0.0897718,-14.48444 -0.083722,-21.72617 -0.050546,-16.05673 4.5334975,-31.87067 12.1503615,-45.9353 1.076571,-2.55218 2.943311,-5.05046 2.8386,-7.91848 -0.07411,-0.2613 -0.12679,-0.82497 -0.544535,-0.71815 z"
       id="path2886" />
    <path
       style="fill:#aaa15b;fill-opacity:1"
       d="m 38.592124,402.08744 c -2.706751,2.94954 -5.872515,5.63109 -7.923384,9.07559 0.138041,1.10819 1.730331,0.24106 2.320194,0.0316 1.473607,-1.13483 2.271665,1.43673 3.420325,2.08471 1.144291,0.95974 2.049823,2.41702 3.33507,3.10811 0.423838,-0.87145 -0.476075,-2.02066 -0.52086,-2.98311 -0.881982,-3.62086 -0.835547,-7.43835 -0.213079,-11.11168 0.04623,-0.22701 -0.278674,-0.37288 -0.418266,-0.20518 z"
       id="path2888" />
    <path
       style="fill:#aaa15b;fill-opacity:1"
       d="m 33.75444,410.74476 c -1.78433,0.27397 -2.923387,1.95489 -3.062025,3.64602 0.972554,0.48823 2.037827,-0.77467 3.101484,-0.61556 3.491744,-0.10543 4.999001,3.62792 6.281886,6.29767 4.865824,9.95246 9.291196,20.15585 14.891859,29.71269 0.05603,0.47972 1.160357,1.52597 1.065395,0.52086 -2.49799,-4.94989 -4.758398,-10.06849 -6.943386,-15.19855 -2.892543,-5.59958 -6.289088,-10.93533 -8.447151,-16.87502 -1.516943,-2.94095 -4.34899,-4.96673 -6.564497,-7.37762 -0.07948,-0.0901 -0.198083,-0.15004 -0.323565,-0.11049 z"
       id="path2890" />
    <path
       style="fill:#aaa15b;fill-opacity:1"
       d="m 0.42729781,463.14642 c -1.37212288,0.75591 -1.36433392,2.75899 -1.59243301,4.14933 -0.080736,2.2953 -0.5044021,4.70936 -0.025389,6.95446 1.02030637,0.2734 1.58695442,-1.25462 2.16235777,-1.89404 1.39701063,-2.37757 0.98780773,-5.39392 0.46561723,-7.97862 -0.1661312,-0.46469 -0.3762629,-1.27357 -1.01015259,-1.23113 z"
       id="path2892" />
    <path
       style="fill:#aaa15b;fill-opacity:1"
       d="m -0.77225834,551.72418 c -1.49480476,0.8954 -0.72484306,3.08997 -0.48140086,4.48255 0.41751841,1.44946 0.79439486,2.99333 1.53890431,4.28525 1.74187219,-0.70626 3.05915379,-2.41697 2.80159499,-4.37206 0.047456,-2.20332 -1.6905446,-4.13927 -3.85909844,-4.39574 z"
       id="path2894" />
    <path
       style="fill:#aaa15b;fill-opacity:1"
       d="m 148.56459,353.73428 c -23.48716,0.21641 -23.67663,1.00487 -31.78204,3.6618 -0.26307,0.88893 8.29992,0.61423 8.99837,0.7734 12.67907,0.3807 25.36264,-0.5994 38.03799,-0.17261 5.66335,0.21846 11.32595,1.89941 16.99164,0.96968 1.71198,0.0149 2.83249,-2.43705 1.38107,-3.49607 -11.18428,-0.81723 -22.39656,-1.82812 -33.62703,-1.7362 z"
       id="path2896"
       sodipodi:nodetypes="ccccccc" />
    <path
       style="fill:#aaa15b;fill-opacity:1"
       d="m 3.4893227,446.50258 c -5.7561848,12.6477 -8.6437708,26.39393 -10.5240887,40.08661 -1.1344469,5.45673 -2.4056632,10.91103 -2.5447599,16.5135 -0.8034011,14.80722 2.4601768,29.40287 4.5493935,43.97582 1.0932869,9.84805 4.75823545,19.14944 9.103299,27.97217 4.305226,8.71432 8.9892194,17.26638 13.7289044,25.74254 5.399533,7.62234 12.091553,14.34448 18.503093,21.15665 10.437853,10.76992 22.05241,20.49546 35.175155,27.83816 9.620011,6.27204 20.415938,10.66535 31.564521,13.3829 12.14791,2.96748 24.4635,5.19254 36.71318,7.68621 7.82344,1.32267 15.84865,1.00419 23.75367,0.67271 11.52471,-0.81179 22.77355,-3.51643 33.95206,-6.30695 17.11361,-3.57004 32.0087,-13.26531 46.73399,-22.21807 10.81997,-7.02101 20.28901,-15.91012 29.20717,-25.17686 1.6419,-1.85527 3.60731,-3.54233 4.90904,-5.63669 -0.57854,-0.74377 -1.35676,0.80791 -1.90712,1.03814 -2.81883,2.50956 -5.82249,4.78119 -8.29701,7.66653 -3.49086,3.81299 -7.07104,7.64202 -11.59996,10.2752 -2.66638,1.89398 -5.67499,3.41749 -7.69019,6.03661 -1.14435,1.39483 -2.96265,2.59413 -4.78777,1.83937 -4.14663,-0.45667 -8.58167,0.6512 -11.49049,3.7565 -1.26865,1.33908 -2.74526,2.63008 -3.68548,4.18267 0.49005,1.0724 1.83025,3.11191 0.22098,3.87488 -2.41473,0.80753 -5.17887,0.21924 -7.61561,1.21534 -5.83015,1.0453 -6.11828,0.13689 -11.97898,1.05381 -4.05301,0.45373 -8.80458,0.90723 -11.64122,4.19425 -0.1604,1.12881 -4.95377,0.80599 -5.46114,1.96506 -0.63919,2.4272 -3.73857,2.34805 -5.74525,2.5017 -7.73184,0.79355 -15.33197,2.45476 -23.10519,3.03639 -5.93839,0.60672 -11.92602,0.84682 -17.86818,0.17636 -3.661,-0.37479 -7.52286,0.13502 -10.97056,-1.22401 -7.60728,-0.82908 -15.34187,-0.75481 -22.93362,-1.91771 -3.58569,-0.76174 -7.61493,-0.0572 -10.72498,-2.34387 -1.00773,-0.47218 1.23275,-0.57949 0.32356,-1.23112 3.20807,-1.15267 6.66517,-0.80109 9.97526,-1.08907 0.45003,-0.83159 -1.35694,-0.68432 -1.81192,-1.0476 -3.59176,-0.98533 -7.09661,-2.57629 -10.783421,-3.15874 -2.44844,0.7117 -5.260392,-0.0955 -7.773439,0.53664 -0.528542,0.80958 -1.660416,-0.5223 -2.34387,-0.61556 -1.704718,-0.97093 -3.713394,-0.83246 -5.540055,-1.34161 -2.069209,-0.40601 -4.534863,-0.23255 -6.234535,-1.62571 -0.93469,-1.15331 -0.42975,-2.91997 -1.862469,-3.7644 -2.513002,-2.18936 -5.010827,-4.71692 -8.442295,-5.23106 -2.401718,-0.57007 -4.585074,-1.8345 -7.017774,-2.26617 -0.954233,-0.42742 -2.675215,-1.21546 -2.359653,-2.51749 0.990573,-1.30534 3.173793,-1.36735 4.04061,-2.75424 -0.618777,-1.14049 -2.392501,-0.9398 -3.4724,-1.39685 -3.756504,-0.88346 -7.229641,-2.53672 -10.614493,-4.28526 -0.670825,-0.26393 -0.419802,0.94837 -1.167989,0.4893 -2.861515,-1.0541 -3.980299,-4.30837 -6.470658,-5.99048 -2.957154,-1.77473 -5.497895,-4.11087 -7.340021,-7.06259 -3.027458,-4.01477 -6.589428,-7.55676 -9.643801,-11.53784 -3.17083,-3.12419 -3.260719,-7.98468 -3.133051,-12.17707 0.550698,-1.85489 0.157104,-3.7505 -0.552427,-5.5006 -0.433782,-0.69685 -0.393293,-2.16531 -1.310042,-2.34386 -0.362286,0.44727 -0.317801,1.30066 -1.144313,1.23901 -1.594482,0.12274 -3.580802,0.90294 -4.869251,-0.44983 -1.304004,-0.15486 -0.909054,-1.9473 -1.191421,-2.87067 C 9.5242725,575.02343 8.4347154,568.53579 7.4667984,562.07824 5.8537547,557.2863 3.7435824,552.6584 1.8083657,547.99135 0.98378075,547.44341 1.4710256,546.23411 1.1764868,545.33489 -0.85393473,531.87957 -0.61285374,518.23264 -0.89177832,504.66527 -1.0053531,493.87329 -0.75498751,482.92969 2.3483218,472.51502 4.6318366,463.47496 8.9967805,455.18434 12.951611,446.7788 c -0.333249,-0.81412 -1.743922,-0.19699 -2.470125,-0.41298 -2.3134753,0.0669 -4.7579458,-0.20329 -6.9921633,0.13676 z m -1.9887378,9.66748 c 0.3735001,0.37333 1.0368774,1.33047 0.647129,1.75987 -0.4831474,-0.24567 -1.24060727,-1.33149 -0.647129,-1.75987 z m -2.9357558,13.68441 c -0.2249896,0.0546 0.1976557,-0.68185 0,0 z m 0.52085986,81.67241 c 0.0972959,0.17023 -0.13353936,0.47127 0,0 z m 2.60429954,1.09696 c 0.021917,0.54418 -0.2364906,-0.5347 0,0 z"
       id="path2898"
       sodipodi:nodetypes="ccccccccccccccccccccccccccccccccccccccccccccccccccccccccccccccccccccccccccc" />
    <path
       style="fill:#aaa15b;fill-opacity:1"
       d="m 108.67935,657.26144 c -2.3853,0.20056 -5.01884,-0.0624 -7.21312,0.97859 -0.26261,0.9329 1.34322,0.70043 1.90982,0.89177 2.28087,0.45863 4.92454,0.53633 6.9369,1.72042 -0.39822,0.0938 -1.44542,0.53455 -0.63923,0.86021 8.30771,1.16299 16.70077,1.43374 25.04073,2.26495 0.75154,-0.50129 0.4222,-2.3283 -0.74972,-1.98085 -7.26195,-1.06969 -14.27669,-3.66618 -21.56044,-4.67195 -1.23948,-0.0793 -2.48357,-0.0997 -3.72494,-0.0631 z"
       id="path2900" />
    <path
       style="fill:#aaa15b;fill-opacity:1"
       d="m 60.910182,632.52849 c -0.190327,0.4874 0.270057,1.19701 -0.512969,1.4442 -0.85059,0.82805 -2.653509,0.96638 -2.983106,2.2176 0.587754,0.57935 1.705417,0.47084 2.436292,0.97767 3.817997,1.62184 7.953369,2.87158 11.027147,5.76194 1.833142,1.15366 3.211998,3.01587 5.184924,3.93013 2.542405,-0.22303 4.717627,1.65056 6.218751,3.51186 0.306322,0.52442 -0.06881,1.48881 0.903039,1.34182 1.723151,0.12679 3.490832,1.03799 5.197336,0.6548 0.482757,-0.94002 1.499604,0.23871 2.012413,0.63924 1.829929,0.75298 3.987105,0.23646 5.934409,0.32049 0.620557,-0.14884 2.114711,0.21167 2.083677,-0.73875 -2.759959,-1.34049 -5.919689,-1.85179 -8.807268,-2.94365 -10.659534,-3.50119 -19.338139,-10.83671 -28.418432,-17.1726 -0.09271,-0.0317 -0.199552,-0.0173 -0.276213,0.0553 z"
       id="path2902" />
    <path
       style="fill:#aaa15b;fill-opacity:1"
       d="m 42.411763,609.63433 c -0.462832,4.64701 1.613336,9.15138 3.054138,13.52228 0.65511,1.39135 0.716031,3.04627 1.436306,4.36847 4.19734,2.61518 8.962657,4.39538 13.834355,5.23227 0.653935,-0.70134 -0.941585,-1.28393 -1.351201,-1.71529 -3.399252,-2.46912 -7.057226,-4.59751 -10.470741,-7.01306 -3.815898,-3.71392 -5.393471,-9.05657 -6.155617,-14.22894 l -0.134161,-0.17362 -0.213079,0.008 z"
       id="path2904" />
    <path
       style="fill:#aaa15b;fill-opacity:1"
       d="m 7.8219301,563.57768 c -0.051931,2.90954 0.7659472,5.88938 1.0754892,8.81751 0.4546449,1.87461 0.2227596,4.00499 1.1184357,5.71133 0.528033,0.16952 0.260175,-0.81117 0.773398,-0.32357 2.131449,1.77406 2.702129,4.69565 3.338239,7.27626 1.113266,0.34796 3.621781,-0.12629 3.354022,-1.82301 -2.195803,-5.8739 -7.04334,-10.53898 -8.3495423,-16.778 -0.4057432,-0.92452 -0.3352189,-2.31586 -1.1364216,-2.95154 l -0.17362,0.071 z"
       id="path2906" />
    <path
       style="fill:#aaa15b;fill-opacity:1"
       d="m 20.338352,589.06825 c -1.484484,0.85268 -0.846571,3.05177 -0.996457,4.4667 0.160016,2.31965 -0.02405,4.84745 1.075375,6.94487 0.740308,-0.51835 -0.0244,-1.92911 0.165728,-2.83316 0.04295,-0.81318 0.105478,-2.15066 0.757614,-2.55695 1.132629,2.63237 2.164299,5.94865 4.979737,7.21312 1.020727,0.2733 2.669355,-0.069 2.241276,-1.47577 -0.382319,-0.63152 -1.36564,0.0941 -1.759876,-0.74183 -2.93011,-2.97598 -3.200259,-7.45582 -5.721567,-10.66974 -0.197251,-0.18809 -0.447871,-0.39937 -0.74183,-0.34724 z"
       id="path2908" />
    <path
       style="fill:#aaa15b;fill-opacity:1"
       d="m 21.103858,595.31068 c -0.815122,1.32641 -0.541626,3.16843 -0.394591,4.67196 1.337921,4.43518 5.106634,7.51587 7.9076,11.04065 0.626272,0.34028 1.111243,1.905 1.925604,1.49155 -0.312226,-1.86 -1.225902,-3.66897 -1.412636,-5.60319 -0.404241,-1.55546 -0.204397,-3.40595 -0.75526,-4.84039 -1.476142,0.29973 -3.224346,-0.15692 -4.027181,-1.52831 -1.275851,-1.57 -1.841523,-3.56024 -2.927864,-5.23227 -0.0973,-0.0534 -0.218375,-0.0534 -0.315672,0 z"
       id="path2910" />
    <path
       style="fill:#aaa15b;fill-opacity:1"
       d="m 43.011541,616.53967 c -0.560626,1.79823 0.05544,4.61979 -1.925603,5.66632 -2.249318,0.23198 0.347642,1.87003 0.886419,2.70663 1.338689,1.17251 2.431097,3.2304 4.345855,3.40164 0.942064,-0.71967 0.0018,-2.19019 -0.112263,-3.13022 -0.948465,-2.89669 -1.819675,-5.88497 -2.973437,-8.67594 l -0.220971,0.0316 z"
       id="path2912" />
    <path
       style="fill:#aaa15b;fill-opacity:1"
       d="m 76.701707,646.86003 c -1.451651,0.0975 -0.580849,1.87355 -0.157836,2.5964 1.242504,1.81203 3.787068,1.90344 5.768918,2.09923 0.939918,-0.54886 -0.471782,-1.57171 -0.804966,-2.13868 -1.21143,-1.34809 -2.908557,-2.60791 -4.806116,-2.55695 z"
       id="path2914" />
    <path
       style="fill:#aaa15b;fill-opacity:1"
       d="m 10.591958,577.80663 c -0.9434926,0.86015 -0.288014,2.48809 -0.441942,3.62234 -0.1751352,1.81263 1.068008,3.51835 2.91208,3.7644 0.937583,0.33988 1.460519,-0.73624 0.854613,-1.46164 -0.685314,-2.06642 -1.174574,-4.69695 -3.143239,-5.94088 -0.06084,0.002 -0.122597,-0.007 -0.181512,0.0158 z"
       id="path2916" />
    <path
       style="fill:#b0a813;fill-opacity:1;stroke:none"
       d="m 3.4025127,446.47891 c -7.8968584,17.91558 -10.6432462,37.64086 -13.0576526,56.90423 -0.3667531,18.59897 3.1477217,37.10173 6.9441094,55.21973 5.8999959,16.56974 14.1396725,32.51259 24.0077155,47.03145 23.158315,27.81538 53.06571,52.95551 89.671045,59.48689 18.77372,4.16886 37.83348,8.53022 57.17562,6.09466 24.08549,-3.27837 48.27042,-9.53443 68.53493,-23.52717 15.91435,-9.15511 30.11293,-21.44425 41.68302,-35.62369 -10.39567,7.90647 -19.67853,18.3264 -30.63603,26.01932 -10.20444,-1.11024 -17.69169,6.60888 -20.59727,12.95697 -11.16511,3.1491 -17.00834,0.1417 -27.61384,5.02847 -13.36838,6.21868 -25.88807,8.45389 -38.44667,8.80636 -5.93039,-0.62242 -11.65479,0.20619 -24.54886,-3.19912 -7.82604,-1.97918 -19.78408,-2.43943 -28.43765,-6.08536 -15.327717,-4.52627 -30.392695,-10.16348 -42.944065,-20.43481 -9.460057,-5.90876 -20.796952,-15.21039 -22.824483,-25.01251 3.967217,11.96543 -5.856954,15.17728 -10.903025,3.87268 -5.145593,-7.79275 1.1002,-18.28565 -7.424246,-19.00378 C 18.82352,587.4172 15.650625,579.18244 11.357006,570.10183 6.8417522,560.56176 1.9071848,550.82492 0.64769741,539.99806 -0.87422467,520.21456 -1.240728,500.18017 0.61437976,480.43521 2.3762656,468.41957 8.3406704,457.56291 12.81745,446.58939 9.7250099,446.18849 6.4446462,446.26425 3.4025127,446.47891 z m -1.8782524,10.04628 c 1.4782114,1.43993 -0.1793691,1.35105 0,0 z m 8.5152707,121.45506 c 0.775775,-0.12287 -0.3488354,1.10024 0,0 z m 10.77233,22.36541 c 1.929297,3.23587 -0.644585,0.59824 0,0 z m 26.019319,27.14785 -0.01113,0.17507 0.01113,-0.17507 z m 10.646061,8.58629 c 4.68012,2.30079 17.16082,7.63615 5.497464,3.50316 -1.584257,-0.84135 -5.915406,-1.03487 -5.497464,-3.50316 z m 18.245881,10.64607 c 1.188919,0.77533 -0.42655,-0.12619 0,0 z m 13.139875,5.47692 c 6.807752,2.18228 -2.804683,1.01784 0,0 z m 12.650583,6.58966 c 7.58726,0.58851 10.61292,4.24716 1.17275,1.44852 l -1.65415,-0.91187 0.4814,-0.53665 z"
       id="path2918"
       sodipodi:nodetypes="ccccccccccccccccccccccccccccccccccccccccccc" />
    <path
       style="fill:#b0a813;fill-opacity:1;stroke:none"
       d="m 250.09375,471.25 c 10.1369,5.35153 19.93164,11.86249 30.2793,16.49988 7.80816,1.03684 -2.66938,-6.34254 -5.7168,-7.49988 -8.13561,-4.28144 -15.76587,-10.63132 -24.74892,-12.62825 -5.39151,-0.82357 -1.05924,1.14674 0.18642,3.62825 z"
       id="path3699" />
    <path
       style="fill:#b0a813;fill-opacity:1;stroke:none"
       d="m 259.28571,494.86218 c 18.26925,-3.42786 20.13612,9.83398 30,16.07143"
       id="path3703" />
    <path
       style="fill:#b0a813;fill-opacity:1;stroke:none"
       d="m 278.5,504 c 5.09744,3.0454 9.1963,8.31714 15.4375,8.8125 -3.50269,-7.05543 -10.95834,-13.12727 -19.21875,-13.03125 1.26042,1.40625 2.52083,2.8125 3.78125,4.21875 z"
       id="path3705" />
    <path
       style="fill:#b0a813;fill-opacity:1;stroke:none"
       d="m 266.78571,507.36218 c 10.59986,3.3739 18.4343,14.31251 25.71429,20"
       id="path3709" />
    <path
       style="fill:#b0a813;fill-opacity:1;stroke:none"
       d="m 265.78125,507.71875 c 7.95323,7.00689 14.80784,15.66491 23.43137,21.6644 5.66653,2.55162 -1.07657,-6.59256 -3.07408,-8.82298 -5.98152,-8.46055 -13.85143,-16.53533 -24.70104,-17.87267 1.44792,1.67708 2.89583,3.35417 4.34375,5.03125 z"
       id="path3711" />
    <path
       style="fill:#b0a813;fill-opacity:1;stroke:none"
       d="m 240.875,443.1875 c 8.43933,6.87418 17.70398,13.3218 27.17703,18.51931 8.16976,1.20106 -3.88079,-7.54102 -6.92445,-9.17074 -7.57317,-4.33629 -13.72112,-11.87969 -22.47133,-13.56732 0.73958,1.40625 1.47917,2.8125 2.21875,4.21875 z"
       id="path3715" />
    <path
       style="fill:#b0a813;fill-opacity:1;stroke:none"
       d="m 235.28125,423.625 c 11.56654,7.81026 22.7105,16.55714 34.53489,23.79587 7.75963,2.71759 -1.128,-6.24801 -3.86808,-8.20161 -9.86872,-9.03549 -20.8566,-19.29715 -34.97931,-19.84426 1.4375,1.41667 2.875,2.83333 4.3125,4.25 z"
       id="path3719" />
    <path
       style="fill:#b0a813;fill-opacity:1;stroke:none"
       d="m 233.375,407.09375 c 7.51715,5.98569 15.6661,11.7316 23.98924,16.36505 8.08787,1.151 -3.85507,-7.58413 -6.88293,-9.18692 -6.46142,-3.73141 -11.68434,-10.23778 -19.29381,-11.39688 0.72917,1.40625 1.45833,2.8125 2.1875,4.21875 z"
       id="path3723" />
    <path
       style="fill:#cbb316;fill-opacity:1;stroke:none"
       d="m 265.48013,448.36311 c -0.91193,1.02814 0.0343,2.90437 -1.32812,3.78349 -0.71109,0.47144 -1.6756,1.72795 -0.41295,2.13169 1.63181,0.94675 2.90053,2.76636 4.6875,3.28125 1.57817,-1.57014 1.08407,-4.08323 -0.20089,-5.69196 -0.848,-1.08343 -1.40636,-3.01044 -2.74554,-3.50447 z"
       id="path3729" />
    <path
       style="fill:#cbb316;fill-opacity:1;stroke:none"
       d="m 288.20335,433.84302 c -1.51468,1.44038 -1.49006,4.08876 -1.04911,6.02679 0.95519,1.68195 3.92332,1.00601 4.77679,-0.41295 -0.65604,-2.0539 -2.02025,-4.03188 -3.49331,-5.61384 -0.0752,-0.0298 -0.1592,-0.0298 -0.23437,0 z"
       id="path3731" />
    <path
       style="fill:#cbb316;fill-opacity:1;stroke:none"
       d="m 299.72121,467.41445 c -1.40022,1.00218 -0.5576,3.27838 -0.27902,4.67634 -3.1e-4,0.92349 1.18622,1.78778 1.41741,0.51339 0.68741,-1.72109 1.13513,-4.46518 -1.06027,-5.20089 l -0.0781,0.0112 z"
       id="path3733" />
    <path
       style="fill:#aaa15b;fill-opacity:1;stroke:none"
       d="m 288.29263,411.92338 c -3.82061,1.82722 -7.49302,5.83685 -6.23883,10.41295 1.66652,5.20445 5.56535,9.36981 8.13653,14.15952 1.22502,2.01178 2.32748,4.23368 2.90141,6.44316 1.48455,-0.48079 5.06561,9.7862 6.18738,8.74276 1.79893,-2.89674 1.1646,-17.99731 2.51798,-21.08651 -1.15095,-0.31314 -2.02595,1.54925 -2.99512,2.09954 -1.66756,1.26116 -2.90305,3.50886 -4.86202,4.22858 -3.14672,-2.17914 -5.345,-5.74682 -6.5625,-9.36384 -0.85158,-4.93817 -0.29489,-9.95307 1.16071,-14.70982 0.0328,-0.28732 0.35584,-0.99749 -0.24554,-0.92634 z"
       id="path3737"
       sodipodi:nodetypes="ccccccccccc" />
    <path
       style="fill:#aaa15b;fill-opacity:1;stroke:none"
       d="m 305.18996,462.86088 c -2.32235,2.14391 -2.14896,5.87787 -2.22099,8.82813 0.23159,2.42905 0.23023,6.10743 3.0134,6.99776 2.2628,-0.0658 1.46211,-3.26432 1.6183,-4.6875 -0.44562,-3.60632 0.4576,-7.92208 -1.9308,-10.97098 -0.12649,-0.1322 -0.29365,-0.21783 -0.47991,-0.16741 z"
       id="path3739" />
    <path
       style="fill:#aaa15b;fill-opacity:1;stroke:none"
       d="m 7.9020089,446.38767 c -1.5049036,0.23802 -3.4284243,-0.34893 -4.7098214,0.52455 -6.9466536,16.22981 -10.0228462,33.80032 -12.2005795,51.23281 -1.913392,19.03043 1.6961688,38.06785 5.4706688,56.63549 3.57176711,14.1304 10.6094596,27.07207 17.7278412,39.68316 3.949758,7.2258 8.88293,13.83523 14.601209,19.76477 16.993711,18.74636 37.140628,35.30905 60.773628,44.83779 12.569665,4.83742 25.950455,7.17001 39.095985,9.81027 10.30779,1.96248 20.77213,3.48537 31.29388,2.81674 12.80981,-0.29638 25.36912,-3.18663 37.72202,-6.37244 13.92868,-3.80335 27.25925,-9.6845 39.30018,-17.6718 12.87565,-7.76006 24.76215,-17.06783 34.92053,-28.15866 1.40088,-1.81201 3.62934,-3.31613 4.49776,-5.40179 -1.27173,-0.22555 -2.2503,1.61907 -3.30633,2.19922 -7.96563,6.96142 -15.57658,14.37749 -24.0151,20.71373 1.43914,-1.75444 3.22841,-3.33694 4.28572,-5.32366 -2.37646,-0.43352 -5.09379,-0.50348 -6.98661,-2.32143 -0.45508,-0.35664 -2.39323,-1.79373 -1.86384,-0.29018 1.87809,2.56657 0.46978,6.01274 -2.02009,7.56696 -0.75871,0.34242 -0.87373,1.33124 -0.13393,1.62947 -5.2501,1.32384 -10.1534,4.6861 -13.14732,9.1183 -1.19737,-1.0828 -3.58653,-2.66318 -4.84375,-0.84821 -0.32037,1.50949 -0.8613,3.56117 0.0447,4.91071 0.10678,0.33573 -2.53445,0.44677 -3.4375,0.64732 -7.56047,0.81975 -15.39308,0.94715 -22.37163,4.31256 -16.28835,2.71021 -12.12198,2.29746 -29.48106,4.8169 -5.03592,2.32233 -11.24228,0.13484 -16.66246,0.59001 -4.29845,0.11027 -8.7118,0.51205 -12.85762,-0.62349 -6.62439,0.38409 -13.11876,-1.58521 -19.60883,-2.57785 -11.09678,-2.46831 -21.976537,-6.0547 -32.469958,-10.35694 -8.725389,-3.6287 -16.720107,-8.70586 -24.238179,-14.42012 -7.696132,-5.18925 -15.296153,-11.34595 -19.665178,-19.65401 -0.753107,1.87069 -0.541618,4.79144 -2.678572,6.09375 -2.978975,1.7735 -6.176089,-0.99522 -7.790178,-3.37054 -3.389586,-4.65398 -4.172404,-10.48318 -4.183179,-16.10237 -0.0253,-2.73911 -1.744814,-5.33729 -4.511018,-5.88424 -3.10261,-3.38922 -4.896558,-7.81759 -7.02401,-11.84573 -4.937445,-11.1532 -10.8365155,-21.95584 -14.6277755,-33.56721 -3.07519502,-10.15261 -2.56055288,-20.94712 -3.04687502,-31.4509 -0.06797,-13.56968 -0.71017322,-27.32492 1.61329712,-40.73389 2.1409547,-10.7052 7.47383,-20.37539 11.1992024,-30.53843 -1.082966,-0.86987 -3.3141688,-0.1591 -4.6651781,-0.39062 l -5e-5,0 z m -6.2611607,10.52455 c 0.6593196,0.34539 0.1547096,0.80765 -0.033482,0.0446 l 0.011161,-0.0446 0.022321,0 z M 20.993527,600.87427 c 0.449226,0.37916 0.612444,1.38005 0.07813,0.45759 -0.02533,-0.0712 -0.225427,-0.67196 -0.07813,-0.45759 z m 36.707589,35.33483 c 0.509097,0.26145 1.841839,0.58148 0.870536,0.74776 -0.289229,0.92689 1.558553,1.3387 2.198661,1.84152 -1.137465,-0.56265 -3.329486,-0.88335 -3.069197,-2.58928 z m 4.575893,3.24776 0.01116,-0.0112 -0.01116,0.0112 z m 26.540179,12.82366 c -0.26744,0.69759 -0.406372,0.2376 0,0 z m 85.011162,11.39509 c -2.69712,0.42795 -2.93691,0.38319 -0.0112,-0.0112 1.01222,-0.14482 0.67125,-0.0993 0.0112,0.0112 z"
       id="path3754"
       sodipodi:nodetypes="cccccccccccccccccccccccccccccccccccccccccccccccccccccccccccccc" />
    <path
       style="fill:#aaa15b;fill-opacity:1;stroke:none"
       d="m 256.35067,361.49927 c -6.96855,0.003 -13.32327,3.5277 -18.42634,7.97991 -1.77514,1.39411 -4.77378,6.0832 -6.48853,3.6931 -1.679,-1.8146 -12.65358,-7.31556 -15.09037,-8.20618 -4.4498,1.08542 0.74104,0.80723 -3.80489,0.11773 -6.06097,-0.59547 -13.46831,-4.47301 -19.57157,-4.53322 -0.0607,1.10579 4.07324,3.96664 5.17755,4.6542 12.32284,5.27981 30.46736,8.71503 42.62991,14.4083 0.95397,-1.53441 -4.17807,-3.87185 -3.09417,-5.54265 3.30681,-6.31079 10.1237,-10.27437 17.00546,-11.31003 5.00383,-0.5182 9.93632,0.49992 14.55366,2.40767 1.63978,0.47355 3.24834,1.28998 4.93295,1.50974 0.34995,-1.00371 -1.71913,-1.23005 -2.35491,-1.79687 -4.82015,-2.23137 -10.148,-3.46523 -15.46875,-3.3817 z"
       id="path3756"
       sodipodi:nodetypes="cccccccccccccc" />
    <path
       style="fill:#aaa15b;fill-opacity:1;stroke:none"
       d="m 208.13638,364.05508 c 0.94922,1.04558 3.45898,0.6993 4.98884,1.12723 1.4519,-0.12536 3.55332,0.80751 4.72099,-0.12277 -1.3403,-1.12714 -3.64612,-0.56483 -5.33424,-0.91323 -1.44514,1.7e-4 -2.97219,-0.28972 -4.37559,-0.0912 z"
       id="path3758" />
  </g>
</svg>
