<?xml version="1.0" encoding="UTF-8" standalone="no"?>
<!-- Created with Inkscape (http://www.inkscape.org/) -->
<svg
   xmlns:svg="http://www.w3.org/2000/svg"
   xmlns="http://www.w3.org/2000/svg"
   version="1.0"
   width="29"
   height="29"
   id="svg2">
  <defs
     id="defs5" />
  <path
     d="M 14.030363,14.91093 C 13.913724,14.758486 9.1719103,15.118229 5.9348436,14.764546 C -0.8168629,15.367719 4.0677589,3.3322897 8.1395582,6.0915975 C 9.9587252,7.9780815 13.350483,12.399016 14.030363,14.91093 z"
     id="path2388"
     style="fill:#f8e700;fill-opacity:1;fill-rule:evenodd;stroke:#000000;stroke-width:0.80000001;stroke-linecap:butt;stroke-linejoin:miter;stroke-miterlimit:4;stroke-dasharray:none;stroke-opacity:1" />
  <path
     d="M 14.193606,15.044595 C 14.003267,15.069386 11.943906,19.355789 10.019074,21.98233 C 7.1655839,28.131065 -0.81509258,17.883145 3.6104376,15.736516 C 6.1537644,15.104313 11.678285,14.377432 14.193606,15.044595 z"
     id="path2389"
     style="fill:#f8e700;fill-opacity:1;fill-rule:evenodd;stroke:#000000;stroke-width:0.80000001;stroke-linecap:butt;stroke-linejoin:miter;stroke-miterlimit:4;stroke-dasharray:none;stroke-opacity:1" />
  <path
     d="M 14.390175,14.130368 C 14.506814,14.282811 19.248628,13.923069 22.485695,14.276751 C 29.2374,13.67358 24.35278,25.709009 20.28098,22.9497 C 18.461813,21.063216 15.070055,16.642282 14.390175,14.130368 z"
     id="path2393"
     style="fill:#f8e700;fill-opacity:1;fill-rule:evenodd;stroke:#000000;stroke-width:0.80000001;stroke-linecap:butt;stroke-linejoin:miter;stroke-miterlimit:4;stroke-dasharray:none;stroke-opacity:1" />
  <path
     d="M 14.613594,14.694732 C 14.539893,14.871966 17.222346,18.798626 18.534582,21.77885 C 22.432796,27.324412 9.5675,29.111921 9.9212312,24.205985 C 10.64539,21.687298 12.778153,16.539482 14.613594,14.694732 z"
     id="path2391"
     style="fill:#f8e700;fill-opacity:1;fill-rule:evenodd;stroke:#000000;stroke-width:0.80000001;stroke-linecap:butt;stroke-linejoin:miter;stroke-miterlimit:4;stroke-dasharray:none;stroke-opacity:1" />
  <path
     d="M 13.874706,14.055407 C 14.065045,14.030617 16.124407,9.7442139 18.049238,7.1176726 C 20.902729,0.96893755 28.883406,11.216859 24.457875,13.363486 C 21.914548,13.995689 16.390027,14.722571 13.874706,14.055407 z"
     id="path2395"
     style="fill:#f8e700;fill-opacity:1;fill-rule:evenodd;stroke:#000000;stroke-width:0.80000001;stroke-linecap:butt;stroke-linejoin:miter;stroke-miterlimit:4;stroke-dasharray:none;stroke-opacity:1" />
  <path
     d="M 13.630831,14.111748 C 13.704532,13.934515 11.022079,10.007854 9.7098433,7.0276298 C 5.8116278,1.4820668 18.676926,-0.3054414 18.323194,4.6004944 C 17.599034,7.1191817 15.466273,12.266998 13.630831,14.111748 z"
     id="path2397"
     style="fill:#f8e700;fill-opacity:1;fill-rule:evenodd;stroke:#000000;stroke-width:0.80000001;stroke-linecap:butt;stroke-linejoin:miter;stroke-miterlimit:4;stroke-dasharray:none;stroke-opacity:1" />
  <path
     d="M 13.208501,14.499999 C 13.091862,14.347555 9.1719103,15.118229 5.9348436,14.764546 C -0.71257696,15.419862 4.5395023,3.5681614 8.1395582,6.0915975 C 9.9587252,7.9780815 12.528621,11.988085 13.208501,14.499999 z"
     id="path2390"
     style="fill:#f8e700;fill-opacity:1;fill-rule:evenodd;stroke:none;stroke-width:0.80000001;stroke-linecap:butt;stroke-linejoin:miter;stroke-miterlimit:4;stroke-dasharray:none;stroke-opacity:1" />
  <path
     d="M 13.630831,13.642112 C 13.704532,13.464879 11.022079,10.007854 9.7098433,7.0276298 C 5.9684762,1.691198 18.979522,0.098019728 18.323194,4.6004944 C 17.599034,7.1191817 15.466273,11.797362 13.630831,13.642112 z"
     id="path3162"
     style="fill:#f8e700;fill-opacity:1;fill-rule:evenodd;stroke:none;stroke-width:0.80000001;stroke-linecap:butt;stroke-linejoin:miter;stroke-miterlimit:4;stroke-dasharray:none;stroke-opacity:1" />
  <path
     d="M 14.344341,13.70318 C 14.53468,13.67839 16.345071,9.9162032 17.873125,7.0589681 C 20.940047,1.3242727 28.601626,11.498639 24.457875,13.363486 C 21.914548,13.995689 16.859662,14.370344 14.344341,13.70318 z"
     id="path3164"
     style="fill:#f8e700;fill-opacity:1;fill-rule:evenodd;stroke:none;stroke-width:0.80000001;stroke-linecap:butt;stroke-linejoin:miter;stroke-miterlimit:4;stroke-dasharray:none;stroke-opacity:1" />
  <path
     d="M 15.270742,14.658708 C 15.387381,14.811151 19.248628,13.923069 22.485695,14.276751 C 29.068377,13.589069 23.921115,25.493176 20.28098,22.9497 C 18.461813,21.063216 15.950622,17.170622 15.270742,14.658708 z"
     id="path3166"
     style="fill:#f8e700;fill-opacity:1;fill-rule:evenodd;stroke:none;stroke-width:0.80000001;stroke-linecap:butt;stroke-linejoin:miter;stroke-miterlimit:4;stroke-dasharray:none;stroke-opacity:1" />
  <path
     d="M 14.496186,15.340481 C 14.422485,15.517715 17.222346,18.798626 18.534582,21.77885 C 22.504709,27.180585 9.7914293,28.664062 9.9212312,24.205985 C 10.64539,21.687298 12.660745,17.185231 14.496186,15.340481 z"
     id="path3168"
     style="fill:#f8e700;fill-opacity:1;fill-rule:evenodd;stroke:none;stroke-width:0.80000001;stroke-linecap:butt;stroke-linejoin:miter;stroke-miterlimit:4;stroke-dasharray:none;stroke-opacity:1" />
  <path
     d="M 13.489153,15.220708 C 13.298814,15.245499 11.943906,19.355789 10.019074,21.98233 C 7.3933375,27.979229 -0.57329713,17.721948 3.6104376,15.736516 C 6.1537644,15.104313 10.973832,14.553545 13.489153,15.220708 z"
     id="path3170"
     style="fill:#f8e700;fill-opacity:1;fill-rule:evenodd;stroke:none;stroke-width:0.80000001;stroke-linecap:butt;stroke-linejoin:miter;stroke-miterlimit:4;stroke-dasharray:none;stroke-opacity:1" />
  <path
     d="M 17.611337,14.940284 C 17.611337,17.12874 16.021223,18.902835 14.059717,18.902835 C 12.098212,18.902835 10.508097,17.12874 10.508097,14.940284 C 10.508097,12.751828 12.098212,10.977733 14.059717,10.977733 C 16.021223,10.977733 17.611337,12.751828 17.611337,14.940284 z"
     id="path2386"
     style="opacity:1;fill:#b15d23;fill-opacity:1;fill-rule:evenodd;stroke:none;stroke-width:2;stroke-linecap:round;stroke-linejoin:round;stroke-miterlimit:4;stroke-dasharray:none;stroke-opacity:1" />
  <path
     d="M 14.059717,18.264028 C 12.343,18.264028 10.951485,16.753719 10.95205,14.89106 C 10.951485,13.0284 12.343,11.22457 14.059717,11.22457 C 15.776434,11.22457 17.402767,12.969696 17.402202,14.832356 C 17.363102,16.855617 15.520407,18.42912 14.059717,18.264028 z"
     id="path2384"
     style="opacity:1;fill:#e45b36;fill-opacity:1;fill-rule:evenodd;stroke:none;stroke-width:2;stroke-linecap:round;stroke-linejoin:round;stroke-miterlimit:4;stroke-dasharray:none;stroke-opacity:1" />
</svg>
