<svg xmlns="http://www.w3.org/2000/svg" viewBox="0 0 651.4 377.5"><defs><clipPath id="clip-path"><path d="M336.7 82c0 8.6-8 15.6-17.7 15.6s-17.8-7-17.8-15.5v-3.6s9.3-12 17.7-12S336.8 78 336.8 78z" class="cls-1"/></clipPath><clipPath id="clip-path-2"><ellipse cx="318.9" cy="78" class="cls-1" rx="17.7" ry="15.6"/></clipPath><clipPath id="clip-path-3"><path d="M336.7 76.4c0 8.6-8 15.6-17.7 15.6s-17.7-7-17.7-15.6V73s9.3-12 17.7-12 17.7 11.5 17.7 11.5z" class="cls-1"/></clipPath><clipPath id="clip-path-4"><ellipse cx="318.9" cy="72.4" class="cls-1" rx="17.7" ry="15.6"/></clipPath><clipPath id="clip-path-5"><path d="M336.7 70.5c0 8.6-8 15.6-17.7 15.6s-17.8-7-17.8-15.6V67s9.3-12 17.8-12 17.7 11.6 17.7 11.6z" class="cls-1"/></clipPath><clipPath id="clip-path-6"><ellipse cx="318.9" cy="66.5" class="cls-2" rx="17.7" ry="15.6"/></clipPath><clipPath id="clip-path-7"><path d="M360.1 96.4c0 8.6-8 15.6-17.7 15.6s-17.8-7-17.8-15.6V93s9.4-12 17.8-12S360 92.4 360 92.4z" class="cls-3"/></clipPath><clipPath id="clip-path-8"><ellipse cx="342.4" cy="92.4" class="cls-4" rx="17.7" ry="15.6"/></clipPath><radialGradient id="radial-gradient" cx="325.7" cy="3740.7" r="263.8" gradientTransform="matrix(1 0 0 .7 0 -2460)" gradientUnits="userSpaceOnUse"><stop offset="0" stop-color="#06ae4b"/><stop offset=".2" stop-color="#069743"/><stop offset=".5" stop-color="#077939"/><stop offset=".8" stop-color="#076733"/><stop offset="1" stop-color="#076031"/></radialGradient><style>.cls-1{fill:#611415}.cls-2{fill:#b12425}.cls-3{fill:#1a194d}.cls-4{fill:#28337a}.cls-12{opacity:.5}.cls-12,.cls-19{mix-blend-mode:multiply}.cls-13{fill:#dee1e5}.cls-14{fill:#8c8c8b}.cls-16{fill:#fff}.cls-18{fill:#231f20}.cls-19{opacity:.8}.cls-27{fill:#ec1c24}.cls-30{fill:#929497}</style></defs><g style="isolation:isolate"><g id="Layer_2" data-name="Layer 2"><g id="Layer_1-2" data-name="Layer 1"><path fill="#4d4e4e" d="M606 45.4A153.3 153.3 0 00497 0H154.4a154.3 154.3 0 00-109 263.5 153.3 153.3 0 00109 45.4H497A154.3 154.3 0 00606 45.4zM588 260l-.5.4-.6.5-.6.5-.8.6-1 .7-.3.1-.5.4-.8.6h-.1l-1 .7-1 .7-.2.1-.7.4-.8.6-1.1.7-1.2.7-1.2.7-.7.4-.8.4-1.4.7-1.3.7h-.2l-1.4.8-3.1 1.4-3.4 1.4-.9.4-.3.1-3.7 1.4-.9.2-2.9 1-2.5.7-2 .6h-.1l-2 .6-.2.1-2 .5-.1.2-2 .4-.2.2-2 .4-.2.3-1.9.4-.3.2-1.8.4-.3.3-1.8.3-.4.3-1.8.3-.3.3-1.8.3-.4.4-1.7.2-.4.4-1.7.2-.5.4-1.6.3a5.3 5.3 0 01-.5.4l-1.7.2a4.3 4.3 0 01-.5.4l-1.6.2a3.7 3.7 0 01-.6.4l-1.5.2a3.1 3.1 0 01-.6.5l-1.5.1a3.3 3.3 0 01-.7.5l-1.4.1a3 3 0 01-.8.5l-1.3.1a2.8 2.8 0 01-1 .6h-1.2a3.1 3.1 0 01-1.1.6h-1a1.3 1.3 0 01-.4.3 136.6 136.6 0 01-14.4 1.8l-4.6.3-4.3.3-4.2.2-4 .1H175.7l-4-.1-4.2-.2-4.2-.3-4.7-.3a251.7 251.7 0 01-14.3-1.8 1.3 1.3 0 01-.5-.3h-1a3.1 3.1 0 01-1.2-.6h-1.1a2.8 2.8 0 01-1-.6h-1.3a3 3 0 01-.8-.6l-1.4-.1a3.3 3.3 0 01-.7-.5l-1.5-.1a3.1 3.1 0 01-.7-.5l-1.5-.2a3.7 3.7 0 01-.6-.4l-1.6-.2a4.3 4.3 0 01-.5-.4l-1.6-.2a5.3 5.3 0 01-.5-.5l-1.7-.2-.4-.4-1.7-.2-.5-.4-1.7-.2-.4-.4c-.6 0-1.2-.2-1.7-.3l-.4-.3-1.8-.3-.3-.3-1.8-.4-.4-.2-1.8-.4-.3-.3-1.9-.3-.2-.3-2-.4-.1-.2-2-.4-.2-.2-2-.5-.1-.1-2-.5v-.1l-2-.6-2.5-.7-3-1-.9-.3a113 113 0 01-3.6-1.3l-.4-.2-1-.3-3.3-1.4-3-1.4-1.5-.8H80l-1.3-.7-1.3-.7-.9-.5-.7-.3-1.2-.8-1.2-.6-1.1-.7-.8-.5-.7-.4-.2-.1-1-.7-1-.7h-.1l-.8-.6-.5-.4-.2-.1-1-.8-.8-.6-.7-.5-.6-.5-.5-.4-.4-.3-.3-.3a139.3 139.3 0 010-210l.3-.2.4-.4.5-.4.6-.5.6-.4.8-.7 1-.7.2-.1.6-.4.8-.5.1-.1 1-.7 1-.7.2-.1.7-.4.8-.5 1.1-.7 1.2-.7 1.3-.7.6-.4.9-.5 1.3-.7 1.4-.6v-.1l1.6-.7 3-1.4 3.4-1.4.9-.4.4-.1 3.6-1.4.9-.3a115.4 115.4 0 015.4-1.6l2.1-.6 2-.6a1.4 1.4 0 01.2-.1l2-.5.2-.2 2-.5.2-.1 1.9-.5.2-.2 2-.4.2-.2 1.8-.4.3-.3 1.9-.3.3-.3 1.8-.3.3-.4 1.8-.2a4.4 4.4 0 01.4-.4l1.7-.2.4-.4 1.7-.3c.2 0 .3-.2.5-.4l1.7-.2.5-.4 1.6-.2a4.3 4.3 0 01.5-.4l1.6-.2a3.7 3.7 0 01.6-.5l1.5-.1a3.5 3.5 0 01.7-.5l1.4-.1a3.4 3.4 0 01.8-.5l1.4-.1a3.2 3.2 0 01.8-.6h1.3a3 3 0 011-.6h1.1a3.1 3.1 0 011.2-.6h1a1.7 1.7 0 01.4-.3 152.1 152.1 0 0119-2.1l4.3-.3 4.2-.2h4l3.8-.2H472l3.8.1 4 .1 4.2.2 4.2.3a401.7 401.7 0 0110.2.9l8.8 1.2a1.7 1.7 0 01.5.3h1a3.1 3.1 0 011.1.5l1.2.1a3 3 0 011 .5l1.2.1a3.2 3.2 0 01.8.6h1.5a3.4 3.4 0 01.7.6l1.5.1a3.5 3.5 0 01.6.5l1.5.1a3.7 3.7 0 01.6.5l1.6.2a4.3 4.3 0 01.5.4l1.7.2.5.4 1.6.2.5.4 1.7.3.4.4 1.7.2a4.4 4.4 0 01.4.4l1.8.2.3.4 1.8.3.4.3 1.8.3.3.3 1.8.4.3.2 1.9.4.2.2 2 .5.2.1 2 .5.1.2 2 .5a1.4 1.4 0 01.1 0l2 .6.2.1 2 .6a98.8 98.8 0 015.5 1.6l.8.3 3.7 1.4.4.1.9.4 3.3 1.4 3.1 1.4 1.5.7h.1l1.3.8 1.4.7.8.4.7.4 1.3.7 1.1.7 1.2.7.8.5.6.4.3.1 1 .7 1 .7.8.6.6.4.2.1 1 .7.8.7.7.5.6.5.5.3.4.4.3.3a139.3 139.3 0 010 209.9l-.3.3z"/><rect width="622.8" height="280.3" x="14.3" y="14.3" fill="url(#radial-gradient)" rx="140.1"/><path fill="#bc8346" d="M497 14.3H154.4c-77 0-140 63-140 140.2 0 77 63 140 140 140H497c77 0 140.1-63 140.1-140C637.1 77.3 574 14.3 497 14.3zm93.7 233.8a131.7 131.7 0 01-93.7 39H154.4A132.5 132.5 0 0160.8 60.8a131.7 131.7 0 0193.7-39H497A132.5 132.5 0 01590.7 248z"/><path fill="#221f1f" stroke="#221f1f" stroke-miterlimit="10" stroke-width="1.9" d="M497 14.3H154.4c-77 0-140 63-140 140.2h0c0 77 63 140 140 140H497c77 0 140.1-63 140.1-140h0C637.1 77.3 574 14.3 497 14.3zm98 238.2a137.9 137.9 0 01-98 40.8H154.4a138.7 138.7 0 01-98-237 137.9 137.9 0 0198-40.8H497a138.7 138.7 0 0198 237z" opacity=".3"/><path fill="none" stroke="#221f1f" stroke-miterlimit="10" stroke-width="3.1" d="M154.4 287.1A132.5 132.5 0 0160.8 60.8a131.7 131.7 0 0193.7-39H497A132.5 132.5 0 01590.7 248a131.7 131.7 0 01-93.7 39z" opacity=".5"/><path fill="none" stroke="#46b76e" stroke-miterlimit="10" stroke-width="3.1" d="M574.8 76.6A109.5 109.5 0 00497 44.2h-80.8l-22.4 28.1a19.7 19.7 0 01-15.4 7.5H273a19.7 19.7 0 01-15.4-7.5l-22.4-28h-80.8a110 110 0 00-77.8 188 109.4 109.4 0 0077.9 32.4H497a110 110 0 0077.8-188z" opacity=".3"/><rect width="40.1" height="56.1" x="453.8" y="216.6" class="cls-13" rx="5.2"/><path d="M488.8 273H459a5.5 5.5 0 01-5.5-5.5v-45.7a5.5 5.5 0 015.5-5.5h29.7a5.5 5.5 0 015.5 5.5v45.8a5.5 5.5 0 01-5.4 5.4zM459 216.9a4.9 4.9 0 00-4.9 4.9v45.8a4.9 4.9 0 004.9 4.8h29.7a4.9 4.9 0 005-4.8v-45.8a4.9 4.9 0 00-5-5z" class="cls-13"/><g><path d="M493.3 240.2a16.8 16.8 0 01-1.3 5 28.4 28.4 0 01-24.3 15.6 15.1 15.1 0 01-8-2 20 20 0 0033.6-18.6zM472.9 230.1a20.7 20.7 0 0114.5-.1 20 20 0 00-32.6 20.6 1 1 0 010-.2c-.2-7.3 7-16.7 18.1-20.3z" class="cls-14"/><path d="M473.7 258.7a19.4 19.4 0 004.6-2.6h-12v-1c2.4-.9 4-1.4 5.4-3a6.3 6.3 0 001.2-4.2c-.6 2.3-1.6 3.3-3.6 3.3a5 5 0 01-3.7-1.7 5.6 5.6 0 01-1.5-4.2 12.1 12.1 0 012.4-6.4 31.1 31.1 0 017.8-7.5 31.4 31.4 0 017.6 7.7 12.3 12.3 0 012.2 6.4 5.7 5.7 0 01-1.7 4.2 5.2 5.2 0 01-3.7 1.6c-2 0-3-1-3.5-3.4 0 2.5.2 3.4 1.7 4.5a19.1 19.1 0 003.3 2.1c4-3.7 7.1-9 7.5-14.5.6-10.6-8.8-13.6-18.4-6-7.4 6-10.2 15.1-8 20.6 1.7 4.6 6.8 6.3 12.4 4.1z" class="cls-14"/></g><g><rect width="40.1" height="56.1" x="419.4" y="216.6" class="cls-13" rx="5.2"/><path d="M454.3 273h-29.7a5.5 5.5 0 01-5.5-5.5v-45.7a5.5 5.5 0 015.5-5.5h29.7a5.5 5.5 0 015.5 5.5v45.8a5.5 5.5 0 01-5.5 5.4zm-29.7-56.1a4.9 4.9 0 00-5 4.8v45.8a4.9 4.9 0 005 5h29.7a4.9 4.9 0 004.9-5v-45.7a4.9 4.9 0 00-5-5z" class="cls-13"/><g><path d="M458.9 240.2a16.5 16.5 0 01-1.4 5 28.5 28.5 0 01-24.3 15.6 15.1 15.1 0 01-7.9-2 20 20 0 0033.6-18.6zM438.4 230.1a20.6 20.6 0 0114.5-.1 20 20 0 00-33.4 14.6 20 20 0 00.8 6 1 1 0 010-.2c-.1-7.3 7-16.7 18.1-20.3z" class="cls-14"/><path d="M439.2 258.7a19.8 19.8 0 004.6-2.6h-12v-1c2.4-.9 4-1.4 5.4-3a6.3 6.3 0 001.2-4.2c-.5 2.3-1.5 3.3-3.5 3.3a5.1 5.1 0 01-3.7-1.7 5.7 5.7 0 01-1.6-4.2 12.2 12.2 0 012.4-6.4 31 31 0 017.8-7.5 31.3 31.3 0 017.6 7.7 12.4 12.4 0 012.2 6.4 5.7 5.7 0 01-1.7 4.2 5.2 5.2 0 01-3.7 1.6c-2 0-3-1-3.5-3.4 0 2.5.2 3.4 1.7 4.5a20 20 0 003.3 2.1c4-3.7 7.2-9 7.5-14.5.7-10.6-8.8-13.6-18.4-6-7.3 6-10.1 15.1-8 20.6 1.7 4.6 6.8 6.3 12.4 4.1z" class="cls-14"/></g></g><g><rect width="40.1" height="56.1" x="570.7" y="128.8" class="cls-13" rx="5.2"/><path d="M605.6 185.3H576a5.5 5.5 0 01-5.5-5.5V134a5.5 5.5 0 015.5-5.5h29.7a5.5 5.5 0 015.5 5.5v45.8a5.5 5.5 0 01-5.5 5.5zM576 129a4.9 4.9 0 00-4.9 4.9v45.8a4.9 4.9 0 004.9 4.9h29.7a4.9 4.9 0 005-4.9V134a4.9 4.9 0 00-5-4.9z" class="cls-13"/><g><path d="M610.2 152.4a16.6 16.6 0 01-1.4 5.1 28.4 28.4 0 01-24.2 15.5 15.2 15.2 0 01-8-2 20 20 0 0033.6-18.6zM589.8 142.4a20.7 20.7 0 0114.5-.2 20 20 0 00-33.5 14.6 20.3 20.3 0 00.9 6v-.2c-.2-7.3 7-16.6 18-20.2z" class="cls-14"/><path d="M590.5 171a19.6 19.6 0 004.7-2.6l-12-.1v-1c2.3-.8 4-1.3 5.3-2.8a6.3 6.3 0 001.3-4.3c-.6 2.2-1.6 3.2-3.6 3.2a5 5 0 01-3.7-1.7 5.7 5.7 0 01-1.6-4.2 12.2 12.2 0 012.4-6.4 30.5 30.5 0 017.8-7.4 31 31 0 017.6 7.7 12.4 12.4 0 012.2 6.4 5.7 5.7 0 01-1.7 4.2 5.2 5.2 0 01-3.7 1.6c-2 0-3-1.1-3.5-3.4 0 2.5.3 3.3 1.8 4.5a20.1 20.1 0 003.3 2.1c4-3.7 7.1-9 7.4-14.5.7-10.6-8.8-13.7-18.4-6-7.3 6-10.1 15-8 20.6 1.7 4.5 6.9 6.3 12.4 4.1z" class="cls-14"/></g><g><rect width="40.1" height="56.1" x="536.2" y="128.8" class="cls-13" rx="5.2"/><path d="M571.1 185.3h-29.7a5.5 5.5 0 01-5.5-5.5V134a5.5 5.5 0 015.5-5.5h29.7a5.5 5.5 0 015.5 5.5v45.8a5.5 5.5 0 01-5.5 5.5zM541.4 129a4.9 4.9 0 00-4.9 5v45.7a4.9 4.9 0 005 4.9H571a4.9 4.9 0 004.9-4.9V134a4.9 4.9 0 00-4.9-4.9z" class="cls-13"/><g><path d="M575.7 152.4a16.9 16.9 0 01-1.3 5.1A28.4 28.4 0 01550 173a15.2 15.2 0 01-8-2 20 20 0 0033.6-18.6zM555.3 142.4a20.7 20.7 0 0114.5-.2 20 20 0 00-32.6 20.6 1 1 0 010-.2c-.2-7.3 7-16.6 18.1-20.2z" class="cls-14"/><path d="M556 171a19.4 19.4 0 004.7-2.6l-12-.1v-1c2.4-.8 4-1.3 5.4-2.8a6.3 6.3 0 001.2-4.3c-.6 2.2-1.6 3.2-3.6 3.2a5 5 0 01-3.7-1.7 5.7 5.7 0 01-1.5-4.2 12.2 12.2 0 012.4-6.4 30.8 30.8 0 017.8-7.4 31.1 31.1 0 017.5 7.7 12.3 12.3 0 012.3 6.4 5.7 5.7 0 01-1.7 4.2 5.2 5.2 0 01-3.8 1.6c-2 0-2.9-1.1-3.4-3.4 0 2.5.2 3.3 1.7 4.5a19.7 19.7 0 003.3 2.1c4-3.7 7.1-9 7.5-14.5.6-10.6-8.9-13.7-18.4-6-7.4 6-10.2 15-8 20.6 1.7 4.5 6.8 6.3 12.4 4.1z" class="cls-14"/></g></g></g><g><path d="M336.7 82c0 8.6-8 15.6-17.7 15.6s-17.8-7-17.8-15.5v-3.6s9.3-12 17.7-12S336.8 78 336.8 78z" class="cls-1"/><g clip-path="url(#clip-path)"><path d="M309 88.6l-4.4-1.9v7.2l4.4 3.4v-8.7zM329.1 88.6l4.4-1.9v7.2l-4.4 3.4v-8.7z" class="cls-16"/></g><ellipse cx="318.9" cy="78" class="cls-1" rx="17.7" ry="15.6"/><g clip-path="url(#clip-path-2)"><ellipse cx="318.9" cy="77.7" class="cls-16" rx="12.9" ry="10.4"/><path d="M317.8 74l-2.7 2.4-1.6-1.9 4.3-3.7h2.7v13.4h-2.7z" class="cls-18"/><path d="M324.9 86.1l4.4-2.6 4.2 3.6-3.9 4.3-4.7-5.3zM313.1 86.3l-4.4-2.6-4.2 3.6 3.9 4.3 4.7-5.3zM306.9 65.4l-3 2.2 4.3 4.7 4.1-3.1-5.4-3.8zM331.3 65.4l3 2.2-4.3 4.7-4.2-3.1 5.5-3.8z" class="cls-16"/><g class="cls-19"><ellipse cx="318.9" cy="78.5" class="cls-18" rx="22.2" ry="17.2"/></g></g><g><path d="M336.7 76.4c0 8.6-8 15.6-17.7 15.6s-17.7-7-17.7-15.6V73s9.3-12 17.7-12 17.7 11.5 17.7 11.5z" class="cls-1"/><g clip-path="url(#clip-path-3)"><path d="M309 83l-4.4-1.9v7.2l4.4 3.3V83zM329.1 83l4.4-1.9v7.2l-4.4 3.3V83z" class="cls-16"/></g><g><ellipse cx="318.9" cy="72.4" class="cls-1" rx="17.7" ry="15.6"/><g clip-path="url(#clip-path-4)"><ellipse cx="318.9" cy="72" class="cls-16" rx="12.9" ry="10.4"/><path d="M317.8 68.4l-2.7 2.3-1.6-1.8 4.3-3.7h2.7v13.3h-2.7z" class="cls-18"/><path d="M324.9 80.5l4.4-2.6 4.2 3.6-3.9 4.2-4.7-5.2zM313.1 80.7l-4.4-2.7-4.2 3.6 3.9 4.3 4.7-5.2zM306.9 59.8l-3 2.1 4.3 4.7 4.1-3.1-5.4-3.7zM331.3 59.8l3 2.1-4.3 4.7-4.2-3.1 5.5-3.7z" class="cls-16"/><g class="cls-19"><ellipse cx="318.9" cy="72.9" class="cls-18" rx="22.2" ry="17.2"/></g></g></g></g><g><path d="M336.7 70.5c0 8.6-8 15.6-17.7 15.6s-17.8-7-17.8-15.6V67s9.3-12 17.8-12 17.7 11.6 17.7 11.6z" class="cls-1"/><g clip-path="url(#clip-path-5)"><path d="M309 77.1l-4.4-1.9v7.2l4.4 3.3v-8.6zM329.1 77.1l4.4-1.9v7.2l-4.4 3.3v-8.6z" class="cls-16"/></g><g><ellipse cx="318.9" cy="66.5" class="cls-2" rx="17.7" ry="15.6"/><g clip-path="url(#clip-path-6)"><ellipse cx="318.9" cy="66.2" class="cls-16" rx="12.9" ry="10.4"/><path d="M319.2 64.2a4.3 4.3 0 013.1 1 4 4 0 011.2 3 4.3 4.3 0 01-1.4 3.5 5.8 5.8 0 01-4 1.2 7.8 7.8 0 01-3.6-.7v-2.5a7 7 0 001.7.7 7.5 7.5 0 001.8.2c1.7 0 2.6-.7 2.6-2.1s-1-2-2.7-2a6.2 6.2 0 00-1 0 8 8 0 00-1 .3l-1.2-.6.5-6.9h7.3v2.4h-4.8l-.3 2.7h.3a6 6 0 011.5-.2z" class="cls-18"/><path d="M324.9 74.6l4.4-2.6 4.2 3.6-3.9 4.3-4.7-5.3zM313.1 74.8l-4.4-2.6-4.2 3.6 3.9 4.2 4.7-5.2zM306.9 53.9l-3 2.2 4.3 4.6 4.1-3-5.4-3.8zM331.3 53.9l3 2.2-4.3 4.6-4.2-3 5.5-3.8z" class="cls-16"/></g></g></g></g><g><path d="M360.1 96.4c0 8.6-8 15.6-17.7 15.6s-17.8-7-17.8-15.6V93s9.4-12 17.8-12S360 92.4 360 92.4z" class="cls-3"/><g clip-path="url(#clip-path-7)"><path d="M332.4 103l-4.4-1.9v7.2l4.4 3.3V103zM352.5 103l4.4-1.9v7.2l-4.4 3.3V103z" class="cls-16"/></g><g><ellipse cx="342.4" cy="92.4" class="cls-4" rx="17.7" ry="15.6"/><g clip-path="url(#clip-path-8)"><ellipse cx="342.4" cy="92.1" class="cls-16" rx="12.9" ry="10.4"/><path d="M341.2 88.4l-2.7 2.4-1.6-1.9 4.4-3.7h2.6v13.4h-2.7z" class="cls-18"/><path d="M348.3 100.5l4.4-2.6 4.2 3.6-3.9 4.3-4.7-5.3zM336.5 100.7l-4.4-2.6-4.2 3.6 3.9 4.2 4.7-5.2zM330.3 79.8l-3 2.2 4.3 4.6 4.2-3-5.5-3.8zM354.7 79.8l3 2.2-4.3 4.6-4.1-3 5.4-3.8z" class="cls-16"/></g></g></g><g><rect width="40.1" height="56.1" x="191.6" y="33.4" class="cls-13" rx="5.2"/><path d="M226.5 89.9h-29.8a5.5 5.5 0 01-5.4-5.5V38.6a5.5 5.5 0 015.4-5.5h29.8a5.5 5.5 0 015.5 5.5v45.8a5.5 5.5 0 01-5.5 5.5zm-29.8-56.2a4.9 4.9 0 00-4.8 5v45.7a4.9 4.9 0 004.9 4.9h29.7a4.9 4.9 0 004.9-4.9V38.6a4.9 4.9 0 00-5-4.9z" class="cls-13"/><g><path d="M231 57a16.6 16.6 0 01-1.3 5 28.4 28.4 0 01-24.3 15.6 15.2 15.2 0 01-7.9-2A20 20 0 00231.1 57zM210.6 47a20.7 20.7 0 0114.5-.1 20 20 0 00-32.6 20.5 1 1 0 010-.1c-.1-7.3 7-16.7 18.1-20.3z" class="cls-14"/><path d="M211.4 75.6a19.8 19.8 0 004.6-2.7h-12v-1c2.4-.9 4-1.4 5.4-2.9a6.3 6.3 0 001.2-4.2C210 67 209 68 207 68a5.1 5.1 0 01-3.7-1.7 5.7 5.7 0 01-1.6-4.2 12.2 12.2 0 012.5-6.4 30.7 30.7 0 017.8-7.4 31 31 0 017.5 7.7 12.4 12.4 0 012.3 6.4 5.7 5.7 0 01-1.7 4.2 5.2 5.2 0 01-3.8 1.5c-2 0-3-1-3.4-3.3 0 2.4.2 3.3 1.7 4.4a20.6 20.6 0 003.3 2.2c4-3.8 7.1-9 7.4-14.5.7-10.7-8.8-13.7-18.3-6-7.4 5.9-10.2 15-8.1 20.5 1.8 4.6 7 6.3 12.5 4.2z" class="cls-14"/></g><g><rect width="40.1" height="56.1" x="157.1" y="33.4" class="cls-13" rx="5.2"/><path d="M192 89.9h-29.7a5.5 5.5 0 01-5.5-5.5V38.6a5.5 5.5 0 015.5-5.5H192a5.5 5.5 0 015.5 5.5v45.8a5.5 5.5 0 01-5.5 5.5zm-29.7-56.2a4.9 4.9 0 00-5 5v45.7a4.9 4.9 0 005 4.9H192a4.9 4.9 0 004.9-4.9V38.6a4.9 4.9 0 00-4.9-4.9z" class="cls-13"/><g><path d="M196.6 57a16.6 16.6 0 01-1.4 5A28.4 28.4 0 01171 77.7a15.2 15.2 0 01-7.9-2A20 20 0 00196.6 57zM176.2 47a20.7 20.7 0 0114.5-.1A20 20 0 00158 67.4v-.1c-.2-7.3 6.9-16.7 18-20.3z" class="cls-14"/><path d="M177 75.6a19.6 19.6 0 004.6-2.7h-12v-1c2.3-.9 4-1.4 5.3-2.9a6.3 6.3 0 001.3-4.3c-.6 2.3-1.6 3.3-3.6 3.3a5 5 0 01-3.7-1.7 5.7 5.7 0 01-1.6-4.2 12.3 12.3 0 012.4-6.4 30.8 30.8 0 017.9-7.4 31 31 0 017.5 7.6 12.3 12.3 0 012.3 6.5 5.7 5.7 0 01-1.7 4.2 5.2 5.2 0 01-3.8 1.5c-2 0-3-1-3.4-3.3 0 2.4.2 3.3 1.7 4.4a20.1 20.1 0 003.3 2.2c4-3.8 7.1-9 7.4-14.5.7-10.7-8.8-13.7-18.3-6-7.4 5.9-10.2 15-8.1 20.5 1.7 4.6 6.8 6.3 12.4 4.2z" class="cls-14"/></g></g></g><g><path fill="#9b1d20" d="M257.9 112.7c0 6.3-6 11.5-13.2 11.5s-13.1-5.2-13.1-11.5V110s6.9-9 13.1-9 13.2 8.7 13.2 8.7z"/><ellipse cx="244.7" cy="109.7" class="cls-27" rx="13.2" ry="11.5"/><path d="M251.2 109a6.8 6.8 0 01-2 5.2 8 8 0 01-5.6 1.8h-4v-13.8h4.4a7.3 7.3 0 015.3 1.8 6.5 6.5 0 011.9 5zm-3 0q0-4.4-4-4.4h-1.5v9h1.2q4.2 0 4.2-4.5z" class="cls-16"/></g><g><rect width="40.1" height="56.1" x="383.5" y="62.2" class="cls-13" rx="5.2" transform="rotate(-13.2 403.6 90.3)"/><path d="M424.5 114.5l-29 6.8a5.5 5.5 0 01-6.6-4l-10.4-44.6a5.5 5.5 0 014-6.6l29-6.8a5.5 5.5 0 016.7 4l10.4 44.7a5.5 5.5 0 01-4.1 6.5zm-41.8-47.9a4.9 4.9 0 00-3.6 6l10.4 44.5a4.9 4.9 0 005.9 3.6l29-6.7a4.9 4.9 0 003.6-5.9l-10.4-44.6a4.9 4.9 0 00-6-3.6z" class="cls-13"/><path d="M421.4 81.5a16.5 16.5 0 01-.1 5.3 28.4 28.4 0 01-20.1 20.6 15 15 0 01-8.2-.1 20 20 0 0030-21.4 20.3 20.3 0 00-1.6-4.4zM399.3 76.4a20.7 20.7 0 0114-3.5A20 20 0 00384 94.7a19.6 19.6 0 002.3 5.7.9.9 0 010-.2c-1.9-7 3-17.8 13-23.8z" class="cls-14"/><path d="M406.5 104a19.3 19.3 0 004-3.6l-11.8 2.7-.2-1c2.1-1.3 3.5-2.2 4.5-4a6.2 6.2 0 00.3-4.5c0 2.4-.8 3.6-2.8 4a5 5 0 01-4-.8 5.7 5.7 0 01-2.5-3.7 12.2 12.2 0 011-6.8 31 31 0 015.8-9 31.1 31.1 0 019.2 5.8 12.3 12.3 0 013.6 5.7 5.7 5.7 0 01-.7 4.5 5.2 5.2 0 01-3.2 2.3c-2 .5-3.1-.3-4.2-2.4.5 2.4 1 3.2 2.7 4a20.9 20.9 0 003.7 1.3c3-4.5 4.9-10.4 4-15.8-1.8-10.6-11.8-11.4-19.3-1.7-5.8 7.5-6.5 17-3.2 21.9 2.8 4 8.2 4.5 13.1 1.1z" class="cls-14"/><rect width="40.1" height="56.1" x="389.3" y="51.8" class="cls-13" rx="5.2" transform="rotate(18.2 415.5 81.1)"/><path d="M414.5 111.5l-28.2-9.4a5.5 5.5 0 01-3.5-7l14.4-43.4a5.5 5.5 0 017-3.4l28.2 9.3a5.5 5.5 0 013.4 7L421.4 108a5.5 5.5 0 01-6.9 3.5zM404 48.8a4.9 4.9 0 00-6.2 3.1l-14.4 43.5a4.9 4.9 0 003.1 6.2l28.2 9.3a4.9 4.9 0 006.2-3l14.4-43.5a5 5 0 00-3-6.2z" class="cls-13"/><g><path d="M429.2 81.8a16.9 16.9 0 01-2.9 4.3 28.5 28.5 0 01-28 7.1 15.1 15.1 0 01-6.8-4.4 20 20 0 0036.8-2.5 19.6 19.6 0 00.9-4.5zM413 65.8c6.1 0 10.8 1.7 13.8 4.4a20 20 0 00-36.4 3.3 20.4 20.4 0 00-1 6 1.2 1.2 0 000-.2c2.2-7 11.9-13.6 23.6-13.5z" class="cls-14"/><path d="M404.7 93.2a19.9 19.9 0 005.2-1.1l-11.4-3.9.4-1c2.5 0 4.1 0 6-1a6.2 6.2 0 002.5-3.6c-1.3 2-2.5 2.6-4.4 2a5 5 0 01-3-2.8 5.7 5.7 0 01-.2-4.5 12.2 12.2 0 014.3-5.3 30.7 30.7 0 019.8-4.6 31 31 0 014.7 9.6 12.3 12.3 0 01.1 6.9 5.7 5.7 0 01-2.9 3.4 5.2 5.2 0 01-4 .3c-2-.6-2.5-2-2.3-4.3-.8 2.4-.8 3.3.2 4.8a19.9 19.9 0 002.5 3c5-2.2 9.6-6.3 11.7-11.3 4-10-4.1-15.8-15.6-11.5-8.8 3.3-14.4 11.1-14.1 17 .2 5 4.5 8.2 10.5 7.9z" class="cls-14"/></g><g><rect width="40.1" height="56.1" x="391.4" y="54.8" class="cls-13" rx="5.2" transform="rotate(11.9 411.4 82.9)"/><path d="M420.1 113.7l-29.1-6.1a5.5 5.5 0 01-4.2-6.5l9.4-44.8a5.5 5.5 0 016.5-4.2l29.1 6.1a5.5 5.5 0 014.2 6.5l-9.4 44.8a5.5 5.5 0 01-6.5 4.2zm-17.5-61a5 5 0 00-5.8 3.7l-9.4 44.8a4.9 4.9 0 003.8 5.8l29 6.1a4.9 4.9 0 005.9-3.7l9.4-44.8a4.9 4.9 0 00-3.8-5.8z" class="cls-13"/><g><path d="M431.4 82.5a16.5 16.5 0 01-2.4 4.7 28.4 28.4 0 01-27 10.2 15.1 15.1 0 01-7.3-3.6A20 20 0 00431 87a19.6 19.6 0 00.4-4.6zM413.5 68.5c6-.7 11 .5 14.2 2.8a20 20 0 00-35.8 7.3 20.2 20.2 0 00-.3 6.1v-.1c1.3-7.2 10.3-15 21.9-16.1z" class="cls-14"/><path d="M408.3 96.6a19 19 0 005.1-1.6l-11.7-2.5.2-1c2.5-.3 4.1-.5 5.8-1.7a6.3 6.3 0 002.1-4c-1 2.2-2.2 3-4.2 2.5a5.1 5.1 0 01-3.2-2.4 5.7 5.7 0 01-.7-4.5 12.2 12.2 0 013.7-5.7 31 31 0 019.2-5.7 31 31 0 015.8 9 12.3 12.3 0 01.8 6.9 5.7 5.7 0 01-2.5 3.7 5.2 5.2 0 01-4 .8c-2-.5-2.7-1.7-2.7-4-.5 2.4-.5 3.3.8 4.7a19.3 19.3 0 002.7 2.8c4.7-2.9 8.9-7.4 10.4-12.7 2.8-10.3-5.8-15.2-16.8-9.6-8.4 4.2-13 12.6-12.1 18.4.8 4.8 5.4 7.6 11.3 6.6z" class="cls-14"/></g></g><g><rect width="40.1" height="56.1" x="390.5" y="58.9" class="cls-13" rx="5.2" transform="rotate(18.3 410.6 87)"/><path d="M415.8 118.5l-28.2-9.3a5.5 5.5 0 01-3.5-7l14.4-43.4a5.5 5.5 0 017-3.5l28.1 9.4a5.5 5.5 0 013.5 7L422.7 115a5.5 5.5 0 01-7 3.4zM405.2 56A4.9 4.9 0 00399 59l-14.4 43.5a4.9 4.9 0 003.1 6.1L416 118a4.9 4.9 0 006.2-3.1l14.4-43.5a4.9 4.9 0 00-3.1-6.1z" class="cls-13"/><g><path d="M430.5 88.8a16.6 16.6 0 01-3 4.4 28.5 28.5 0 01-27.9 7 15.2 15.2 0 01-6.9-4.3 20 20 0 0036.8-2.6 19.6 19.6 0 001-4.5zM414.2 72.8c6.1 0 10.9 1.8 13.8 4.5a20 20 0 00-37.4 9.2.8.8 0 010-.1c2.2-7 12-13.7 23.6-13.6z" class="cls-14"/><path d="M406 100.2a20 20 0 005.2-1l-11.4-3.9.3-1c2.5 0 4.2 0 6-1a6.3 6.3 0 002.6-3.7c-1.3 2-2.6 2.6-4.5 2a5 5 0 01-3-2.7 5.7 5.7 0 01-.1-4.5 12.2 12.2 0 014.3-5.3 30.9 30.9 0 019.7-4.6A31.5 31.5 0 01420 84a12.4 12.4 0 010 6.8 5.7 5.7 0 01-2.8 3.5 5.1 5.1 0 01-4 .3c-2-.7-2.5-2-2.3-4.3-.8 2.3-.8 3.2.3 4.8a19.7 19.7 0 002.4 3c5-2.2 9.6-6.3 11.7-11.4 4-9.9-4.1-15.7-15.6-11.4-8.8 3.3-14.4 11.1-14.1 17 .1 4.9 4.5 8.1 10.5 7.8z" class="cls-14"/></g></g><g><rect width="40.1" height="56.1" x="374.1" y="54.5" class="cls-13" rx="5.2" transform="rotate(6.4 393.9 82.5)"/><path d="M405.7 112.4l-29.5-3.3a5.5 5.5 0 01-4.9-6l5.2-45.5a5.5 5.5 0 016-4.9l29.6 3.3a5.5 5.5 0 014.8 6l-5.1 45.6a5.5 5.5 0 01-6 4.8zm-23.3-59.1a4.9 4.9 0 00-5.4 4.3l-5 45.5a4.9 4.9 0 004.2 5.4l29.6 3.3a5 5 0 005.4-4.3l5.1-45.5a4.9 4.9 0 00-4.3-5.4z" class="cls-13"/><g><path d="M414 80.3a16.6 16.6 0 01-2 4.9c-5 8.8-17 13.6-25.8 12.7a15.2 15.2 0 01-7.7-2.9A20 20 0 00414 80.3zM394.8 68c6-1.2 11-.5 14.4 1.5a20 20 0 00-35 10.7 20.2 20.2 0 00.3 6c.7-7.4 8.8-15.9 20.3-18.2z" class="cls-14"/><path d="M392.3 96.5a19.4 19.4 0 005-2.1l-12-1.4.1-1c2.5-.5 4-.9 5.7-2.2a6.3 6.3 0 001.7-4.1c-.9 2.2-2 3-4 2.8a5 5 0 01-3.4-2 5.7 5.7 0 01-1.1-4.5 12.2 12.2 0 013-6 30.8 30.8 0 018.7-6.6 31.3 31.3 0 016.7 8.4 12.4 12.4 0 011.5 6.7 5.7 5.7 0 01-2.2 4 5.2 5.2 0 01-3.9 1.2c-2-.3-2.8-1.4-3-3.8-.4 2.5-.2 3.4 1.2 4.6a19.5 19.5 0 003 2.5c4.4-3.2 8-8.1 9-13.5 1.8-10.5-7.3-14.6-17.6-8-8 5-11.8 13.8-10.3 19.5 1.2 4.8 6.1 7 12 5.5z" class="cls-14"/></g></g><g><rect width="40.1" height="56.1" x="383" y="48.9" class="cls-13" rx="5.2" transform="rotate(8.8 402.9 76.9)"/><path d="M413.4 107.3l-29.4-4.6a5.5 5.5 0 01-4.6-6.2l7-45.3a5.5 5.5 0 016.3-4.6l29.4 4.6a5.5 5.5 0 014.5 6.2l-7 45.3a5.5 5.5 0 01-6.2 4.5zm-20.8-60a4.9 4.9 0 00-5.6 4l-7 45.3a4.9 4.9 0 004 5.5l29.5 4.6a4.9 4.9 0 005.5-4.1l7-45.2a4.9 4.9 0 00-4-5.6z" class="cls-13"/><g><path d="M423 75.5a16.7 16.7 0 01-2.1 4.8A28.5 28.5 0 01394.5 92a15 15 0 01-7.5-3.2 20 20 0 0036-13.2zM404.3 62.4c6-1 11 0 14.4 2.1A20 20 0 00383.3 80a.8.8 0 010-.2c1-7.2 9.5-15.4 21-17.3z" class="cls-14"/><path d="M400.7 90.8a19.6 19.6 0 005-1.9L393.8 87l.2-1c2.5-.4 4-.7 5.7-2a6.3 6.3 0 001.9-4c-1 2.1-2 3-4 2.7a5.2 5.2 0 01-3.4-2.3 5.7 5.7 0 01-.9-4.4 12.2 12.2 0 013.4-6 31 31 0 018.8-6 31.2 31.2 0 016.3 8.7 12.4 12.4 0 011.2 6.7 5.7 5.7 0 01-2.3 3.8 5.2 5.2 0 01-4 1c-2-.3-2.6-1.5-2.8-3.8-.4 2.4-.3 3.3 1 4.7a18.9 18.9 0 002.9 2.6c4.5-3 8.4-7.9 9.6-13.2 2.3-10.4-6.6-14.9-17.2-8.7-8.2 4.6-12.4 13.3-11.2 19 1 4.8 5.9 7.3 11.7 6z" class="cls-14"/></g></g></g><g><path d="M310.7 362.9h-2.8v-12.6H305V348h8.5v2.4h-2.9zM320.7 362.9l-.3-1.5h-.2a2.9 2.9 0 01-1 1.2 3 3 0 01-1.6.5 2.8 2.8 0 01-2.4-1 5.2 5.2 0 01-.8-3.1v-7.5h2.8v6.8a4.7 4.7 0 00.3 1.9 1 1 0 001 .6 1.3 1.3 0 001.3-.8 7.7 7.7 0 00.4-3v-5.5h2.7v11.4zM330 351.3a3.4 3.4 0 011 .1l-.3 2.6a2.2 2.2 0 00-.7 0 1.7 1.7 0 00-1.5.7 4 4 0 00-.6 2.3v5.9h-2.7v-11.4h2.3l.3 1.7a4.2 4.2 0 011-1.5 1.8 1.8 0 011.3-.4zM338 362.9V356a4.6 4.6 0 00-.3-1.9 1 1 0 00-1-.6 1.4 1.4 0 00-1.3.8 7.7 7.7 0 00-.4 3v5.5h-2.7v-11.4h2.1l.4 1.4h.1a2.8 2.8 0 012.7-1.6 2.7 2.7 0 012.3 1 5.2 5.2 0 01.8 3.1v7.5z"/></g><path fill="none" stroke="#000" stroke-miterlimit="10" d="M296.7 377h72.4V200.5"/><path fill="none" stroke="#fff" stroke-miterlimit="10" d="M369.1 308.9V197.2"/><g><rect width="40" height="56.1" x="263.3" y="132.9" class="cls-16" rx="5.2"/><path d="M298.1 189.3h-29.6a5.5 5.5 0 01-5.5-5.5v-45.7a5.5 5.5 0 015.5-5.5H298a5.5 5.5 0 015.5 5.5v45.7a5.5 5.5 0 01-5.5 5.5zm-29.6-56a4.9 4.9 0 00-5 4.8v45.7a4.9 4.9 0 005 4.9H298a4.9 4.9 0 005-4.9v-45.7a4.9 4.9 0 00-5-4.9z" class="cls-30"/><path d="M276.3 158.7h-3.9v-12.3l.2-4.5-.7.8c-.4.5-1.2 1.4-2.5 2.6l-2.1-2.3 5.5-5.1h3.4zM291 148.3q0 5.6-1.4 8.1a4.6 4.6 0 01-4.3 2.5 4.5 4.5 0 01-4.3-2.5q-1.3-2.5-1.3-8.2t1.4-8.1a5 5 0 018.6 0q1.3 2.4 1.3 8.2zm-7.5 0a29.4 29.4 0 00.4 5.8c.2 1 .7 1.6 1.4 1.6a1.2 1.2 0 001.1-.7 5.7 5.7 0 00.6-2.2 42.9 42.9 0 00.1-4.6 27.9 27.9 0 00-.4-5.8c-.2-1-.7-1.6-1.4-1.6s-1.2.5-1.4 1.6a29.7 29.7 0 00-.4 5.8zM298.7 169.3a4 4 0 00-8-.4v.1c0 .3 0 .3-.2.3s-.2 0-.2-.3v-.1a4 4 0 00-8 .4 3 3 0 00.1.5 12.4 12.4 0 002 5l3.5 5a34 34 0 012.7 5 34 34 0 012.7-5l3.5-5a12.5 12.5 0 002-5 3 3 0 00-.1-.5z" class="cls-27"/><g><rect width="40" height="56.1" x="220.9" y="132.9" class="cls-16" rx="5.2"/><path d="M255.7 189.3h-29.6a5.5 5.5 0 01-5.5-5.5v-45.7a5.5 5.5 0 015.5-5.5h29.6a5.5 5.5 0 015.5 5.5v45.7a5.5 5.5 0 01-5.5 5.5zm-29.6-56a4.9 4.9 0 00-5 4.8v45.7a4.9 4.9 0 005 4.9h29.6a4.9 4.9 0 005-4.9v-45.7a4.9 4.9 0 00-5-4.9z" class="cls-30"/><path d="M237.5 158.7l-1.2-5.3H231l-1.2 5.3h-3.9l5.2-21h5.3l5.1 21zm-2-8.7l-1-4.8-.5-2.2-.4-2.4a62.7 62.7 0 01-2 9.4zM253.3 172a3.7 3.7 0 00-2.5 1c-.2.2-.5.3-.6.2s1-1.4 1-1.4a3.7 3.7 0 001.4-2.8 3.7 3.7 0 10-6.2 2.8s1.3 1.2 1 1.4-.3 0-.5-.2a3.7 3.7 0 10.6 4.6s1-1.5.8.8c-.6 4.7-2.3 6.5-2.3 6.5h5.7s-1.7-1.8-2.2-6.5c-.3-2.3.7-.8.7-.8a3.7 3.7 0 103.2-5.6z" class="cls-18"/></g><g><rect width="40" height="56.1" x="305.7" y="132.9" class="cls-16" rx="5.2"/><path d="M340.6 189.3h-29.7a5.5 5.5 0 01-5.5-5.5v-45.7a5.5 5.5 0 015.5-5.5h29.7a5.5 5.5 0 015.4 5.5v45.7a5.5 5.5 0 01-5.4 5.5zm-29.7-56a4.9 4.9 0 00-5 4.8v45.7a4.9 4.9 0 005 4.9h29.7a4.9 4.9 0 004.8-4.9v-45.7a4.9 4.9 0 00-4.8-4.9z" class="cls-30"/><path d="M317.8 145.6a4.7 4.7 0 013.7 1.7 6.7 6.7 0 011.4 4.4 7.6 7.6 0 01-1.7 5.3 6.2 6.2 0 01-4.9 2 8.4 8.4 0 01-4.4-1v-3.7a7.4 7.4 0 001.9 1 6.4 6.4 0 002.1.4c2 0 3-1.2 3-3.6q0-3.3-3-3.3a7.8 7.8 0 00-2.4.4l-1.3-.9.7-10.4h8.8v3.4h-5.5l-.3 4.5a9 9 0 011.9-.2zM340.5 176.4l-2.4-3a38.8 38.8 0 01-5.2-8 39.4 39.4 0 01-5.2 8l-2.4 3a3.7 3.7 0 106.3 4l.3-.3c.2 0 0 .2 0 .4a10.2 10.2 0 01-1.8 4.4h5.6a10.2 10.2 0 01-1.9-4.4v-.4l.3.3a3.7 3.7 0 106.3-4z" class="cls-18"/></g><g><rect width="40" height="56.1" x="348.1" y="132.9" class="cls-16" rx="5.2"/><path d="M383 189.3h-29.7a5.5 5.5 0 01-5.5-5.5v-45.7a5.5 5.5 0 015.5-5.5H383a5.5 5.5 0 015.5 5.5v45.7a5.5 5.5 0 01-5.5 5.5zm-29.7-56a4.9 4.9 0 00-4.9 4.8v45.7a4.9 4.9 0 005 4.9H383a4.9 4.9 0 004.9-4.9v-45.7a4.9 4.9 0 00-4.9-4.9z" class="cls-30"/><path d="M365.4 147q0 12-8 12a9 9 0 01-2.2-.3v-3.3a5.8 5.8 0 001.8.3 4.2 4.2 0 003.6-1.6 9.4 9.4 0 001.3-5.2 4 4 0 01-1.4 1.8 3.3 3.3 0 01-2 .6 3.7 3.7 0 01-3.3-1.8 10 10 0 01.4-10 5 5 0 014-2 4.8 4.8 0 014.4 2.4 13.3 13.3 0 011.4 7zm-5.7-6a1.5 1.5 0 00-1.4.8 6.5 6.5 0 00-.5 3 5.9 5.9 0 00.4 2.5 1.4 1.4 0 001.4 1 1.7 1.7 0 001.4-1 3.8 3.8 0 00.6-2.1 7.7 7.7 0 00-.5-3c-.4-1-.9-1.3-1.4-1.3zM383.5 169.3a4 4 0 00-8-.4v.1c0 .3 0 .3-.2.3s-.2 0-.2-.3a.6.6 0 000-.1 4 4 0 00-8 .4 4.4 4.4 0 00.1.5 12.6 12.6 0 002 5l3.5 5a34 34 0 012.7 5 34 34 0 012.7-5l3.5-5a12.5 12.5 0 002-5 4.4 4.4 0 00-.1-.5z" class="cls-27"/></g></g></g></g></g></svg>